<svg width="288" height="182" viewBox="0 0 288 182" fill="none" xmlns="http://www.w3.org/2000/svg">
<rect width="288" height="182" fill="url(#paint0_linear_1_1279)"/>
<path d="M233.206 60.4534C230.273 49.4949 226.324 46.4981 224.716 46.3694H288V182H135C137.315 179.749 144.222 173.743 153.329 167.723C164.712 160.199 182.656 153.639 206.387 141.677C230.119 129.716 238.608 108.493 238.608 92.48C238.608 76.4667 236.871 74.1515 233.206 60.4534Z" fill="#226E86"/>
<path d="M212.431 39.3885C204.546 28.273 210.048 20.348 213.784 17.7749L288 24.5292V182H214.944C215.652 181.228 218.809 178.218 225.767 172.351C234.464 165.018 250.119 145.527 250.119 118.124C250.119 90.7209 222.288 53.283 212.431 39.3885Z" fill="#2D93B3"/>
<path d="M197.791 0H288V182H266.945C268.361 180.519 272.701 175.276 278.728 166.157C286.261 154.758 297.079 113.025 245.889 73.0318C194.7 33.0382 196.439 10.4331 196.439 6.18259C196.439 2.78217 197.34 0.64402 197.791 0Z" fill="#38B8E0"/>
<defs>
<linearGradient id="paint0_linear_1_1279" x1="144" y1="0" x2="144" y2="182" gradientUnits="userSpaceOnUse">
<stop stop-color="#41ABCC"/>
<stop offset="1" stop-color="#2D93B3"/>
</linearGradient>
</defs>
</svg>
