<svg width="304" height="198" viewBox="0 0 304 198" fill="none" xmlns="http://www.w3.org/2000/svg">
<rect width="304" height="198" fill="white"/>
<rect x="8" y="8" width="288" height="182" fill="url(#paint0_linear_1_1278)"/>
<path d="M241.206 68.4534C238.273 57.4949 234.324 54.4981 232.716 54.3694H296V190H143C145.315 187.749 152.222 181.743 161.329 175.723C172.712 168.199 190.656 161.639 214.387 149.677C238.119 137.716 246.608 116.493 246.608 100.48C246.608 84.4667 244.871 82.1515 241.206 68.4534Z" fill="#226E86"/>
<path d="M220.431 47.3885C212.546 36.273 218.048 28.348 221.784 25.7749L296 32.5292V190H222.944C223.652 189.228 226.809 186.218 233.767 180.351C242.464 173.018 258.119 153.527 258.119 126.124C258.119 98.7209 230.288 61.283 220.431 47.3885Z" fill="#2D93B3"/>
<path d="M205.791 8H296V190H274.945C276.361 188.519 280.701 183.276 286.728 174.157C294.261 162.758 305.079 121.025 253.889 81.0318C202.7 41.0382 204.439 18.4331 204.439 14.1826C204.439 10.7822 205.34 8.64402 205.791 8Z" fill="#38B8E0"/>
<defs>
<linearGradient id="paint0_linear_1_1278" x1="152" y1="8" x2="152" y2="190" gradientUnits="userSpaceOnUse">
<stop stop-color="#41ABCC"/>
<stop offset="1" stop-color="#2D93B3"/>
</linearGradient>
</defs>
</svg>
