<svg width="304" height="198" viewBox="0 0 304 198" fill="none" xmlns="http://www.w3.org/2000/svg">
<rect width="304" height="198" fill="white"/>
<rect x="8" y="8" width="288" height="182" fill="url(#paint0_linear_1_2362)"/>
<path fill-rule="evenodd" clip-rule="evenodd" d="M103.148 8H8V190H129.858H178.182C175.989 185.685 170.372 182.679 165.884 182.045C165.275 181.96 164.67 181.88 164.072 181.801C157.277 180.902 151.385 180.123 149.792 172.275C149.438 170.529 149.107 168.747 148.774 166.944C149.008 167.541 149.488 168.122 149.964 168.7C150.381 169.205 150.795 169.706 151.039 170.211C152.904 174.118 156.689 177.3 160.952 178.202C163.165 178.774 165.374 178.9 167.545 179.025C169.538 179.139 171.498 179.251 173.4 179.704C179.218 180.486 183.577 184.972 186.316 189.988H187.518C185.34 185.642 182.579 181.531 177.452 179.575C176.371 179.141 175.254 178.8 174.115 178.556C174.57 178.437 175.02 178.294 175.46 178.127C175.806 177.997 176.145 177.85 176.482 177.7C176.787 177.991 177.109 178.264 177.446 178.517C180.642 180.69 184.694 180.813 188.26 180.059C192.022 179.277 195.594 177.764 198.773 175.605C198.965 176.181 199.143 176.772 199.321 177.36C199.627 178.375 199.932 179.385 200.302 180.305C202.306 185.312 208.088 187.893 213.105 186.739C214.204 186.579 215.289 186.364 216.369 186.149C218.835 185.66 221.278 185.175 223.814 185.357C221.204 184.965 218.614 185.424 216.041 185.879C214.823 186.094 213.609 186.309 212.399 186.433C210.95 186.617 209.48 186.541 208.058 186.207C204.721 185.345 202.078 182.7 200.969 179.563C200.66 178.812 200.411 178.037 200.224 177.246C205.229 183.536 218.293 179.903 220.128 172.474C218.926 175.656 214.354 175.801 211.897 174.136C209.347 172.408 208.175 168.726 207.857 165.937C206.92 157.784 205.853 149.905 196.659 147.248C194.189 146.533 192.153 146.299 190.326 146.407C194.036 144.604 198.088 144.405 201.741 146.59C207.334 149.565 207.581 156.612 207.644 162.866L207.66 163.079C207.89 166.093 208.177 169.855 211.179 171.846C214.21 173.73 217.758 172.994 220.792 172.32C224.952 171.043 230.404 170.577 232.849 174.743C235.352 178.472 234.868 183.569 233.012 187.578C235.343 183.494 235.988 177.859 232.948 173.613C229.401 169.201 223.237 170.608 218.932 171.734C215.523 172.336 211.233 172.089 210.02 168.642C209.065 166.121 209.09 163.309 209.116 160.419C209.13 158.871 209.144 157.3 209.008 155.741C208.905 151.173 206.238 146.287 201.855 144.108C197.668 141.86 191.888 142.058 188.037 144.922C185.746 146.464 183.646 147.852 181.429 148.859C181.798 142.999 178.834 136.838 172.745 134.897C171.639 134.696 170.513 134.554 169.395 134.419C171.005 131.354 170.897 126.963 168.702 123.979C165.397 120.126 161.264 118.768 157.125 118.131C157.191 116.818 157.257 115.504 157.263 114.224C157.25 114.012 157.259 113.667 157.27 113.217C157.328 110.822 157.459 105.434 154.923 101.05C155.167 98.9138 155.219 96.7604 155.076 94.6154C155.301 96.8994 155.581 99.1623 156.515 101.227C159.131 106.976 164.864 108.994 169.188 110.516C172.312 111.616 174.7 112.456 174.646 114.257C174.718 111.793 172.757 109.786 167.046 107.526C163.865 106.267 161.324 104.139 162.105 100.794C165.803 85.0139 158.587 70.8144 144.157 63.629C141.135 62.1259 137.996 61.2909 134.89 60.4645C132.543 59.8401 130.214 59.2207 127.969 58.3218C126.407 57.7079 124.907 56.9482 123.487 56.0529C123.001 55.4669 122.661 55.2024 122.478 55.3557C120.288 53.7209 118.573 51.5902 118.188 48.8164C117.85 46.4086 118.757 44.2688 119.672 42.1092C120.432 40.3146 121.199 38.5063 121.261 36.5192C121.61 25.2197 113.511 15.0652 103.148 8ZM179.87 149.499C180.654 145.069 178.308 140.282 174.874 137.746C173.084 136.562 170.855 136.348 168.491 136.162C168.297 136.519 168.102 136.868 167.911 137.21C166.847 139.113 165.893 140.821 165.695 142.731C164.009 148.982 170.705 151.81 176.665 150.308C177.757 150.143 178.83 149.872 179.87 149.499ZM162.188 136.078C160.943 139.257 159.683 142.471 160.537 145.887C162.414 153.388 169.957 157.057 176.752 152.874L176.782 152.856C174.207 153.265 171.575 153.152 169.044 152.525C164.058 151.582 161.859 145.421 163.189 141.235C163.643 139.221 164.556 137.478 165.424 135.862C164.44 135.733 163.47 135.516 162.526 135.212C162.414 135.501 162.301 135.789 162.188 136.078ZM166.383 134.028C167.055 132.655 167.539 131.339 167.467 129.977C167.353 126.065 164.935 123.922 161.588 122.681C162.19 123.304 162.696 124.013 163.09 124.784C164.604 127.706 164.157 130.512 163.216 133.316C164.252 133.633 165.311 133.871 166.383 134.028ZM155.064 116.994C155.233 113.703 155.399 110.474 154.983 107.324C154.85 106.354 154.632 105.398 154.331 104.466C153.738 107.273 152.67 109.957 151.174 112.403C150.267 113.824 148.892 115.261 147.465 116.751C147.38 116.84 147.294 116.93 147.209 117.019C148.774 117.31 150.472 117.456 152.232 117.608C153.148 117.686 154.08 117.767 155.019 117.87C155.034 117.577 155.049 117.285 155.064 116.994ZM154.806 92.1001C154.612 90.6901 154.325 89.2947 153.946 87.9229C154.377 89.2816 154.665 90.6816 154.806 92.1001ZM74.0873 119.605C76.1456 116.529 78.0607 113.666 81.8504 112.58C85.4384 111.548 89.425 111.846 93.1751 112.125C93.7922 112.171 94.4029 112.217 95.0044 112.256C95.5404 112.289 96.1162 112.334 96.7193 112.381C99.2184 112.577 102.186 112.809 104.734 112.349C105.607 110.437 106.616 108.59 107.753 106.822L109.21 105.067C109.111 104.921 109.01 104.774 108.908 104.626C108.089 103.434 107.215 102.163 107.044 100.701C106.915 99.6049 107.83 99.2666 108.864 98.8842C110.072 98.4372 111.443 97.9299 111.502 96.082C111.579 93.6141 109.476 92.6093 107.555 91.6911C107.385 91.6097 107.216 91.529 107.05 91.448C109.759 91.5201 115.293 88.7734 114.121 85.2633C113.794 84.2821 113.035 83.7101 112.385 83.2204C111.276 82.3842 110.486 81.7883 112.706 79.8059C113.24 79.329 114.058 78.9434 114.909 78.5418C115.679 78.1791 116.476 77.8034 117.116 77.3356L118.218 74.1892C117.653 72.4896 115.952 70.4393 114.796 69.0457C114.497 68.6848 114.234 68.368 114.037 68.1127C113.22 67.0524 112.386 65.9916 111.552 64.9307C110.315 63.3576 109.077 61.7843 107.897 60.2121C104.376 55.518 103.565 51.3137 105.025 45.673C106.097 41.3254 106.231 36.7995 105.419 32.3961C105.177 31.1319 104.836 29.8889 104.397 28.6787C103.219 25.6643 101.622 22.8314 99.6514 20.2642C100.997 25.992 100.958 31.9874 99.1948 37.6191C97.3203 43.6114 94.7971 47.7346 90.6848 52.4046C87.9682 55.4888 84.3986 58.2197 81.0358 60.7923C80.4274 61.2578 79.8257 61.7182 79.237 62.1745C84.4758 58.0814 91.1924 52.2724 93.7878 46.0456C95.6892 41.4748 95.7073 37.2134 95.3468 32.7597C95.1335 39.5424 92.3159 45.67 88.4379 51.5632C87.3173 53.1784 86.0117 54.6569 84.5478 55.9688C83.8171 56.6549 83.0966 57.373 82.3719 58.0952C80.1861 60.2734 77.9624 62.4895 75.3049 63.9836C73.6793 64.9065 71.9404 65.6137 70.1322 66.0872C70.6985 65.7671 71.3091 65.5076 71.9219 65.2471C72.4826 65.0088 73.0452 64.7696 73.5777 64.4824C74.6463 63.8792 75.6775 63.2118 76.6657 62.484C78.2477 61.3617 79.6582 60.0154 80.8531 58.4871C81.3612 57.8476 81.8863 57.2098 82.4136 56.5693C83.601 55.1271 84.7995 53.6713 85.8395 52.1522C86.5452 51.1159 87.1589 50.025 87.7729 48.9336C87.9744 48.5754 88.176 48.2172 88.3808 47.8608C89.5733 45.7782 90.6848 43.6175 91.3486 41.2974C92.5592 37.0541 92.6223 32.6605 92.6223 28.282C92.6012 40.6123 85.437 53.0357 76.2451 60.8101C73.6592 62.9961 70.4884 63.881 67.307 64.769C65.0781 65.391 62.8441 66.0146 60.8022 67.0879C56.4195 69.3899 53.9714 75.0517 57.9545 79.1087C59.7899 80.9749 63.004 82.2251 64.2056 79.0305C65.8637 74.6099 58.8677 74.7151 60.0001 77.7654C58.5343 74.099 63.0371 71.0878 66.3083 72.9571C70.3395 75.262 71.7303 81.1763 67.9214 84.3137C61.4961 89.6118 48.0327 84.8786 51.1147 75.1569C46.8861 83.4852 52.3045 89.2484 57.9989 95.3049C62.757 100.366 67.7078 105.631 67.3837 112.77C66.9001 123.399 54.5211 128.355 47.4259 119.682C45.918 117.846 44.9237 115.255 46.0742 112.983C46.9723 111.204 49.82 110.191 51.6914 110.63C52.89 110.91 54.2297 111.604 54.8305 112.713C55.5965 114.092 55.3952 115.688 53.8662 116.319C53.1663 116.604 52.4033 116.58 52.0068 115.934C52.5445 116.734 53.8452 115.354 52.6076 114.519C51.0306 113.452 50.4748 116.06 50.8563 117.091C51.9648 120.081 56.8311 120.866 59.0479 118.738C59.7559 118.043 60.2902 117.192 60.6075 116.252C60.9249 115.312 61.0163 114.311 60.8743 113.329C60.4098 110.157 57.1917 108.44 54.5559 107.033C54.26 106.876 53.9715 106.722 53.695 106.57C50.9555 105.067 48.5884 103.487 46.6239 101.287C48.3301 103.793 49.3424 106.336 46.8882 109.1C43.9805 112.385 42.5236 115.592 45.4283 119.646C47.513 122.564 51.0576 124.153 54.2898 125.355C50.8143 124.415 46.0411 122.687 44.0976 119.276C43.0913 117.542 42.4905 115.174 42.7909 113.139C42.9857 111.865 43.6194 110.888 44.2811 109.868C44.7114 109.205 45.1535 108.523 45.4944 107.73C46.5037 105.395 45.8068 102.026 44.383 99.2615C45.5815 102.101 45.4013 105.437 44.2899 108.208C43.836 109.338 43.3672 110.425 42.9062 111.494C41.3473 115.11 39.8765 118.522 39.3665 122.678C38.6906 128.171 39.4536 135.017 42.4575 139.765C45.7017 144.895 56.002 149.051 58.7926 141.124C59.6036 138.822 59.2792 136.033 56.6628 135.161C55.3261 134.717 53.5328 134.669 52.9711 136.258C52.6587 137.148 53.2624 138.587 54.3799 138.197C55.6475 137.758 54.1366 135.955 53.722 136.799C54.1907 135.841 55.0708 135.675 55.8248 136.61C56.4436 137.379 56.3474 138.632 56.011 139.51C55.0828 141.893 52.3373 141.292 50.5349 140.577C45.6506 138.644 47.5521 131.261 51.9437 130.059C55.239 129.151 60.0422 130.479 62.8508 132.649C61.4803 131.527 59.9454 130.621 58.3 129.965C54.5331 128.436 50.0183 127.561 47.1466 131.258C45.4373 133.457 45.4373 136.919 46.6569 139.324C47.5401 141.07 49.8921 142.365 51.8506 142.329C51.1057 142.885 48.6785 141.821 48.0207 141.382C46.4945 140.38 45.4224 138.818 45.0348 137.034C44.7246 135.627 44.7052 134.172 44.9777 132.757C46.8161 124.241 57.4769 127.249 62.6255 130.503C64.2882 131.569 65.7554 132.913 66.9631 134.476C68.1377 131.107 69.3873 127.769 70.688 124.448C69.9049 125.309 70.4897 124.489 72.4422 121.987C73.0227 121.196 73.5597 120.394 74.0873 119.605ZM151.751 167.575C153.217 171.145 155.145 174.217 158.924 175.867C160.372 176.508 161.9 176.954 163.466 177.192C162.437 176.674 161.458 176.063 160.54 175.368C157.043 173.886 153.889 170.908 151.751 167.575ZM165.19 176.375C167.237 177.23 169.447 177.622 171.663 177.522C172.982 177.443 174.279 177.149 175.502 176.651C174.689 175.653 174.046 174.527 173.601 173.318C171.099 175.124 168.377 176.408 165.19 176.375ZM180.999 179.341C183.022 179.888 185.137 180.007 187.208 179.689C191.286 179.016 195.191 177.544 198.698 175.356C197.734 172.528 196.391 170.148 193.066 170.124C188.942 169.902 185.613 172.099 182.161 174.377C180.612 175.4 179.037 176.438 177.356 177.282C178.383 178.257 179.634 178.964 180.999 179.341ZM198.179 171.713C197.762 169.477 197.346 167.25 195.676 165.565V165.568C192.234 162.088 187.719 162.049 183.958 164.585C182.116 165.83 180.365 167.44 178.593 169.068C177.272 170.283 175.94 171.509 174.55 172.6C174.924 173.931 175.558 175.176 176.415 176.26C178.237 175.373 179.993 174.357 181.669 173.219C185.725 170.626 190.981 167.473 196.28 170.025C197.036 170.503 197.691 171.126 198.206 171.858L198.179 171.713Z" fill="url(#paint1_linear_1_2362)"/>
<defs>
<linearGradient id="paint0_linear_1_2362" x1="152" y1="8" x2="152" y2="190" gradientUnits="userSpaceOnUse">
<stop stop-color="#C57180"/>
<stop offset="1" stop-color="#A65664"/>
</linearGradient>
<linearGradient id="paint1_linear_1_2362" x1="8" y1="99" x2="235" y2="99" gradientUnits="userSpaceOnUse">
<stop stop-color="#AF5F6D"/>
<stop offset="1" stop-color="#682B41"/>
</linearGradient>
</defs>
</svg>
