<svg width="288" height="182" viewBox="0 0 288 182" fill="none" xmlns="http://www.w3.org/2000/svg">
<rect width="288" height="182" fill="url(#paint0_linear_1_2363)"/>
<path fill-rule="evenodd" clip-rule="evenodd" d="M95.1479 0H0V182H121.858H170.182C167.989 177.685 162.372 174.679 157.884 174.045C157.275 173.96 156.67 173.88 156.072 173.801C149.277 172.902 143.385 172.123 141.792 164.275C141.438 162.529 141.107 160.747 140.774 158.944C141.008 159.541 141.488 160.122 141.964 160.7C142.381 161.205 142.795 161.706 143.039 162.211C144.904 166.118 148.689 169.3 152.952 170.202C155.165 170.774 157.374 170.9 159.545 171.025C161.538 171.139 163.498 171.251 165.4 171.704C171.218 172.486 175.577 176.972 178.316 181.988H179.518C177.34 177.642 174.579 173.531 169.452 171.575C168.371 171.141 167.254 170.8 166.115 170.556C166.57 170.437 167.02 170.294 167.46 170.127C167.806 169.997 168.145 169.85 168.482 169.7C168.787 169.991 169.109 170.264 169.446 170.517C172.642 172.69 176.694 172.813 180.26 172.059C184.022 171.277 187.594 169.764 190.773 167.605C190.965 168.181 191.143 168.772 191.321 169.36C191.627 170.375 191.932 171.385 192.302 172.305C194.306 177.312 200.088 179.893 205.105 178.739C206.204 178.579 207.289 178.364 208.369 178.149C210.835 177.66 213.278 177.175 215.814 177.357C213.204 176.965 210.614 177.424 208.041 177.879C206.823 178.094 205.609 178.309 204.399 178.433C202.95 178.617 201.48 178.541 200.058 178.207C196.721 177.345 194.078 174.7 192.969 171.563C192.66 170.812 192.411 170.037 192.224 169.246C197.229 175.536 210.293 171.903 212.128 164.474C210.926 167.656 206.354 167.801 203.897 166.136C201.347 164.408 200.175 160.726 199.857 157.937C198.92 149.784 197.853 141.905 188.659 139.248C186.189 138.533 184.153 138.299 182.326 138.407C186.036 136.604 190.088 136.405 193.741 138.59C199.334 141.565 199.581 148.612 199.644 154.866L199.66 155.079C199.89 158.093 200.177 161.855 203.179 163.846C206.21 165.73 209.758 164.994 212.792 164.32C216.952 163.043 222.404 162.577 224.849 166.743C227.352 170.472 226.868 175.569 225.012 179.578C227.343 175.494 227.988 169.859 224.948 165.613C221.401 161.201 215.237 162.608 210.932 163.734C207.523 164.336 203.233 164.089 202.02 160.642C201.065 158.121 201.09 155.309 201.116 152.419C201.13 150.871 201.144 149.3 201.008 147.741C200.905 143.173 198.238 138.287 193.855 136.108C189.668 133.86 183.888 134.058 180.037 136.922C177.746 138.464 175.646 139.852 173.429 140.859C173.798 134.999 170.834 128.838 164.745 126.897C163.639 126.696 162.513 126.554 161.395 126.419C163.005 123.354 162.897 118.963 160.702 115.979C157.397 112.126 153.264 110.768 149.125 110.131C149.191 108.818 149.257 107.504 149.263 106.224C149.25 106.012 149.259 105.667 149.27 105.217C149.328 102.822 149.459 97.4339 146.923 93.0495C147.167 90.9138 147.219 88.7604 147.076 86.6154C147.301 88.8994 147.581 91.1623 148.515 93.2268C151.131 98.9758 156.864 100.994 161.188 102.516C164.312 103.616 166.7 104.456 166.646 106.257C166.718 103.793 164.757 101.786 159.046 99.5257C155.865 98.2665 153.324 96.1389 154.105 92.7941C157.803 77.0139 150.587 62.8144 136.157 55.629C133.135 54.1259 129.996 53.2909 126.89 52.4645C124.543 51.8401 122.214 51.2207 119.969 50.3218C118.407 49.7079 116.907 48.9482 115.487 48.0529C115.001 47.4669 114.661 47.2024 114.478 47.3557C112.288 45.7209 110.573 43.5902 110.188 40.8164C109.85 38.4086 110.757 36.2688 111.672 34.1092C112.432 32.3146 113.199 30.5063 113.261 28.5192C113.61 17.2197 105.511 7.06519 95.1479 0ZM171.87 141.499C172.654 137.069 170.308 132.282 166.874 129.746C165.084 128.562 162.855 128.348 160.491 128.162C160.297 128.519 160.102 128.868 159.911 129.21C158.847 131.113 157.893 132.821 157.695 134.731C156.009 140.982 162.705 143.81 168.665 142.308C169.757 142.143 170.83 141.872 171.87 141.499ZM154.188 128.078C152.943 131.257 151.683 134.471 152.537 137.887C154.414 145.388 161.957 149.057 168.752 144.874L168.782 144.856C166.207 145.265 163.575 145.152 161.044 144.525C156.058 143.582 153.859 137.421 155.189 133.235C155.643 131.221 156.556 129.478 157.424 127.862C156.44 127.733 155.47 127.516 154.526 127.212C154.414 127.501 154.301 127.789 154.188 128.078ZM158.383 126.028C159.055 124.655 159.539 123.339 159.467 121.977C159.353 118.065 156.935 115.922 153.588 114.681C154.19 115.304 154.696 116.013 155.09 116.784C156.604 119.706 156.157 122.512 155.216 125.316C156.252 125.633 157.311 125.871 158.383 126.028ZM147.064 108.994C147.233 105.703 147.399 102.474 146.983 99.3244C146.85 98.3543 146.632 97.3979 146.331 96.4664C145.738 99.2726 144.67 101.957 143.174 104.403C142.267 105.824 140.892 107.261 139.465 108.751C139.38 108.84 139.294 108.93 139.209 109.019C140.774 109.31 142.472 109.456 144.232 109.608C145.148 109.686 146.08 109.767 147.019 109.87C147.034 109.577 147.049 109.285 147.064 108.994ZM146.806 84.1001C146.612 82.6901 146.325 81.2947 145.946 79.9229C146.377 81.2816 146.665 82.6816 146.806 84.1001ZM66.0873 111.605C68.1456 108.529 70.0607 105.666 73.8504 104.58C77.4384 103.548 81.425 103.846 85.1751 104.125C85.7922 104.171 86.4029 104.217 87.0044 104.256C87.5404 104.289 88.1162 104.334 88.7193 104.381C91.2184 104.577 94.1857 104.809 96.7339 104.349C97.6073 102.437 98.6162 100.59 99.7528 98.8225L101.21 97.0675C101.111 96.9213 101.01 96.774 100.908 96.6255C100.089 95.4342 99.2148 94.1626 99.0439 92.7009C98.9151 91.6049 99.8297 91.2666 100.864 90.8842C102.072 90.4372 103.443 89.9299 103.502 88.082C103.579 85.6141 101.476 84.6093 99.555 83.6911C99.3846 83.6097 99.2157 83.529 99.0499 83.448C101.759 83.5201 107.293 80.7734 106.121 77.2633C105.794 76.2821 105.035 75.7101 104.385 75.2204C103.276 74.3842 102.486 73.7883 104.706 71.8059C105.24 71.329 106.058 70.9434 106.909 70.5418C107.679 70.1791 108.476 69.8034 109.116 69.3356L110.218 66.1892C109.653 64.4896 107.952 62.4393 106.796 61.0457C106.497 60.6848 106.234 60.368 106.037 60.1127C105.22 59.0524 104.386 57.9916 103.552 56.9307C102.315 55.3576 101.077 53.7843 99.897 52.2121C96.3765 47.518 95.5654 43.3137 97.0253 37.673C98.0966 33.3254 98.2307 28.7995 97.4188 24.3961C97.177 23.1319 96.8355 21.8889 96.3975 20.6787C95.2194 17.6643 93.6215 14.8314 91.6514 12.2642C92.9971 17.992 92.958 23.9874 91.1948 29.6191C89.3203 35.6114 86.7971 39.7346 82.6848 44.4046C79.9682 47.4888 76.3986 50.2197 73.0358 52.7923C72.4274 53.2578 71.8257 53.7182 71.237 54.1745C76.4758 50.0814 83.1924 44.2724 85.7878 38.0456C87.6892 33.4748 87.7073 29.2134 87.3468 24.7597C87.1335 31.5424 84.3159 37.67 80.4379 43.5632C79.3173 45.1784 78.0117 46.6569 76.5478 47.9688C75.8171 48.6549 75.0966 49.373 74.3719 50.0952C72.1861 52.2734 69.9624 54.4895 67.3049 55.9836C65.6793 56.9065 63.9404 57.6137 62.1322 58.0872C62.6985 57.7671 63.3091 57.5076 63.9219 57.2471C64.4826 57.0088 65.0452 56.7696 65.5777 56.4824C66.6463 55.8792 67.6775 55.2118 68.6657 54.484C70.2477 53.3617 71.6582 52.0154 72.8531 50.4871C73.3612 49.8476 73.8863 49.2098 74.4136 48.5693C75.601 47.1271 76.7995 45.6713 77.8395 44.1522C78.5452 43.1159 79.1589 42.025 79.7729 40.9336C79.9744 40.5754 80.176 40.2172 80.3808 39.8608C81.5733 37.7782 82.6848 35.6175 83.3486 33.2974C84.5592 29.0541 84.6223 24.6605 84.6223 20.282C84.6012 32.6123 77.437 45.0357 68.2451 52.8101C65.6592 54.9961 62.4884 55.881 59.307 56.769C57.0781 57.391 54.8441 58.0146 52.8022 59.0879C48.4195 61.3899 45.9714 67.0517 49.9545 71.1087C51.7899 72.9749 55.004 74.2251 56.2056 71.0305C57.8637 66.6099 50.8677 66.7151 52.0001 69.7654C50.5343 66.099 55.0371 63.0878 58.3083 64.9571C62.3395 67.262 63.7303 73.1763 59.9214 76.3137C53.4961 81.6118 40.0327 76.8786 43.1147 67.1569C38.8861 75.4852 44.3045 81.2484 49.9989 87.3049C54.757 92.3658 59.7078 97.6315 59.3837 104.77C58.9001 115.399 46.5211 120.355 39.4259 111.682C37.918 109.846 36.9237 107.255 38.0742 104.983C38.9723 103.204 41.82 102.191 43.6914 102.63C44.89 102.91 46.2297 103.604 46.8305 104.713C47.5965 106.092 47.3952 107.688 45.8662 108.319C45.1663 108.604 44.4033 108.58 44.0068 107.934C44.5445 108.734 45.8452 107.354 44.6076 106.519C43.0306 105.452 42.4748 108.06 42.8563 109.091C43.9648 112.081 48.8311 112.866 51.0479 110.738C51.7559 110.043 52.2902 109.192 52.6075 108.252C52.9249 107.312 53.0163 106.311 52.8743 105.329C52.4098 102.157 49.1917 100.44 46.5559 99.0335C46.26 98.8756 45.9715 98.7217 45.695 98.5701C42.9555 97.0675 40.5884 95.4867 38.6239 93.2869C40.3301 95.7933 41.3424 98.3357 38.8882 101.1C35.9805 104.385 34.5236 107.592 37.4283 111.646C39.513 114.564 43.0576 116.153 46.2898 117.355C42.8143 116.415 38.0411 114.687 36.0976 111.276C35.0913 109.542 34.4905 107.174 34.7909 105.139C34.9857 103.865 35.6194 102.888 36.2811 101.868C36.7114 101.205 37.1535 100.523 37.4944 99.7301C38.5037 97.395 37.8068 94.0262 36.383 91.2615C37.5815 94.1013 37.4013 97.4371 36.2899 100.208C35.836 101.338 35.3672 102.425 34.9062 103.494C33.3473 107.11 31.8765 110.522 31.3665 114.678C30.6906 120.171 31.4536 127.017 34.4575 131.765C37.7017 136.895 48.002 141.051 50.7926 133.124C51.6036 130.822 51.2792 128.033 48.6628 127.161C47.3261 126.717 45.5328 126.669 44.9711 128.258C44.6587 129.148 45.2624 130.587 46.3799 130.197C47.6475 129.758 46.1366 127.955 45.722 128.799C46.1907 127.841 47.0708 127.675 47.8248 128.61C48.4436 129.379 48.3474 130.632 48.011 131.51C47.0828 133.893 44.3373 133.292 42.5349 132.577C37.6506 130.644 39.5521 123.261 43.9437 122.059C47.239 121.151 52.0422 122.479 54.8508 124.649C53.4803 123.527 51.9454 122.621 50.3 121.965C46.5331 120.436 42.0183 119.561 39.1466 123.258C37.4373 125.457 37.4373 128.919 38.6569 131.324C39.5401 133.07 41.8921 134.365 43.8506 134.329C43.1057 134.885 40.6785 133.821 40.0207 133.382C38.4945 132.38 37.4224 130.818 37.0348 129.034C36.7246 127.627 36.7052 126.172 36.9777 124.757C38.8161 116.241 49.4769 119.249 54.6255 122.503C56.2882 123.569 57.7554 124.913 58.9631 126.476C60.1377 123.107 61.3873 119.769 62.688 116.448C61.9049 117.309 62.4897 116.489 64.4422 113.987C65.0227 113.196 65.5597 112.394 66.0873 111.605ZM143.751 159.575C145.217 163.145 147.145 166.217 150.924 167.867C152.372 168.508 153.9 168.954 155.466 169.192C154.437 168.674 153.458 168.063 152.54 167.368C149.043 165.886 145.889 162.908 143.751 159.575ZM157.19 168.375C159.237 169.23 161.447 169.622 163.663 169.522C164.982 169.443 166.279 169.149 167.502 168.651C166.689 167.653 166.046 166.527 165.601 165.318C163.099 167.124 160.377 168.408 157.19 168.375ZM172.999 171.341C175.022 171.888 177.137 172.007 179.208 171.689C183.286 171.016 187.191 169.544 190.698 167.356C189.734 164.528 188.391 162.148 185.066 162.124C180.942 161.902 177.613 164.099 174.161 166.377C172.612 167.4 171.037 168.438 169.356 169.282C170.383 170.257 171.634 170.964 172.999 171.341ZM190.179 163.713C189.762 161.477 189.346 159.25 187.676 157.565V157.568C184.234 154.088 179.719 154.049 175.958 156.585C174.116 157.83 172.365 159.44 170.593 161.068C169.272 162.283 167.94 163.509 166.55 164.6C166.924 165.931 167.558 167.176 168.415 168.26C170.237 167.373 171.993 166.357 173.669 165.219C177.725 162.626 182.981 159.473 188.28 162.025C189.036 162.503 189.691 163.126 190.206 163.858L190.179 163.713Z" fill="url(#paint1_linear_1_2363)"/>
<defs>
<linearGradient id="paint0_linear_1_2363" x1="144" y1="0" x2="144" y2="182" gradientUnits="userSpaceOnUse">
<stop stop-color="#C57180"/>
<stop offset="1" stop-color="#A65664"/>
</linearGradient>
<linearGradient id="paint1_linear_1_2363" x1="-8.45641e-07" y1="91" x2="227" y2="91" gradientUnits="userSpaceOnUse">
<stop stop-color="#AF5F6D"/>
<stop offset="1" stop-color="#682B41"/>
</linearGradient>
</defs>
</svg>
