<svg width="304" height="198" viewBox="0 0 304 198" fill="none" xmlns="http://www.w3.org/2000/svg">
<rect width="304" height="198" fill="white"/>
<rect x="8" y="8" width="288" height="182" fill="url(#paint0_linear_1_1654)"/>
<path fill-rule="evenodd" clip-rule="evenodd" d="M294.601 14.3718L289.645 9.40773C287.962 8.50931 286.041 8 284 8H257.314L296 46.7456V20C296 17.9661 295.494 16.0504 294.601 14.3718ZM296 68.2171V99.1897L204.951 8H235.876L296 68.2171ZM183.512 8L296 120.662V151.634L152.587 8H183.512ZM131.148 8L296 173.106V178C296 184.627 290.627 190 284 190H281.943L100.223 8H131.148ZM74.4211 8L256.141 190H225.216L43.4962 8H74.4211ZM22.0573 8L203.777 190H172.852L8 24.8936V8H22.0573ZM8 46.3656L151.413 190H120.488L8 77.3382V46.3656ZM8 98.8097L99.0498 190H68.125L8 129.782V98.8097ZM8 151.255L46.6856 190H15.7607L8 182.227V151.255Z" fill="#C85F7A" fill-opacity="0.5"/>
<mask id="mask0_1_1654" style="mask-type:alpha" maskUnits="userSpaceOnUse" x="8" y="8" width="288" height="182">
<rect x="8" y="8" width="288" height="182" fill="url(#paint1_linear_1_1654)"/>
</mask>
<g mask="url(#mask0_1_1654)">
<path d="M134.837 21.2514L136.412 22.8818L134.13 24.0371L132.555 22.4077L134.837 21.2514Z" fill="#A7475F"/>
<path d="M123.441 116.788L125.009 118.409L122.985 119.441L121.419 117.82L123.441 116.788Z" fill="#A7475F"/>
<path d="M120.805 118.132L122.371 119.754L120.165 120.879L118.6 119.257L120.805 118.132Z" fill="#A7475F"/>
<path d="M117.991 119.567L119.559 121.189L117.268 122.357L115.702 120.736L117.991 119.567Z" fill="#A7475F"/>
<path d="M115.087 121.048L116.654 122.67L114.651 123.691L113.084 122.07L115.087 121.048Z" fill="#A7475F"/>
<path d="M106.527 115.283L108.074 116.885L110.081 115.866L108.534 114.265L106.527 115.283Z" fill="#A7475F"/>
<path d="M108.547 117.374L110.254 119.14L112.261 118.123L110.556 116.358L108.547 117.374Z" fill="#A7475F"/>
<path d="M110.723 119.626L112.607 121.577L114.611 120.555L112.729 118.607L110.723 119.626Z" fill="#A7475F"/>
<path d="M124.619 109.239L126.312 110.995L124.137 112.098L122.441 110.342L124.619 109.239Z" fill="#A7475F"/>
<path d="M121.826 110.653L123.522 112.41L121.23 113.573L119.531 111.815L121.826 110.653Z" fill="#A7475F"/>
<path d="M118.927 112.12L120.628 113.878L118.603 114.905L116.902 113.145L118.927 112.12Z" fill="#A7475F"/>
<path d="M121.095 114.362L119.071 115.39L120.942 117.327L122.964 116.295L121.095 114.362Z" fill="#A7475F"/>
<path d="M116.287 113.457L117.988 115.217L115.782 116.337L114.081 114.573L116.287 113.457Z" fill="#A7475F"/>
<path d="M118.456 115.702L116.25 116.822L118.124 118.764L120.328 117.639L118.456 115.702Z" fill="#A7475F"/>
<path d="M113.464 114.886L115.168 116.648L112.875 117.811L111.171 116.047L113.464 114.886Z" fill="#A7475F"/>
<path d="M115.636 117.133L113.344 118.296L115.225 120.242L117.514 119.074L115.636 117.133Z" fill="#A7475F"/>
<path d="M123.99 112.894L121.698 114.057L123.564 115.989L125.852 114.822L123.99 112.894Z" fill="#A7475F"/>
<path d="M107.625 107.881L109.33 109.648L111.529 108.532L109.824 106.768L107.625 107.881Z" fill="#A7475F"/>
<path d="M109.178 110.455L106.888 111.614L108.673 113.461L110.963 112.3L109.178 110.455Z" fill="#A7475F"/>
<path d="M111.584 111.984L109.803 110.138L112.004 109.024L113.786 110.869L111.584 111.984Z" fill="#A7475F"/>
<path d="M111.439 112.792L109.149 113.954L110.696 115.555L112.987 114.393L111.439 112.792Z" fill="#A7475F"/>
<path d="M113.605 114.08L112.06 112.477L114.262 111.361L115.809 112.962L113.605 114.08Z" fill="#A7475F"/>
<path d="M125.223 105.804L126.766 107.404L124.761 108.421L123.216 106.822L125.223 105.804Z" fill="#A7475F"/>
<path d="M122.591 107.138L124.135 108.739L121.959 109.843L120.413 108.242L122.591 107.138Z" fill="#A7475F"/>
<path d="M119.798 108.554L121.344 110.154L119.051 111.317L117.505 109.717L119.798 108.554Z" fill="#A7475F"/>
<path d="M116.9 110.024L118.447 111.623L116.423 112.65L114.877 111.049L116.9 110.024Z" fill="#A7475F"/>
<path d="M108.412 104.358L109.969 105.969L111.99 104.946L110.431 103.335L108.412 104.358Z" fill="#A7475F"/>
<path d="M110.439 106.456L112.144 108.221L114.165 107.196L112.461 105.433L110.439 106.456Z" fill="#A7475F"/>
<path d="M112.619 108.713L114.401 110.557L116.424 109.531L114.641 107.688L112.619 108.713Z" fill="#A7475F"/>
<path d="M126.502 98.3259L128.194 100.076L126.004 101.187L124.311 99.4353L126.502 98.3259Z" fill="#A7475F"/>
<path d="M123.696 99.7463L125.389 101.5L123.11 102.656L121.414 100.902L123.696 99.7463Z" fill="#A7475F"/>
<path d="M120.795 101.215L122.49 102.971L120.481 103.991L118.783 102.233L120.795 101.215Z" fill="#A7475F"/>
<path d="M122.971 103.47L120.961 104.488L122.74 106.329L124.747 105.311L122.971 103.47Z" fill="#A7475F"/>
<path d="M118.162 102.547L119.859 104.306L117.679 105.412L115.98 103.652L118.162 102.547Z" fill="#A7475F"/>
<path d="M120.339 104.803L118.158 105.908L119.937 107.749L122.116 106.645L120.339 104.803Z" fill="#A7475F"/>
<path d="M115.364 103.963L117.065 105.724L114.771 106.888L113.068 105.125L115.364 103.963Z" fill="#A7475F"/>
<path d="M117.543 106.219L115.248 107.381L117.028 109.224L119.322 108.061L117.543 106.219Z" fill="#A7475F"/>
<path d="M125.873 102L123.593 103.155L125.371 104.994L127.649 103.839L125.873 102Z" fill="#A7475F"/>
<path d="M109.534 96.9785L111.227 98.7321L113.414 97.6249L111.721 95.8694L109.534 96.9785Z" fill="#A7475F"/>
<path d="M111.082 99.5302L108.786 100.693L110.564 102.534L112.859 101.369L111.082 99.5302Z" fill="#A7475F"/>
<path d="M113.474 101.058L111.697 99.2183L113.884 98.112L115.658 99.9503L113.474 101.058Z" fill="#A7475F"/>
<path d="M113.335 101.862L111.04 103.027L112.598 104.639L114.894 103.476L113.335 101.862Z" fill="#A7475F"/>
<path d="M115.509 103.165L113.95 101.55L116.133 100.444L117.693 102.06L115.509 103.165Z" fill="#A7475F"/>
<path d="M127.103 94.8816L128.668 96.5047L126.644 97.5297L125.079 95.9084L127.103 94.8816Z" fill="#A7475F"/>
<path d="M124.466 96.2186L126.032 97.8389L123.841 98.9482L122.277 97.3284L124.466 96.2186Z" fill="#A7475F"/>
<path d="M121.662 97.6402L123.226 99.2593L120.943 100.415L119.379 98.7976L121.662 97.6402Z" fill="#A7475F"/>
<path d="M118.765 99.1093L120.325 100.727L118.312 101.747L116.751 100.131L118.765 99.1093Z" fill="#A7475F"/>
<path d="M110.289 93.443L111.849 95.0577L113.869 94.0349L112.31 92.4182L110.289 93.443Z" fill="#A7475F"/>
<path d="M112.334 95.559L114.029 97.313L116.046 96.2917L114.351 94.5349L112.334 95.559Z" fill="#A7475F"/>
<path d="M114.499 97.8001L116.275 99.6378L118.289 98.6165L116.516 96.7788L114.499 97.8001Z" fill="#A7475F"/>
<path d="M128.392 87.4135L130.096 89.1769L127.885 90.297L126.183 88.5341L128.392 87.4135Z" fill="#A7475F"/>
<path d="M125.568 88.8459L127.27 90.6079L125.001 91.7571L123.3 89.9966L125.568 88.8459Z" fill="#A7475F"/>
<path d="M122.689 90.3065L124.388 92.0676L122.361 93.0941L120.662 91.3339L122.689 90.3065Z" fill="#A7475F"/>
<path d="M124.858 92.5547L122.831 93.5812L124.603 95.4156L126.627 94.3888L124.858 92.5547Z" fill="#A7475F"/>
<path d="M120.048 91.6455L121.747 93.4047L119.558 94.5137L117.86 92.7559L120.048 91.6455Z" fill="#A7475F"/>
<path d="M122.218 93.8917L120.028 95.0007L121.801 96.8357L123.99 95.7259L122.218 93.8917Z" fill="#A7475F"/>
<path d="M117.245 93.0676L118.943 94.8246L116.657 95.9828L114.959 94.2268L117.245 93.0676Z" fill="#A7475F"/>
<path d="M119.413 95.3117L117.127 96.4689L118.903 98.305L121.186 97.1474L119.413 95.3117Z" fill="#A7475F"/>
<path d="M127.74 91.095L125.472 92.2441L127.243 94.0768L129.51 92.9272L127.74 91.095Z" fill="#A7475F"/>
<path d="M111.405 86.0721L113.114 87.842L115.302 86.7337L113.591 84.9631L111.405 86.0721Z" fill="#A7475F"/>
<path d="M112.976 88.6465L110.686 89.8077L112.444 91.6259L114.732 90.4652L112.976 88.6465Z" fill="#A7475F"/>
<path d="M115.346 90.1535L113.591 88.3347L115.778 87.2264L117.534 89.0433L115.346 90.1535Z" fill="#A7475F"/>
<path d="M115.202 90.9515L112.914 92.112L114.476 93.7278L116.764 92.5699L115.202 90.9515Z" fill="#A7475F"/>
<path d="M117.38 92.258L115.816 90.6397L118.004 89.5303L119.569 91.15L117.38 92.258Z" fill="#A7475F"/>
<path d="M128.977 83.9644L130.549 85.5928L128.528 86.6162L126.955 84.9904L128.977 83.9644Z" fill="#A7475F"/>
<path d="M126.348 85.2984L127.919 86.9237L125.708 88.0428L124.14 86.4187L126.348 85.2984Z" fill="#A7475F"/>
<path d="M123.525 86.7306L125.093 88.3547L122.824 89.5031L121.256 87.8805L123.525 86.7306Z" fill="#A7475F"/>
<path d="M120.647 88.1898L122.212 89.8122L120.184 90.8391L118.619 89.2185L120.647 88.1898Z" fill="#A7475F"/>
<path d="M112.208 82.5787L113.732 84.157L115.763 83.1276L114.236 81.5447L112.208 82.5787Z" fill="#A7475F"/>
<path d="M114.208 84.6498L115.918 86.4206L117.948 85.3915L116.239 83.6204L114.208 84.6498Z" fill="#A7475F"/>
<path d="M116.394 86.9134L118.149 88.7314L120.177 87.7027L118.423 85.8851L116.394 86.9134Z" fill="#A7475F"/>
<path d="M130.281 76.5014L131.991 78.2712L129.784 79.3902L128.074 77.6195L130.281 76.5014Z" fill="#A7475F"/>
<path d="M127.459 77.9313L129.169 79.702L126.891 80.8572L125.181 79.0865L127.459 77.9313Z" fill="#A7475F"/>
<path d="M124.566 79.3982L126.276 81.169L124.252 82.1948L122.541 80.4253L124.566 79.3982Z" fill="#A7475F"/>
<path d="M126.752 81.6617L124.729 82.6874L126.485 84.5035L128.507 83.4782L126.752 81.6617Z" fill="#A7475F"/>
<path d="M121.936 80.7317L123.647 82.5023L121.438 83.6217L119.728 81.851L121.936 80.7317Z" fill="#A7475F"/>
<path d="M124.123 82.995L121.914 84.1145L123.669 85.9317L125.878 84.8114L124.123 82.995Z" fill="#A7475F"/>
<path d="M119.113 82.1629L120.823 83.9336L118.554 85.0846L116.844 83.314L119.113 82.1629Z" fill="#A7475F"/>
<path d="M121.299 84.4263L119.03 85.5773L120.786 87.3944L123.054 86.2435L121.299 84.4263Z" fill="#A7475F"/>
<path d="M129.645 80.1947L127.367 81.3499L129.122 83.1664L131.399 82.0113L129.645 80.1947Z" fill="#A7475F"/>
<path d="M113.271 75.166L115.003 76.9595L117.206 75.8363L115.477 74.0464L113.271 75.166Z" fill="#A7475F"/>
<path d="M114.866 77.7662L112.6 78.922L114.36 80.744L116.627 79.5883L114.866 77.7662Z" fill="#A7475F"/>
<path d="M117.24 79.2751L115.48 77.453L117.683 76.3297L119.443 78.1517L117.24 79.2751Z" fill="#A7475F"/>
<path d="M117.103 80.0818L114.837 81.2374L116.368 82.8213L118.637 81.6701L117.103 80.0818Z" fill="#A7475F"/>
<path d="M119.252 81.3583L117.717 79.7694L119.92 78.6451L121.46 80.2391L119.252 81.3583Z" fill="#A7475F"/>
<path d="M130.877 73.0582L132.438 74.6735L130.404 75.7046L128.847 74.0928L130.877 73.0582Z" fill="#A7475F"/>
<path d="M128.249 74.3983L129.805 76.0079L127.598 77.1268L126.047 75.5213L128.249 74.3983Z" fill="#A7475F"/>
<path d="M125.433 75.8338L126.983 77.4386L124.705 78.5937L123.16 76.9932L125.433 75.8338Z" fill="#A7475F"/>
<path d="M122.546 77.3065L124.09 78.9055L122.065 79.9327L120.523 78.3384L122.546 77.3065Z" fill="#A7475F"/>
<path d="M114.034 71.6277L115.607 73.2549L117.638 72.2247L116.065 70.5971L114.034 71.6277Z" fill="#A7475F"/>
<path d="M116.077 73.7411L117.807 75.53L119.832 74.4966L118.108 72.7117L116.077 73.7411Z" fill="#A7475F"/>
<path d="M118.284 76.0233L120.046 77.845L122.069 76.8131L120.309 74.9909L118.284 76.0233Z" fill="#A7475F"/>
<path d="M132.16 65.5811L133.863 67.342L131.657 68.4671L129.951 66.7015L132.16 65.5811Z" fill="#A7475F"/>
<path d="M129.336 67.0133L131.043 68.7804L128.767 69.9406L127.058 68.1695L129.336 67.0133Z" fill="#A7475F"/>
<path d="M126.451 68.4772L128.163 70.2485L126.133 71.2839L124.418 69.5091L126.451 68.4772Z" fill="#A7475F"/>
<path d="M128.64 70.7418L126.61 71.7774L128.371 73.5994L130.4 72.5647L128.64 70.7418Z" fill="#A7475F"/>
<path d="M123.819 69.8131L125.535 71.5886L123.334 72.7115L121.615 70.9314L123.819 69.8131Z" fill="#A7475F"/>
<path d="M126.012 72.0828L123.81 73.2049L125.57 75.0271L127.772 73.9049L126.012 72.0828Z" fill="#A7475F"/>
<path d="M121 71.2441L122.72 73.0248L120.446 74.1842L118.722 72.3991L121 71.2441Z" fill="#A7475F"/>
<path d="M123.197 73.5182L120.923 74.6776L122.683 76.4998L124.957 75.3404L123.197 73.5182Z" fill="#A7475F"/>
<path d="M133.28 71.0958L131.52 69.2737L129.243 70.4349L131.002 72.2575L133.28 71.0958Z" fill="#A7475F"/>
<path d="M115.16 64.2492L116.871 66.0206L119.075 64.9033L117.363 63.1313L115.16 64.2492Z" fill="#A7475F"/>
<path d="M116.732 66.8251L114.454 67.9803L116.211 69.799L118.488 68.6438L116.732 66.8251Z" fill="#A7475F"/>
<path d="M119.103 68.332L117.347 66.5133L119.551 65.396L121.307 67.2138L119.103 68.332Z" fill="#A7475F"/>
<path d="M118.958 69.1294L116.68 70.2853L118.252 71.9129L120.53 70.757L118.958 69.1294Z" fill="#A7475F"/>
<path d="M121.145 70.4452L119.572 68.8176L121.776 67.6993L123.349 69.3269L121.145 70.4452Z" fill="#A7475F"/>
<path d="M132.75 62.1305L134.323 63.7578L132.29 64.7896L130.718 63.1621L132.75 62.1305Z" fill="#A7475F"/>
<path d="M130.116 63.4669L131.689 65.0941L129.481 66.2153L127.908 64.5869L130.116 63.4669Z" fill="#A7475F"/>
<path d="M127.294 64.8995L128.866 66.5271L126.588 67.6831L125.017 66.0543L127.294 64.8995Z" fill="#A7475F"/>
<path d="M124.409 66.3635L125.981 67.991L123.948 69.022L122.375 67.3945L124.409 66.3635Z" fill="#A7475F"/>
<path d="M115.921 60.715L117.492 62.3411L119.525 61.3092L117.955 59.6839L115.921 60.715Z" fill="#A7475F"/>
<path d="M117.962 62.8273L119.674 64.5993L121.708 63.5681L119.996 61.7954L117.962 62.8273Z" fill="#A7475F"/>
<path d="M120.151 65.092L121.907 66.9098L123.94 65.8787L122.184 64.0608L120.151 65.092Z" fill="#A7475F"/>
<path d="M134.03 54.6739L135.746 56.4512L133.558 57.5606L131.842 55.7842L134.03 54.6739Z" fill="#A7475F"/>
<path d="M131.224 56.0979L132.94 57.8743L130.653 59.0336L128.938 57.258L131.224 56.0979Z" fill="#A7475F"/>
<path d="M128.334 57.5648L130.05 59.3385L128.019 60.3689L126.305 58.594L128.334 57.5648Z" fill="#A7475F"/>
<path d="M130.526 59.8312L128.495 60.8616L130.25 62.6779L132.282 61.6472L130.526 59.8312Z" fill="#A7475F"/>
<path d="M125.7 58.9012L127.415 60.675L125.209 61.7931L123.495 60.0197L125.7 58.9012Z" fill="#A7475F"/>
<path d="M127.892 61.1676L125.685 62.2866L127.44 64.1028L129.648 62.9837L127.892 61.1676Z" fill="#A7475F"/>
<path d="M122.881 60.3323L124.594 62.1049L122.32 63.2581L120.609 61.4849L122.881 60.3323Z" fill="#A7475F"/>
<path d="M125.07 62.5984L122.795 63.751L124.549 65.5693L126.825 64.4147L125.07 62.5984Z" fill="#A7475F"/>
<path d="M133.416 58.367L131.129 59.5263L132.883 61.3419L135.17 60.1825L133.416 58.367Z" fill="#A7475F"/>
<path d="M117.036 53.3351L118.744 55.1028L120.947 53.9858L119.239 52.2198L117.036 53.3351Z" fill="#A7475F"/>
<path d="M118.6 55.9016L116.332 57.0514L118.095 58.8782L120.364 57.7279L118.6 55.9016Z" fill="#A7475F"/>
<path d="M120.979 57.4161L119.215 55.5898L121.417 54.4719L123.183 56.2987L120.979 57.4161Z" fill="#A7475F"/>
<path d="M120.84 58.2206L118.57 59.3711L120.139 60.9978L122.41 59.8453L120.84 58.2206Z" fill="#A7475F"/>
<path d="M123.025 59.5335L121.455 57.9088L123.659 56.7905L125.23 58.4142L123.025 59.5335Z" fill="#A7475F"/>
<path d="M134.643 51.2227L136.21 52.8427L134.177 53.8744L132.61 52.2525L134.643 51.2227Z" fill="#A7475F"/>
<path d="M131.994 52.5656L133.56 54.1877L131.372 55.298L129.804 53.6755L131.994 52.5656Z" fill="#A7475F"/>
<path d="M129.186 53.9892L130.754 55.6117L128.467 56.7718L126.899 55.1485L129.186 53.9892Z" fill="#A7475F"/>
<path d="M126.294 55.4549L127.864 57.0779L125.834 58.1078L124.265 56.4838L126.294 55.4549Z" fill="#A7475F"/>
<path d="M117.806 49.7985L119.378 51.4253L121.403 50.3973L119.832 48.7729L117.806 49.7985Z" fill="#A7475F"/>
<path d="M119.848 51.9115L121.554 53.6779L123.581 52.6494L121.876 50.8856L119.848 51.9115Z" fill="#A7475F"/>
<path d="M122.024 54.164L123.789 55.9912L125.818 54.9623L124.052 53.1364L122.024 54.164Z" fill="#A7475F"/>
<path d="M135.917 43.7785L137.612 45.5325L135.428 46.641L133.731 44.8846L135.917 43.7785Z" fill="#A7475F"/>
<path d="M133.116 45.1965L134.813 46.9528L132.531 48.1099L130.832 46.3523L133.116 45.1965Z" fill="#A7475F"/>
<path d="M130.228 46.6576L131.929 48.4157L129.898 49.4459L128.197 47.6853L130.228 46.6576Z" fill="#A7475F"/>
<path d="M132.399 48.9027L130.368 49.9321L132.134 51.7599L134.166 50.7301L132.399 48.9027Z" fill="#A7475F"/>
<path d="M127.583 47.997L129.283 49.7578L127.093 50.8688L125.39 49.1068L127.583 47.997Z" fill="#A7475F"/>
<path d="M129.753 50.244L127.563 51.3549L129.328 53.1828L131.518 52.072L129.753 50.244Z" fill="#A7475F"/>
<path d="M124.771 49.4197L126.474 51.1825L124.187 52.3418L122.483 50.5776L124.771 49.4197Z" fill="#A7475F"/>
<path d="M126.944 51.6687L124.658 52.8288L126.423 54.6559L128.71 53.4965L126.944 51.6687Z" fill="#A7475F"/>
<path d="M135.283 47.4399L133.001 48.5969L134.767 50.4247L137.049 49.2685L135.283 47.4399Z" fill="#A7475F"/>
<path d="M118.943 42.4343L120.635 44.1848L122.828 43.0721L121.137 41.3214L118.943 42.4343Z" fill="#A7475F"/>
<path d="M120.488 44.9869L118.201 46.1455L119.968 47.9747L122.254 46.8147L120.488 44.9869Z" fill="#A7475F"/>
<path d="M122.872 46.501L121.107 44.674L123.301 43.5628L125.065 45.3887L122.872 46.501Z" fill="#A7475F"/>
<path d="M122.728 47.306L120.441 48.4646L122.011 50.0893L124.297 48.9292L122.728 47.306Z" fill="#A7475F"/>
<path d="M124.915 48.6155L123.348 46.993L125.541 45.8821L127.106 47.5035L124.915 48.6155Z" fill="#A7475F"/>
<path d="M136.527 40.319L138.085 41.9323L136.063 42.9587L134.503 41.344L136.527 40.319Z" fill="#A7475F"/>
<path d="M133.873 41.6624L135.433 43.2779L133.25 44.3862L131.688 42.7692L133.873 41.6624Z" fill="#A7475F"/>
<path d="M131.073 43.0811L132.635 44.698L130.353 45.856L128.789 44.237L131.073 43.0811Z" fill="#A7475F"/>
<path d="M128.184 44.5434L129.749 46.1621L127.721 47.1919L126.155 45.5715L128.184 44.5434Z" fill="#A7475F"/>
<path d="M119.704 38.8955L121.265 40.5101L123.29 39.4822L121.729 37.8685L119.704 38.8955Z" fill="#A7475F"/>
<path d="M121.748 41.0106L123.44 42.7619L125.467 41.7336L123.774 39.9834L121.748 41.0106Z" fill="#A7475F"/>
<path d="M123.914 43.2525L125.678 45.0773L127.705 44.0487L125.942 42.2256L123.914 43.2525Z" fill="#A7475F"/>
<path d="M137.807 32.8661L139.498 34.6166L137.306 35.7289L135.616 33.9771L137.807 32.8661Z" fill="#A7475F"/>
<path d="M135.009 34.285L136.702 36.0352L134.414 37.1958L132.721 35.4456L135.009 34.285Z" fill="#A7475F"/>
<path d="M132.115 35.7532L133.807 37.5037L131.784 38.5301L130.092 36.7788L132.115 35.7532Z" fill="#A7475F"/>
<path d="M134.286 37.9999L132.262 39.0249L134.02 40.8441L136.043 39.8176L134.286 37.9999Z" fill="#A7475F"/>
<path d="M129.463 37.098L131.154 38.8493L128.971 39.9566L127.28 38.2052L129.463 37.098Z" fill="#A7475F"/>
<path d="M131.633 39.3442L129.448 40.45L131.207 42.2715L133.391 41.1633L131.633 39.3442Z" fill="#A7475F"/>
<path d="M126.665 38.5169L128.356 40.2684L126.073 41.4268L124.381 39.6755L126.665 38.5169Z" fill="#A7475F"/>
<path d="M128.833 40.7619L126.549 41.9188L128.31 43.7415L130.593 42.5832L128.833 40.7619Z" fill="#A7475F"/>
<path d="M137.183 36.5336L134.894 37.6927L136.651 39.5094L138.939 38.348L137.183 36.5336Z" fill="#A7475F"/>
<path d="M120.824 31.5215L122.518 33.275L124.701 32.1704L123.005 30.4148L120.824 31.5215Z" fill="#A7475F"/>
<path d="M122.373 34.0732L120.087 35.2305L121.862 37.0676L124.147 35.9096L122.373 34.0732Z" fill="#A7475F"/>
<path d="M124.762 35.5978L122.988 33.7613L125.171 32.6559L126.944 34.4915L124.762 35.5978Z" fill="#A7475F"/>
<path d="M124.623 36.4023L122.338 37.5602L123.897 39.1742L126.181 38.0157L124.623 36.4023Z" fill="#A7475F"/>
<path d="M126.795 37.7039L125.238 36.0905L127.42 34.9842L128.978 36.5961L126.795 37.7039Z" fill="#A7475F"/>
<path d="M138.403 29.4183L139.954 31.0264L137.948 32.0447L136.393 30.4367L138.403 29.4183Z" fill="#A7475F"/>
<path d="M135.767 30.7544L137.32 32.3627L135.131 33.4743L133.578 31.8641L135.767 30.7544Z" fill="#A7475F"/>
<path d="M132.967 32.1737L134.523 33.7824L132.235 34.9429L130.679 33.3336L132.967 32.1737Z" fill="#A7475F"/>
<path d="M130.073 33.6401L131.63 35.2504L129.607 36.2769L128.05 34.6658L130.073 33.6401Z" fill="#A7475F"/>
<path d="M121.581 27.9704L123.15 29.5952L125.175 28.5701L123.604 26.9448L121.581 27.9704Z" fill="#A7475F"/>
<path d="M123.634 30.0956L125.331 31.8511L127.355 30.8269L125.658 29.07L123.634 30.0956Z" fill="#A7475F"/>
<path d="M125.8 32.3375L127.574 34.1731L129.597 33.1474L127.824 31.3125L125.8 32.3375Z" fill="#A7475F"/>
<path d="M136.888 23.3738L138.593 25.1386L136.312 26.2936L134.607 24.5305L136.888 23.3738Z" fill="#A7475F"/>
<path d="M133.989 24.844L135.691 26.608L133.676 27.6277L131.973 25.8659L133.989 24.844Z" fill="#A7475F"/>
<path d="M136.158 27.0922L134.145 28.1117L135.917 29.9441L137.927 28.9255L136.158 27.0922Z" fill="#A7475F"/>
<path d="M131.349 26.1829L133.051 27.9442L130.864 29.0507L129.165 27.2903L131.349 26.1829Z" fill="#A7475F"/>
<path d="M133.519 28.4282L131.332 29.5365L133.102 31.3713L135.29 30.2617L133.519 28.4282Z" fill="#A7475F"/>
<path d="M128.548 27.6037L130.249 29.3625L127.959 30.5209L126.26 28.7643L128.548 27.6037Z" fill="#A7475F"/>
<path d="M130.718 29.8472L128.428 31.0064L130.202 32.841L132.491 31.6811L130.718 29.8472Z" fill="#A7475F"/>
<path d="M139.06 25.6228L136.78 26.7768L138.552 28.6094L140.83 27.454L139.06 25.6228Z" fill="#A7475F"/>
<path d="M124.896 22.8646L127.076 21.7601L128.821 23.5664L126.639 24.6723L124.896 22.8646Z" fill="#A7475F"/>
<path d="M124.272 23.1816L126.018 24.9869L123.729 26.1467L121.983 24.3415L124.272 23.1816Z" fill="#A7475F"/>
<path d="M126.494 25.4794L124.205 26.6393L125.777 28.2652L128.067 27.106L126.494 25.4794Z" fill="#A7475F"/>
<path d="M128.686 26.7932L127.115 25.1651L129.297 24.059L130.87 25.6873L128.686 26.7932Z" fill="#A7475F"/>
<path d="M131.94 22.7195L133.513 24.3496L131.495 25.3712L129.92 23.7433L131.94 22.7195Z" fill="#A7475F"/>
<path d="M129.444 23.2506L131.465 22.2266L129.721 20.4198L127.698 21.4455L129.444 23.2506Z" fill="#A7475F"/>
<path d="M130.333 20.1099L132.616 18.9524L134.361 20.7587L132.079 21.9151L130.333 20.1099Z" fill="#A7475F"/>
<path fill-rule="evenodd" clip-rule="evenodd" d="M116.246 197.319C115.124 203.794 108.106 208.024 100.553 206.784L99.7851 206.652C92.1398 205.434 87.0144 199.136 88.1599 192.656L119.692 9.56508C120.814 3.09094 129.826 -10.1001 137.362 -8.92659C144.962 -7.69811 148.991 7.72938 147.887 14.2716L116.246 197.319ZM135.443 20.9446L137.02 22.5746L143.283 19.4046L143.583 19.9779L137.495 23.0659L139.202 24.8311L142.656 23.0819L142.933 23.6614L139.669 25.3144L141.44 27.1454L141.985 26.8685L142.283 27.4522L141.916 27.638L142.196 27.9269L141.734 28.3894L141.306 27.9467L139.028 29.1019L140.581 30.7077L141.39 30.2979L141.696 30.893L141.069 31.2118L141.548 31.708L141.064 32.1766L140.44 31.5299L138.435 32.5481L140.127 34.2983L140.764 33.9752L141.047 34.5764L140.611 34.798L140.959 35.1576L140.474 35.6271L139.981 35.1165L137.787 36.2275L139.539 38.0437L140.094 37.7625L140.399 38.3577L140.025 38.5472L140.309 38.8419L139.842 39.2826L139.425 38.8515L137.136 40.0106L138.695 41.6228L139.504 41.2121L139.81 41.8081L139.182 42.1262L139.661 42.6223L139.2 43.0857L138.571 42.4349L136.547 43.46L138.241 45.2132L138.878 44.8912L139.177 45.4636L138.712 45.7003L139.072 46.0736L138.588 46.5422L138.083 46.0195L135.898 47.1272L137.664 48.9567L138.201 48.6837L138.499 49.2666L138.14 49.4494L138.416 49.7354L137.94 50.1903L137.525 49.7612L135.243 50.9174L136.81 52.5385L137.618 52.128L137.918 52.7013L137.28 53.0247L137.776 53.5382L137.308 53.9781L136.68 53.3297L134.647 54.3606L136.364 56.1377L136.988 55.8207L137.286 56.4045L136.84 56.6303L137.186 56.9878L136.695 57.4346L136.222 56.944L134.034 58.0533L135.789 59.8689L136.344 59.5865L136.621 60.166L136.255 60.3515L136.56 60.6669L136.069 61.1128L135.637 60.666L133.351 61.8252L134.923 63.4536L135.732 63.0431L136.032 63.6164L135.394 63.9398L135.889 64.4525L135.421 64.8931L134.794 64.2439L132.761 65.2758L134.462 67.0363L135.42 66.5477L135.72 67.1318L134.939 67.5297L135.3 67.9037L134.832 68.3444L134.34 67.8353L132.134 68.9605L133.894 70.7825L134.766 70.3377L135.066 70.9218L134.371 71.2759L134.662 71.5777L134.185 72.0326L133.757 71.5892L131.478 72.751L133.038 74.3684L133.866 73.9489L134.164 74.5319L133.514 74.862L134.003 75.3684L133.535 75.8091L132.914 75.1662L130.88 76.1973L132.591 77.9671L133.21 77.6531L133.508 78.236L133.067 78.4598L133.413 78.8188L132.945 79.2587L132.467 78.7638L130.26 79.8829L132.014 81.6987L132.571 81.4168L132.871 81.9892L132.484 82.1857L132.789 82.5011L132.312 82.956L131.869 82.4975L129.592 83.6526L131.164 85.281L131.982 84.868L132.281 85.4405L131.635 85.7688L132.12 86.27L131.643 86.7249L131.02 86.0806L129.001 87.1052L130.706 88.8683L131.333 88.5515L131.632 89.124L131.177 89.3552L131.521 89.7113L131.059 90.1738L130.566 89.6639L128.356 90.7831L130.125 92.6154L130.689 92.3289L130.987 92.9127L130.601 93.1081L130.893 93.4106L130.416 93.8654L129.986 93.4199L127.719 94.5695L129.286 96.1921L130.095 95.7823L130.395 96.3556L129.757 96.679L130.253 97.1925L129.762 97.6384L129.138 96.9918L127.114 98.0159L128.804 99.7668L129.44 99.444L129.746 100.04L129.29 100.27L129.635 100.627L129.173 101.09L128.68 100.579L126.489 101.689L128.264 103.527L128.792 103.26L129.09 103.843L128.74 104.02L128.999 104.288L128.522 104.742L128.125 104.332L125.848 105.487L127.394 107.085L128.203 106.675L128.509 107.271L127.881 107.589L128.361 108.086L127.876 108.554L127.252 107.907L125.246 108.923L126.941 110.677L127.577 110.354L127.854 110.933L127.407 111.159L127.771 111.536L127.287 112.005L126.779 111.478L124.604 112.582L126.466 114.509L127.331 114.068L127.631 114.652L126.943 115.003L127.126 115.193L126.649 115.647L126.329 115.315L124.041 116.482L125.608 118.104L126.739 117.527L127.039 118.111L126.085 118.598L126.475 119.001L126.007 119.441L125.486 118.902L123.462 119.934L125.873 122.429L125.396 122.884L122.848 120.248L120.641 121.373L125.236 126.136L124.768 126.575L120.036 121.682L117.745 122.85L124.569 129.913L124.092 130.368L117.131 123.163L115.128 124.185L123.998 133.366L123.508 133.812L114.52 124.495L103.011 130.364L102.711 129.78L114.043 124.001L112.478 122.379L103.603 126.905L103.303 126.321L112.002 121.885L110.118 119.933L103.858 123.11L103.558 122.536L109.649 119.447L107.944 117.68L104.484 119.431L104.185 118.858L107.472 117.19L105.926 115.587L105.087 116.014L104.789 115.43L105.451 115.095L104.939 114.564L105.407 114.124L106.051 114.79L108.058 113.773L106.273 111.926L105.744 112.194L105.444 111.62L105.803 111.439L105.51 111.136L105.987 110.681L106.418 111.127L108.705 109.965L106.997 108.199L106.37 108.516L106.071 107.942L106.526 107.712L106.182 107.357L106.667 106.887L107.155 107.394L109.353 106.281L107.797 104.67L106.984 105.082L106.687 104.499L107.321 104.177L106.814 103.653L107.291 103.198L107.936 103.866L109.955 102.842L108.176 101.002L107.63 101.279L107.331 100.705L107.705 100.516L107.421 100.222L107.883 99.7585L108.315 100.206L110.612 99.0431L108.919 97.2903L108.263 97.6231L107.957 97.028L108.433 96.7869L108.071 96.4129L108.548 95.958L109.048 96.4759L111.237 95.3681L109.678 93.7529L108.852 94.1718L108.553 93.5994L109.209 93.2665L108.718 92.7572L109.179 92.2938L109.819 92.9568L111.84 91.9319L110.085 90.1129L109.505 90.4062L109.208 89.8233L109.609 89.6192L109.307 89.3059L109.775 88.8661L110.209 89.315L112.499 88.1538L110.79 86.384L110.161 86.7021L109.863 86.1192L110.313 85.8904L109.944 85.5079L110.421 85.053L110.928 85.5786L113.115 84.4704L111.591 82.8929L111.038 83.1754L110.739 82.5912L111.114 82.3995L110.581 81.8474L111.072 81.4014L111.731 82.0844L113.759 81.0503L112.001 79.2277L111.692 79.3853L111.392 78.8012L111.524 78.7333L111.193 78.39L111.661 77.9501L112.123 78.4286L114.39 77.2728L112.656 75.4777L112.036 75.7929L111.736 75.2196L112.186 74.9907L111.838 74.631L112.315 74.1762L112.801 74.6789L115.006 73.5603L113.434 71.9319L112.625 72.3425L112.325 71.7691L112.964 71.4456L112.467 70.9315L112.935 70.4916L113.563 71.1416L115.596 70.1107L113.839 68.2921L113.283 68.5747L112.985 67.9909L113.363 67.7994L113.065 67.4897L113.541 67.0348L113.978 67.4876L116.256 66.3324L114.545 64.561L113.922 64.8778L113.622 64.3045L114.075 64.0748L113.734 63.7208L114.21 63.2659L114.69 63.763L116.893 62.6451L115.321 61.0182L114.496 61.4369L114.199 60.8539L114.845 60.5255L114.354 60.0172L114.821 59.5765L115.445 60.2215L117.479 59.1903L115.714 57.3648L115.159 57.6463L114.859 57.0738L115.244 56.8786L114.943 56.5667L115.434 56.1208L115.862 56.565L118.13 55.4145L116.421 53.6461L115.785 53.968L115.508 53.3886L115.954 53.1627L115.604 52.801L116.081 52.3461L116.568 52.851L118.769 51.7336L117.196 50.1071L116.398 50.5123L116.098 49.939L116.725 49.6202L116.246 49.1248L116.708 48.6623L117.335 49.3107L119.359 48.2839L117.591 46.4542L117.045 46.7311L116.746 46.1578L117.12 45.9673L116.835 45.6735L117.297 45.211L117.73 45.6586L120.016 44.4985L118.324 42.748L117.677 43.0756L117.394 42.4744L117.841 42.2474L117.477 41.8705L117.967 41.4246L118.459 41.9337L120.653 40.82L119.093 39.2044L118.278 39.6177L117.981 39.0347L118.618 38.7116L118.132 38.2089L118.594 37.7463L119.228 38.4028L121.253 37.3759L119.477 35.5392L118.931 35.8152L118.631 35.2419L119.006 35.0531L118.722 34.7584L119.183 34.2959L119.616 34.7435L121.903 33.5868L120.209 31.8333L119.564 32.1605L119.258 31.5645L119.723 31.3299L119.361 30.9551L119.838 30.5002L120.338 31.018L122.521 29.9136L120.951 28.2889L120.154 28.6927L119.857 28.1098L120.475 27.7962L119.996 27.2999L120.48 26.8313L121.104 27.4769L123.128 26.4521L121.383 24.6457L120.802 24.9404L120.504 24.3566L120.907 24.153L120.608 23.8434L121.076 23.4035L121.507 23.8489L123.795 22.689L121.256 20.063L121.74 19.5935L124.42 22.3718L126.6 21.2674L121.882 16.3848L122.373 15.9388L127.222 20.9528L129.246 19.927L122.494 12.9282L122.962 12.4883L129.856 19.6172L132.14 18.4597L123.142 9.14708L123.61 8.70723L132.744 18.1533L144.509 12.1912L144.806 12.7741L133.221 18.6459L134.967 20.452L143.862 15.9435L144.159 16.5273L135.443 20.9446Z" fill="#A7475F"/>
<path fill-rule="evenodd" clip-rule="evenodd" d="M172.808 31.2806C180.974 27.1999 188.23 23.5744 190.475 22.5225C194.743 21.3294 204.083 23.5912 225.527 32.3373C237.461 37.0636 248.971 42.7763 259.936 49.416C259.936 49.416 279.178 68.1688 281.308 137.048L283.723 167.142C283.723 167.142 294.478 168.45 311.797 170.778C315.48 171.274 317.832 174.972 316.725 178.525L310.984 196.938C310.01 200.063 306.719 201.834 303.579 200.923L290.554 197.142C290.554 197.142 251.929 186.011 239.214 175.602C233.629 170.685 228.681 162.862 222.333 152.268C221.351 152.338 219.799 150.092 216.592 144.126C215.536 152.762 209.006 157.54 208.442 147.403C207.148 142.569 204.553 131.502 202.351 119.989C200.488 117.221 198.556 114.374 196.496 111.417L195.654 110.672C180.042 96.8697 172.189 89.927 170.967 83.1193C172.662 80.2439 178.606 77.6565 198.423 92.3575C198.258 90.1471 198.428 87.9223 198.927 85.7594C202.651 80.1605 213.427 73.9278 243.202 58.4578C233.487 52.7858 199.411 35.8598 194.619 35.1845C187.739 40.2023 160.375 54.9287 150.15 50.7254C147.456 49.7373 145.12 47.9816 143.431 45.6773C144.581 45.3842 159.842 37.7587 172.808 31.2806ZM143.991 46.036C149.131 47.1907 154.473 47.1726 159.616 45.9816C166.794 44.5398 162.007 36.7707 162.007 36.7707C161.918 37.6628 162.126 38.2023 162.336 38.749C162.69 39.6663 163.052 40.6064 162.039 43.2737C160.653 46.9379 143.991 46.036 143.991 46.036ZM232.554 122.802C235.269 117.449 239.173 109.696 241.061 105.994L241.005 106.057L219.417 107.445C221.228 111.315 222.804 115.289 224.139 119.347C226.613 121.167 229.503 122.353 232.554 122.802ZM209.131 103.742C208.817 102.204 207.372 94.7972 208.475 93.6305L208.543 93.6122C213.655 90.3529 218.96 87.4039 224.427 84.7804C216.094 88.7366 207.543 92.7658 207.305 93.3626C206.96 94.3314 207.095 94.8878 207.68 97.3025C208.017 98.6909 208.502 100.694 209.131 103.742ZM225.513 84.2649C230.465 81.7987 235.759 79.3369 240.292 77.4911C240.292 77.4911 233.151 80.714 225.513 84.2649Z" fill="#A7475F"/>
</g>
<defs>
<linearGradient id="paint0_linear_1_1654" x1="152" y1="8" x2="152" y2="190" gradientUnits="userSpaceOnUse">
<stop stop-color="#E2708D"/>
<stop offset="1" stop-color="#C85E79"/>
</linearGradient>
<linearGradient id="paint1_linear_1_1654" x1="152" y1="8" x2="152" y2="190" gradientUnits="userSpaceOnUse">
<stop stop-color="#E15D7F"/>
<stop offset="1" stop-color="#C74A6A"/>
</linearGradient>
</defs>
</svg>
