<svg width="288" height="182" viewBox="0 0 288 182" fill="none" xmlns="http://www.w3.org/2000/svg">
<rect width="288" height="182" fill="url(#paint0_linear_1_225)"/>
<g opacity="0.04">
<mask id="mask0_1_225" style="mask-type:alpha" maskUnits="userSpaceOnUse" x="0" y="0" width="288" height="182">
<rect width="288" height="182" rx="12" fill="url(#paint1_linear_1_225)"/>
</mask>
<g mask="url(#mask0_1_225)">
<path d="M91.0967 93.2722C91.0967 93.2722 84.3635 96.4879 90.3838 104.684C90.3767 104.688 97.1349 97.7242 91.0967 93.2722Z" fill="black"/>
<path d="M112.337 104.145C112.337 104.145 106.713 99.2393 101.612 108.047C101.612 108.047 110.68 111.477 112.337 104.145Z" fill="black"/>
<path d="M103.276 121.438C103.276 121.438 103.579 113.971 93.5348 115.482C93.5206 115.482 96.504 124.718 103.276 121.438Z" fill="black"/>
<path d="M92.1126 125.297C92.1126 125.297 95.1673 121.46 89.5925 117.994C89.5925 117.994 87.4895 124.172 92.1126 125.297Z" fill="black"/>
<path d="M79.4338 122.049C79.4338 122.049 84.3207 122.317 83.9036 115.757C83.9036 115.765 77.6659 117.622 79.4338 122.049Z" fill="black"/>
<path d="M99.1203 144.144C99.1203 144.144 101.419 139.81 95.3028 137.431C95.3028 137.431 94.3654 143.89 99.1203 144.144Z" fill="black"/>
<path d="M77.5626 133.229C77.5626 133.229 82.4316 133.726 82.3176 127.155C82.3176 127.151 76.0014 128.727 77.5626 133.229Z" fill="black"/>
<path d="M68.8013 116.658C68.8013 116.658 72.3657 120.006 76.2581 114.707C76.2581 114.693 70.2769 112.124 68.8013 116.658Z" fill="black"/>
<path d="M85.0978 95.5592C85.0978 95.5592 88.5161 92.0469 83.3156 88.0559C83.3156 88.0452 80.6138 93.9692 85.0978 95.5592Z" fill="black"/>
<path d="M61.2695 122.91C61.2695 122.91 64.6842 119.398 59.4872 115.407C59.4801 115.407 56.7783 121.349 61.2695 122.91Z" fill="black"/>
<path d="M44.8196 19.5477C44.8196 19.5477 48.2379 16.0355 43.0374 12.0445C43.0125 12.0338 40.3142 17.972 44.8196 19.5477Z" fill="black"/>
<path d="M68.2024 177.655C68.2024 177.655 71.6172 174.14 66.4202 170.152C66.4131 170.138 63.7112 176.08 68.2024 177.655Z" fill="black"/>
<path d="M61.7009 155.067C61.7009 155.067 65.1192 151.555 59.9187 147.564C59.9151 147.564 57.2133 153.491 61.7009 155.067Z" fill="black"/>
<path d="M80.3357 167.665C80.3357 167.665 83.7505 164.15 78.5535 160.162C78.5464 160.148 75.8303 166.09 80.3357 167.665Z" fill="black"/>
<path d="M116.736 165.925C116.736 165.925 120.15 162.413 114.953 158.422C114.946 158.411 112.245 164.357 116.736 165.925Z" fill="black"/>
<path d="M18.7993 181.864C18.7993 181.864 22.2176 178.352 17.0171 174.361C17.0171 174.35 14.3153 180.289 18.7993 181.864Z" fill="black"/>
<path d="M0.620692 171.145C0.620692 171.145 4.03542 167.633 -1.16152 163.642C-1.18291 163.642 -3.88475 169.563 0.620692 171.145Z" fill="black"/>
<path d="M66.47 94.6837C66.47 94.6837 69.8847 91.1715 64.6878 87.1805C64.6807 87.1805 61.9788 93.1152 66.47 94.6837Z" fill="black"/>
<path d="M38.3039 34.3004C38.3039 34.3004 41.7187 30.7881 36.5217 26.7971C36.5146 26.7971 33.8128 32.739 38.3039 34.3004Z" fill="black"/>
<path d="M19.2377 34.7506C19.2377 34.7506 22.6524 31.2384 17.4555 27.2474C17.4484 27.2367 14.7465 33.175 19.2377 34.7506Z" fill="black"/>
<path d="M94.7218 106.964C94.7218 106.964 99.6051 107.289 99.2629 100.722C99.2522 100.722 92.9895 102.519 94.7218 106.964Z" fill="black"/>
<path d="M118.101 138.567C118.101 138.567 119.958 131.325 109.817 130.707C109.817 130.699 110.822 140.361 118.101 138.567Z" fill="black"/>
<path d="M52.109 90.2424C52.109 90.2424 52.0127 97.6527 61.9219 95.8769C61.929 95.8769 58.6996 86.823 52.109 90.2424Z" fill="black"/>
<path d="M71.2179 92.6436C71.2179 92.6436 68.8868 99.6717 78.8672 100.99C78.8672 100.99 78.5357 91.3681 71.2179 92.6436Z" fill="black"/>
<path d="M42.8485 73.0315C42.8485 73.0315 40.7776 81.5352 52.6614 82.1283C52.6614 82.1283 51.3462 70.827 42.8485 73.0315Z" fill="#353535"/>
<path d="M103.651 118.087C103.651 118.087 109.265 124.793 116.771 115.539C116.771 115.539 106.905 109.912 103.651 118.087Z" fill="#353535"/>
<path d="M109.717 74.2178C109.717 74.2178 115.331 80.9243 122.838 71.6703C122.838 71.6703 112.972 66.0428 109.717 74.2178Z" fill="#353535"/>
<path d="M54.2547 140.672C54.2547 140.672 59.8651 147.378 67.3718 138.124C67.3718 138.124 57.509 132.5 54.2547 140.672Z" fill="#353535"/>
<path d="M1.71498 30.974C1.71498 30.974 6.39508 23.5815 -4.67605 19.2082C-4.67605 19.2082 -7.03927 30.338 1.71498 30.974Z" fill="#353535"/>
<path d="M61.0806 29.2378C61.0806 29.2378 65.7607 21.8453 54.6895 17.472C54.6895 17.472 52.3228 28.6018 61.0806 29.2378Z" fill="#353535"/>
<path d="M95.3989 123.982C95.3989 123.982 90.0808 130.928 100.717 136.273C100.717 136.255 104.064 125.383 95.3989 123.982Z" fill="#353535"/>
<path d="M88.2024 131.739C88.2024 131.739 79.4695 131.757 81.7365 143.466C81.7365 143.466 92.3692 139.485 88.2024 131.739Z" fill="#353535"/>
<path d="M77.8655 121.806C77.8655 121.806 70.3196 117.397 66.3738 128.648C66.3738 128.648 77.559 130.599 77.8655 121.806Z" fill="#353535"/>
<path d="M75.1921 107.618C75.1921 107.618 76.2615 98.9285 64.3741 99.7575C64.3741 99.7539 67.0153 110.823 75.1921 107.618Z" fill="#353535"/>
<path d="M69.0578 111.727C69.0578 111.727 68.3021 106.475 61.4869 108.84C61.4941 108.84 64.7805 114.896 69.0578 111.727Z" fill="#353535"/>
<path d="M96.4719 95.8771C96.4719 95.8771 101.708 95.0875 99.3234 88.2703C99.3092 88.2703 93.296 91.6038 96.4719 95.8771Z" fill="#353535"/>
<path d="M113.082 100.533C113.082 100.533 111.917 105.706 119.124 105.942C119.124 105.942 118.211 99.107 113.082 100.533Z" fill="#353535"/>
<path d="M103.693 125.186C103.693 125.186 106.901 120.97 111.71 126.362C111.71 126.362 105.893 130.056 103.693 125.186Z" fill="#353535"/>
<path d="M111.567 149.844C111.567 149.844 116.828 149.254 116.262 156.461C116.262 156.461 109.585 154.792 111.567 149.844Z" fill="#353535"/>
<path d="M74.1621 89.5101C74.1621 89.5101 77.2525 85.2011 70.7046 82.1677C70.7046 82.1784 68.8867 88.8205 74.1621 89.5101Z" fill="#353535"/>
<path d="M37.3058 99.9823C37.3058 99.9823 41.1697 105.503 47.5465 98.9104C47.5465 98.8997 40.3463 93.9225 37.3058 99.9823Z" fill="#696969"/>
<path d="M87.2364 117.59C87.2364 117.59 92.7185 115.418 88.7798 108.508C88.762 108.508 82.9377 113.678 87.2364 117.59Z" fill="#696969"/>
<path d="M91.9308 113.485C91.9308 113.485 97.5983 115.103 98.6712 107.218C98.6712 107.218 90.9114 107.768 91.9308 113.485Z" fill="#696969"/>
<path d="M83.2942 112.591C83.2942 112.591 84.4562 106.8 76.5217 106.357C76.5431 106.357 77.6944 114.067 83.2942 112.591Z" fill="#696969"/>
<path d="M68.9972 17.9009C68.9972 17.9009 70.1556 12.1091 62.2247 11.666C62.2283 11.666 63.3939 19.3765 68.9972 17.9009Z" fill="#696969"/>
<path d="M92.3941 27.8909C92.3941 27.8909 93.5561 22.0991 85.6217 21.6561C85.6288 21.6561 86.7944 29.3665 92.3941 27.8909Z" fill="#696969"/>
<path d="M47.7639 27.0224C47.7639 27.0224 48.9223 21.2306 40.9915 20.7876C40.995 20.7876 42.1606 28.4981 47.7639 27.0224Z" fill="#696969"/>
<path d="M11.7738 32.6926C11.7738 32.6926 16.8709 29.7271 11.9449 23.4815C11.9449 23.4815 6.95822 29.4662 11.7738 32.6926Z" fill="#696969"/>
<path d="M36.0404 24.0071C36.0404 24.0071 41.134 21.0379 36.2115 14.7924C36.2115 14.7924 31.2249 20.7771 36.0404 24.0071Z" fill="#696969"/>
<path d="M103.633 20.3657C103.633 20.3657 109.493 20.9874 109.193 13.0304C109.176 13.0232 101.626 14.9062 103.633 20.3657Z" fill="#696969"/>
<path d="M65.4934 29.0482C65.4934 29.0482 71.3533 29.6663 71.0539 21.7129C71.0432 21.7129 63.4938 23.5816 65.4934 29.0482Z" fill="#696969"/>
<path d="M7.41801 17.754C7.41801 17.754 13.2779 18.3722 12.9785 10.4187C12.9785 10.4187 5.42906 12.2981 7.41801 17.754Z" fill="#696969"/>
<path d="M56.3826 86.3839C56.3826 86.3839 62.2426 87.0021 61.9432 79.0486C61.9289 79.0486 54.3937 80.928 56.3826 86.3839Z" fill="#696969"/>
<path d="M88.4483 89.4207C88.4483 89.4207 94.3082 90.0388 94.0088 82.0889C94.0088 82.0889 86.4593 83.9647 88.4483 89.4207Z" fill="#696969"/>
<path d="M76.8996 79.3807C76.8996 79.3807 81.0843 75.2254 74.761 70.4233C74.761 70.4233 71.4425 77.4728 76.8996 79.3807Z" fill="#696969"/>
<path d="M107.996 92.8435C107.996 92.8435 113.189 95.634 115.909 88.1557C115.909 88.1557 108.213 87.041 107.996 92.8435Z" fill="#696969"/>
<path d="M97.5733 148.278C97.5733 148.278 97.3844 152.694 103.298 152.101C103.298 152.091 101.544 146.528 97.5733 148.278Z" fill="#696969"/>
<path d="M108.812 138.046C108.812 138.046 107.144 142.137 112.907 143.58C112.9 143.58 113.136 137.753 108.812 138.046Z" fill="#696969"/>
<path d="M75.178 133.429C75.178 133.429 70.8223 134.094 72.5403 139.8C72.5403 139.8 77.6482 137.002 75.178 133.429Z" fill="#696969"/>
<path d="M99.0347 41.9932C99.0347 41.9932 100.892 34.7544 90.7509 34.1327C90.7509 34.1291 91.7561 43.7904 99.0347 41.9932Z" fill="black"/>
<path d="M82.5669 30.6991C82.5669 30.6991 84.424 23.4602 74.2832 22.8385C74.2832 22.835 75.2884 32.5141 82.5669 30.6991Z" fill="black"/>
<path d="M54.4044 41.1248C54.4044 41.1248 56.2579 33.8859 46.1207 33.2642C46.1207 33.2571 47.1258 42.922 54.4044 41.1248Z" fill="black"/>
<path d="M27.9706 23.3172C27.9706 23.3172 29.8276 16.0748 19.6868 15.4566C19.6868 15.4495 20.692 25.1108 27.9706 23.3172Z" fill="black"/>
<path d="M59.6014 108.451C59.6014 108.451 61.4584 101.212 51.3176 100.59C51.3176 100.583 52.3228 110.244 59.6014 108.451Z" fill="black"/>
<path d="M126.335 92.8114C126.335 92.8114 128.188 85.5725 118.051 84.9508C118.051 84.9472 119.056 94.6086 126.335 92.8114Z" fill="black"/>
<path d="M100.781 21.5771C100.781 21.5771 102.638 14.3383 92.4976 13.7166C92.4833 13.713 93.4885 23.3743 100.781 21.5771Z" fill="black"/>
<path d="M88.6622 44.9407C88.6622 44.9407 91.7134 41.1033 86.1386 37.6375C86.1244 37.6375 84.0285 43.8152 88.6622 44.9407Z" fill="black"/>
<path d="M75.9657 41.6929C75.9657 41.6929 80.8525 41.9609 80.439 35.4009C80.439 35.4009 74.1977 37.266 75.9657 41.6929Z" fill="black"/>
<path d="M95.6521 63.7847C95.6521 63.7847 97.9512 59.4543 91.8382 57.0747C91.8382 57.0747 90.9043 63.5346 95.6521 63.7847Z" fill="black"/>
<path d="M74.0979 52.8799C74.0979 52.8799 78.9669 53.3765 78.8528 46.8058C78.8528 46.8058 72.5331 48.3708 74.0979 52.8799Z" fill="black"/>
<path d="M65.3329 36.3012C65.3329 36.3012 68.8973 39.6527 72.7897 34.3504C72.7897 34.3504 66.8121 31.7671 65.3329 36.3012Z" fill="black"/>
<path d="M114.633 58.211C114.633 58.211 116.49 50.9686 106.349 50.3504C106.349 50.3433 107.354 60.0046 114.633 58.211Z" fill="black"/>
<path d="M100.186 37.7306C100.186 37.7306 105.8 44.4371 113.307 35.1831C113.307 35.1831 103.44 29.5557 100.186 37.7306Z" fill="#353535"/>
<path d="M91.9343 43.608C91.9343 43.608 86.6162 50.5539 97.2525 55.8991C97.2525 55.8991 100.596 45.0194 91.9343 43.608Z" fill="#353535"/>
<path d="M84.7413 51.3827C84.7413 51.3827 76.0085 51.4006 78.279 63.1092C78.2719 63.1092 88.9046 59.1289 84.7413 51.3827Z" fill="#353535"/>
<path d="M74.4045 41.4468C74.4045 41.4468 66.8586 37.0377 62.9163 48.289C62.9092 48.2926 74.0908 50.2434 74.4045 41.4468Z" fill="#353535"/>
<path d="M65.4934 64.5815C65.4934 64.5815 68.7014 60.3654 73.5063 65.757C73.517 65.7427 67.6998 69.4407 65.4934 64.5815Z" fill="#353535"/>
<path d="M88.5945 66.232C88.5945 66.232 93.8556 65.6425 93.2888 72.8492C93.2959 72.8492 86.6126 71.1842 88.5945 66.232Z" fill="#353535"/>
<path d="M101.177 84.1576C101.177 84.1576 105.365 80.0022 99.0383 75.2001C99.0312 75.2001 95.7055 82.2496 101.177 84.1576Z" fill="#696969"/>
<path d="M110.163 25.0823C110.163 25.0823 115.356 27.8764 118.076 20.3982C118.076 20.3982 110.377 19.2941 110.163 25.0823Z" fill="#696969"/>
<path d="M100.607 67.0432C100.607 67.0432 100.425 71.4594 106.328 70.8663C106.328 70.8663 104.577 65.3032 100.607 67.0432Z" fill="#696969"/>
<path d="M105.344 57.689C105.344 57.689 103.676 61.78 109.443 63.2271C109.443 63.2414 109.671 57.396 105.344 57.689Z" fill="#696969"/>
<path d="M71.7133 53.0764C71.7133 53.0764 67.354 53.741 69.072 59.4398C69.0578 59.4398 74.1834 56.6458 71.7133 53.0764Z" fill="#696969"/>
<path d="M36.2044 157.243C36.2044 157.243 38.0579 150.004 27.9207 149.382C27.9207 149.375 28.9258 159.04 36.2044 157.243Z" fill="black"/>
<path d="M40.4104 107.618C40.4104 107.618 40.3142 115.025 50.2233 113.249C50.2233 113.263 46.9975 104.181 40.4104 107.618Z" fill="black"/>
<path d="M41.3158 85.569C41.3158 85.569 36.682 91.3322 45.5539 96.0771C45.5539 96.0771 48.6122 86.9518 41.3158 85.569Z" fill="black"/>
<path d="M48.9152 121.681C48.9152 121.681 46.8443 130.184 58.7209 130.77C58.7209 130.77 57.4128 119.473 48.9152 121.681Z" fill="#353535"/>
<path d="M40.4532 126.726C40.4532 126.726 39.2877 131.903 46.4949 132.136C46.4949 132.136 45.5824 125.3 40.4532 126.726Z" fill="#353535"/>
<path d="M43.8395 140.16C43.8395 140.16 47.0475 135.941 51.8523 141.336C51.8523 141.336 46.0352 145.016 43.8395 140.16Z" fill="#353535"/>
<path d="M37.0313 160.923C37.0313 160.923 42.2925 160.333 41.7257 167.54C41.7257 167.54 35.0495 165.872 37.0313 160.923Z" fill="#353535"/>
<path d="M46.4058 153.409C46.4058 153.409 50.2697 158.929 56.6464 152.337C56.6464 152.327 49.4534 147.349 46.4058 153.409Z" fill="#696969"/>
<path d="M37.7977 120.206C37.7977 120.206 42.9911 123 45.7143 115.522C45.7143 115.522 38.0152 114.403 37.7977 120.206Z" fill="#696969"/>
<path d="M39.94 148.278C39.94 148.278 39.751 152.694 45.6644 152.101C45.6644 152.091 43.9143 146.528 39.94 148.278Z" fill="#696969"/>
<path d="M59.3163 67.8187C59.3163 67.8187 57.2418 76.3259 69.1256 76.9155C69.1256 76.9155 67.8139 65.6141 59.3163 67.8187Z" fill="#353535"/>
<path d="M35.3382 69.0692C35.3382 69.0692 37.1917 61.8303 27.0544 61.2086C27.0544 61.2015 28.0667 70.8628 35.3382 69.0692Z" fill="black"/>
<path d="M80.7456 73.8427C80.7456 73.8427 76.1118 79.6059 84.9873 84.3509C84.9873 84.3509 88.0456 75.2255 80.7456 73.8427Z" fill="black"/>
<path d="M46.748 46.5345C46.748 46.5345 44.6771 55.0417 56.5609 55.6312C56.5609 55.6312 55.2492 44.3299 46.748 46.5345Z" fill="#353535"/>
<path d="M36.3862 38.4201C36.3862 38.4201 35.2171 43.5937 42.4279 43.826C42.4279 43.826 41.5119 36.9945 36.3862 38.4201Z" fill="#353535"/>
<path d="M31.7062 51.9832C31.7062 51.9832 34.9142 47.7671 39.719 53.1588C39.719 53.1588 33.9019 56.8425 31.7062 51.9832Z" fill="#353535"/>
<path d="M36.1652 72.7493C36.1652 72.7493 41.4263 72.1598 40.8596 79.3664C40.8596 79.3664 34.1834 77.6979 36.1652 72.7493Z" fill="#353535"/>
<path d="M45.5326 65.2316C45.5326 65.2316 49.3964 70.7554 55.7732 64.1597C55.7803 64.1526 48.5802 59.1754 45.5326 65.2316Z" fill="#696969"/>
<path d="M39.0737 60.0938C39.0737 60.0938 38.8848 64.51 44.7982 63.9169C44.7982 63.9169 43.0374 58.3538 39.0737 60.0938Z" fill="#696969"/>
<path d="M89.8314 148.7C89.8314 148.7 82.4886 147.41 82.6526 157.59C82.6526 157.59 92.1839 155.835 89.8314 148.7Z" fill="black"/>
<path d="M70.5869 164.736C70.5869 164.736 76.8211 158.601 67.0225 151.819C67.0332 151.819 62.2034 162.117 70.5869 164.736Z" fill="#353535"/>
<path d="M73.1213 153.659C73.1213 153.659 68.68 150.776 73.6702 145.556C73.6702 145.556 77.7835 151.083 73.1213 153.659Z" fill="#353535"/>
<path d="M90.0346 158.025C90.0346 158.025 94.2335 159.372 95.2244 153.498C95.2244 153.498 89.4073 153.727 90.0346 158.025Z" fill="#696969"/>
<path d="M12.6684 111.948C12.6684 111.948 5.93165 115.164 11.9555 123.364C11.9484 123.364 18.7066 116.4 12.6684 111.948Z" fill="black"/>
<path d="M33.909 122.824C33.909 122.824 28.2808 117.908 23.1801 126.723C23.1801 126.723 32.248 130.149 33.909 122.824Z" fill="black"/>
<path d="M24.0712 141.025C24.0712 141.025 25.9282 133.787 15.7874 133.165C15.7874 133.161 16.7926 142.823 24.0712 141.025Z" fill="black"/>
<path d="M13.6807 143.991C13.6807 143.991 16.7354 140.157 11.1607 136.691C11.1607 136.674 9.05765 142.851 13.6807 143.991Z" fill="black"/>
<path d="M1.00211 140.725C1.00211 140.725 5.88895 140.997 5.47547 134.433C5.47547 134.433 -0.765854 136.298 1.00211 140.725Z" fill="black"/>
<path d="M20.6884 162.821C20.6884 162.821 22.9875 158.487 16.8745 156.107C16.8745 156.107 15.9477 162.57 20.6884 162.821Z" fill="black"/>
<path d="M-0.869284 151.909C-0.869284 151.909 4.0033 152.405 3.88924 145.835C3.88924 145.827 -2.43051 147.403 -0.869284 151.909Z" fill="black"/>
<path d="M6.68023 114.239C6.68023 114.239 10.0985 110.723 4.89801 106.735C4.89801 106.725 2.18191 112.663 6.68023 114.239Z" fill="black"/>
<path d="M16.2792 125.64C16.2792 125.64 21.1625 125.968 20.8203 119.401C20.8203 119.401 14.5611 121.195 16.2792 125.64Z" fill="black"/>
<path d="M-7.22107 111.319C-7.22107 111.319 -9.55221 118.347 0.428212 119.669C0.435341 119.669 0.107413 110.047 -7.22107 111.319Z" fill="black"/>
<path d="M25.2153 136.763C25.2153 136.763 30.8293 143.469 38.3395 134.215C38.3431 134.215 28.4732 128.591 25.2153 136.763Z" fill="#353535"/>
<path d="M16.9672 142.644C16.9672 142.644 11.6526 149.586 22.2889 154.935C22.2889 154.935 25.6324 144.059 16.9672 142.644Z" fill="#353535"/>
<path d="M9.77054 150.422C9.77054 150.422 1.03768 150.422 3.30466 162.145C3.30466 162.142 13.9409 158.161 9.77054 150.422Z" fill="#353535"/>
<path d="M18.0436 114.553C18.0436 114.553 23.2762 113.764 20.8952 106.946C20.8774 106.946 14.857 110.28 18.0436 114.553Z" fill="#353535"/>
<path d="M31.0824 114.553C31.0824 114.553 26.0922 112.802 25.0228 119.956C25.0371 119.956 31.9164 119.82 31.0824 114.553Z" fill="#353535"/>
<path d="M8.79035 136.266C8.79035 136.266 14.2689 134.097 10.3302 127.184C10.3302 127.198 4.50946 132.354 8.79035 136.266Z" fill="#696969"/>
<path d="M13.5025 132.16C13.5025 132.16 19.17 133.783 20.2429 125.893C20.2429 125.893 12.4831 126.444 13.5025 132.16Z" fill="#696969"/>
<path d="M4.86593 131.268C4.86593 131.268 6.02437 125.476 -1.90649 125.033C-1.90293 125.033 -0.73736 132.743 4.86593 131.268Z" fill="#696969"/>
<path d="M28.4018 99.7394C28.4018 99.7394 23.9392 95.877 19.6583 102.598C19.6583 102.58 26.9261 105.356 28.4018 99.7394Z" fill="#696969"/>
<path d="M24.6022 161.934C24.6022 161.934 22.9341 166.026 28.7013 167.473C28.7013 167.473 28.9294 161.641 24.6022 161.934Z" fill="#696969"/>
<path d="M8.1844 91.7111C8.1844 91.7111 0.838102 90.4177 1.00563 100.601C1.00563 100.601 10.5369 98.8427 8.1844 91.7111Z" fill="black"/>
<path d="M30.1234 93.394C30.1234 93.394 25.6358 91.436 23.7431 97.7315C23.7431 97.7315 30.2411 98.1639 30.1234 93.394Z" fill="black"/>
<path d="M23.1015 74.8608C23.1015 74.8608 15.7552 73.5674 15.9192 83.7504C15.9192 83.7504 25.4505 81.996 23.1015 74.8608Z" fill="black"/>
<path d="M3.85355 90.8929C3.85355 90.8929 10.0877 84.7617 0.289115 77.9766C0.303373 77.9766 -4.52644 88.2739 3.85355 90.8929Z" fill="#353535"/>
<path d="M10.3445 98.682C10.3445 98.682 17.6658 103.455 22.1535 92.4114C22.1535 92.4114 11.0788 89.9139 10.3445 98.682Z" fill="#353535"/>
<path d="M6.39148 79.8165C6.39148 79.8165 1.94663 76.9331 6.93683 71.7166C6.93683 71.7166 11.0538 77.2439 6.39148 79.8165Z" fill="#353535"/>
<path d="M29.3144 110.065C29.3144 110.065 26.5057 105.567 33.2353 102.959C33.2317 102.959 34.6254 109.712 29.3144 110.065Z" fill="#353535"/>
<path d="M13.884 71.817C13.884 71.817 18.2897 71.6633 17.2417 65.8001C17.2417 65.8072 11.8452 67.9903 13.884 71.817Z" fill="#696969"/>
<path d="M23.3047 84.1865C23.3047 84.1865 27.5036 85.5335 28.4945 79.6595C28.4945 79.6774 22.6774 79.8846 23.3047 84.1865Z" fill="#696969"/>
<path d="M33.057 34.6579C33.057 34.6579 27.4288 29.7522 22.3281 38.5595C22.3138 38.5488 31.3817 41.9753 33.057 34.6579Z" fill="black"/>
<path d="M23.2049 52.8514C23.2049 52.8514 25.0584 45.6126 14.9211 44.9909C14.9211 44.9873 15.9263 54.6665 23.2049 52.8514Z" fill="black"/>
<path d="M12.8146 55.7992C12.8146 55.7992 15.8693 51.9654 10.2945 48.4961C10.2945 48.4961 8.1915 54.6666 12.8146 55.7992Z" fill="black"/>
<path d="M0.135863 52.551C0.135863 52.551 5.0227 52.819 4.60566 46.259C4.60566 46.259 -1.6321 48.1241 0.135863 52.551Z" fill="black"/>
<path d="M17.0349 13.4592C17.0349 13.4592 21.9217 13.7272 21.5082 7.16724C21.5082 7.16724 15.2669 9.03233 17.0349 13.4592Z" fill="black"/>
<path d="M97.6302 32.1353C97.6302 32.1353 102.521 32.4068 102.104 25.8433C102.104 25.8433 95.8658 27.7084 97.6302 32.1353Z" fill="black"/>
<path d="M94.5971 11.287C94.5971 11.287 99.4875 11.555 99.0705 4.99503C99.0705 5.00217 92.8327 6.86012 94.5971 11.287Z" fill="black"/>
<path d="M59.498 61.2374C59.498 61.2374 64.3884 61.5089 63.9714 54.9454C63.9714 54.9454 57.7336 56.8105 59.498 61.2374Z" fill="black"/>
<path d="M30.4657 90.7751C30.4657 90.7751 35.3561 91.0431 34.9391 84.4831C34.9391 84.4831 28.7013 86.3482 30.4657 90.7751Z" fill="black"/>
<path d="M10.5334 108.147C10.5334 108.147 15.4238 108.418 15.0067 101.858C15.0067 101.858 8.76898 103.723 10.5334 108.147Z" fill="black"/>
<path d="M30.9184 146.374C30.9184 146.374 35.8053 146.642 35.3918 140.078C35.374 140.078 29.1362 141.944 30.9184 146.374Z" fill="black"/>
<path d="M53.0178 164.182C53.0178 164.182 57.9047 164.45 57.4876 157.89C57.4698 157.89 51.2356 159.755 53.0178 164.182Z" fill="black"/>
<path d="M86.3667 168.526C86.3667 168.526 91.2535 168.794 90.8365 162.231C90.8365 162.231 84.5987 164.096 86.3667 168.526Z" fill="black"/>
<path d="M103.276 162.877C103.276 162.877 108.163 163.149 107.746 156.585C107.735 156.585 101.494 158.451 103.276 162.877Z" fill="black"/>
<path d="M123.198 105.11C123.198 105.11 128.085 105.378 127.668 98.8141C127.668 98.8141 121.43 100.683 123.198 105.11Z" fill="black"/>
<path d="M106.73 84.6792C106.73 84.6792 111.617 84.9472 111.204 78.3872C111.204 78.4015 104.966 80.2666 106.73 84.6792Z" fill="black"/>
<path d="M85.4756 105.489C85.4756 105.489 86.8408 100.776 80.3713 99.7003C80.3713 99.686 80.7741 106.214 85.4756 105.489Z" fill="black"/>
<path d="M89.8099 17.3145C89.8099 17.3145 91.1751 12.6017 84.7021 11.5262C84.7021 11.5262 85.0977 18.0398 89.8099 17.3145Z" fill="black"/>
<path d="M35.6448 15.1423C35.6448 15.1423 37.0099 10.4295 30.5369 9.35406C30.5369 9.35406 30.9433 15.8676 35.6448 15.1423Z" fill="black"/>
<path d="M123.198 80.3487C123.198 80.3487 128.085 80.6203 127.668 74.0567C127.668 74.0567 121.43 75.9218 123.198 80.3487Z" fill="black"/>
<path d="M113.663 68.1868C113.663 68.1868 118.554 68.4584 118.137 61.8948C118.137 61.8948 111.895 63.7599 113.663 68.1868Z" fill="black"/>
<path d="M108.897 47.7742C108.897 47.7742 113.784 48.0422 113.371 41.4822C113.371 41.4822 107.129 43.3473 108.897 47.7742Z" fill="black"/>
<path d="M80.3 70.795C80.3 70.795 85.1869 71.0629 84.7698 64.503C84.7698 64.503 78.5321 66.3681 80.3 70.795Z" fill="black"/>
<path d="M56.0333 44.7335C56.0333 44.7335 60.9202 45.0015 60.5067 38.4415C60.5031 38.4415 54.2654 40.3066 56.0333 44.7335Z" fill="black"/>
<path d="M19.8223 74.6465C19.8223 74.6465 22.1214 70.3125 16.0048 67.9329C16.0048 67.9329 15.0745 74.3928 19.8223 74.6465Z" fill="black"/>
<path d="M-1.73542 63.7346C-1.73542 63.7346 3.1336 64.2277 3.0231 57.6606C3.0231 57.6534 -3.3002 59.2291 -1.73542 63.7346Z" fill="black"/>
<path d="M24.3527 48.5925C24.3527 48.5925 29.9666 55.2989 37.4733 46.0449C37.4733 46.0414 27.607 40.4139 24.3527 48.5925Z" fill="#353535"/>
<path d="M16.101 54.47C16.101 54.47 10.7828 61.4123 21.4191 66.7575C21.4191 66.7575 24.7661 55.8849 16.101 54.47Z" fill="#353535"/>
<path d="M8.90439 62.2412C8.90439 62.2412 0.171525 62.2591 2.43851 73.9677C2.43851 73.9606 13.0748 69.9874 8.90439 62.2412Z" fill="#353535"/>
<path d="M7.92062 48.0921C7.92062 48.0921 13.4027 45.9233 9.46402 39.0096C9.46402 39.0096 3.6433 44.1797 7.92062 48.0921Z" fill="#696969"/>
<path d="M12.6364 43.9871C12.6364 43.9871 18.3002 45.6092 19.3731 37.7201C19.3731 37.7201 11.6169 38.2704 12.6364 43.9871Z" fill="#696969"/>
<path d="M3.99618 43.0938C3.99618 43.0938 5.15819 37.302 -2.77625 36.859C-2.76912 36.859 -1.60355 44.5695 3.99618 43.0938Z" fill="#696969"/>
<path d="M29.514 68.5476C29.514 68.5476 27.8458 72.6386 33.6095 74.0857C33.6095 74.0857 33.8376 68.2439 29.514 68.5476Z" fill="#696969"/>
<path d="M142.81 122.06C143.237 121.599 143.632 121.11 143.993 120.595V111.016C143.847 110.891 143.693 110.766 143.53 110.659C143.53 110.644 136.782 113.853 142.81 122.06Z" fill="black"/>
<path d="M142.022 135.369C142.022 135.369 140.101 141.029 143.993 142.497V136.945C143.409 136.334 142.746 135.804 142.022 135.369Z" fill="black"/>
<path d="M136.337 133.129C136.337 133.129 130.095 134.994 131.863 139.424C131.863 139.424 136.75 139.703 136.337 133.129Z" fill="black"/>
<path d="M130.01 150.604C130.01 150.604 134.879 151.101 134.765 144.53C134.75 144.527 128.431 146.102 130.01 150.604Z" fill="black"/>
<path d="M128.691 132.078C128.691 132.078 122.71 129.499 121.234 134.033C121.234 134.033 124.809 137.381 128.691 132.078Z" fill="black"/>
<path d="M135.745 105.421C135.745 105.421 133.043 111.359 137.527 112.924C137.534 112.935 140.949 109.422 135.745 105.421Z" fill="black"/>
<path d="M123.651 110.019C123.651 110.019 121.319 117.047 131.3 118.365C131.3 118.365 130.968 108.743 123.651 110.019Z" fill="black"/>
<path d="M134.169 160.837C134.169 160.837 144.802 156.853 140.635 149.114C140.635 149.114 131.902 149.132 134.169 160.837Z" fill="#353535"/>
<path d="M118.807 146.024C118.807 146.024 129.988 147.975 130.295 139.182C130.295 139.182 122.752 134.769 118.807 146.024Z" fill="#353535"/>
<path d="M116.821 117.129C116.821 117.129 119.463 128.205 127.639 124.989C127.625 124.993 128.677 116.304 116.821 117.129Z" fill="#353535"/>
<path d="M121.498 129.099C121.498 129.099 120.742 123.85 113.927 126.215C113.927 126.215 117.217 132.271 121.498 129.099Z" fill="#353535"/>
<path d="M139.651 134.962C139.651 134.962 145.134 132.793 141.195 125.883C141.195 125.883 135.356 131.05 139.651 134.962Z" fill="#696969"/>
<path d="M135.713 129.963C135.713 129.963 136.875 124.175 128.94 123.732C128.958 123.732 130.124 131.439 135.713 129.963Z" fill="#696969"/>
<path d="M131.867 99.2964C131.867 99.2964 141.416 97.5421 139.045 90.3961C139.045 90.3961 131.703 89.117 131.867 99.2964Z" fill="black"/>
<path d="M131.165 76.6757C131.165 76.6757 126.335 86.973 134.729 89.5884C134.718 89.5884 140.952 83.4572 131.165 76.6757Z" fill="#353535"/>
<path d="M141.206 97.378C142.061 97.8826 143.009 98.2095 143.993 98.3392V92.2222C142.535 93.2048 141.416 94.8019 141.206 97.378Z" fill="#353535"/>
<path d="M137.801 70.4128C132.811 75.6329 137.253 78.5163 137.253 78.5163C141.915 75.9402 137.801 70.4128 137.801 70.4128Z" fill="#353535"/>
<path d="M124.973 157.172C124.973 157.172 130.081 154.378 127.611 150.805C127.611 150.805 123.237 151.469 124.973 157.172Z" fill="#696969"/>
<path d="M142.663 22.4702C142.663 22.4702 135.927 25.6858 141.95 33.9037C142.745 33.0361 143.433 32.0765 144 31.0453V23.7278C143.611 23.2522 143.161 22.8294 142.663 22.4702Z" fill="black"/>
<path d="M141.156 47.1955C141.156 47.1955 139.056 53.3731 143.679 54.4951C143.797 54.3357 143.902 54.1672 143.993 53.9913V49.9645C143.512 49.0677 142.642 48.1173 141.156 47.1955Z" fill="black"/>
<path d="M135.47 44.9553C135.47 44.9553 129.229 46.8204 130.997 51.2473C130.997 51.2473 135.884 51.5189 135.47 44.9553Z" fill="black"/>
<path d="M129.129 62.4305C129.129 62.4305 133.998 62.9272 133.884 56.3565C133.884 56.3493 127.564 57.925 129.129 62.4305Z" fill="black"/>
<path d="M127.821 43.9049C127.821 43.9049 121.843 41.3253 120.364 45.8594C120.364 45.8594 123.95 49.2072 127.821 43.9049Z" fill="black"/>
<path d="M134.879 17.2465C134.879 17.2465 132.177 23.1848 136.661 24.7498C136.668 24.7605 140.083 21.2483 134.879 17.2465Z" fill="black"/>
<path d="M130.434 30.1917C130.434 30.1917 130.102 20.5696 122.781 21.8416C122.781 21.8416 120.453 28.8732 130.434 30.1917Z" fill="black"/>
<path d="M133.303 72.6635C133.303 72.6635 143.936 68.6832 139.765 60.9406C139.765 60.9406 131.033 60.9549 133.303 72.6635Z" fill="#353535"/>
<path d="M129.429 51.0041C129.429 51.0041 121.883 46.595 117.94 57.8499C117.94 57.8499 129.122 59.8007 129.429 51.0041Z" fill="#353535"/>
<path d="M126.759 36.8194C126.759 36.8194 127.81 28.1299 115.941 28.9589C115.941 28.941 118.582 40.0172 126.759 36.8194Z" fill="#353535"/>
<path d="M120.632 40.9248C120.632 40.9248 119.876 35.6761 113.061 38.0378C113.061 38.0378 116.351 44.094 120.632 40.9248Z" fill="#353535"/>
<path d="M138.785 46.8062C138.785 46.8062 144.267 44.6195 140.347 37.7058C140.347 37.7058 134.504 42.8759 138.785 46.8062Z" fill="#696969"/>
<path d="M128.092 35.558C128.092 35.558 129.258 43.2649 134.864 41.7893C134.861 41.8036 136.023 35.9975 128.092 35.558Z" fill="#696969"/>
<path d="M132.113 7.44614C132.113 7.44614 124.77 6.15273 124.934 16.3357C124.934 16.3357 134.465 14.5778 132.113 7.44614Z" fill="black"/>
<path d="M140.346 9.20399C141.456 9.85429 142.715 10.2063 144 10.2259V3.55154C142.129 4.45193 140.596 6.1348 140.346 9.20399Z" fill="#353535"/>
<path d="M124.103 68.9975C124.103 68.9975 129.215 66.2035 126.745 62.6305C126.745 62.6305 122.385 63.2951 124.103 68.9975Z" fill="#696969"/>
<path d="M52.5331 170.152C52.5331 170.152 45.7963 173.368 51.8202 181.568C51.8131 181.568 58.5713 174.604 52.5331 170.152Z" fill="black"/>
<path d="M73.7735 181.028C73.7735 181.028 69.6103 177.405 65.1975 181.997H73.4813C73.5992 181.68 73.6968 181.357 73.7735 181.028Z" fill="black"/>
<path d="M46.5377 172.442C46.5377 172.442 49.9524 168.93 44.7555 164.939C44.7484 164.928 42.0465 170.867 46.5377 172.442Z" fill="black"/>
<path d="M60.6849 177.605C60.6849 177.605 56.1902 178.895 55.8694 181.997H59.7618C60.3784 181.068 60.7954 179.681 60.6849 177.605Z" fill="black"/>
<path d="M23.3582 172.757C23.3582 172.757 20.1502 163.689 13.5417 167.126C13.5417 167.126 13.4526 174.533 23.3582 172.757Z" fill="black"/>
<path d="M32.6543 169.523C32.6543 169.523 30.3232 176.551 40.3036 177.873C40.3036 177.873 39.9721 168.251 32.6543 169.523Z" fill="black"/>
<path d="M25.8105 176.637C26.3203 178.56 27.1715 180.376 28.3234 181.996H36.3897C35.7232 179.499 33.4312 176.105 25.8105 176.637Z" fill="#353535"/>
<path d="M60.7455 165.15C60.7455 165.15 54.7216 168.483 57.894 172.757C57.9082 172.757 63.1408 171.967 60.7455 165.15Z" fill="#353535"/>
<path d="M35.5985 166.394C35.5985 166.394 38.6853 162.085 32.141 159.051C32.141 159.051 30.3196 165.7 35.5985 166.394Z" fill="#353535"/>
<path d="M14.6147 172.739C14.6147 172.739 7.41455 167.766 4.37408 173.811C4.37408 173.822 8.23793 179.363 14.6147 172.739Z" fill="#696969"/>
<path d="M3.57556 181.025C3.58244 181.352 3.61943 181.677 3.68606 181.997H10.4157C8.81884 180.457 6.52691 179.485 3.57556 181.025Z" fill="black"/>
<path d="M81.6189 179.513C81.3923 180.32 81.3281 181.164 81.43 181.997H87.5323C86.4202 180.285 84.5988 179.006 81.6189 179.513Z" fill="black"/>
<path d="M82.5599 177.116C82.5599 177.116 83.6115 168.426 71.7419 169.255C71.7419 169.252 74.3831 180.317 82.5599 177.116Z" fill="#353535"/>
<path d="M116.664 169.716C116.664 169.716 109.928 172.932 115.952 181.132C115.944 181.15 122.703 174.172 116.664 169.716Z" fill="black"/>
<path d="M137.905 180.592C137.905 180.592 133.489 176.748 128.933 181.996H137.438C137.639 181.545 137.796 181.075 137.905 180.592Z" fill="black"/>
<path d="M110.669 172.007C110.669 172.007 114.084 168.494 108.887 164.503C108.88 164.493 106.178 170.431 110.669 172.007Z" fill="black"/>
<path d="M124.816 177.17C124.816 177.17 119.904 178.581 119.983 181.997H123.547C124.353 181.089 124.945 179.603 124.816 177.17Z" fill="black"/>
<path d="M104.435 177.437C104.435 177.437 104.103 167.815 96.782 169.091C96.782 169.091 94.4544 176.119 104.435 177.437Z" fill="black"/>
<path d="M89.9418 176.201C89.9418 176.201 90.7366 179.52 92.7933 181.996H100.635C100.111 179.481 98.0152 175.64 89.9418 176.201Z" fill="#353535"/>
<path d="M124.877 164.714C124.877 164.714 118.853 168.048 122.025 172.317C122.04 172.321 127.272 171.535 124.877 164.714Z" fill="#353535"/>
<path d="M139.758 174.947C139.758 174.947 140.81 166.254 128.94 167.086C128.94 167.079 131.582 178.145 139.758 174.947Z" fill="#353535"/>
<path d="M73.4812 0H65.1975C64.3695 0.88675 63.6515 1.87048 63.0588 2.92984C63.0588 2.92984 71.2642 6.03118 73.4812 0Z" fill="black"/>
<path d="M56.1439 1.8508C56.8521 1.86645 57.5531 1.70552 58.184 1.38248C58.8148 1.05944 59.3558 0.584389 59.7582 0L55.8694 0C55.8128 0.630034 55.9068 1.26453 56.1439 1.8508Z" fill="black"/>
<path d="M36.6214 2.50108C36.6856 1.65983 36.6048 0.813786 36.3826 0L28.3234 0C30.013 2.26169 32.672 4.05532 36.6214 2.50108Z" fill="#353535"/>
<path d="M22.9304 3.72327C22.9304 3.72327 26.2204 9.79732 30.5013 6.61023C30.5013 6.61023 29.7456 1.36153 22.9304 3.72327Z" fill="#353535"/>
<path d="M48.655 12.4734C48.655 12.4734 54.1335 10.3046 50.1984 3.3909C50.1984 3.3909 44.3741 8.57528 48.655 12.4734Z" fill="#696969"/>
<path d="M53.3743 8.36767C53.3743 8.36767 59.0346 10.0041 60.1075 2.10425C60.1075 2.10425 52.3478 2.65091 53.3743 8.36767Z" fill="#696969"/>
<path d="M37.9617 1.24344C37.9617 1.24344 39.1272 8.95034 44.7341 7.4747C44.7305 7.4747 45.889 1.68649 37.9617 1.24344Z" fill="#696969"/>
<path d="M13.392 4.64486C13.392 4.64486 12.4046 1.88296 10.4157 0H3.68604C4.0603 1.94727 5.75341 6.02761 13.392 4.64486Z" fill="black"/>
<path d="M-4.23413 11.1831C-4.23413 11.1831 0.977073 13.9772 3.68248 6.49895C3.68248 6.49895 -4.01314 5.38061 -4.23413 11.1831Z" fill="#696969"/>
<path d="M89.2682 5.86682C89.2682 5.86682 89.1506 2.50108 87.5323 0H81.43C81.6866 2.14378 83.2051 5.06647 89.2682 5.86682Z" fill="black"/>
<path d="M137.438 0H128.94C128.278 0.776233 127.691 1.61368 127.187 2.50108C127.187 2.50108 135 5.44521 137.438 0Z" fill="black"/>
<path d="M123.558 0H119.994C120.004 0.490146 120.103 0.974307 120.286 1.42919C120.901 1.4384 121.512 1.31566 122.076 1.06917C122.64 0.822687 123.146 0.458156 123.558 0V0Z" fill="black"/>
<path d="M100.76 2.07232C100.816 1.37862 100.77 0.680478 100.625 0L92.7828 0C94.4973 2.04731 97.0601 3.51938 100.76 2.07232Z" fill="#353535"/>
<path d="M112.786 12.0409C112.786 12.0409 118.265 9.86853 114.326 2.9584C114.326 2.9584 108.505 8.1285 112.786 12.0409Z" fill="#696969"/>
<path d="M117.498 7.9356C117.498 7.9356 123.166 9.55773 124.239 1.66861C124.239 1.66861 116.465 2.21885 117.498 7.9356Z" fill="#696969"/>
<path d="M102.093 0.807465C102.093 0.807465 103.259 8.51794 108.865 7.0423C108.862 7.0423 110.02 1.25051 102.093 0.807465Z" fill="#696969"/>
<path d="M73.8164 7.50341C73.8164 7.50341 71.4852 14.5314 81.4692 15.8499C81.4692 15.857 81.1377 6.235 73.8164 7.50341Z" fill="black"/>
<path d="M273.097 93.2722C273.097 93.2722 266.364 96.4879 272.384 104.684C272.377 104.688 279.135 97.7242 273.097 93.2722Z" fill="black"/>
<path d="M294.337 104.145C294.337 104.145 288.713 99.2393 283.612 108.047C283.612 108.047 292.68 111.477 294.337 104.145Z" fill="black"/>
<path d="M285.276 121.438C285.276 121.438 285.579 113.971 275.535 115.482C275.521 115.482 278.504 124.718 285.276 121.438Z" fill="black"/>
<path d="M274.113 125.297C274.113 125.297 277.167 121.46 271.592 117.994C271.592 117.994 269.489 124.172 274.113 125.297Z" fill="black"/>
<path d="M261.434 122.049C261.434 122.049 266.321 122.317 265.904 115.757C265.904 115.765 259.666 117.622 261.434 122.049Z" fill="black"/>
<path d="M281.12 144.144C281.12 144.144 283.419 139.81 277.303 137.431C277.303 137.431 276.365 143.89 281.12 144.144Z" fill="black"/>
<path d="M259.563 133.229C259.563 133.229 264.432 133.726 264.318 127.155C264.318 127.151 258.001 128.727 259.563 133.229Z" fill="black"/>
<path d="M250.801 116.658C250.801 116.658 254.366 120.006 258.258 114.707C258.258 114.693 252.277 112.124 250.801 116.658Z" fill="black"/>
<path d="M267.098 95.5592C267.098 95.5592 270.516 92.0469 265.316 88.0559C265.316 88.0452 262.614 93.9692 267.098 95.5592Z" fill="black"/>
<path d="M243.27 122.91C243.27 122.91 246.684 119.398 241.487 115.407C241.48 115.407 238.778 121.349 243.27 122.91Z" fill="black"/>
<path d="M226.82 19.5477C226.82 19.5477 230.238 16.0355 225.037 12.0445C225.012 12.0338 222.314 17.972 226.82 19.5477Z" fill="black"/>
<path d="M250.202 177.655C250.202 177.655 253.617 174.14 248.42 170.152C248.413 170.138 245.711 176.08 250.202 177.655Z" fill="black"/>
<path d="M243.701 155.067C243.701 155.067 247.119 151.555 241.919 147.564C241.915 147.564 239.213 153.491 243.701 155.067Z" fill="black"/>
<path d="M262.336 167.665C262.336 167.665 265.75 164.15 260.554 160.162C260.546 160.148 257.83 166.09 262.336 167.665Z" fill="black"/>
<path d="M200.799 181.864C200.799 181.864 204.218 178.352 199.017 174.361C199.017 174.35 196.315 180.289 200.799 181.864Z" fill="black"/>
<path d="M182.621 171.145C182.621 171.145 186.035 167.633 180.838 163.642C180.817 163.642 178.115 169.563 182.621 171.145Z" fill="black"/>
<path d="M167.44 115.543C167.44 115.543 170.854 112.027 165.657 108.04C165.65 108.025 162.948 113.978 167.44 115.543Z" fill="black"/>
<path d="M163.105 89.4779C163.105 89.4779 166.524 85.9656 161.323 81.9746C161.316 81.9639 158.614 87.895 163.105 89.4779Z" fill="black"/>
<path d="M248.47 94.6837C248.47 94.6837 251.885 91.1715 246.688 87.1805C246.681 87.1805 243.979 93.1152 248.47 94.6837Z" fill="black"/>
<path d="M220.304 34.3004C220.304 34.3004 223.719 30.7881 218.522 26.7971C218.515 26.7971 215.813 32.739 220.304 34.3004Z" fill="black"/>
<path d="M201.238 34.7506C201.238 34.7506 204.652 31.2384 199.455 27.2474C199.448 27.2367 196.747 33.175 201.238 34.7506Z" fill="black"/>
<path d="M276.722 106.964C276.722 106.964 281.605 107.289 281.263 100.722C281.252 100.722 274.989 102.519 276.722 106.964Z" fill="black"/>
<path d="M234.109 90.2424C234.109 90.2424 234.013 97.6527 243.922 95.8769C243.929 95.8769 240.7 86.823 234.109 90.2424Z" fill="black"/>
<path d="M253.218 92.6436C253.218 92.6436 250.887 99.6717 260.867 100.99C260.867 100.99 260.536 91.3681 253.218 92.6436Z" fill="black"/>
<path d="M224.849 73.0315C224.849 73.0315 222.778 81.5352 234.661 82.1283C234.661 82.1283 233.346 70.827 224.849 73.0315Z" fill="#353535"/>
<path d="M285.651 118.087C285.651 118.087 291.265 124.793 298.771 115.539C298.771 115.539 288.905 109.912 285.651 118.087Z" fill="#353535"/>
<path d="M236.255 140.672C236.255 140.672 241.865 147.378 249.372 138.124C249.372 138.124 239.509 132.5 236.255 140.672Z" fill="#353535"/>
<path d="M165.187 96.3705C165.187 96.3705 170.805 103.073 178.311 93.8229C178.311 93.8229 168.441 88.1955 165.187 96.3705Z" fill="#353535"/>
<path d="M183.715 30.974C183.715 30.974 188.395 23.5815 177.324 19.2082C177.324 19.2082 174.961 30.338 183.715 30.974Z" fill="#353535"/>
<path d="M243.081 29.2378C243.081 29.2378 247.761 21.8453 236.69 17.472C236.69 17.472 234.323 28.6018 243.081 29.2378Z" fill="#353535"/>
<path d="M277.399 123.982C277.399 123.982 272.081 130.928 282.717 136.273C282.717 136.255 286.064 125.383 277.399 123.982Z" fill="#353535"/>
<path d="M270.202 131.739C270.202 131.739 261.47 131.757 263.737 143.466C263.737 143.466 274.369 139.485 270.202 131.739Z" fill="#353535"/>
<path d="M259.866 121.806C259.866 121.806 252.32 117.397 248.374 128.648C248.374 128.648 259.559 130.599 259.866 121.806Z" fill="#353535"/>
<path d="M257.192 107.618C257.192 107.618 258.261 98.9285 246.374 99.7575C246.374 99.7539 249.015 110.823 257.192 107.618Z" fill="#353535"/>
<path d="M251.058 111.727C251.058 111.727 250.302 106.475 243.487 108.84C243.494 108.84 246.78 114.896 251.058 111.727Z" fill="#353535"/>
<path d="M278.472 95.8771C278.472 95.8771 283.708 95.0875 281.323 88.2703C281.309 88.2703 275.296 91.6038 278.472 95.8771Z" fill="#353535"/>
<path d="M285.693 125.186C285.693 125.186 288.901 120.97 293.71 126.362C293.71 126.362 287.893 130.056 285.693 125.186Z" fill="#353535"/>
<path d="M256.162 89.5101C256.162 89.5101 259.252 85.2011 252.705 82.1677C252.705 82.1784 250.887 88.8205 256.162 89.5101Z" fill="#353535"/>
<path d="M219.306 99.9823C219.306 99.9823 223.17 105.503 229.546 98.9104C229.546 98.8997 222.346 93.9225 219.306 99.9823Z" fill="#696969"/>
<path d="M269.236 117.59C269.236 117.59 274.718 115.418 270.78 108.508C270.762 108.508 264.938 113.678 269.236 117.59Z" fill="#696969"/>
<path d="M273.931 113.485C273.931 113.485 279.598 115.103 280.671 107.218C280.671 107.218 272.911 107.768 273.931 113.485Z" fill="#696969"/>
<path d="M265.294 112.591C265.294 112.591 266.456 106.8 258.522 106.357C258.543 106.357 259.694 114.067 265.294 112.591Z" fill="#696969"/>
<path d="M250.997 17.9009C250.997 17.9009 252.156 12.1091 244.225 11.666C244.228 11.666 245.394 19.3765 250.997 17.9009Z" fill="#696969"/>
<path d="M274.394 27.8909C274.394 27.8909 275.556 22.0991 267.622 21.6561C267.629 21.6561 268.794 29.3665 274.394 27.8909Z" fill="#696969"/>
<path d="M229.764 27.0224C229.764 27.0224 230.922 21.2306 222.991 20.7876C222.995 20.7876 224.161 28.4981 229.764 27.0224Z" fill="#696969"/>
<path d="M193.774 32.6926C193.774 32.6926 198.871 29.7271 193.945 23.4815C193.945 23.4815 188.958 29.4662 193.774 32.6926Z" fill="#696969"/>
<path d="M218.04 24.0071C218.04 24.0071 223.134 21.0379 218.212 14.7924C218.212 14.7924 213.225 20.7771 218.04 24.0071Z" fill="#696969"/>
<path d="M285.633 20.3657C285.633 20.3657 291.493 20.9874 291.193 13.0304C291.176 13.0232 283.626 14.9062 285.633 20.3657Z" fill="#696969"/>
<path d="M247.493 29.0482C247.493 29.0482 253.353 29.6663 253.054 21.7129C253.043 21.7129 245.494 23.5816 247.493 29.0482Z" fill="#696969"/>
<path d="M189.418 17.754C189.418 17.754 195.278 18.3722 194.979 10.4187C194.979 10.4187 187.429 12.2981 189.418 17.754Z" fill="#696969"/>
<path d="M166.884 31.6529C166.884 31.6529 172.744 32.271 172.448 24.3176C172.448 24.3176 164.898 26.2005 166.884 31.6529Z" fill="#696969"/>
<path d="M157.787 62.0591C157.787 62.0591 163.647 62.6772 163.348 54.7238C163.348 54.7238 155.798 56.6031 157.787 62.0591Z" fill="#696969"/>
<path d="M171.215 109.404C171.215 109.404 177.074 110.022 176.775 102.069C176.779 102.069 169.229 103.948 171.215 109.404Z" fill="#696969"/>
<path d="M238.383 86.3839C238.383 86.3839 244.243 87.0021 243.943 79.0486C243.929 79.0486 236.394 80.928 238.383 86.3839Z" fill="#696969"/>
<path d="M270.448 89.4207C270.448 89.4207 276.308 90.0388 276.009 82.0889C276.009 82.0889 268.459 83.9647 270.448 89.4207Z" fill="#696969"/>
<path d="M258.9 79.3807C258.9 79.3807 263.084 75.2254 256.761 70.4233C256.761 70.4233 253.442 77.4728 258.9 79.3807Z" fill="#696969"/>
<path d="M279.573 148.278C279.573 148.278 279.384 152.694 285.298 152.101C285.298 152.091 283.544 146.528 279.573 148.278Z" fill="#696969"/>
<path d="M257.178 133.429C257.178 133.429 252.822 134.094 254.54 139.8C254.54 139.8 259.648 137.002 257.178 133.429Z" fill="#696969"/>
<path d="M281.035 41.9932C281.035 41.9932 282.892 34.7544 272.751 34.1327C272.751 34.1291 273.756 43.7904 281.035 41.9932Z" fill="black"/>
<path d="M264.567 30.6991C264.567 30.6991 266.424 23.4602 256.283 22.8385C256.283 22.835 257.288 32.5141 264.567 30.6991Z" fill="black"/>
<path d="M236.404 41.1248C236.404 41.1248 238.258 33.8859 228.121 33.2642C228.121 33.2571 229.126 42.922 236.404 41.1248Z" fill="black"/>
<path d="M209.971 23.3172C209.971 23.3172 211.828 16.0748 201.687 15.4566C201.687 15.4495 202.692 25.1108 209.971 23.3172Z" fill="black"/>
<path d="M173.571 86.7339C173.571 86.7339 175.428 79.4914 165.287 78.8733C165.287 78.8662 166.292 88.5275 173.571 86.7339Z" fill="black"/>
<path d="M241.601 108.451C241.601 108.451 243.458 101.212 233.318 100.59C233.318 100.583 234.323 110.244 241.601 108.451Z" fill="black"/>
<path d="M282.781 21.5771C282.781 21.5771 284.638 14.3383 274.498 13.7166C274.483 13.713 275.488 23.3743 282.781 21.5771Z" fill="black"/>
<path d="M270.662 44.9407C270.662 44.9407 273.713 41.1033 268.139 37.6375C268.124 37.6375 266.028 43.8152 270.662 44.9407Z" fill="black"/>
<path d="M257.966 41.6929C257.966 41.6929 262.853 41.9609 262.439 35.4009C262.439 35.4009 256.198 37.266 257.966 41.6929Z" fill="black"/>
<path d="M277.652 63.7847C277.652 63.7847 279.951 59.4543 273.838 57.0747C273.838 57.0747 272.904 63.5346 277.652 63.7847Z" fill="black"/>
<path d="M256.098 52.8799C256.098 52.8799 260.967 53.3765 260.853 46.8058C260.853 46.8058 254.533 48.3708 256.098 52.8799Z" fill="black"/>
<path d="M247.333 36.3012C247.333 36.3012 250.897 39.6527 254.79 34.3504C254.79 34.3504 248.812 31.7671 247.333 36.3012Z" fill="black"/>
<path d="M282.186 37.7306C282.186 37.7306 287.8 44.4371 295.307 35.1831C295.307 35.1831 285.44 29.5557 282.186 37.7306Z" fill="#353535"/>
<path d="M273.934 43.608C273.934 43.608 268.616 50.5539 279.253 55.8991C279.253 55.8991 282.596 45.0194 273.934 43.608Z" fill="#353535"/>
<path d="M266.741 51.3827C266.741 51.3827 258.008 51.4006 260.279 63.1092C260.272 63.1092 270.905 59.1289 266.741 51.3827Z" fill="#353535"/>
<path d="M256.404 41.4468C256.404 41.4468 248.859 37.0377 244.916 48.289C244.909 48.2926 256.091 50.2434 256.404 41.4468Z" fill="#353535"/>
<path d="M247.493 64.5815C247.493 64.5815 250.701 60.3654 255.506 65.757C255.517 65.7427 249.7 69.4407 247.493 64.5815Z" fill="#353535"/>
<path d="M270.594 66.232C270.594 66.232 275.856 65.6425 275.289 72.8492C275.296 72.8492 268.613 71.1842 270.594 66.232Z" fill="#353535"/>
<path d="M283.177 84.1576C283.177 84.1576 287.365 80.0022 281.038 75.2001C281.031 75.2001 277.706 82.2496 283.177 84.1576Z" fill="#696969"/>
<path d="M282.607 67.0432C282.607 67.0432 282.425 71.4594 288.328 70.8663C288.328 70.8663 286.577 65.3032 282.607 67.0432Z" fill="#696969"/>
<path d="M287.344 57.689C287.344 57.689 285.676 61.78 291.443 63.2271C291.443 63.2414 291.671 57.396 287.344 57.689Z" fill="#696969"/>
<path d="M253.713 53.0764C253.713 53.0764 249.354 53.741 251.072 59.4398C251.058 59.4398 256.183 56.6458 253.713 53.0764Z" fill="#696969"/>
<path d="M218.204 157.243C218.204 157.243 220.058 150.004 209.921 149.382C209.921 149.375 210.926 159.04 218.204 157.243Z" fill="black"/>
<path d="M222.41 107.618C222.41 107.618 222.314 115.025 232.223 113.249C232.223 113.263 228.998 104.181 222.41 107.618Z" fill="black"/>
<path d="M223.316 85.569C223.316 85.569 218.682 91.3322 227.554 96.0771C227.554 96.0771 230.612 86.9518 223.316 85.569Z" fill="black"/>
<path d="M230.915 121.681C230.915 121.681 228.844 130.184 240.721 130.77C240.721 130.77 239.413 119.473 230.915 121.681Z" fill="#353535"/>
<path d="M222.453 126.726C222.453 126.726 221.288 131.903 228.495 132.136C228.495 132.136 227.582 125.3 222.453 126.726Z" fill="#353535"/>
<path d="M225.839 140.16C225.839 140.16 229.047 135.941 233.852 141.336C233.852 141.336 228.035 145.016 225.839 140.16Z" fill="#353535"/>
<path d="M219.031 160.923C219.031 160.923 224.292 160.333 223.726 167.54C223.726 167.54 217.05 165.872 219.031 160.923Z" fill="#353535"/>
<path d="M228.406 153.409C228.406 153.409 232.27 158.929 238.647 152.337C238.647 152.327 231.453 147.349 228.406 153.409Z" fill="#696969"/>
<path d="M219.798 120.206C219.798 120.206 224.991 123 227.714 115.522C227.714 115.522 220.015 114.403 219.798 120.206Z" fill="#696969"/>
<path d="M221.94 148.278C221.94 148.278 221.751 152.694 227.664 152.101C227.664 152.091 225.914 146.528 221.94 148.278Z" fill="#696969"/>
<path d="M241.316 67.8187C241.316 67.8187 239.242 76.3259 251.126 76.9155C251.126 76.9155 249.814 65.6141 241.316 67.8187Z" fill="#353535"/>
<path d="M217.338 69.0692C217.338 69.0692 219.192 61.8303 209.054 61.2086C209.054 61.2015 210.067 70.8628 217.338 69.0692Z" fill="black"/>
<path d="M262.746 73.8427C262.746 73.8427 258.112 79.6059 266.987 84.3509C266.987 84.3509 270.046 75.2255 262.746 73.8427Z" fill="black"/>
<path d="M228.748 46.5345C228.748 46.5345 226.677 55.0417 238.561 55.6312C238.561 55.6312 237.249 44.3299 228.748 46.5345Z" fill="#353535"/>
<path d="M218.386 38.4201C218.386 38.4201 217.217 43.5937 224.428 43.826C224.428 43.826 223.512 36.9945 218.386 38.4201Z" fill="#353535"/>
<path d="M213.706 51.9832C213.706 51.9832 216.914 47.7671 221.719 53.1588C221.719 53.1588 215.902 56.8425 213.706 51.9832Z" fill="#353535"/>
<path d="M218.165 72.7493C218.165 72.7493 223.426 72.1598 222.859 79.3664C222.859 79.3664 216.183 77.6979 218.165 72.7493Z" fill="#353535"/>
<path d="M227.533 65.2316C227.533 65.2316 231.396 70.7554 237.773 64.1597C237.78 64.1526 230.58 59.1754 227.533 65.2316Z" fill="#696969"/>
<path d="M221.074 60.0938C221.074 60.0938 220.885 64.51 226.798 63.9169C226.798 63.9169 225.037 58.3538 221.074 60.0938Z" fill="#696969"/>
<path d="M271.831 148.7C271.831 148.7 264.489 147.41 264.653 157.59C264.653 157.59 274.184 155.835 271.831 148.7Z" fill="black"/>
<path d="M252.587 164.736C252.587 164.736 258.821 158.601 249.022 151.819C249.033 151.819 244.203 162.117 252.587 164.736Z" fill="#353535"/>
<path d="M255.121 153.659C255.121 153.659 250.68 150.776 255.67 145.556C255.67 145.556 259.784 151.083 255.121 153.659Z" fill="#353535"/>
<path d="M272.035 158.025C272.035 158.025 276.234 159.372 277.224 153.498C277.224 153.498 271.407 153.727 272.035 158.025Z" fill="#696969"/>
<path d="M194.668 111.948C194.668 111.948 187.932 115.164 193.956 123.364C193.948 123.364 200.707 116.4 194.668 111.948Z" fill="black"/>
<path d="M215.909 122.824C215.909 122.824 210.281 117.908 205.18 126.723C205.18 126.723 214.248 130.149 215.909 122.824Z" fill="black"/>
<path d="M206.071 141.025C206.071 141.025 207.928 133.787 197.787 133.165C197.787 133.161 198.793 142.823 206.071 141.025Z" fill="black"/>
<path d="M195.681 143.991C195.681 143.991 198.735 140.157 193.161 136.691C193.161 136.674 191.058 142.851 195.681 143.991Z" fill="black"/>
<path d="M183.002 140.725C183.002 140.725 187.889 140.997 187.475 134.433C187.475 134.433 181.234 136.298 183.002 140.725Z" fill="black"/>
<path d="M202.688 162.821C202.688 162.821 204.987 158.487 198.874 156.107C198.874 156.107 197.948 162.57 202.688 162.821Z" fill="black"/>
<path d="M181.131 151.909C181.131 151.909 186.003 152.405 185.889 145.835C185.889 145.827 179.569 147.403 181.131 151.909Z" fill="black"/>
<path d="M172.369 135.333C172.369 135.333 175.934 138.685 179.826 133.383C179.826 133.383 173.845 130.803 172.369 135.333Z" fill="black"/>
<path d="M188.68 114.239C188.68 114.239 192.099 110.723 186.898 106.735C186.898 106.725 184.182 112.663 188.68 114.239Z" fill="black"/>
<path d="M198.279 125.64C198.279 125.64 203.162 125.968 202.82 119.401C202.82 119.401 196.561 121.195 198.279 125.64Z" fill="black"/>
<path d="M174.779 111.319C174.779 111.319 172.448 118.347 182.428 119.669C182.435 119.669 182.107 110.047 174.779 111.319Z" fill="black"/>
<path d="M207.215 136.763C207.215 136.763 212.829 143.469 220.339 134.215C220.343 134.215 210.473 128.591 207.215 136.763Z" fill="#353535"/>
<path d="M198.967 142.644C198.967 142.644 193.653 149.586 204.289 154.935C204.289 154.935 207.632 144.059 198.967 142.644Z" fill="#353535"/>
<path d="M191.771 150.422C191.771 150.422 183.038 150.422 185.305 162.145C185.305 162.142 195.941 158.161 191.771 150.422Z" fill="#353535"/>
<path d="M181.434 140.482C181.434 140.482 173.888 136.073 169.946 147.328C169.946 147.328 181.127 149.279 181.434 140.482Z" fill="#353535"/>
<path d="M178.764 126.297C178.764 126.297 179.815 117.604 167.946 118.437C167.946 118.433 170.584 129.499 178.764 126.297Z" fill="#353535"/>
<path d="M172.64 130.414C172.64 130.414 171.885 125.161 165.069 127.527C165.066 127.516 168.363 133.572 172.64 130.414Z" fill="#353535"/>
<path d="M200.044 114.553C200.044 114.553 205.276 113.764 202.895 106.946C202.877 106.946 196.857 110.28 200.044 114.553Z" fill="#353535"/>
<path d="M213.082 114.553C213.082 114.553 208.092 112.802 207.023 119.956C207.037 119.956 213.916 119.82 213.082 114.553Z" fill="#353535"/>
<path d="M190.79 136.266C190.79 136.266 196.269 134.097 192.33 127.184C192.33 127.198 186.509 132.354 190.79 136.266Z" fill="#696969"/>
<path d="M195.503 132.16C195.503 132.16 201.17 133.783 202.243 125.893C202.243 125.893 194.483 126.444 195.503 132.16Z" fill="#696969"/>
<path d="M186.866 131.268C186.866 131.268 188.024 125.476 180.094 125.033C180.097 125.033 181.263 132.743 186.866 131.268Z" fill="#696969"/>
<path d="M210.402 99.7394C210.402 99.7394 205.939 95.877 201.658 102.598C201.658 102.58 208.926 105.356 210.402 99.7394Z" fill="#696969"/>
<path d="M206.602 161.934C206.602 161.934 204.934 166.026 210.701 167.473C210.701 167.473 210.929 161.641 206.602 161.934Z" fill="#696969"/>
<path d="M190.184 91.7111C190.184 91.7111 182.838 90.4177 183.006 100.601C183.006 100.601 192.537 98.8427 190.184 91.7111Z" fill="black"/>
<path d="M212.124 93.394C212.124 93.394 207.636 91.436 205.743 97.7315C205.743 97.7315 212.241 98.1639 212.124 93.394Z" fill="black"/>
<path d="M205.102 74.8608C205.102 74.8608 197.755 73.5674 197.919 83.7504C197.919 83.7504 207.451 81.996 205.102 74.8608Z" fill="black"/>
<path d="M185.854 90.8929C185.854 90.8929 192.088 84.7617 182.289 77.9766C182.303 77.9766 177.474 88.2739 185.854 90.8929Z" fill="#353535"/>
<path d="M192.344 98.682C192.344 98.682 199.666 103.455 204.153 92.4114C204.153 92.4114 193.079 89.9139 192.344 98.682Z" fill="#353535"/>
<path d="M188.391 79.8165C188.391 79.8165 183.947 76.9331 188.937 71.7166C188.937 71.7166 193.054 77.2439 188.391 79.8165Z" fill="#353535"/>
<path d="M211.314 110.065C211.314 110.065 208.506 105.567 215.235 102.959C215.232 102.959 216.625 109.712 211.314 110.065Z" fill="#353535"/>
<path d="M195.884 71.817C195.884 71.817 200.29 71.6633 199.242 65.8001C199.242 65.8072 193.845 67.9903 195.884 71.817Z" fill="#696969"/>
<path d="M205.305 84.1865C205.305 84.1865 209.504 85.5335 210.495 79.6595C210.495 79.6774 204.677 79.8846 205.305 84.1865Z" fill="#696969"/>
<path d="M178.75 152.109C178.75 152.109 174.39 152.773 176.108 158.476C176.108 158.476 181.22 155.682 178.75 152.109Z" fill="#696969"/>
<path d="M215.057 34.6579C215.057 34.6579 209.429 29.7522 204.328 38.5595C204.314 38.5488 213.382 41.9753 215.057 34.6579Z" fill="black"/>
<path d="M205.205 52.8514C205.205 52.8514 207.058 45.6126 196.921 44.9909C196.921 44.9873 197.926 54.6665 205.205 52.8514Z" fill="black"/>
<path d="M194.815 55.7992C194.815 55.7992 197.869 51.9654 192.295 48.4961C192.295 48.4961 190.192 54.6666 194.815 55.7992Z" fill="black"/>
<path d="M182.136 52.551C182.136 52.551 187.023 52.819 186.606 46.259C186.606 46.259 180.368 48.1241 182.136 52.551Z" fill="black"/>
<path d="M199.035 13.4592C199.035 13.4592 203.922 13.7272 203.508 7.16724C203.508 7.16724 197.267 9.03233 199.035 13.4592Z" fill="black"/>
<path d="M279.63 32.1353C279.63 32.1353 284.521 32.4068 284.104 25.8433C284.104 25.8433 277.866 27.7084 279.63 32.1353Z" fill="black"/>
<path d="M276.597 11.287C276.597 11.287 281.488 11.555 281.07 4.99503C281.07 5.00217 274.833 6.86012 276.597 11.287Z" fill="black"/>
<path d="M241.498 61.2374C241.498 61.2374 246.388 61.5089 245.971 54.9454C245.971 54.9454 239.734 56.8105 241.498 61.2374Z" fill="black"/>
<path d="M212.466 90.7751C212.466 90.7751 217.356 91.0431 216.939 84.4831C216.939 84.4831 210.701 86.3482 212.466 90.7751Z" fill="black"/>
<path d="M192.533 108.147C192.533 108.147 197.424 108.418 197.007 101.858C197.007 101.858 190.769 103.723 192.533 108.147Z" fill="black"/>
<path d="M160.468 148.993C160.468 148.993 165.358 149.261 164.941 142.701C164.941 142.687 158.703 144.552 160.468 148.993Z" fill="black"/>
<path d="M212.918 146.374C212.918 146.374 217.805 146.642 217.392 140.078C217.374 140.078 211.136 141.944 212.918 146.374Z" fill="black"/>
<path d="M235.018 164.182C235.018 164.182 239.905 164.45 239.488 157.89C239.47 157.89 233.236 159.755 235.018 164.182Z" fill="black"/>
<path d="M268.367 168.526C268.367 168.526 273.254 168.794 272.837 162.231C272.837 162.231 266.599 164.096 268.367 168.526Z" fill="black"/>
<path d="M285.276 162.877C285.276 162.877 290.163 163.149 289.746 156.585C289.735 156.585 283.494 158.451 285.276 162.877Z" fill="black"/>
<path d="M288.73 84.6792C288.73 84.6792 293.617 84.9472 293.204 78.3872C293.204 78.4015 286.966 80.2666 288.73 84.6792Z" fill="black"/>
<path d="M267.476 105.489C267.476 105.489 268.841 100.776 262.371 99.7003C262.371 99.686 262.774 106.214 267.476 105.489Z" fill="black"/>
<path d="M271.81 17.3145C271.81 17.3145 273.175 12.6017 266.702 11.5262C266.702 11.5262 267.098 18.0398 271.81 17.3145Z" fill="black"/>
<path d="M217.645 15.1423C217.645 15.1423 219.01 10.4295 212.537 9.35406C212.537 9.35406 212.943 15.8676 217.645 15.1423Z" fill="black"/>
<path d="M262.3 70.795C262.3 70.795 267.187 71.0629 266.77 64.503C266.77 64.503 260.532 66.3681 262.3 70.795Z" fill="black"/>
<path d="M173.467 79.045C173.467 79.045 178.343 79.3201 177.941 72.753C177.941 72.753 171.703 74.6217 173.467 79.045Z" fill="black"/>
<path d="M170.434 19.973C170.434 19.973 175.324 20.2446 174.907 13.681C174.907 13.681 168.669 15.5461 170.434 19.973Z" fill="black"/>
<path d="M238.033 44.7335C238.033 44.7335 242.92 45.0015 242.507 38.4415C242.503 38.4415 236.265 40.3066 238.033 44.7335Z" fill="black"/>
<path d="M201.822 74.6465C201.822 74.6465 204.121 70.3125 198.005 67.9329C198.005 67.9329 197.075 74.3928 201.822 74.6465Z" fill="black"/>
<path d="M180.265 63.7346C180.265 63.7346 185.134 64.2277 185.023 57.6606C185.023 57.6534 178.7 59.2291 180.265 63.7346Z" fill="black"/>
<path d="M171.503 47.1631C171.503 47.1631 175.068 50.5145 178.96 45.2122C178.96 45.2087 172.997 42.629 171.503 47.1631Z" fill="black"/>
<path d="M206.353 48.5925C206.353 48.5925 211.967 55.2989 219.473 46.0449C219.473 46.0414 209.607 40.4139 206.353 48.5925Z" fill="#353535"/>
<path d="M198.101 54.47C198.101 54.47 192.783 61.4123 203.419 66.7575C203.419 66.7575 206.766 55.8849 198.101 54.47Z" fill="#353535"/>
<path d="M190.904 62.2412C190.904 62.2412 182.172 62.2591 184.439 73.9677C184.439 73.9606 195.075 69.9874 190.904 62.2412Z" fill="#353535"/>
<path d="M180.568 52.3085C180.568 52.3085 173.022 47.8994 169.076 59.1507C169.076 59.1507 180.261 61.098 180.568 52.3085Z" fill="#353535"/>
<path d="M171.77 42.2288C171.77 42.2288 171.015 36.9765 164.2 39.3419C164.2 39.3419 167.49 45.398 171.77 42.2288Z" fill="#353535"/>
<path d="M189.921 48.0921C189.921 48.0921 195.403 45.9233 191.464 39.0096C191.464 39.0096 185.643 44.1797 189.921 48.0921Z" fill="#696969"/>
<path d="M194.636 43.9871C194.636 43.9871 200.3 45.6092 201.373 37.7201C201.373 37.7201 193.617 38.2704 194.636 43.9871Z" fill="#696969"/>
<path d="M185.996 43.0938C185.996 43.0938 187.158 37.302 179.224 36.859C179.231 36.859 180.396 44.5695 185.996 43.0938Z" fill="#696969"/>
<path d="M211.514 68.5476C211.514 68.5476 209.846 72.6386 215.61 74.0857C215.61 74.0857 215.838 68.2439 211.514 68.5476Z" fill="#696969"/>
<path d="M177.884 63.9349C177.884 63.9349 173.524 64.5995 175.242 70.3019C175.242 70.3019 180.35 67.5043 177.884 63.9349Z" fill="#696969"/>
<path d="M144 111.016V120.595C145.551 118.401 147.689 114.174 144 111.016Z" fill="black"/>
<path d="M164.777 121.52C164.777 121.52 159.149 116.615 154.048 125.411C154.048 125.411 163.116 128.848 164.777 121.52Z" fill="black"/>
<path d="M146.655 131.843C146.655 131.843 147.661 141.49 154.939 139.703C154.939 139.725 156.796 132.482 146.655 131.843Z" fill="black"/>
<path d="M144 142.497C144.179 142.566 144.362 142.623 144.549 142.669C144.549 142.669 146.752 139.903 144 136.952V142.497Z" fill="black"/>
<path d="M147.739 154.806C147.739 154.806 146.809 161.266 151.557 161.516C151.557 161.516 153.856 157.186 147.739 154.806Z" fill="black"/>
<path d="M147.147 124.34C147.147 124.34 152.031 124.665 151.689 118.098C151.689 118.098 145.429 119.891 147.147 124.34Z" fill="black"/>
<path d="M156.091 135.458C156.091 135.458 161.701 142.168 169.211 132.914C169.211 132.914 159.345 127.287 156.091 135.458Z" fill="#353535"/>
<path d="M147.839 141.34C147.839 141.34 142.521 148.278 153.157 153.638C153.157 153.638 156.5 142.758 147.839 141.34Z" fill="#353535"/>
<path d="M151.746 105.646C151.746 105.646 145.725 108.976 148.912 113.263C148.912 113.263 154.144 112.459 151.746 105.646Z" fill="#353535"/>
<path d="M155.905 118.651C155.905 118.651 162.785 118.519 161.965 113.249C161.947 113.263 156.957 111.502 155.905 118.651Z" fill="#353535"/>
<path d="M151.111 124.593C151.111 124.593 143.352 125.14 144.371 130.856C144.371 130.856 150.038 132.479 151.111 124.593Z" fill="#696969"/>
<path d="M159.27 98.4354C159.27 98.4354 154.818 94.5766 150.541 101.28C150.541 101.28 157.798 104.052 159.27 98.4354Z" fill="#696969"/>
<path d="M157.784 153.97C157.784 153.97 156.116 158.061 161.879 159.508C161.879 159.508 162.107 153.677 157.784 153.97Z" fill="#696969"/>
<path d="M154.611 96.4272C154.611 96.4272 161.109 96.8595 160.992 92.0931C160.992 92.0931 156.504 90.1316 154.611 96.4272Z" fill="black"/>
<path d="M153.97 73.5567C153.97 73.5567 146.62 72.2633 146.791 82.4463C146.791 82.4463 156.322 80.692 153.97 73.5567Z" fill="black"/>
<path d="M153.036 91.1107C153.036 91.1107 147.518 89.8709 144.014 92.2255V98.3424C146.538 98.6854 150.302 97.8064 153.036 91.1107Z" fill="#353535"/>
<path d="M164.086 101.655C157.36 104.263 160.165 108.761 160.165 108.761C165.511 108.408 164.086 101.655 164.086 101.655Z" fill="#353535"/>
<path d="M144.752 70.5198C145.56 70.4523 146.326 70.1338 146.945 69.6087C146.779 68.624 146.755 67.6205 146.873 66.6289C147.324 66.8045 147.763 67.0085 148.189 67.2399C148.319 66.3298 148.293 65.404 148.11 64.503C148.11 64.503 142.699 66.686 144.752 70.5198Z" fill="#696969"/>
<path d="M159.363 78.3551C159.363 78.3551 153.546 78.5802 154.173 82.8821C154.173 82.8928 158.382 84.2291 159.363 78.3551Z" fill="#696969"/>
<path d="M144 23.7282V31.0457C145.13 28.9841 145.95 26.1471 144 23.7282Z" fill="black"/>
<path d="M153.182 37.2448C153.182 37.2448 162.25 40.6712 163.911 33.3466C163.911 33.3466 158.283 28.4374 153.182 37.2448Z" fill="black"/>
<path d="M154.073 51.547C154.073 51.547 155.927 44.3081 145.789 43.6864C145.789 43.6829 146.795 53.3442 154.073 51.547Z" fill="black"/>
<path d="M144 49.9645V53.9912C144.337 53.3738 144.513 52.6815 144.513 51.9779C144.513 51.2742 144.337 50.5819 144 49.9645Z" fill="black"/>
<path d="M151.464 71.4915C153.2 71.2271 155.089 70.3589 155.296 67.8435C155.296 67.8435 151.703 65.7998 149.14 70.1767C150.046 70.3247 150.869 70.7907 151.464 71.4915Z" fill="black"/>
<path d="M146.944 69.6087C147.629 68.9939 148.07 68.1533 148.188 67.2398C147.763 67.0085 147.324 66.8044 146.873 66.6288C146.755 67.6204 146.779 68.6239 146.944 69.6087Z" fill="black"/>
<path d="M146.281 36.1655C146.281 36.1655 151.164 36.4906 150.822 29.9235C150.822 29.9235 144.563 31.7172 146.281 36.1655Z" fill="black"/>
<path d="M168.341 44.7407C168.341 44.7407 158.475 39.1133 155.221 47.2846C155.221 47.2846 160.835 53.9911 168.341 44.7407Z" fill="#353535"/>
<path d="M152.291 65.4566C152.291 65.4566 155.634 54.5841 146.976 53.1656C146.976 53.1656 141.655 60.1114 152.291 65.4566Z" fill="#353535"/>
<path d="M148.046 25.075C148.046 25.075 153.278 24.2961 150.897 17.4682C150.897 17.4682 144.859 20.8018 148.046 25.075Z" fill="#353535"/>
<path d="M155.039 30.4776C155.039 30.4776 161.918 30.3419 161.099 25.0753C161.084 25.0753 156.087 23.3281 155.039 30.4776Z" fill="#353535"/>
<path d="M150.245 36.4192C150.245 36.4192 145.65 36.7443 144 39.4991V42.7755C145.401 42.9577 149.364 42.8756 150.245 36.4192Z" fill="#696969"/>
<path d="M145.907 14.8421C145.907 14.8421 153.178 17.6147 154.651 11.9837C154.647 11.998 150.184 8.13917 145.907 14.8421Z" fill="#696969"/>
<path d="M160.382 67.2434C160.382 67.2434 158.714 71.3345 164.481 72.7815C164.481 72.7815 164.706 66.9505 160.382 67.2434Z" fill="#696969"/>
<path d="M158.383 20.7233C158.383 20.7233 153.906 18.7546 152.013 25.0501C152.013 25.0501 158.511 25.4789 158.383 20.7233Z" fill="black"/>
<path d="M152.155 2.93349C152.155 2.93349 147.475 1.87947 144 3.55162V10.2259C146.477 10.2509 149.728 8.90393 152.155 2.93349Z" fill="#353535"/>
<path d="M163.904 19.7941C165.198 14.6204 158.358 13.8772 158.358 13.8772C158.771 21.0803 163.904 19.7941 163.904 19.7941Z" fill="#353535"/>
<path d="M234.533 170.152C234.533 170.152 227.796 173.368 233.82 181.568C233.813 181.568 240.571 174.604 234.533 170.152Z" fill="black"/>
<path d="M255.774 181.028C255.774 181.028 251.61 177.405 247.198 181.997H255.481C255.599 181.68 255.697 181.357 255.774 181.028Z" fill="black"/>
<path d="M228.538 172.442C228.538 172.442 231.952 168.93 226.755 164.939C226.748 164.928 224.047 170.867 228.538 172.442Z" fill="black"/>
<path d="M242.685 177.605C242.685 177.605 238.19 178.895 237.869 181.997H241.762C242.378 181.068 242.795 179.681 242.685 177.605Z" fill="black"/>
<path d="M205.358 172.757C205.358 172.757 202.15 163.689 195.542 167.126C195.542 167.126 195.453 174.533 205.358 172.757Z" fill="black"/>
<path d="M214.654 169.523C214.654 169.523 212.323 176.551 222.304 177.873C222.304 177.873 221.972 168.251 214.654 169.523Z" fill="black"/>
<path d="M207.811 176.637C208.32 178.56 209.172 180.376 210.323 181.996H218.39C217.723 179.499 215.431 176.105 207.811 176.637Z" fill="#353535"/>
<path d="M242.746 165.15C242.746 165.15 236.722 168.483 239.894 172.757C239.908 172.757 245.141 171.967 242.746 165.15Z" fill="#353535"/>
<path d="M217.599 166.394C217.599 166.394 220.685 162.085 214.141 159.051C214.141 159.051 212.32 165.7 217.599 166.394Z" fill="#353535"/>
<path d="M196.615 172.739C196.615 172.739 189.415 167.766 186.374 173.811C186.374 173.822 190.238 179.363 196.615 172.739Z" fill="#696969"/>
<path d="M185.576 181.025C185.582 181.352 185.619 181.677 185.686 181.997H192.416C190.819 180.457 188.527 179.485 185.576 181.025Z" fill="black"/>
<path d="M158.7 181.01C158.201 181.274 157.741 181.605 157.335 181.997H159.808C159.473 181.631 159.102 181.3 158.7 181.01Z" fill="black"/>
<path d="M150.915 175.79C150.915 175.79 149.133 179.681 150.854 182H153.506C154.055 180.617 154.184 178.291 150.915 175.79Z" fill="black"/>
<path d="M263.619 179.513C263.392 180.32 263.328 181.164 263.43 181.997H269.532C268.42 180.285 266.599 179.006 263.619 179.513Z" fill="black"/>
<path d="M264.56 177.116C264.56 177.116 265.611 168.426 253.742 169.255C253.742 169.252 256.383 180.317 264.56 177.116Z" fill="#353535"/>
<path d="M286.435 177.437C286.435 177.437 286.103 167.815 278.782 169.091C278.782 169.091 276.454 176.119 286.435 177.437Z" fill="black"/>
<path d="M271.942 176.201C271.942 176.201 272.737 179.52 274.793 181.996H282.635C282.111 179.481 280.015 175.64 271.942 176.201Z" fill="#353535"/>
<path d="M166.912 176.008C166.912 176.008 162.364 178.531 163.269 181.997H166.709C167.532 180.889 167.981 179.049 166.912 176.008Z" fill="#353535"/>
<path d="M165.693 171.646C165.693 171.646 172.961 174.418 174.437 168.787C174.422 168.802 169.974 164.943 165.693 171.646Z" fill="#696969"/>
<path d="M154.219 165.118C154.219 165.118 146.873 163.824 147.041 174.004C147.041 174.004 156.572 172.25 154.219 165.118Z" fill="black"/>
<path d="M176.158 162.46C176.158 162.46 171.671 160.498 169.789 166.794C169.789 166.794 176.276 167.215 176.158 162.46Z" fill="black"/>
<path d="M168.188 161.473C168.188 161.473 157.114 158.972 156.379 167.744C156.379 167.744 163.701 172.517 168.188 161.473Z" fill="#353535"/>
<path d="M175.349 179.127C180.66 178.77 179.27 172.021 179.27 172.021C172.54 174.629 175.349 179.127 175.349 179.127Z" fill="#353535"/>
<path d="M255.481 0H247.197C246.37 0.88675 245.651 1.87048 245.059 2.92984C245.059 2.92984 253.264 6.03118 255.481 0Z" fill="black"/>
<path d="M238.144 1.8508C238.852 1.86645 239.553 1.70552 240.184 1.38248C240.815 1.05944 241.356 0.584389 241.758 0L237.869 0C237.813 0.630034 237.907 1.26453 238.144 1.8508Z" fill="black"/>
<path d="M218.621 2.50108C218.686 1.65983 218.605 0.813786 218.383 0L210.323 0C212.013 2.26169 214.672 4.05532 218.621 2.50108Z" fill="#353535"/>
<path d="M204.93 3.72327C204.93 3.72327 208.22 9.79732 212.501 6.61023C212.501 6.61023 211.746 1.36153 204.93 3.72327Z" fill="#353535"/>
<path d="M230.655 12.4734C230.655 12.4734 236.134 10.3046 232.198 3.3909C232.198 3.3909 226.374 8.57528 230.655 12.4734Z" fill="#696969"/>
<path d="M235.374 8.36767C235.374 8.36767 241.035 10.0041 242.108 2.10425C242.108 2.10425 234.348 2.65091 235.374 8.36767Z" fill="#696969"/>
<path d="M219.962 1.24344C219.962 1.24344 221.127 8.95034 226.734 7.4747C226.731 7.4747 227.889 1.68649 219.962 1.24344Z" fill="#696969"/>
<path d="M195.392 4.64486C195.392 4.64486 194.405 1.88296 192.416 0H185.686C186.06 1.94727 187.753 6.02761 195.392 4.64486Z" fill="black"/>
<path d="M177.766 11.1831C177.766 11.1831 182.977 13.9772 185.682 6.49895C185.682 6.49895 177.987 5.38061 177.766 11.1831Z" fill="#696969"/>
<path d="M157.98 10.4295C157.98 10.4295 163.808 4.42334 159.808 0H157.349C155.745 1.4935 153.838 4.77349 157.98 10.4295Z" fill="black"/>
<path d="M152.704 1.30414C153.047 0.920702 153.318 0.479069 153.506 0L150.854 0C151.323 0.614692 151.969 1.07 152.704 1.30414Z" fill="black"/>
<path d="M162.303 12.7091C162.303 12.7091 167.187 13.0342 166.845 6.4671C166.855 6.4671 160.596 8.26431 162.303 12.7091Z" fill="black"/>
<path d="M271.268 5.86682C271.268 5.86682 271.15 2.50108 269.532 0H263.43C263.687 2.14378 265.205 5.06647 271.268 5.86682Z" fill="black"/>
<path d="M282.76 2.07232C282.816 1.37862 282.77 0.680478 282.624 0L274.783 0C276.497 2.04731 279.06 3.51938 282.76 2.07232Z" fill="#353535"/>
<path d="M284.093 0.807465C284.093 0.807465 285.259 8.51794 290.865 7.0423C290.862 7.0423 292.02 1.25051 284.093 0.807465Z" fill="#696969"/>
<path d="M255.816 7.50341C255.816 7.50341 253.485 14.5314 263.469 15.8499C263.469 15.857 263.138 6.235 255.816 7.50341Z" fill="black"/>
<path d="M166.709 0H163.269C163.434 0.58757 163.711 1.13734 164.086 1.61856C165.125 1.41095 166.056 0.836693 166.709 0V0Z" fill="#353535"/>
<path d="M171.072 7.02433C171.072 7.02433 177.951 6.88856 177.131 1.61842C177.117 1.61842 172.12 -0.128762 171.072 7.02433Z" fill="#353535"/>
</g>
</g>
<defs>
<linearGradient id="paint0_linear_1_225" x1="144" y1="0" x2="144" y2="182" gradientUnits="userSpaceOnUse">
<stop stop-color="#FDE3E4"/>
<stop offset="1" stop-color="#F7D6D9"/>
</linearGradient>
<linearGradient id="paint1_linear_1_225" x1="144" y1="0" x2="144" y2="182" gradientUnits="userSpaceOnUse">
<stop stop-color="#FDE3E4"/>
<stop offset="1" stop-color="#F7D6D9"/>
</linearGradient>
</defs>
</svg>
