<svg width="288" height="182" viewBox="0 0 288 182" fill="none" xmlns="http://www.w3.org/2000/svg">
<rect width="288" height="182" fill="url(#paint0_linear_3_5)"/>
<mask id="mask0_3_5" style="mask-type:alpha" maskUnits="userSpaceOnUse" x="0" y="0" width="288" height="182">
<rect width="288" height="182" fill="url(#paint1_linear_3_5)"/>
</mask>
<g mask="url(#mask0_3_5)">
<path fill-rule="evenodd" clip-rule="evenodd" d="M308.16 -47.9938L276.502 7.30175L287.906 27.22L331.256 -48.4969L332.121 -47.9938L288.482 28.2262L299.886 48.1445L355.217 -48.4969L356.081 -47.9938L300.462 49.1507L311.866 69.0689L379.177 -48.4969L380.041 -47.9938L312.442 70.0752L323.846 89.9935L403.137 -48.4969L404.001 -47.9938L324.422 90.9997L404.001 229.993L403.137 230.496L323.846 92.006L312.442 111.924L380.041 229.993L379.177 230.496L311.866 112.931L300.462 132.849L356.081 229.993L355.217 230.496L299.886 133.855L288.482 153.773L332.121 229.993L331.256 230.496L287.906 154.779L276.502 174.698L308.16 229.993L307.296 230.496L275.926 175.704L264.522 195.622L284.2 229.993L283.336 230.496L263.945 196.628L252.542 216.547L260.24 229.993L259.376 230.496L251.965 217.553L244.267 230.999L243.403 230.496L251.389 216.547L239.985 196.628L228.581 216.547L236.28 229.993L235.416 230.496L228.005 217.553L220.307 230.999L219.442 230.496L227.429 216.547L216.025 196.628L204.621 216.547L212.32 229.993L211.456 230.496L204.045 217.553L196.346 230.999L195.482 230.496L203.469 216.547L192.065 196.628L180.661 216.547L188.36 229.993L187.496 230.496L180.085 217.553L172.386 230.999L171.522 230.496L179.509 216.547L168.105 196.628L156.701 216.547L164.4 229.993L163.535 230.496L156.125 217.553L148.426 230.999L147.562 230.496L155.549 216.547L144.145 196.628L132.741 216.547L140.439 229.993L139.575 230.496L132.165 217.553L124.466 230.999L123.602 230.496L131.588 216.547L120.185 196.628L108.781 216.547L116.479 229.993L115.615 230.496L108.204 217.553L100.506 230.999L99.6416 230.496L107.628 216.547L96.2244 196.628L84.8204 216.547L92.5191 229.993L91.6549 230.496L84.2443 217.553L76.5457 230.999L75.6815 230.496L83.6682 216.547L72.2642 196.628L60.8603 216.547L68.559 229.993L67.6947 230.496L60.2841 217.553L52.5855 230.999L51.7213 230.496L59.708 216.547L48.3041 196.628L36.9 216.547L44.5986 229.993L43.7343 230.496L36.3239 217.553L28.6254 230.999L27.7612 230.496L35.7477 216.547L24.3438 196.629L4.66522 230.999L3.80103 230.496L23.7677 195.622L12.3637 175.704L-19.295 230.999L-20.1591 230.496L11.7876 174.698L0.383667 154.78L-43.2551 230.999L-44.1193 230.496L-0.192474 153.773L-11.5964 133.855L-67.2152 230.999L-68.0794 230.496L-12.1725 132.849L-23.5765 112.931L-91.1754 230.999L-92.0396 230.496L-24.1526 111.924L-35.5567 92.006L-115.136 230.999L-116 230.496L-36.1328 90.9997L-116 -48.4969L-115.136 -49L-35.5567 89.9934L-24.1526 70.075L-92.0396 -48.4969L-91.1754 -49L-23.5765 69.0687L-12.1725 49.1505L-68.0794 -48.4969L-67.2152 -49L-11.5964 48.1442L-0.192467 28.226L-44.1193 -48.4969L-43.2551 -49L0.383675 27.2197L11.7876 7.30155L-20.1591 -48.4969L-19.2949 -49L12.3637 6.29527L23.7677 -13.6229L3.80101 -48.4969L4.66521 -49L24.3438 -14.6292L35.7478 -34.5474L27.7612 -48.4969L28.6254 -49L36.3239 -35.5537L43.7344 -48.4969L44.5986 -47.9938L36.9 -34.5474L48.3041 -14.629L59.7081 -34.5472L51.7213 -48.4969L52.5855 -49L60.2842 -35.5535L67.6948 -48.4969L68.559 -47.9938L60.8603 -34.5472L72.2642 -14.629L83.6682 -34.5472L75.6815 -48.4969L76.5457 -49L84.2443 -35.5535L91.6549 -48.4969L92.5191 -47.9937L84.8204 -34.5472L96.2244 -14.629L107.628 -34.5472L99.6416 -48.4969L100.506 -49L108.204 -35.5535L115.615 -48.4969L116.479 -47.9937L108.781 -34.5472L120.185 -14.629L131.588 -34.5472L123.602 -48.4969L124.466 -49L132.165 -35.5535L139.575 -48.4969L140.439 -47.9937L132.741 -34.5472L144.145 -14.629L155.549 -34.5472L147.562 -48.4969L148.426 -49L156.125 -35.5535L163.535 -48.4969L164.4 -47.9937L156.701 -34.5472L168.105 -14.629L179.509 -34.5472L171.522 -48.4969L172.386 -49L180.085 -35.5535L187.496 -48.4969L188.36 -47.9937L180.661 -34.5472L192.065 -14.629L203.469 -34.5472L195.482 -48.4969L196.346 -49L204.045 -35.5535L211.456 -48.4969L212.32 -47.9937L204.621 -34.5472L216.025 -14.629L227.429 -34.5472L219.442 -48.4969L220.307 -49L228.005 -35.5535L235.416 -48.4969L236.28 -47.9938L228.581 -34.5472L239.985 -14.629L251.389 -34.5472L243.403 -48.4969L244.267 -49L251.965 -35.5535L259.376 -48.4969L260.24 -47.9938L252.542 -34.5472L263.945 -14.629L283.336 -48.4969L284.2 -47.9938L264.522 -13.6227L275.926 6.29547L307.296 -48.4969L308.16 -47.9938ZM287.329 28.2262L275.926 8.30804L264.522 28.2263L275.926 48.1445L287.329 28.2262ZM60.2842 -33.5409L48.8802 -13.6227L60.2842 6.29549L71.6881 -13.6227L60.2842 -33.5409ZM47.728 -13.6227L36.3239 -33.5412L24.9199 -13.6229L36.324 6.29551L47.728 -13.6227ZM36.9002 7.30179L48.3041 -12.6165L59.7081 7.30176L48.3041 27.22L36.9002 7.30179ZM35.7479 7.3018L24.3438 -12.6167L12.9399 7.30155L24.3439 27.22L35.7479 7.3018ZM24.9201 28.2263L36.324 8.30808L47.728 28.2263L36.324 48.1445L24.9201 28.2263ZM23.7678 28.2263L12.3637 8.30783L0.959785 28.226L12.3639 48.1445L23.7678 28.2263ZM12.94 49.1508L24.3439 29.2326L35.7479 49.1508L24.3439 69.069L12.94 49.1508ZM11.7877 49.1508L0.383644 29.2323L-11.0203 49.1505L0.383797 69.069L11.7877 49.1508ZM0.959938 70.0752L12.3639 50.1571L23.7678 70.0753L12.3639 89.9935L0.959938 70.0752ZM-0.192345 70.0752L-11.5964 50.1568L-23.0004 70.075L-11.5963 89.9935L-0.192345 70.0752ZM-11.0201 90.9997L0.383797 71.0815L11.7877 90.9997L0.383797 110.918L-11.0201 90.9997ZM-12.1724 90.9998L-23.5765 71.0813L-34.9806 90.9997L-23.5765 110.918L-12.1724 90.9998ZM-23.0003 111.924L-11.5963 92.006L-0.192345 111.924L-11.5964 131.843L-23.0003 111.924ZM0.383667 152.767L-11.0203 132.849L0.383797 112.931L11.7877 132.849L0.383667 152.767ZM12.3639 131.842L0.959938 111.924L12.3639 92.006L23.7678 111.924L12.3639 131.842ZM24.3439 110.918L12.94 90.9997L24.3439 71.0815L35.7479 90.9997L24.3439 110.918ZM36.324 89.9934L24.9201 70.0752L36.324 50.1571L47.7279 70.0752L36.324 89.9934ZM48.3041 69.069L36.9002 49.1508L48.3041 29.2326L59.708 49.1508L48.3041 69.069ZM60.2842 48.1445L48.8802 28.2263L60.2842 8.30804L71.6881 28.2262L60.2842 48.1445ZM72.2642 27.22L60.8603 7.30177L72.2643 -12.6164L83.6682 7.30177L72.2642 27.22ZM84.2443 6.2955L72.8404 -13.6227L84.2443 -33.5409L95.6483 -13.6227L84.2443 6.2955ZM108.204 -33.5409L96.8005 -13.6227L108.204 6.29549L119.608 -13.6227L108.204 -33.5409ZM96.2244 -12.6164L84.8204 7.30177L96.2244 27.22L107.628 7.30177L96.2244 -12.6164ZM84.2443 8.30804L72.8404 28.2263L84.2443 48.1445L95.6483 28.2263L84.2443 8.30804ZM60.8603 49.1508L72.2642 29.2325L83.6682 49.1507L72.2642 69.069L60.8603 49.1508ZM48.8802 70.0752L60.2842 50.157L71.6881 70.0752L60.2841 89.9934L48.8802 70.0752ZM36.9001 90.9997L48.3041 71.0815L59.708 90.9997L48.3041 110.918L36.9001 90.9997ZM24.9201 111.924L36.324 92.006L47.7279 111.924L36.324 131.842L24.9201 111.924ZM12.94 132.849L24.3439 112.93L35.7479 132.849L24.3439 152.767L12.94 132.849ZM0.959778 153.773L12.3639 133.855L23.7678 153.773L12.3637 173.692L0.959778 153.773ZM24.3438 194.616L12.9398 174.698L24.3439 154.779L35.7479 174.698L24.3438 194.616ZM36.324 173.691L24.92 153.773L36.324 133.855L47.728 153.773L36.324 173.691ZM48.3041 152.767L36.9001 132.849L48.3041 112.93L59.708 132.849L48.3041 152.767ZM60.2842 131.842L48.8802 111.924L60.2841 92.006L71.6881 111.924L60.2842 131.842ZM72.2643 110.918L60.8603 90.9997L72.2642 71.0815L83.6682 90.9998L72.2643 110.918ZM84.2443 89.9935L72.8404 70.0752L84.2443 50.157L95.6483 70.0753L84.2443 89.9935ZM96.2244 69.069L84.8204 49.1507L96.2244 29.2325L107.628 49.1508L96.2244 69.069ZM108.204 48.1445L96.8005 28.2262L108.204 8.30805L119.608 28.2263L108.204 48.1445ZM120.185 27.22L108.781 7.30176L120.185 -12.6164L131.588 7.3018L120.185 27.22ZM132.165 6.29551L120.761 -13.6227L132.165 -33.541L143.569 -13.6227L132.165 6.29551ZM156.125 -33.5409L144.721 -13.6227L156.125 6.29549L167.529 -13.6227L156.125 -33.5409ZM144.145 -12.6164L132.741 7.30179L144.145 27.22L155.549 7.30177L144.145 -12.6164ZM132.165 8.30807L120.761 28.2263L132.165 48.1445L143.569 28.2263L132.165 8.30807ZM120.185 29.2326L108.781 49.1508L120.185 69.069L131.588 49.1508L120.185 29.2326ZM108.204 50.157L96.8005 70.0752L108.204 89.9935L119.608 70.0752L108.204 50.157ZM84.8204 90.9997L96.2244 71.0815L107.628 90.9997L96.2244 110.918L84.8204 90.9997ZM72.8404 111.924L84.2443 92.006L95.6483 111.924L84.2443 131.842L72.8404 111.924ZM60.8603 132.849L72.2643 112.931L83.6682 132.849L72.2643 152.767L60.8603 132.849ZM48.8802 153.773L60.2842 133.855L71.6881 153.773L60.2842 173.691L48.8802 153.773ZM36.9001 174.698L48.3041 154.779L59.708 174.698L48.3041 194.616L36.9001 174.698ZM24.92 195.622L36.324 175.704L47.7279 195.622L36.3239 215.541L24.92 195.622ZM60.2841 215.54L48.8802 195.622L60.2842 175.704L71.6881 195.622L60.2841 215.54ZM72.2643 194.616L60.8603 174.698L72.2643 154.779L83.6682 174.698L72.2643 194.616ZM84.2443 173.691L72.8404 153.773L84.2443 133.855L95.6483 153.773L84.2443 173.691ZM96.2244 152.767L84.8204 132.849L96.2244 112.931L107.628 132.849L96.2244 152.767ZM108.204 131.842L96.8005 111.924L108.204 92.006L119.608 111.924L108.204 131.842ZM120.185 110.918L108.781 90.9997L120.185 71.0815L131.588 90.9997L120.185 110.918ZM132.165 89.9935L120.761 70.0752L132.165 50.157L143.569 70.0752L132.165 89.9935ZM144.145 69.069L132.741 49.1508L144.145 29.2325L155.549 49.1508L144.145 69.069ZM156.125 48.1445L144.721 28.2263L156.125 8.30804L167.529 28.2262L156.125 48.1445ZM168.105 27.22L156.701 7.30177L168.105 -12.6164L179.509 7.30177L168.105 27.22ZM180.085 6.29549L168.681 -13.6227L180.085 -33.5409L191.489 -13.6227L180.085 6.29549ZM180.085 215.54L168.681 195.622L180.085 175.704L191.489 195.622L180.085 215.54ZM168.105 194.616L179.509 174.698L168.105 154.779L156.701 174.698L168.105 194.616ZM192.065 194.616L180.661 174.698L192.065 154.779L203.469 174.698L192.065 194.616ZM180.085 173.691L191.489 153.773L180.085 133.855L168.681 153.773L180.085 173.691ZM204.045 173.691L192.641 153.773L204.045 133.855L215.449 153.773L204.045 173.691ZM192.065 152.767L203.469 132.849L192.065 112.931L180.661 132.849L192.065 152.767ZM216.025 152.767L204.621 132.849L216.025 112.93L227.429 132.849L216.025 152.767ZM204.045 131.842L215.449 111.924L204.045 92.006L192.641 111.924L204.045 131.842ZM228.005 131.842L216.601 111.924L228.005 92.006L239.409 111.924L228.005 131.842ZM216.025 110.918L227.429 90.9997L216.025 71.0815L204.621 90.9997L216.025 110.918ZM239.985 110.918L228.581 90.9997L239.985 71.0815L251.389 90.9997L239.985 110.918ZM228.005 89.9934L239.409 70.0752L228.005 50.157L216.601 70.0752L228.005 89.9934ZM251.965 89.9934L240.561 70.0752L251.965 50.157L263.369 70.0752L251.965 89.9934ZM239.985 69.0689L251.389 49.1507L239.985 29.2325L228.581 49.1507L239.985 69.0689ZM263.945 69.069L252.542 49.1507L263.945 29.2325L275.349 49.1507L263.945 69.069ZM251.965 48.1445L263.369 28.2262L251.965 8.30804L240.561 28.2263L251.965 48.1445ZM252.542 7.30177L263.945 27.22L275.349 7.30176L263.945 -12.6164L252.542 7.30177ZM156.125 215.54L167.529 195.622L156.125 175.704L144.721 195.622L156.125 215.54ZM251.965 215.54L263.369 195.622L251.965 175.704L240.561 195.622L251.965 215.54ZM263.945 194.616L275.349 174.698L263.945 154.779L252.542 174.698L263.945 194.616ZM275.926 173.691L287.329 153.773L275.926 133.855L264.522 153.773L275.926 173.691ZM287.906 152.767L299.31 132.849L287.906 112.931L276.502 132.849L287.906 152.767ZM299.886 131.842L311.29 111.924L299.886 92.006L288.482 111.924L299.886 131.842ZM311.866 110.918L323.27 90.9997L311.866 71.0815L300.462 90.9997L311.866 110.918ZM287.906 29.2325L299.31 49.1507L287.906 69.069L276.502 49.1507L287.906 29.2325ZM275.926 50.157L287.329 70.0752L275.926 89.9935L264.522 70.0752L275.926 50.157ZM287.906 71.0815L276.502 90.9997L287.906 110.918L299.31 90.9997L287.906 71.0815ZM263.945 71.0815L275.349 90.9997L263.945 110.918L252.542 90.9997L263.945 71.0815ZM275.926 92.006L264.522 111.924L275.926 131.842L287.329 111.924L275.926 92.006ZM251.965 92.006L263.369 111.924L251.965 131.842L240.561 111.924L251.965 92.006ZM263.945 112.93L252.542 132.849L263.945 152.767L275.349 132.849L263.945 112.93ZM239.985 112.93L251.389 132.849L239.985 152.767L228.581 132.849L239.985 112.93ZM251.965 133.855L240.561 153.773L251.965 173.691L263.369 153.773L251.965 133.855ZM228.005 133.855L239.409 153.773L228.005 173.691L216.601 153.773L228.005 133.855ZM239.985 154.779L228.581 174.698L239.985 194.616L251.389 174.698L239.985 154.779ZM216.025 154.779L227.429 174.698L216.025 194.616L204.621 174.698L216.025 154.779ZM228.005 175.704L216.601 195.622L228.005 215.54L239.409 195.622L228.005 175.704ZM204.045 175.704L215.449 195.622L204.045 215.54L192.641 195.622L204.045 175.704ZM299.886 50.157L288.482 70.0752L299.886 89.9935L311.29 70.0752L299.886 50.157ZM156.125 173.691L167.529 153.773L156.125 133.855L144.721 153.773L156.125 173.691ZM168.105 152.767L179.509 132.849L168.105 112.93L156.701 132.849L168.105 152.767ZM180.085 131.842L191.489 111.924L180.085 92.006L168.681 111.924L180.085 131.842ZM192.065 110.918L203.469 90.9997L192.065 71.0815L180.661 90.9997L192.065 110.918ZM204.045 89.9934L215.449 70.0752L204.045 50.157L192.641 70.0752L204.045 89.9934ZM216.025 69.0689L227.429 49.1508L216.025 29.2326L204.621 49.1507L216.025 69.0689ZM228.005 48.1445L239.409 28.2262L228.005 8.30805L216.601 28.2263L228.005 48.1445ZM239.985 27.22L251.389 7.30176L239.985 -12.6164L228.581 7.30177L239.985 27.22ZM240.561 -13.6227L251.965 6.29549L263.369 -13.6227L251.965 -33.5409L240.561 -13.6227ZM144.145 194.616L155.549 174.698L144.145 154.779L132.741 174.698L144.145 194.616ZM132.165 175.704L143.569 195.622L132.165 215.54L120.761 195.622L132.165 175.704ZM228.005 -33.5409L239.409 -13.6227L228.005 6.29549L216.601 -13.6227L228.005 -33.5409ZM216.025 -12.6165L227.429 7.30177L216.025 27.22L204.621 7.30176L216.025 -12.6165ZM204.045 8.30803L215.449 28.2263L204.045 48.1445L192.641 28.2262L204.045 8.30803ZM192.065 29.2325L203.469 49.1508L192.065 69.069L180.661 49.1507L192.065 29.2325ZM180.085 50.157L191.489 70.0752L180.085 89.9935L168.681 70.0752L180.085 50.157ZM168.105 71.0815L179.509 90.9997L168.105 110.918L156.701 90.9997L168.105 71.0815ZM156.125 92.006L167.529 111.924L156.125 131.842L144.721 111.924L156.125 92.006ZM144.145 112.93L155.549 132.849L144.145 152.767L132.741 132.849L144.145 112.93ZM132.165 133.855L143.569 153.773L132.165 173.691L120.761 153.773L132.165 133.855ZM120.185 154.779L131.588 174.698L120.185 194.616L108.781 174.698L120.185 154.779ZM108.204 175.704L119.608 195.622L108.204 215.54L96.8005 195.622L108.204 175.704ZM215.449 -13.6227L204.045 -33.5409L192.641 -13.6227L204.045 6.29548L215.449 -13.6227ZM203.469 7.30175L192.065 -12.6164L180.661 7.30177L192.065 27.22L203.469 7.30175ZM191.489 28.2262L180.085 8.30804L168.681 28.2262L180.085 48.1445L191.489 28.2262ZM179.509 49.1507L168.105 29.2325L156.701 49.1508L168.105 69.069L179.509 49.1507ZM167.529 70.0752L156.125 50.157L144.721 70.0752L156.125 89.9934L167.529 70.0752ZM155.549 90.9997L144.145 71.0815L132.741 90.9997L144.145 110.918L155.549 90.9997ZM143.569 111.924L132.165 92.006L120.761 111.924L132.165 131.842L143.569 111.924ZM131.588 132.849L120.185 112.93L108.781 132.849L120.185 152.767L131.588 132.849ZM119.608 153.773L108.204 133.855L96.8005 153.773L108.204 173.691L119.608 153.773ZM107.628 174.698L96.2244 154.779L84.8205 174.698L96.2244 194.616L107.628 174.698ZM95.6482 195.622L84.2443 175.704L72.8404 195.622L84.2443 215.54L95.6482 195.622Z" fill="url(#paint2_linear_3_5)"/>
</g>
<defs>
<linearGradient id="paint0_linear_3_5" x1="144" y1="0" x2="144" y2="182" gradientUnits="userSpaceOnUse">
<stop stop-color="#282528"/>
<stop offset="1" stop-color="#0C060A"/>
</linearGradient>
<linearGradient id="paint1_linear_3_5" x1="144" y1="0" x2="144" y2="182" gradientUnits="userSpaceOnUse">
<stop stop-color="#2C1E2A"/>
<stop offset="1" stop-color="#0C060A"/>
</linearGradient>
<linearGradient id="paint2_linear_3_5" x1="144.001" y1="-49" x2="144.001" y2="230.999" gradientUnits="userSpaceOnUse">
<stop stop-color="#3F3833"/>
<stop offset="1" stop-color="#0D070B"/>
</linearGradient>
</defs>
</svg>
