<svg width="304" height="198" viewBox="0 0 304 198" fill="none" xmlns="http://www.w3.org/2000/svg">
<rect width="304" height="198" fill="white"/>
<rect x="8" y="8" width="288" height="182" fill="url(#paint0_linear_1_1300)"/>
<mask id="mask0_1_1300" style="mask-type:alpha" maskUnits="userSpaceOnUse" x="8" y="8" width="288" height="182">
<rect x="8" y="8" width="288" height="182" fill="url(#paint1_linear_1_1300)"/>
</mask>
<g mask="url(#mask0_1_1300)">
<path fill-rule="evenodd" clip-rule="evenodd" d="M316.16 -39.9938L284.502 15.3018L295.906 35.22L339.256 -40.4969L340.121 -39.9938L296.482 36.2262L307.886 56.1445L363.217 -40.4969L364.081 -39.9938L308.462 57.1507L319.866 77.0689L387.177 -40.4969L388.041 -39.9938L320.442 78.0752L331.846 97.9935L411.137 -40.4969L412.001 -39.9938L332.422 98.9997L412.001 237.993L411.137 238.496L331.846 100.006L320.442 119.924L388.041 237.993L387.177 238.496L319.866 120.931L308.462 140.849L364.081 237.993L363.217 238.496L307.886 141.855L296.482 161.773L340.121 237.993L339.256 238.496L295.906 162.779L284.502 182.698L316.16 237.993L315.296 238.496L283.926 183.704L272.522 203.622L292.2 237.993L291.336 238.496L271.945 204.628L260.542 224.547L268.24 237.993L267.376 238.496L259.965 225.553L252.267 238.999L251.403 238.496L259.389 224.547L247.985 204.628L236.581 224.547L244.28 237.993L243.416 238.496L236.005 225.553L228.307 238.999L227.442 238.496L235.429 224.547L224.025 204.628L212.621 224.547L220.32 237.993L219.456 238.496L212.045 225.553L204.346 238.999L203.482 238.496L211.469 224.547L200.065 204.628L188.661 224.547L196.36 237.993L195.496 238.496L188.085 225.553L180.386 238.999L179.522 238.496L187.509 224.547L176.105 204.628L164.701 224.547L172.4 237.993L171.535 238.496L164.125 225.553L156.426 238.999L155.562 238.496L163.549 224.547L152.145 204.628L140.741 224.547L148.439 237.993L147.575 238.496L140.165 225.553L132.466 238.999L131.602 238.496L139.588 224.547L128.185 204.628L116.781 224.547L124.479 237.993L123.615 238.496L116.204 225.553L108.506 238.999L107.642 238.496L115.628 224.547L104.224 204.628L92.8204 224.547L100.519 237.993L99.6549 238.496L92.2443 225.553L84.5457 238.999L83.6815 238.496L91.6682 224.547L80.2642 204.628L68.8603 224.547L76.559 237.993L75.6947 238.496L68.2841 225.553L60.5855 238.999L59.7213 238.496L67.708 224.547L56.3041 204.628L44.9 224.547L52.5986 237.993L51.7343 238.496L44.3239 225.553L36.6254 238.999L35.7612 238.496L43.7477 224.547L32.3438 204.629L12.6652 238.999L11.801 238.496L31.7677 203.622L20.3637 183.704L-11.295 238.999L-12.1591 238.496L19.7876 182.698L8.38367 162.78L-35.2551 238.999L-36.1193 238.496L7.80753 161.773L-3.5964 141.855L-59.2152 238.999L-60.0794 238.496L-4.17254 140.849L-15.5765 120.931L-83.1754 238.999L-84.0396 238.496L-16.1526 119.924L-27.5567 100.006L-107.136 238.999L-108 238.496L-28.1328 98.9997L-108 -40.4969L-107.136 -41L-27.5567 97.9934L-16.1526 78.075L-84.0396 -40.4969L-83.1754 -41L-15.5765 77.0687L-4.17254 57.1505L-60.0794 -40.4969L-59.2152 -41L-3.5964 56.1442L7.80753 36.226L-36.1193 -40.4969L-35.2551 -41L8.38367 35.2197L19.7876 15.3016L-12.1591 -40.4969L-11.2949 -41L20.3637 14.2953L31.7677 -5.62293L11.801 -40.4969L12.6652 -41L32.3438 -6.62921L43.7478 -26.5474L35.7612 -40.4969L36.6254 -41L44.3239 -27.5537L51.7344 -40.4969L52.5986 -39.9938L44.9 -26.5474L56.3041 -6.629L67.7081 -26.5472L59.7213 -40.4969L60.5855 -41L68.2842 -27.5535L75.6948 -40.4969L76.559 -39.9938L68.8603 -26.5472L80.2642 -6.62898L91.6682 -26.5472L83.6815 -40.4969L84.5457 -41L92.2443 -27.5535L99.6549 -40.4969L100.519 -39.9937L92.8204 -26.5472L104.224 -6.62899L115.628 -26.5472L107.642 -40.4969L108.506 -41L116.204 -27.5535L123.615 -40.4969L124.479 -39.9937L116.781 -26.5472L128.185 -6.629L139.588 -26.5472L131.602 -40.4969L132.466 -41L140.165 -27.5535L147.575 -40.4969L148.439 -39.9937L140.741 -26.5472L152.145 -6.62899L163.549 -26.5472L155.562 -40.4969L156.426 -41L164.125 -27.5535L171.535 -40.4969L172.4 -39.9937L164.701 -26.5472L176.105 -6.62899L187.509 -26.5472L179.522 -40.4969L180.386 -41L188.085 -27.5535L195.496 -40.4969L196.36 -39.9937L188.661 -26.5472L200.065 -6.62899L211.469 -26.5472L203.482 -40.4969L204.346 -41L212.045 -27.5535L219.456 -40.4969L220.32 -39.9937L212.621 -26.5472L224.025 -6.62902L235.429 -26.5472L227.442 -40.4969L228.307 -41L236.005 -27.5535L243.416 -40.4969L244.28 -39.9938L236.581 -26.5472L247.985 -6.62899L259.389 -26.5472L251.403 -40.4969L252.267 -41L259.965 -27.5535L267.376 -40.4969L268.24 -39.9938L260.542 -26.5472L271.945 -6.62902L291.336 -40.4969L292.2 -39.9938L272.522 -5.62273L283.926 14.2955L315.296 -40.4969L316.16 -39.9938ZM295.329 36.2262L283.926 16.308L272.522 36.2263L283.926 56.1445L295.329 36.2262ZM68.2842 -25.5409L56.8802 -5.62272L68.2842 14.2955L79.6881 -5.62272L68.2842 -25.5409ZM55.728 -5.62273L44.3239 -25.5412L32.9199 -5.62294L44.324 14.2955L55.728 -5.62273ZM44.9002 15.3018L56.3041 -4.61645L67.7081 15.3018L56.3041 35.22L44.9002 15.3018ZM43.7479 15.3018L32.3438 -4.61666L20.9399 15.3015L32.3439 35.22L43.7479 15.3018ZM32.9201 36.2263L44.324 16.3081L55.728 36.2263L44.324 56.1445L32.9201 36.2263ZM31.7678 36.2263L20.3637 16.3078L8.95979 36.226L20.3639 56.1445L31.7678 36.2263ZM20.94 57.1508L32.3439 37.2326L43.7479 57.1508L32.3439 77.069L20.94 57.1508ZM19.7877 57.1508L8.38364 37.2323L-3.02029 57.1505L8.3838 77.069L19.7877 57.1508ZM8.95994 78.0752L20.3639 58.1571L31.7678 78.0753L20.3639 97.9935L8.95994 78.0752ZM7.80766 78.0752L-3.59643 58.1568L-15.0004 78.075L-3.59628 97.9935L7.80766 78.0752ZM-3.02013 98.9997L8.3838 79.0815L19.7877 98.9997L8.3838 118.918L-3.02013 98.9997ZM-4.17242 98.9998L-15.5765 79.0813L-26.9806 98.9997L-15.5765 118.918L-4.17242 98.9998ZM-15.0003 119.924L-3.59628 100.006L7.80766 119.924L-3.5964 139.843L-15.0003 119.924ZM8.38367 160.767L-3.02026 140.849L8.3838 120.931L19.7877 140.849L8.38367 160.767ZM20.3639 139.842L8.95994 119.924L20.3639 100.006L31.7678 119.924L20.3639 139.842ZM32.3439 118.918L20.94 98.9997L32.3439 79.0815L43.7479 98.9997L32.3439 118.918ZM44.324 97.9934L32.9201 78.0752L44.324 58.1571L55.7279 78.0752L44.324 97.9934ZM56.3041 77.069L44.9002 57.1508L56.3041 37.2326L67.708 57.1508L56.3041 77.069ZM68.2842 56.1445L56.8802 36.2263L68.2842 16.308L79.6881 36.2262L68.2842 56.1445ZM80.2642 35.22L68.8603 15.3018L80.2643 -4.61644L91.6682 15.3018L80.2642 35.22ZM92.2443 14.2955L80.8404 -5.62271L92.2443 -25.5409L103.648 -5.62272L92.2443 14.2955ZM116.204 -25.5409L104.801 -5.62271L116.204 14.2955L127.608 -5.62271L116.204 -25.5409ZM104.224 -4.61644L92.8204 15.3018L104.224 35.22L115.628 15.3018L104.224 -4.61644ZM92.2443 16.308L80.8404 36.2263L92.2443 56.1445L103.648 36.2263L92.2443 16.308ZM68.8603 57.1508L80.2642 37.2325L91.6682 57.1507L80.2642 77.069L68.8603 57.1508ZM56.8802 78.0752L68.2842 58.157L79.6881 78.0752L68.2841 97.9934L56.8802 78.0752ZM44.9001 98.9997L56.3041 79.0815L67.708 98.9997L56.3041 118.918L44.9001 98.9997ZM32.9201 119.924L44.324 100.006L55.7279 119.924L44.324 139.842L32.9201 119.924ZM20.94 140.849L32.3439 120.93L43.7479 140.849L32.3439 160.767L20.94 140.849ZM8.95978 161.773L20.3639 141.855L31.7678 161.773L20.3637 181.692L8.95978 161.773ZM32.3438 202.616L20.9398 182.698L32.3439 162.779L43.7479 182.698L32.3438 202.616ZM44.324 181.691L32.92 161.773L44.324 141.855L55.728 161.773L44.324 181.691ZM56.3041 160.767L44.9001 140.849L56.3041 120.93L67.708 140.849L56.3041 160.767ZM68.2842 139.842L56.8802 119.924L68.2841 100.006L79.6881 119.924L68.2842 139.842ZM80.2643 118.918L68.8603 98.9997L80.2642 79.0815L91.6682 98.9998L80.2643 118.918ZM92.2443 97.9935L80.8404 78.0752L92.2443 58.157L103.648 78.0753L92.2443 97.9935ZM104.224 77.069L92.8204 57.1507L104.224 37.2325L115.628 57.1508L104.224 77.069ZM116.204 56.1445L104.801 36.2262L116.204 16.308L127.608 36.2263L116.204 56.1445ZM128.185 35.22L116.781 15.3018L128.185 -4.61644L139.588 15.3018L128.185 35.22ZM140.165 14.2955L128.761 -5.62272L140.165 -25.541L151.569 -5.62272L140.165 14.2955ZM164.125 -25.5409L152.721 -5.62271L164.125 14.2955L175.529 -5.62272L164.125 -25.5409ZM152.145 -4.61644L140.741 15.3018L152.145 35.22L163.549 15.3018L152.145 -4.61644ZM140.165 16.3081L128.761 36.2263L140.165 56.1445L151.569 36.2263L140.165 16.3081ZM128.185 37.2326L116.781 57.1508L128.185 77.069L139.588 57.1508L128.185 37.2326ZM116.204 58.157L104.801 78.0752L116.204 97.9935L127.608 78.0752L116.204 58.157ZM92.8204 98.9997L104.224 79.0815L115.628 98.9997L104.224 118.918L92.8204 98.9997ZM80.8404 119.924L92.2443 100.006L103.648 119.924L92.2443 139.842L80.8404 119.924ZM68.8603 140.849L80.2643 120.931L91.6682 140.849L80.2643 160.767L68.8603 140.849ZM56.8802 161.773L68.2842 141.855L79.6881 161.773L68.2842 181.691L56.8802 161.773ZM44.9001 182.698L56.3041 162.779L67.708 182.698L56.3041 202.616L44.9001 182.698ZM32.92 203.622L44.324 183.704L55.7279 203.622L44.3239 223.541L32.92 203.622ZM68.2841 223.54L56.8802 203.622L68.2842 183.704L79.6881 203.622L68.2841 223.54ZM80.2643 202.616L68.8603 182.698L80.2643 162.779L91.6682 182.698L80.2643 202.616ZM92.2443 181.691L80.8404 161.773L92.2443 141.855L103.648 161.773L92.2443 181.691ZM104.224 160.767L92.8204 140.849L104.224 120.931L115.628 140.849L104.224 160.767ZM116.204 139.842L104.801 119.924L116.204 100.006L127.608 119.924L116.204 139.842ZM128.185 118.918L116.781 98.9997L128.185 79.0815L139.588 98.9997L128.185 118.918ZM140.165 97.9935L128.761 78.0752L140.165 58.157L151.569 78.0752L140.165 97.9935ZM152.145 77.069L140.741 57.1508L152.145 37.2325L163.549 57.1508L152.145 77.069ZM164.125 56.1445L152.721 36.2263L164.125 16.308L175.529 36.2262L164.125 56.1445ZM176.105 35.22L164.701 15.3018L176.105 -4.61644L187.509 15.3018L176.105 35.22ZM188.085 14.2955L176.681 -5.62271L188.085 -25.5409L199.489 -5.62271L188.085 14.2955ZM188.085 223.54L176.681 203.622L188.085 183.704L199.489 203.622L188.085 223.54ZM176.105 202.616L187.509 182.698L176.105 162.779L164.701 182.698L176.105 202.616ZM200.065 202.616L188.661 182.698L200.065 162.779L211.469 182.698L200.065 202.616ZM188.085 181.691L199.489 161.773L188.085 141.855L176.681 161.773L188.085 181.691ZM212.045 181.691L200.641 161.773L212.045 141.855L223.449 161.773L212.045 181.691ZM200.065 160.767L211.469 140.849L200.065 120.931L188.661 140.849L200.065 160.767ZM224.025 160.767L212.621 140.849L224.025 120.93L235.429 140.849L224.025 160.767ZM212.045 139.842L223.449 119.924L212.045 100.006L200.641 119.924L212.045 139.842ZM236.005 139.842L224.601 119.924L236.005 100.006L247.409 119.924L236.005 139.842ZM224.025 118.918L235.429 98.9997L224.025 79.0815L212.621 98.9997L224.025 118.918ZM247.985 118.918L236.581 98.9997L247.985 79.0815L259.389 98.9997L247.985 118.918ZM236.005 97.9934L247.409 78.0752L236.005 58.157L224.601 78.0752L236.005 97.9934ZM259.965 97.9934L248.561 78.0752L259.965 58.157L271.369 78.0752L259.965 97.9934ZM247.985 77.0689L259.389 57.1507L247.985 37.2325L236.581 57.1507L247.985 77.0689ZM271.945 77.069L260.542 57.1507L271.945 37.2325L283.349 57.1507L271.945 77.069ZM259.965 56.1445L271.369 36.2262L259.965 16.308L248.561 36.2263L259.965 56.1445ZM260.542 15.3018L271.945 35.22L283.349 15.3018L271.945 -4.61645L260.542 15.3018ZM164.125 223.54L175.529 203.622L164.125 183.704L152.721 203.622L164.125 223.54ZM259.965 223.54L271.369 203.622L259.965 183.704L248.561 203.622L259.965 223.54ZM271.945 202.616L283.349 182.698L271.945 162.779L260.542 182.698L271.945 202.616ZM283.926 181.691L295.329 161.773L283.926 141.855L272.522 161.773L283.926 181.691ZM295.906 160.767L307.31 140.849L295.906 120.931L284.502 140.849L295.906 160.767ZM307.886 139.842L319.29 119.924L307.886 100.006L296.482 119.924L307.886 139.842ZM319.866 118.918L331.27 98.9997L319.866 79.0815L308.462 98.9997L319.866 118.918ZM295.906 37.2325L307.31 57.1507L295.906 77.069L284.502 57.1507L295.906 37.2325ZM283.926 58.157L295.329 78.0752L283.926 97.9935L272.522 78.0752L283.926 58.157ZM295.906 79.0815L284.502 98.9997L295.906 118.918L307.31 98.9997L295.906 79.0815ZM271.945 79.0815L283.349 98.9997L271.945 118.918L260.542 98.9997L271.945 79.0815ZM283.926 100.006L272.522 119.924L283.926 139.842L295.329 119.924L283.926 100.006ZM259.965 100.006L271.369 119.924L259.965 139.842L248.561 119.924L259.965 100.006ZM271.945 120.93L260.542 140.849L271.945 160.767L283.349 140.849L271.945 120.93ZM247.985 120.93L259.389 140.849L247.985 160.767L236.581 140.849L247.985 120.93ZM259.965 141.855L248.561 161.773L259.965 181.691L271.369 161.773L259.965 141.855ZM236.005 141.855L247.409 161.773L236.005 181.691L224.601 161.773L236.005 141.855ZM247.985 162.779L236.581 182.698L247.985 202.616L259.389 182.698L247.985 162.779ZM224.025 162.779L235.429 182.698L224.025 202.616L212.621 182.698L224.025 162.779ZM236.005 183.704L224.601 203.622L236.005 223.54L247.409 203.622L236.005 183.704ZM212.045 183.704L223.449 203.622L212.045 223.54L200.641 203.622L212.045 183.704ZM307.886 58.157L296.482 78.0752L307.886 97.9935L319.29 78.0752L307.886 58.157ZM164.125 181.691L175.529 161.773L164.125 141.855L152.721 161.773L164.125 181.691ZM176.105 160.767L187.509 140.849L176.105 120.93L164.701 140.849L176.105 160.767ZM188.085 139.842L199.489 119.924L188.085 100.006L176.681 119.924L188.085 139.842ZM200.065 118.918L211.469 98.9997L200.065 79.0815L188.661 98.9997L200.065 118.918ZM212.045 97.9934L223.449 78.0752L212.045 58.157L200.641 78.0752L212.045 97.9934ZM224.025 77.0689L235.429 57.1508L224.025 37.2326L212.621 57.1507L224.025 77.0689ZM236.005 56.1445L247.409 36.2262L236.005 16.308L224.601 36.2263L236.005 56.1445ZM247.985 35.22L259.389 15.3018L247.985 -4.61644L236.581 15.3018L247.985 35.22ZM248.561 -5.62271L259.965 14.2955L271.369 -5.62273L259.965 -25.5409L248.561 -5.62271ZM152.145 202.616L163.549 182.698L152.145 162.779L140.741 182.698L152.145 202.616ZM140.165 183.704L151.569 203.622L140.165 223.54L128.761 203.622L140.165 183.704ZM236.005 -25.5409L247.409 -5.62271L236.005 14.2955L224.601 -5.62275L236.005 -25.5409ZM224.025 -4.61646L235.429 15.3018L224.025 35.22L212.621 15.3018L224.025 -4.61646ZM212.045 16.308L223.449 36.2263L212.045 56.1445L200.641 36.2262L212.045 16.308ZM200.065 37.2325L211.469 57.1508L200.065 77.069L188.661 57.1507L200.065 37.2325ZM188.085 58.157L199.489 78.0752L188.085 97.9935L176.681 78.0752L188.085 58.157ZM176.105 79.0815L187.509 98.9997L176.105 118.918L164.701 98.9997L176.105 79.0815ZM164.125 100.006L175.529 119.924L164.125 139.842L152.721 119.924L164.125 100.006ZM152.145 120.93L163.549 140.849L152.145 160.767L140.741 140.849L152.145 120.93ZM140.165 141.855L151.569 161.773L140.165 181.691L128.761 161.773L140.165 141.855ZM128.185 162.779L139.588 182.698L128.185 202.616L116.781 182.698L128.185 162.779ZM116.204 183.704L127.608 203.622L116.204 223.54L104.801 203.622L116.204 183.704ZM223.449 -5.62274L212.045 -25.5409L200.641 -5.62271L212.045 14.2955L223.449 -5.62274ZM211.469 15.3018L200.065 -4.61644L188.661 15.3018L200.065 35.22L211.469 15.3018ZM199.489 36.2262L188.085 16.308L176.681 36.2262L188.085 56.1445L199.489 36.2262ZM187.509 57.1507L176.105 37.2325L164.701 57.1508L176.105 77.069L187.509 57.1507ZM175.529 78.0752L164.125 58.157L152.721 78.0752L164.125 97.9934L175.529 78.0752ZM163.549 98.9997L152.145 79.0815L140.741 98.9997L152.145 118.918L163.549 98.9997ZM151.569 119.924L140.165 100.006L128.761 119.924L140.165 139.842L151.569 119.924ZM139.588 140.849L128.185 120.93L116.781 140.849L128.185 160.767L139.588 140.849ZM127.608 161.773L116.204 141.855L104.801 161.773L116.204 181.691L127.608 161.773ZM115.628 182.698L104.224 162.779L92.8205 182.698L104.224 202.616L115.628 182.698ZM103.648 203.622L92.2443 183.704L80.8404 203.622L92.2443 223.54L103.648 203.622Z" fill="url(#paint2_linear_1_1300)"/>
</g>
<defs>
<linearGradient id="paint0_linear_1_1300" x1="152" y1="8" x2="152" y2="190" gradientUnits="userSpaceOnUse">
<stop stop-color="#282528"/>
<stop offset="1" stop-color="#0C060A"/>
</linearGradient>
<linearGradient id="paint1_linear_1_1300" x1="152" y1="8" x2="152" y2="190" gradientUnits="userSpaceOnUse">
<stop stop-color="#2C1E2A"/>
<stop offset="1" stop-color="#0C060A"/>
</linearGradient>
<linearGradient id="paint2_linear_1_1300" x1="152.001" y1="-41" x2="152.001" y2="238.999" gradientUnits="userSpaceOnUse">
<stop stop-color="#3F3833"/>
<stop offset="1" stop-color="#0D070B"/>
</linearGradient>
</defs>
</svg>
