<svg width="304" height="198" viewBox="0 0 304 198" fill="none" xmlns="http://www.w3.org/2000/svg">
<rect width="304" height="198" fill="white"/>
<rect x="8" y="8" width="288" height="182" fill="url(#paint0_linear_1_194)"/>
<path fill-rule="evenodd" clip-rule="evenodd" d="M76 8H66L47 27L28 8H20C19.3684 8 18.7481 8.0488 18.1428 8.14284L47 37L76 8ZM8 30V20L12 16L47 51L82 16L117 51L152 16L187 51L222 16L257 51L292 16L296 20V30L292 26L257 61L222 26L187 61L152 26L117 61L82 26L47 61L12 26L8 30ZM8 54V44L12 40L47 75L82 40L117 75L152 40L187 75L222 40L257 75L292 40L296 44V54L292 50L257 85L222 50L187 85L152 50L117 85L82 50L47 85L12 50L8 54ZM276 8H284C284.632 8 285.252 8.0488 285.857 8.14284L257 37L228 8H238L257 27L276 8ZM168 8L187 27L206 8H216L187 37L158 8H168ZM98 8L117 27L136 8H146L117 37L88 8H98Z" fill="#FCEAE9"/>
<defs>
<linearGradient id="paint0_linear_1_194" x1="152" y1="8" x2="152" y2="190" gradientUnits="userSpaceOnUse">
<stop stop-color="#FCD8D7"/>
<stop offset="1" stop-color="#EFBAB8"/>
</linearGradient>
</defs>
</svg>
