<svg width="288" height="182" viewBox="0 0 288 182" fill="none" xmlns="http://www.w3.org/2000/svg">
<rect width="288" height="182" fill="url(#paint0_linear_1_195)"/>
<path fill-rule="evenodd" clip-rule="evenodd" d="M68 0H58L39 19L20 0H12C11.3684 0 10.7481 0.0488016 10.1428 0.14284L39 29L68 0ZM0 22V12L4 8L39 43L74 8L109 43L144 8L179 43L214 8L249 43L284 8L288 12V22L284 18L249 53L214 18L179 53L144 18L109 53L74 18L39 53L4 18L0 22ZM0 46V36L4 32L39 67L74 32L109 67L144 32L179 67L214 32L249 67L284 32L288 36V46L284 42L249 77L214 42L179 77L144 42L109 77L74 42L39 77L4 42L0 46ZM268 0H276C276.632 0 277.252 0.0488016 277.857 0.14284L249 29L220 0H230L249 19L268 0ZM160 0L179 19L198 0H208L179 29L150 0H160ZM90 0L109 19L128 0H138L109 29L80 0H90Z" fill="#FCEAE9"/>
<defs>
<linearGradient id="paint0_linear_1_195" x1="144" y1="0" x2="144" y2="182" gradientUnits="userSpaceOnUse">
<stop stop-color="#FCD8D7"/>
<stop offset="1" stop-color="#EFBAB8"/>
</linearGradient>
</defs>
</svg>
