<svg width="304" height="198" viewBox="0 0 304 198" fill="none" xmlns="http://www.w3.org/2000/svg">
<rect width="304" height="198" fill="white"/>
<rect x="8" y="8" width="288" height="182" fill="url(#paint0_linear_1_224)"/>
<g opacity="0.04">
<mask id="mask0_1_224" style="mask-type:alpha" maskUnits="userSpaceOnUse" x="8" y="8" width="288" height="182">
<rect x="8" y="8" width="288" height="182" rx="12" fill="url(#paint1_linear_1_224)"/>
</mask>
<g mask="url(#mask0_1_224)">
<path d="M99.0967 101.272C99.0967 101.272 92.3635 104.488 98.3838 112.684C98.3767 112.688 105.135 105.724 99.0967 101.272Z" fill="black"/>
<path d="M120.337 112.145C120.337 112.145 114.713 107.239 109.612 116.047C109.612 116.047 118.68 119.477 120.337 112.145Z" fill="black"/>
<path d="M111.276 129.438C111.276 129.438 111.579 121.971 101.535 123.482C101.521 123.482 104.504 132.718 111.276 129.438Z" fill="black"/>
<path d="M100.113 133.297C100.113 133.297 103.167 129.46 97.5925 125.994C97.5925 125.994 95.4895 132.172 100.113 133.297Z" fill="black"/>
<path d="M87.4338 130.049C87.4338 130.049 92.3207 130.317 91.9036 123.757C91.9036 123.765 85.6659 125.622 87.4338 130.049Z" fill="black"/>
<path d="M107.12 152.144C107.12 152.144 109.419 147.81 103.303 145.431C103.303 145.431 102.365 151.89 107.12 152.144Z" fill="black"/>
<path d="M85.5626 141.229C85.5626 141.229 90.4316 141.726 90.3176 135.155C90.3176 135.151 84.0014 136.727 85.5626 141.229Z" fill="black"/>
<path d="M76.8013 124.658C76.8013 124.658 80.3657 128.006 84.2581 122.707C84.2581 122.693 78.2769 120.124 76.8013 124.658Z" fill="black"/>
<path d="M93.0978 103.559C93.0978 103.559 96.5161 100.047 91.3156 96.0559C91.3156 96.0452 88.6138 101.969 93.0978 103.559Z" fill="black"/>
<path d="M69.2695 130.91C69.2695 130.91 72.6842 127.398 67.4872 123.407C67.4801 123.407 64.7783 129.349 69.2695 130.91Z" fill="black"/>
<path d="M52.8196 27.5477C52.8196 27.5477 56.2379 24.0355 51.0374 20.0445C51.0125 20.0338 48.3142 25.972 52.8196 27.5477Z" fill="black"/>
<path d="M76.2024 185.655C76.2024 185.655 79.6172 182.14 74.4202 178.152C74.4131 178.138 71.7112 184.08 76.2024 185.655Z" fill="black"/>
<path d="M69.7009 163.067C69.7009 163.067 73.1192 159.555 67.9187 155.564C67.9151 155.564 65.2133 161.491 69.7009 163.067Z" fill="black"/>
<path d="M88.3357 175.665C88.3357 175.665 91.7505 172.15 86.5535 168.162C86.5464 168.148 83.8303 174.09 88.3357 175.665Z" fill="black"/>
<path d="M124.736 173.925C124.736 173.925 128.15 170.413 122.953 166.422C122.946 166.411 120.245 172.357 124.736 173.925Z" fill="black"/>
<path d="M26.7993 189.864C26.7993 189.864 30.2176 186.352 25.0171 182.361C25.0171 182.35 22.3153 188.289 26.7993 189.864Z" fill="black"/>
<path d="M8.62069 179.145C8.62069 179.145 12.0354 175.633 6.83848 171.642C6.81709 171.642 4.11525 177.563 8.62069 179.145Z" fill="black"/>
<path d="M74.47 102.684C74.47 102.684 77.8847 99.1715 72.6878 95.1805C72.6807 95.1805 69.9788 101.115 74.47 102.684Z" fill="black"/>
<path d="M46.3039 42.3004C46.3039 42.3004 49.7187 38.7881 44.5217 34.7971C44.5146 34.7971 41.8128 40.739 46.3039 42.3004Z" fill="black"/>
<path d="M27.2377 42.7506C27.2377 42.7506 30.6524 39.2384 25.4555 35.2474C25.4484 35.2367 22.7465 41.175 27.2377 42.7506Z" fill="black"/>
<path d="M102.722 114.964C102.722 114.964 107.605 115.289 107.263 108.722C107.252 108.722 100.989 110.519 102.722 114.964Z" fill="black"/>
<path d="M126.101 146.567C126.101 146.567 127.958 139.325 117.817 138.707C117.817 138.699 118.822 148.361 126.101 146.567Z" fill="black"/>
<path d="M60.109 98.2424C60.109 98.2424 60.0127 105.653 69.9219 103.877C69.929 103.877 66.6996 94.823 60.109 98.2424Z" fill="black"/>
<path d="M79.2179 100.644C79.2179 100.644 76.8868 107.672 86.8672 108.99C86.8672 108.99 86.5357 99.3681 79.2179 100.644Z" fill="black"/>
<path d="M50.8485 81.0315C50.8485 81.0315 48.7776 89.5352 60.6614 90.1283C60.6614 90.1283 59.3462 78.827 50.8485 81.0315Z" fill="#353535"/>
<path d="M111.651 126.087C111.651 126.087 117.265 132.793 124.771 123.539C124.771 123.539 114.905 117.912 111.651 126.087Z" fill="#353535"/>
<path d="M117.717 82.2178C117.717 82.2178 123.331 88.9243 130.838 79.6703C130.838 79.6703 120.972 74.0428 117.717 82.2178Z" fill="#353535"/>
<path d="M62.2547 148.672C62.2547 148.672 67.8651 155.378 75.3718 146.124C75.3718 146.124 65.509 140.5 62.2547 148.672Z" fill="#353535"/>
<path d="M9.71498 38.974C9.71498 38.974 14.3951 31.5815 3.32395 27.2082C3.32395 27.2082 0.960729 38.338 9.71498 38.974Z" fill="#353535"/>
<path d="M69.0806 37.2378C69.0806 37.2378 73.7607 29.8453 62.6895 25.472C62.6895 25.472 60.3228 36.6018 69.0806 37.2378Z" fill="#353535"/>
<path d="M103.399 131.982C103.399 131.982 98.0808 138.928 108.717 144.273C108.717 144.255 112.064 133.383 103.399 131.982Z" fill="#353535"/>
<path d="M96.2024 139.739C96.2024 139.739 87.4695 139.757 89.7365 151.466C89.7365 151.466 100.369 147.485 96.2024 139.739Z" fill="#353535"/>
<path d="M85.8655 129.806C85.8655 129.806 78.3196 125.397 74.3738 136.648C74.3738 136.648 85.559 138.599 85.8655 129.806Z" fill="#353535"/>
<path d="M83.1921 115.618C83.1921 115.618 84.2615 106.929 72.3741 107.757C72.3741 107.754 75.0153 118.823 83.1921 115.618Z" fill="#353535"/>
<path d="M77.0578 119.727C77.0578 119.727 76.3021 114.475 69.4869 116.84C69.4941 116.84 72.7805 122.896 77.0578 119.727Z" fill="#353535"/>
<path d="M104.472 103.877C104.472 103.877 109.708 103.087 107.323 96.2703C107.309 96.2703 101.296 99.6038 104.472 103.877Z" fill="#353535"/>
<path d="M121.082 108.533C121.082 108.533 119.917 113.706 127.124 113.942C127.124 113.942 126.211 107.107 121.082 108.533Z" fill="#353535"/>
<path d="M111.693 133.186C111.693 133.186 114.901 128.97 119.71 134.362C119.71 134.362 113.893 138.056 111.693 133.186Z" fill="#353535"/>
<path d="M119.567 157.844C119.567 157.844 124.828 157.254 124.262 164.461C124.262 164.461 117.585 162.792 119.567 157.844Z" fill="#353535"/>
<path d="M82.1621 97.5101C82.1621 97.5101 85.2525 93.2011 78.7046 90.1677C78.7046 90.1784 76.8867 96.8205 82.1621 97.5101Z" fill="#353535"/>
<path d="M45.3058 107.982C45.3058 107.982 49.1697 113.503 55.5465 106.91C55.5465 106.9 48.3463 101.923 45.3058 107.982Z" fill="#696969"/>
<path d="M95.2364 125.59C95.2364 125.59 100.719 123.418 96.7798 116.508C96.762 116.508 90.9377 121.678 95.2364 125.59Z" fill="#696969"/>
<path d="M99.9308 121.485C99.9308 121.485 105.598 123.103 106.671 115.218C106.671 115.218 98.9114 115.768 99.9308 121.485Z" fill="#696969"/>
<path d="M91.2942 120.591C91.2942 120.591 92.4562 114.8 84.5217 114.357C84.5431 114.357 85.6944 122.067 91.2942 120.591Z" fill="#696969"/>
<path d="M76.9972 25.9009C76.9972 25.9009 78.1556 20.1091 70.2247 19.666C70.2283 19.666 71.3939 27.3765 76.9972 25.9009Z" fill="#696969"/>
<path d="M100.394 35.8909C100.394 35.8909 101.556 30.0991 93.6217 29.6561C93.6288 29.6561 94.7944 37.3665 100.394 35.8909Z" fill="#696969"/>
<path d="M55.7639 35.0224C55.7639 35.0224 56.9223 29.2306 48.9915 28.7876C48.995 28.7876 50.1606 36.4981 55.7639 35.0224Z" fill="#696969"/>
<path d="M19.7738 40.6926C19.7738 40.6926 24.8709 37.7271 19.9449 31.4815C19.9449 31.4815 14.9582 37.4662 19.7738 40.6926Z" fill="#696969"/>
<path d="M44.0404 32.0071C44.0404 32.0071 49.134 29.0379 44.2115 22.7924C44.2115 22.7924 39.2249 28.7771 44.0404 32.0071Z" fill="#696969"/>
<path d="M111.633 28.3657C111.633 28.3657 117.493 28.9874 117.193 21.0304C117.176 21.0232 109.626 22.9062 111.633 28.3657Z" fill="#696969"/>
<path d="M73.4934 37.0482C73.4934 37.0482 79.3533 37.6663 79.0539 29.7129C79.0432 29.7129 71.4938 31.5816 73.4934 37.0482Z" fill="#696969"/>
<path d="M15.418 25.754C15.418 25.754 21.2779 26.3722 20.9785 18.4187C20.9785 18.4187 13.4291 20.2981 15.418 25.754Z" fill="#696969"/>
<path d="M64.3826 94.3839C64.3826 94.3839 70.2426 95.0021 69.9432 87.0486C69.9289 87.0486 62.3937 88.928 64.3826 94.3839Z" fill="#696969"/>
<path d="M96.4483 97.4207C96.4483 97.4207 102.308 98.0388 102.009 90.0889C102.009 90.0889 94.4593 91.9647 96.4483 97.4207Z" fill="#696969"/>
<path d="M84.8996 87.3807C84.8996 87.3807 89.0843 83.2254 82.761 78.4233C82.761 78.4233 79.4425 85.4728 84.8996 87.3807Z" fill="#696969"/>
<path d="M115.996 100.843C115.996 100.843 121.189 103.634 123.909 96.1557C123.909 96.1557 116.213 95.041 115.996 100.843Z" fill="#696969"/>
<path d="M105.573 156.278C105.573 156.278 105.384 160.694 111.298 160.101C111.298 160.091 109.544 154.528 105.573 156.278Z" fill="#696969"/>
<path d="M116.812 146.046C116.812 146.046 115.144 150.137 120.907 151.58C120.9 151.58 121.136 145.753 116.812 146.046Z" fill="#696969"/>
<path d="M83.178 141.429C83.178 141.429 78.8223 142.094 80.5403 147.8C80.5403 147.8 85.6482 145.002 83.178 141.429Z" fill="#696969"/>
<path d="M107.035 49.9932C107.035 49.9932 108.892 42.7544 98.7509 42.1327C98.7509 42.1291 99.7561 51.7904 107.035 49.9932Z" fill="black"/>
<path d="M90.5669 38.6991C90.5669 38.6991 92.424 31.4602 82.2832 30.8385C82.2832 30.835 83.2884 40.5141 90.5669 38.6991Z" fill="black"/>
<path d="M62.4044 49.1248C62.4044 49.1248 64.2579 41.8859 54.1207 41.2642C54.1207 41.2571 55.1258 50.922 62.4044 49.1248Z" fill="black"/>
<path d="M35.9706 31.3172C35.9706 31.3172 37.8276 24.0748 27.6868 23.4566C27.6868 23.4495 28.692 33.1108 35.9706 31.3172Z" fill="black"/>
<path d="M67.6014 116.451C67.6014 116.451 69.4584 109.212 59.3176 108.59C59.3176 108.583 60.3228 118.244 67.6014 116.451Z" fill="black"/>
<path d="M134.335 100.811C134.335 100.811 136.188 93.5725 126.051 92.9508C126.051 92.9472 127.056 102.609 134.335 100.811Z" fill="black"/>
<path d="M108.781 29.5771C108.781 29.5771 110.638 22.3383 100.498 21.7166C100.483 21.713 101.488 31.3743 108.781 29.5771Z" fill="black"/>
<path d="M96.6622 52.9407C96.6622 52.9407 99.7134 49.1033 94.1386 45.6375C94.1244 45.6375 92.0285 51.8152 96.6622 52.9407Z" fill="black"/>
<path d="M83.9657 49.6929C83.9657 49.6929 88.8525 49.9609 88.439 43.4009C88.439 43.4009 82.1977 45.266 83.9657 49.6929Z" fill="black"/>
<path d="M103.652 71.7847C103.652 71.7847 105.951 67.4543 99.8382 65.0747C99.8382 65.0747 98.9043 71.5346 103.652 71.7847Z" fill="black"/>
<path d="M82.0979 60.8799C82.0979 60.8799 86.9669 61.3765 86.8528 54.8058C86.8528 54.8058 80.5331 56.3708 82.0979 60.8799Z" fill="black"/>
<path d="M73.3329 44.3012C73.3329 44.3012 76.8973 47.6527 80.7897 42.3504C80.7897 42.3504 74.8121 39.7671 73.3329 44.3012Z" fill="black"/>
<path d="M122.633 66.211C122.633 66.211 124.49 58.9686 114.349 58.3504C114.349 58.3433 115.354 68.0046 122.633 66.211Z" fill="black"/>
<path d="M108.186 45.7306C108.186 45.7306 113.8 52.4371 121.307 43.1831C121.307 43.1831 111.44 37.5557 108.186 45.7306Z" fill="#353535"/>
<path d="M99.9343 51.608C99.9343 51.608 94.6162 58.5539 105.252 63.8991C105.252 63.8991 108.596 53.0194 99.9343 51.608Z" fill="#353535"/>
<path d="M92.7413 59.3827C92.7413 59.3827 84.0085 59.4006 86.279 71.1092C86.2719 71.1092 96.9046 67.1289 92.7413 59.3827Z" fill="#353535"/>
<path d="M82.4045 49.4468C82.4045 49.4468 74.8586 45.0377 70.9163 56.289C70.9092 56.2926 82.0908 58.2434 82.4045 49.4468Z" fill="#353535"/>
<path d="M73.4934 72.5815C73.4934 72.5815 76.7014 68.3654 81.5063 73.757C81.517 73.7427 75.6998 77.4407 73.4934 72.5815Z" fill="#353535"/>
<path d="M96.5945 74.232C96.5945 74.232 101.856 73.6425 101.289 80.8492C101.296 80.8492 94.6126 79.1842 96.5945 74.232Z" fill="#353535"/>
<path d="M109.177 92.1576C109.177 92.1576 113.365 88.0022 107.038 83.2001C107.031 83.2001 103.706 90.2496 109.177 92.1576Z" fill="#696969"/>
<path d="M118.163 33.0823C118.163 33.0823 123.356 35.8764 126.076 28.3982C126.076 28.3982 118.377 27.2941 118.163 33.0823Z" fill="#696969"/>
<path d="M108.607 75.0432C108.607 75.0432 108.425 79.4594 114.328 78.8663C114.328 78.8663 112.577 73.3032 108.607 75.0432Z" fill="#696969"/>
<path d="M113.344 65.689C113.344 65.689 111.676 69.78 117.443 71.2271C117.443 71.2414 117.671 65.396 113.344 65.689Z" fill="#696969"/>
<path d="M79.7133 61.0764C79.7133 61.0764 75.354 61.741 77.072 67.4398C77.0578 67.4398 82.1834 64.6458 79.7133 61.0764Z" fill="#696969"/>
<path d="M44.2044 165.243C44.2044 165.243 46.0579 158.004 35.9207 157.382C35.9207 157.375 36.9258 167.04 44.2044 165.243Z" fill="black"/>
<path d="M48.4104 115.618C48.4104 115.618 48.3142 123.025 58.2233 121.249C58.2233 121.263 54.9975 112.181 48.4104 115.618Z" fill="black"/>
<path d="M49.3158 93.569C49.3158 93.569 44.682 99.3322 53.5539 104.077C53.5539 104.077 56.6122 94.9518 49.3158 93.569Z" fill="black"/>
<path d="M56.9152 129.681C56.9152 129.681 54.8443 138.184 66.7209 138.77C66.7209 138.77 65.4128 127.473 56.9152 129.681Z" fill="#353535"/>
<path d="M48.4532 134.726C48.4532 134.726 47.2877 139.903 54.4949 140.136C54.4949 140.136 53.5824 133.3 48.4532 134.726Z" fill="#353535"/>
<path d="M51.8395 148.16C51.8395 148.16 55.0475 143.941 59.8523 149.336C59.8523 149.336 54.0352 153.016 51.8395 148.16Z" fill="#353535"/>
<path d="M45.0313 168.923C45.0313 168.923 50.2925 168.333 49.7257 175.54C49.7257 175.54 43.0495 173.872 45.0313 168.923Z" fill="#353535"/>
<path d="M54.4058 161.409C54.4058 161.409 58.2697 166.929 64.6464 160.337C64.6464 160.327 57.4534 155.349 54.4058 161.409Z" fill="#696969"/>
<path d="M45.7977 128.206C45.7977 128.206 50.9911 131 53.7143 123.522C53.7143 123.522 46.0152 122.403 45.7977 128.206Z" fill="#696969"/>
<path d="M47.94 156.278C47.94 156.278 47.751 160.694 53.6644 160.101C53.6644 160.091 51.9143 154.528 47.94 156.278Z" fill="#696969"/>
<path d="M67.3163 75.8187C67.3163 75.8187 65.2418 84.3259 77.1256 84.9155C77.1256 84.9155 75.8139 73.6141 67.3163 75.8187Z" fill="#353535"/>
<path d="M43.3382 77.0692C43.3382 77.0692 45.1917 69.8303 35.0544 69.2086C35.0544 69.2015 36.0667 78.8628 43.3382 77.0692Z" fill="black"/>
<path d="M88.7456 81.8427C88.7456 81.8427 84.1118 87.6059 92.9873 92.3509C92.9873 92.3509 96.0456 83.2255 88.7456 81.8427Z" fill="black"/>
<path d="M54.748 54.5345C54.748 54.5345 52.6771 63.0417 64.5609 63.6312C64.5609 63.6312 63.2492 52.3299 54.748 54.5345Z" fill="#353535"/>
<path d="M44.3862 46.4201C44.3862 46.4201 43.2171 51.5937 50.4279 51.826C50.4279 51.826 49.5119 44.9945 44.3862 46.4201Z" fill="#353535"/>
<path d="M39.7062 59.9832C39.7062 59.9832 42.9142 55.7671 47.719 61.1588C47.719 61.1588 41.9019 64.8425 39.7062 59.9832Z" fill="#353535"/>
<path d="M44.1652 80.7493C44.1652 80.7493 49.4263 80.1598 48.8596 87.3664C48.8596 87.3664 42.1834 85.6979 44.1652 80.7493Z" fill="#353535"/>
<path d="M53.5326 73.2316C53.5326 73.2316 57.3964 78.7554 63.7732 72.1597C63.7803 72.1526 56.5802 67.1754 53.5326 73.2316Z" fill="#696969"/>
<path d="M47.0737 68.0938C47.0737 68.0938 46.8848 72.51 52.7982 71.9169C52.7982 71.9169 51.0374 66.3538 47.0737 68.0938Z" fill="#696969"/>
<path d="M97.8314 156.7C97.8314 156.7 90.4886 155.41 90.6526 165.59C90.6526 165.59 100.184 163.835 97.8314 156.7Z" fill="black"/>
<path d="M78.5869 172.736C78.5869 172.736 84.8211 166.601 75.0225 159.819C75.0332 159.819 70.2034 170.117 78.5869 172.736Z" fill="#353535"/>
<path d="M81.1213 161.659C81.1213 161.659 76.68 158.776 81.6702 153.556C81.6702 153.556 85.7835 159.083 81.1213 161.659Z" fill="#353535"/>
<path d="M98.0346 166.025C98.0346 166.025 102.234 167.372 103.224 161.498C103.224 161.498 97.4073 161.727 98.0346 166.025Z" fill="#696969"/>
<path d="M20.6684 119.948C20.6684 119.948 13.9317 123.164 19.9555 131.364C19.9484 131.364 26.7066 124.4 20.6684 119.948Z" fill="black"/>
<path d="M41.909 130.824C41.909 130.824 36.2808 125.908 31.1801 134.723C31.1801 134.723 40.248 138.149 41.909 130.824Z" fill="black"/>
<path d="M32.0712 149.025C32.0712 149.025 33.9282 141.787 23.7874 141.165C23.7874 141.161 24.7926 150.823 32.0712 149.025Z" fill="black"/>
<path d="M21.6807 151.991C21.6807 151.991 24.7354 148.157 19.1607 144.691C19.1607 144.674 17.0577 150.851 21.6807 151.991Z" fill="black"/>
<path d="M9.00211 148.725C9.00211 148.725 13.8889 148.997 13.4755 142.433C13.4755 142.433 7.23415 144.298 9.00211 148.725Z" fill="black"/>
<path d="M28.6884 170.821C28.6884 170.821 30.9875 166.487 24.8745 164.107C24.8745 164.107 23.9477 170.57 28.6884 170.821Z" fill="black"/>
<path d="M7.13072 159.909C7.13072 159.909 12.0033 160.405 11.8892 153.835C11.8892 153.827 5.56949 155.403 7.13072 159.909Z" fill="black"/>
<path d="M14.6802 122.239C14.6802 122.239 18.0985 118.723 12.898 114.735C12.898 114.725 10.1819 120.663 14.6802 122.239Z" fill="black"/>
<path d="M24.2792 133.64C24.2792 133.64 29.1625 133.968 28.8203 127.401C28.8203 127.401 22.5611 129.195 24.2792 133.64Z" fill="black"/>
<path d="M0.778935 119.319C0.778935 119.319 -1.55221 126.347 8.42821 127.669C8.43534 127.669 8.10741 118.047 0.778935 119.319Z" fill="black"/>
<path d="M33.2153 144.763C33.2153 144.763 38.8293 151.469 46.3395 142.215C46.3431 142.215 36.4732 136.591 33.2153 144.763Z" fill="#353535"/>
<path d="M24.9672 150.644C24.9672 150.644 19.6526 157.586 30.2889 162.935C30.2889 162.935 33.6324 152.059 24.9672 150.644Z" fill="#353535"/>
<path d="M17.7705 158.422C17.7705 158.422 9.03768 158.422 11.3047 170.145C11.3047 170.142 21.9409 166.161 17.7705 158.422Z" fill="#353535"/>
<path d="M26.0436 122.553C26.0436 122.553 31.2762 121.764 28.8952 114.946C28.8774 114.946 22.857 118.28 26.0436 122.553Z" fill="#353535"/>
<path d="M39.0824 122.553C39.0824 122.553 34.0922 120.802 33.0228 127.956C33.0371 127.956 39.9164 127.82 39.0824 122.553Z" fill="#353535"/>
<path d="M16.7903 144.266C16.7903 144.266 22.2689 142.097 18.3302 135.184C18.3302 135.198 12.5095 140.354 16.7903 144.266Z" fill="#696969"/>
<path d="M21.5025 140.16C21.5025 140.16 27.17 141.783 28.2429 133.893C28.2429 133.893 20.4831 134.444 21.5025 140.16Z" fill="#696969"/>
<path d="M12.8659 139.268C12.8659 139.268 14.0244 133.476 6.09351 133.033C6.09707 133.033 7.26264 140.743 12.8659 139.268Z" fill="#696969"/>
<path d="M36.4018 107.739C36.4018 107.739 31.9392 103.877 27.6583 110.598C27.6583 110.58 34.9261 113.356 36.4018 107.739Z" fill="#696969"/>
<path d="M32.6022 169.934C32.6022 169.934 30.9341 174.026 36.7013 175.473C36.7013 175.473 36.9294 169.641 32.6022 169.934Z" fill="#696969"/>
<path d="M16.1844 99.7111C16.1844 99.7111 8.8381 98.4177 9.00563 108.601C9.00563 108.601 18.5369 106.843 16.1844 99.7111Z" fill="black"/>
<path d="M38.1234 101.394C38.1234 101.394 33.6358 99.436 31.7431 105.732C31.7431 105.732 38.2411 106.164 38.1234 101.394Z" fill="black"/>
<path d="M31.1015 82.8608C31.1015 82.8608 23.7552 81.5674 23.9192 91.7504C23.9192 91.7504 33.4505 89.996 31.1015 82.8608Z" fill="black"/>
<path d="M11.8535 98.8929C11.8535 98.8929 18.0877 92.7617 8.28912 85.9766C8.30337 85.9766 3.47356 96.2739 11.8535 98.8929Z" fill="#353535"/>
<path d="M18.3445 106.682C18.3445 106.682 25.6658 111.455 30.1535 100.411C30.1535 100.411 19.0788 97.9139 18.3445 106.682Z" fill="#353535"/>
<path d="M14.3915 87.8165C14.3915 87.8165 9.94663 84.9331 14.9368 79.7166C14.9368 79.7166 19.0538 85.2439 14.3915 87.8165Z" fill="#353535"/>
<path d="M37.3144 118.065C37.3144 118.065 34.5057 113.567 41.2353 110.959C41.2317 110.959 42.6254 117.712 37.3144 118.065Z" fill="#353535"/>
<path d="M21.884 79.817C21.884 79.817 26.2897 79.6633 25.2417 73.8001C25.2417 73.8072 19.8452 75.9903 21.884 79.817Z" fill="#696969"/>
<path d="M31.3047 92.1865C31.3047 92.1865 35.5036 93.5335 36.4945 87.6595C36.4945 87.6774 30.6774 87.8846 31.3047 92.1865Z" fill="#696969"/>
<path d="M41.057 42.6579C41.057 42.6579 35.4288 37.7522 30.3281 46.5595C30.3138 46.5488 39.3817 49.9753 41.057 42.6579Z" fill="black"/>
<path d="M31.2049 60.8514C31.2049 60.8514 33.0584 53.6126 22.9211 52.9909C22.9211 52.9873 23.9263 62.6665 31.2049 60.8514Z" fill="black"/>
<path d="M20.8146 63.7992C20.8146 63.7992 23.8693 59.9654 18.2945 56.4961C18.2945 56.4961 16.1915 62.6666 20.8146 63.7992Z" fill="black"/>
<path d="M8.13586 60.551C8.13586 60.551 13.0227 60.819 12.6057 54.259C12.6057 54.259 6.3679 56.1241 8.13586 60.551Z" fill="black"/>
<path d="M25.0349 21.4592C25.0349 21.4592 29.9217 21.7272 29.5082 15.1672C29.5082 15.1672 23.2669 17.0323 25.0349 21.4592Z" fill="black"/>
<path d="M105.63 40.1353C105.63 40.1353 110.521 40.4068 110.104 33.8433C110.104 33.8433 103.866 35.7084 105.63 40.1353Z" fill="black"/>
<path d="M102.597 19.287C102.597 19.287 107.488 19.555 107.07 12.995C107.07 13.0022 100.833 14.8601 102.597 19.287Z" fill="black"/>
<path d="M67.498 69.2374C67.498 69.2374 72.3884 69.5089 71.9714 62.9454C71.9714 62.9454 65.7336 64.8105 67.498 69.2374Z" fill="black"/>
<path d="M38.4657 98.7751C38.4657 98.7751 43.3561 99.0431 42.9391 92.4831C42.9391 92.4831 36.7013 94.3482 38.4657 98.7751Z" fill="black"/>
<path d="M18.5334 116.147C18.5334 116.147 23.4238 116.418 23.0067 109.858C23.0067 109.858 16.769 111.723 18.5334 116.147Z" fill="black"/>
<path d="M38.9184 154.374C38.9184 154.374 43.8053 154.642 43.3918 148.078C43.374 148.078 37.1362 149.944 38.9184 154.374Z" fill="black"/>
<path d="M61.0178 172.182C61.0178 172.182 65.9047 172.45 65.4876 165.89C65.4698 165.89 59.2356 167.755 61.0178 172.182Z" fill="black"/>
<path d="M94.3667 176.526C94.3667 176.526 99.2535 176.794 98.8365 170.231C98.8365 170.231 92.5987 172.096 94.3667 176.526Z" fill="black"/>
<path d="M111.276 170.877C111.276 170.877 116.163 171.149 115.746 164.585C115.735 164.585 109.494 166.451 111.276 170.877Z" fill="black"/>
<path d="M131.198 113.11C131.198 113.11 136.085 113.378 135.668 106.814C135.668 106.814 129.43 108.683 131.198 113.11Z" fill="black"/>
<path d="M114.73 92.6792C114.73 92.6792 119.617 92.9472 119.204 86.3872C119.204 86.4015 112.966 88.2666 114.73 92.6792Z" fill="black"/>
<path d="M93.4756 113.489C93.4756 113.489 94.8408 108.776 88.3713 107.7C88.3713 107.686 88.7741 114.214 93.4756 113.489Z" fill="black"/>
<path d="M97.8099 25.3145C97.8099 25.3145 99.1751 20.6017 92.7021 19.5262C92.7021 19.5262 93.0977 26.0398 97.8099 25.3145Z" fill="black"/>
<path d="M43.6448 23.1423C43.6448 23.1423 45.0099 18.4295 38.5369 17.3541C38.5369 17.3541 38.9433 23.8676 43.6448 23.1423Z" fill="black"/>
<path d="M131.198 88.3487C131.198 88.3487 136.085 88.6203 135.668 82.0567C135.668 82.0567 129.43 83.9218 131.198 88.3487Z" fill="black"/>
<path d="M121.663 76.1868C121.663 76.1868 126.554 76.4584 126.137 69.8948C126.137 69.8948 119.895 71.7599 121.663 76.1868Z" fill="black"/>
<path d="M116.897 55.7742C116.897 55.7742 121.784 56.0422 121.371 49.4822C121.371 49.4822 115.129 51.3473 116.897 55.7742Z" fill="black"/>
<path d="M88.3 78.795C88.3 78.795 93.1869 79.0629 92.7698 72.503C92.7698 72.503 86.5321 74.3681 88.3 78.795Z" fill="black"/>
<path d="M64.0333 52.7335C64.0333 52.7335 68.9202 53.0015 68.5067 46.4415C68.5031 46.4415 62.2654 48.3066 64.0333 52.7335Z" fill="black"/>
<path d="M27.8223 82.6465C27.8223 82.6465 30.1214 78.3125 24.0048 75.9329C24.0048 75.9329 23.0745 82.3928 27.8223 82.6465Z" fill="black"/>
<path d="M6.26458 71.7346C6.26458 71.7346 11.1336 72.2277 11.0231 65.6606C11.0231 65.6534 4.6998 67.2291 6.26458 71.7346Z" fill="black"/>
<path d="M32.3527 56.5925C32.3527 56.5925 37.9666 63.2989 45.4733 54.0449C45.4733 54.0414 35.607 48.4139 32.3527 56.5925Z" fill="#353535"/>
<path d="M24.101 62.47C24.101 62.47 18.7828 69.4123 29.4191 74.7575C29.4191 74.7575 32.7661 63.8849 24.101 62.47Z" fill="#353535"/>
<path d="M16.9044 70.2412C16.9044 70.2412 8.17153 70.2591 10.4385 81.9677C10.4385 81.9606 21.0748 77.9874 16.9044 70.2412Z" fill="#353535"/>
<path d="M15.9206 56.0921C15.9206 56.0921 21.4027 53.9233 17.464 47.0096C17.464 47.0096 11.6433 52.1797 15.9206 56.0921Z" fill="#696969"/>
<path d="M20.6364 51.9871C20.6364 51.9871 26.3002 53.6092 27.3731 45.7201C27.3731 45.7201 19.6169 46.2704 20.6364 51.9871Z" fill="#696969"/>
<path d="M11.9962 51.0938C11.9962 51.0938 13.1582 45.302 5.22375 44.859C5.23088 44.859 6.39645 52.5695 11.9962 51.0938Z" fill="#696969"/>
<path d="M37.514 76.5476C37.514 76.5476 35.8458 80.6386 41.6095 82.0857C41.6095 82.0857 41.8376 76.2439 37.514 76.5476Z" fill="#696969"/>
<path d="M150.81 130.06C151.237 129.599 151.632 129.11 151.993 128.595V119.016C151.847 118.891 151.693 118.766 151.53 118.659C151.53 118.644 144.782 121.853 150.81 130.06Z" fill="black"/>
<path d="M150.022 143.369C150.022 143.369 148.101 149.029 151.993 150.497V144.945C151.409 144.334 150.746 143.804 150.022 143.369Z" fill="black"/>
<path d="M144.337 141.129C144.337 141.129 138.095 142.994 139.863 147.424C139.863 147.424 144.75 147.703 144.337 141.129Z" fill="black"/>
<path d="M138.01 158.604C138.01 158.604 142.879 159.101 142.765 152.53C142.75 152.527 136.431 154.102 138.01 158.604Z" fill="black"/>
<path d="M136.691 140.078C136.691 140.078 130.71 137.499 129.234 142.033C129.234 142.033 132.809 145.381 136.691 140.078Z" fill="black"/>
<path d="M143.745 113.421C143.745 113.421 141.043 119.359 145.527 120.924C145.534 120.935 148.949 117.422 143.745 113.421Z" fill="black"/>
<path d="M131.651 118.019C131.651 118.019 129.319 125.047 139.3 126.365C139.3 126.365 138.968 116.743 131.651 118.019Z" fill="black"/>
<path d="M142.169 168.837C142.169 168.837 152.802 164.853 148.635 157.114C148.635 157.114 139.902 157.132 142.169 168.837Z" fill="#353535"/>
<path d="M126.807 154.024C126.807 154.024 137.988 155.975 138.295 147.182C138.295 147.182 130.752 142.769 126.807 154.024Z" fill="#353535"/>
<path d="M124.821 125.129C124.821 125.129 127.463 136.205 135.639 132.989C135.625 132.993 136.677 124.304 124.821 125.129Z" fill="#353535"/>
<path d="M129.498 137.099C129.498 137.099 128.742 131.85 121.927 134.215C121.927 134.215 125.217 140.271 129.498 137.099Z" fill="#353535"/>
<path d="M147.651 142.962C147.651 142.962 153.134 140.793 149.195 133.883C149.195 133.883 143.356 139.05 147.651 142.962Z" fill="#696969"/>
<path d="M143.713 137.963C143.713 137.963 144.875 132.175 136.94 131.732C136.958 131.732 138.124 139.439 143.713 137.963Z" fill="#696969"/>
<path d="M139.867 107.296C139.867 107.296 149.416 105.542 147.045 98.3961C147.045 98.3961 139.703 97.117 139.867 107.296Z" fill="black"/>
<path d="M139.165 84.6757C139.165 84.6757 134.335 94.973 142.729 97.5884C142.718 97.5884 148.952 91.4572 139.165 84.6757Z" fill="#353535"/>
<path d="M149.206 105.378C150.061 105.883 151.009 106.21 151.993 106.339V100.222C150.535 101.205 149.416 102.802 149.206 105.378Z" fill="#353535"/>
<path d="M145.801 78.4128C140.811 83.6329 145.253 86.5163 145.253 86.5163C149.915 83.9402 145.801 78.4128 145.801 78.4128Z" fill="#353535"/>
<path d="M132.973 165.172C132.973 165.172 138.081 162.378 135.611 158.805C135.611 158.805 131.237 159.469 132.973 165.172Z" fill="#696969"/>
<path d="M150.663 30.4702C150.663 30.4702 143.927 33.6858 149.95 41.9037C150.745 41.0361 151.433 40.0765 152 39.0453V31.7278C151.611 31.2522 151.161 30.8294 150.663 30.4702Z" fill="black"/>
<path d="M149.156 55.1955C149.156 55.1955 147.056 61.3731 151.679 62.4951C151.797 62.3357 151.902 62.1672 151.993 61.9913V57.9645C151.512 57.0677 150.642 56.1173 149.156 55.1955Z" fill="black"/>
<path d="M143.47 52.9553C143.47 52.9553 137.229 54.8204 138.997 59.2473C138.997 59.2473 143.884 59.5189 143.47 52.9553Z" fill="black"/>
<path d="M137.129 70.4305C137.129 70.4305 141.998 70.9272 141.884 64.3565C141.884 64.3493 135.564 65.925 137.129 70.4305Z" fill="black"/>
<path d="M135.821 51.9049C135.821 51.9049 129.843 49.3253 128.364 53.8594C128.364 53.8594 131.95 57.2072 135.821 51.9049Z" fill="black"/>
<path d="M142.879 25.2465C142.879 25.2465 140.177 31.1848 144.661 32.7498C144.668 32.7605 148.083 29.2483 142.879 25.2465Z" fill="black"/>
<path d="M138.434 38.1917C138.434 38.1917 138.102 28.5696 130.781 29.8416C130.781 29.8416 128.453 36.8732 138.434 38.1917Z" fill="black"/>
<path d="M141.303 80.6635C141.303 80.6635 151.936 76.6832 147.765 68.9406C147.765 68.9406 139.033 68.9549 141.303 80.6635Z" fill="#353535"/>
<path d="M137.429 59.0041C137.429 59.0041 129.883 54.595 125.94 65.8499C125.94 65.8499 137.122 67.8007 137.429 59.0041Z" fill="#353535"/>
<path d="M134.759 44.8194C134.759 44.8194 135.81 36.1299 123.941 36.9589C123.941 36.941 126.582 48.0172 134.759 44.8194Z" fill="#353535"/>
<path d="M128.632 48.9248C128.632 48.9248 127.876 43.6761 121.061 46.0378C121.061 46.0378 124.351 52.094 128.632 48.9248Z" fill="#353535"/>
<path d="M146.785 54.8062C146.785 54.8062 152.267 52.6195 148.347 45.7058C148.347 45.7058 142.504 50.8759 146.785 54.8062Z" fill="#696969"/>
<path d="M136.092 43.558C136.092 43.558 137.258 51.2649 142.864 49.7893C142.861 49.8036 144.023 43.9975 136.092 43.558Z" fill="#696969"/>
<path d="M140.113 15.4461C140.113 15.4461 132.77 14.1527 132.934 24.3357C132.934 24.3357 142.465 22.5778 140.113 15.4461Z" fill="black"/>
<path d="M148.346 17.204C149.456 17.8543 150.715 18.2063 152 18.2259V11.5515C150.129 12.4519 148.596 14.1348 148.346 17.204Z" fill="#353535"/>
<path d="M132.103 76.9975C132.103 76.9975 137.215 74.2035 134.745 70.6305C134.745 70.6305 130.385 71.2951 132.103 76.9975Z" fill="#696969"/>
<path d="M60.5331 178.152C60.5331 178.152 53.7963 181.368 59.8202 189.568C59.8131 189.568 66.5713 182.604 60.5331 178.152Z" fill="black"/>
<path d="M81.7735 189.028C81.7735 189.028 77.6103 185.405 73.1975 189.997H81.4813C81.5992 189.68 81.6968 189.357 81.7735 189.028Z" fill="black"/>
<path d="M54.5377 180.442C54.5377 180.442 57.9524 176.93 52.7555 172.939C52.7484 172.928 50.0465 178.867 54.5377 180.442Z" fill="black"/>
<path d="M68.6849 185.605C68.6849 185.605 64.1902 186.895 63.8694 189.997H67.7618C68.3784 189.068 68.7954 187.681 68.6849 185.605Z" fill="black"/>
<path d="M31.3582 180.757C31.3582 180.757 28.1502 171.689 21.5417 175.126C21.5417 175.126 21.4526 182.533 31.3582 180.757Z" fill="black"/>
<path d="M40.6543 177.523C40.6543 177.523 38.3232 184.551 48.3036 185.873C48.3036 185.873 47.9721 176.251 40.6543 177.523Z" fill="black"/>
<path d="M33.8105 184.637C34.3203 186.56 35.1715 188.376 36.3234 189.996H44.3897C43.7232 187.499 41.4312 184.105 33.8105 184.637Z" fill="#353535"/>
<path d="M68.7455 173.15C68.7455 173.15 62.7216 176.483 65.894 180.757C65.9082 180.757 71.1408 179.967 68.7455 173.15Z" fill="#353535"/>
<path d="M43.5985 174.394C43.5985 174.394 46.6853 170.085 40.141 167.051C40.141 167.051 38.3196 173.7 43.5985 174.394Z" fill="#353535"/>
<path d="M22.6147 180.739C22.6147 180.739 15.4145 175.766 12.3741 181.811C12.3741 181.822 16.2379 187.363 22.6147 180.739Z" fill="#696969"/>
<path d="M11.5756 189.025C11.5824 189.352 11.6194 189.677 11.6861 189.997H18.4157C16.8188 188.457 14.5269 187.485 11.5756 189.025Z" fill="black"/>
<path d="M89.6189 187.513C89.3923 188.32 89.3281 189.164 89.43 189.997H95.5323C94.4202 188.285 92.5988 187.006 89.6189 187.513Z" fill="black"/>
<path d="M90.5599 185.116C90.5599 185.116 91.6115 176.426 79.7419 177.255C79.7419 177.252 82.3831 188.317 90.5599 185.116Z" fill="#353535"/>
<path d="M124.664 177.716C124.664 177.716 117.928 180.932 123.952 189.132C123.944 189.15 130.703 182.172 124.664 177.716Z" fill="black"/>
<path d="M145.905 188.592C145.905 188.592 141.489 184.748 136.933 189.996H145.438C145.639 189.545 145.796 189.075 145.905 188.592Z" fill="black"/>
<path d="M118.669 180.007C118.669 180.007 122.084 176.494 116.887 172.503C116.88 172.493 114.178 178.431 118.669 180.007Z" fill="black"/>
<path d="M132.816 185.17C132.816 185.17 127.904 186.581 127.983 189.997H131.547C132.353 189.089 132.945 187.603 132.816 185.17Z" fill="black"/>
<path d="M112.435 185.437C112.435 185.437 112.103 175.815 104.782 177.091C104.782 177.091 102.454 184.119 112.435 185.437Z" fill="black"/>
<path d="M97.9418 184.201C97.9418 184.201 98.7366 187.52 100.793 189.996H108.635C108.111 187.481 106.015 183.64 97.9418 184.201Z" fill="#353535"/>
<path d="M132.877 172.714C132.877 172.714 126.853 176.048 130.025 180.317C130.04 180.321 135.272 179.535 132.877 172.714Z" fill="#353535"/>
<path d="M147.758 182.947C147.758 182.947 148.81 174.254 136.94 175.086C136.94 175.079 139.582 186.145 147.758 182.947Z" fill="#353535"/>
<path d="M81.4812 8H73.1975C72.3695 8.88675 71.6515 9.87048 71.0588 10.9298C71.0588 10.9298 79.2642 14.0312 81.4812 8Z" fill="black"/>
<path d="M64.1439 9.8508C64.8521 9.86645 65.5531 9.70552 66.184 9.38248C66.8148 9.05944 67.3558 8.58439 67.7582 8L63.8694 8C63.8128 8.63003 63.9068 9.26453 64.1439 9.8508Z" fill="black"/>
<path d="M44.6214 10.5011C44.6856 9.65983 44.6048 8.81379 44.3826 8L36.3234 8C38.013 10.2617 40.672 12.0553 44.6214 10.5011Z" fill="#353535"/>
<path d="M30.9304 11.7233C30.9304 11.7233 34.2204 17.7973 38.5013 14.6102C38.5013 14.6102 37.7456 9.36153 30.9304 11.7233Z" fill="#353535"/>
<path d="M56.655 20.4734C56.655 20.4734 62.1335 18.3046 58.1984 11.3909C58.1984 11.3909 52.3741 16.5753 56.655 20.4734Z" fill="#696969"/>
<path d="M61.3743 16.3677C61.3743 16.3677 67.0346 18.0041 68.1075 10.1042C68.1075 10.1042 60.3478 10.6509 61.3743 16.3677Z" fill="#696969"/>
<path d="M45.9617 9.24344C45.9617 9.24344 47.1272 16.9503 52.7341 15.4747C52.7305 15.4747 53.889 9.68649 45.9617 9.24344Z" fill="#696969"/>
<path d="M21.392 12.6449C21.392 12.6449 20.4046 9.88296 18.4157 8H11.686C12.0603 9.94727 13.7534 14.0276 21.392 12.6449Z" fill="black"/>
<path d="M3.76587 19.1831C3.76587 19.1831 8.97707 21.9772 11.6825 14.499C11.6825 14.499 3.98686 13.3806 3.76587 19.1831Z" fill="#696969"/>
<path d="M97.2682 13.8668C97.2682 13.8668 97.1506 10.5011 95.5323 8H89.43C89.6866 10.1438 91.2051 13.0665 97.2682 13.8668Z" fill="black"/>
<path d="M145.438 8H136.94C136.278 8.77623 135.691 9.61368 135.187 10.5011C135.187 10.5011 143 13.4452 145.438 8Z" fill="black"/>
<path d="M131.558 8H127.994C128.004 8.49015 128.103 8.97431 128.286 9.42919C128.901 9.4384 129.512 9.31566 130.076 9.06917C130.64 8.82269 131.146 8.45816 131.558 8V8Z" fill="black"/>
<path d="M108.76 10.0723C108.816 9.37862 108.77 8.68048 108.625 8H100.783C102.497 10.0473 105.06 11.5194 108.76 10.0723Z" fill="#353535"/>
<path d="M120.786 20.0409C120.786 20.0409 126.265 17.8685 122.326 10.9584C122.326 10.9584 116.505 16.1285 120.786 20.0409Z" fill="#696969"/>
<path d="M125.498 15.9356C125.498 15.9356 131.166 17.5577 132.239 9.66861C132.239 9.66861 124.465 10.2188 125.498 15.9356Z" fill="#696969"/>
<path d="M110.093 8.80746C110.093 8.80746 111.259 16.5179 116.865 15.0423C116.862 15.0423 118.02 9.25051 110.093 8.80746Z" fill="#696969"/>
<path d="M81.8164 15.5034C81.8164 15.5034 79.4852 22.5314 89.4692 23.8499C89.4692 23.857 89.1377 14.235 81.8164 15.5034Z" fill="black"/>
<path d="M281.097 101.272C281.097 101.272 274.364 104.488 280.384 112.684C280.377 112.688 287.135 105.724 281.097 101.272Z" fill="black"/>
<path d="M302.337 112.145C302.337 112.145 296.713 107.239 291.612 116.047C291.612 116.047 300.68 119.477 302.337 112.145Z" fill="black"/>
<path d="M293.276 129.438C293.276 129.438 293.579 121.971 283.535 123.482C283.521 123.482 286.504 132.718 293.276 129.438Z" fill="black"/>
<path d="M282.113 133.297C282.113 133.297 285.167 129.46 279.592 125.994C279.592 125.994 277.489 132.172 282.113 133.297Z" fill="black"/>
<path d="M269.434 130.049C269.434 130.049 274.321 130.317 273.904 123.757C273.904 123.765 267.666 125.622 269.434 130.049Z" fill="black"/>
<path d="M289.12 152.144C289.12 152.144 291.419 147.81 285.303 145.431C285.303 145.431 284.365 151.89 289.12 152.144Z" fill="black"/>
<path d="M267.563 141.229C267.563 141.229 272.432 141.726 272.318 135.155C272.318 135.151 266.001 136.727 267.563 141.229Z" fill="black"/>
<path d="M258.801 124.658C258.801 124.658 262.366 128.006 266.258 122.707C266.258 122.693 260.277 120.124 258.801 124.658Z" fill="black"/>
<path d="M275.098 103.559C275.098 103.559 278.516 100.047 273.316 96.0559C273.316 96.0452 270.614 101.969 275.098 103.559Z" fill="black"/>
<path d="M251.27 130.91C251.27 130.91 254.684 127.398 249.487 123.407C249.48 123.407 246.778 129.349 251.27 130.91Z" fill="black"/>
<path d="M234.82 27.5477C234.82 27.5477 238.238 24.0355 233.037 20.0445C233.012 20.0338 230.314 25.972 234.82 27.5477Z" fill="black"/>
<path d="M258.202 185.655C258.202 185.655 261.617 182.14 256.42 178.152C256.413 178.138 253.711 184.08 258.202 185.655Z" fill="black"/>
<path d="M251.701 163.067C251.701 163.067 255.119 159.555 249.919 155.564C249.915 155.564 247.213 161.491 251.701 163.067Z" fill="black"/>
<path d="M270.336 175.665C270.336 175.665 273.75 172.15 268.554 168.162C268.546 168.148 265.83 174.09 270.336 175.665Z" fill="black"/>
<path d="M208.799 189.864C208.799 189.864 212.218 186.352 207.017 182.361C207.017 182.35 204.315 188.289 208.799 189.864Z" fill="black"/>
<path d="M190.621 179.145C190.621 179.145 194.035 175.633 188.838 171.642C188.817 171.642 186.115 177.563 190.621 179.145Z" fill="black"/>
<path d="M175.44 123.543C175.44 123.543 178.854 120.027 173.657 116.04C173.65 116.025 170.948 121.978 175.44 123.543Z" fill="black"/>
<path d="M171.105 97.4779C171.105 97.4779 174.524 93.9656 169.323 89.9746C169.316 89.9639 166.614 95.895 171.105 97.4779Z" fill="black"/>
<path d="M256.47 102.684C256.47 102.684 259.885 99.1715 254.688 95.1805C254.681 95.1805 251.979 101.115 256.47 102.684Z" fill="black"/>
<path d="M228.304 42.3004C228.304 42.3004 231.719 38.7881 226.522 34.7971C226.515 34.7971 223.813 40.739 228.304 42.3004Z" fill="black"/>
<path d="M209.238 42.7506C209.238 42.7506 212.652 39.2384 207.455 35.2474C207.448 35.2367 204.747 41.175 209.238 42.7506Z" fill="black"/>
<path d="M284.722 114.964C284.722 114.964 289.605 115.289 289.263 108.722C289.252 108.722 282.989 110.519 284.722 114.964Z" fill="black"/>
<path d="M242.109 98.2424C242.109 98.2424 242.013 105.653 251.922 103.877C251.929 103.877 248.7 94.823 242.109 98.2424Z" fill="black"/>
<path d="M261.218 100.644C261.218 100.644 258.887 107.672 268.867 108.99C268.867 108.99 268.536 99.3681 261.218 100.644Z" fill="black"/>
<path d="M232.849 81.0315C232.849 81.0315 230.778 89.5352 242.661 90.1283C242.661 90.1283 241.346 78.827 232.849 81.0315Z" fill="#353535"/>
<path d="M293.651 126.087C293.651 126.087 299.265 132.793 306.771 123.539C306.771 123.539 296.905 117.912 293.651 126.087Z" fill="#353535"/>
<path d="M244.255 148.672C244.255 148.672 249.865 155.378 257.372 146.124C257.372 146.124 247.509 140.5 244.255 148.672Z" fill="#353535"/>
<path d="M173.187 104.37C173.187 104.37 178.805 111.073 186.311 101.823C186.311 101.823 176.441 96.1955 173.187 104.37Z" fill="#353535"/>
<path d="M191.715 38.974C191.715 38.974 196.395 31.5815 185.324 27.2082C185.324 27.2082 182.961 38.338 191.715 38.974Z" fill="#353535"/>
<path d="M251.081 37.2378C251.081 37.2378 255.761 29.8453 244.69 25.472C244.69 25.472 242.323 36.6018 251.081 37.2378Z" fill="#353535"/>
<path d="M285.399 131.982C285.399 131.982 280.081 138.928 290.717 144.273C290.717 144.255 294.064 133.383 285.399 131.982Z" fill="#353535"/>
<path d="M278.202 139.739C278.202 139.739 269.47 139.757 271.737 151.466C271.737 151.466 282.369 147.485 278.202 139.739Z" fill="#353535"/>
<path d="M267.866 129.806C267.866 129.806 260.32 125.397 256.374 136.648C256.374 136.648 267.559 138.599 267.866 129.806Z" fill="#353535"/>
<path d="M265.192 115.618C265.192 115.618 266.261 106.929 254.374 107.757C254.374 107.754 257.015 118.823 265.192 115.618Z" fill="#353535"/>
<path d="M259.058 119.727C259.058 119.727 258.302 114.475 251.487 116.84C251.494 116.84 254.78 122.896 259.058 119.727Z" fill="#353535"/>
<path d="M286.472 103.877C286.472 103.877 291.708 103.087 289.323 96.2703C289.309 96.2703 283.296 99.6038 286.472 103.877Z" fill="#353535"/>
<path d="M293.693 133.186C293.693 133.186 296.901 128.97 301.71 134.362C301.71 134.362 295.893 138.056 293.693 133.186Z" fill="#353535"/>
<path d="M264.162 97.5101C264.162 97.5101 267.252 93.2011 260.705 90.1677C260.705 90.1784 258.887 96.8205 264.162 97.5101Z" fill="#353535"/>
<path d="M227.306 107.982C227.306 107.982 231.17 113.503 237.546 106.91C237.546 106.9 230.346 101.923 227.306 107.982Z" fill="#696969"/>
<path d="M277.236 125.59C277.236 125.59 282.718 123.418 278.78 116.508C278.762 116.508 272.938 121.678 277.236 125.59Z" fill="#696969"/>
<path d="M281.931 121.485C281.931 121.485 287.598 123.103 288.671 115.218C288.671 115.218 280.911 115.768 281.931 121.485Z" fill="#696969"/>
<path d="M273.294 120.591C273.294 120.591 274.456 114.8 266.522 114.357C266.543 114.357 267.694 122.067 273.294 120.591Z" fill="#696969"/>
<path d="M258.997 25.9009C258.997 25.9009 260.156 20.1091 252.225 19.666C252.228 19.666 253.394 27.3765 258.997 25.9009Z" fill="#696969"/>
<path d="M282.394 35.8909C282.394 35.8909 283.556 30.0991 275.622 29.6561C275.629 29.6561 276.794 37.3665 282.394 35.8909Z" fill="#696969"/>
<path d="M237.764 35.0224C237.764 35.0224 238.922 29.2306 230.991 28.7876C230.995 28.7876 232.161 36.4981 237.764 35.0224Z" fill="#696969"/>
<path d="M201.774 40.6926C201.774 40.6926 206.871 37.7271 201.945 31.4815C201.945 31.4815 196.958 37.4662 201.774 40.6926Z" fill="#696969"/>
<path d="M226.04 32.0071C226.04 32.0071 231.134 29.0379 226.212 22.7924C226.212 22.7924 221.225 28.7771 226.04 32.0071Z" fill="#696969"/>
<path d="M293.633 28.3657C293.633 28.3657 299.493 28.9874 299.193 21.0304C299.176 21.0232 291.626 22.9062 293.633 28.3657Z" fill="#696969"/>
<path d="M255.493 37.0482C255.493 37.0482 261.353 37.6663 261.054 29.7129C261.043 29.7129 253.494 31.5816 255.493 37.0482Z" fill="#696969"/>
<path d="M197.418 25.754C197.418 25.754 203.278 26.3722 202.979 18.4187C202.979 18.4187 195.429 20.2981 197.418 25.754Z" fill="#696969"/>
<path d="M174.884 39.6529C174.884 39.6529 180.744 40.271 180.448 32.3176C180.448 32.3176 172.898 34.2005 174.884 39.6529Z" fill="#696969"/>
<path d="M165.787 70.0591C165.787 70.0591 171.647 70.6772 171.348 62.7238C171.348 62.7238 163.798 64.6031 165.787 70.0591Z" fill="#696969"/>
<path d="M179.215 117.404C179.215 117.404 185.074 118.022 184.775 110.069C184.779 110.069 177.229 111.948 179.215 117.404Z" fill="#696969"/>
<path d="M246.383 94.3839C246.383 94.3839 252.243 95.0021 251.943 87.0486C251.929 87.0486 244.394 88.928 246.383 94.3839Z" fill="#696969"/>
<path d="M278.448 97.4207C278.448 97.4207 284.308 98.0388 284.009 90.0889C284.009 90.0889 276.459 91.9647 278.448 97.4207Z" fill="#696969"/>
<path d="M266.9 87.3807C266.9 87.3807 271.084 83.2254 264.761 78.4233C264.761 78.4233 261.442 85.4728 266.9 87.3807Z" fill="#696969"/>
<path d="M287.573 156.278C287.573 156.278 287.384 160.694 293.298 160.101C293.298 160.091 291.544 154.528 287.573 156.278Z" fill="#696969"/>
<path d="M265.178 141.429C265.178 141.429 260.822 142.094 262.54 147.8C262.54 147.8 267.648 145.002 265.178 141.429Z" fill="#696969"/>
<path d="M289.035 49.9932C289.035 49.9932 290.892 42.7544 280.751 42.1327C280.751 42.1291 281.756 51.7904 289.035 49.9932Z" fill="black"/>
<path d="M272.567 38.6991C272.567 38.6991 274.424 31.4602 264.283 30.8385C264.283 30.835 265.288 40.5141 272.567 38.6991Z" fill="black"/>
<path d="M244.404 49.1248C244.404 49.1248 246.258 41.8859 236.121 41.2642C236.121 41.2571 237.126 50.922 244.404 49.1248Z" fill="black"/>
<path d="M217.971 31.3172C217.971 31.3172 219.828 24.0748 209.687 23.4566C209.687 23.4495 210.692 33.1108 217.971 31.3172Z" fill="black"/>
<path d="M181.571 94.7339C181.571 94.7339 183.428 87.4914 173.287 86.8733C173.287 86.8662 174.292 96.5275 181.571 94.7339Z" fill="black"/>
<path d="M249.601 116.451C249.601 116.451 251.458 109.212 241.318 108.59C241.318 108.583 242.323 118.244 249.601 116.451Z" fill="black"/>
<path d="M290.781 29.5771C290.781 29.5771 292.638 22.3383 282.498 21.7166C282.483 21.713 283.488 31.3743 290.781 29.5771Z" fill="black"/>
<path d="M278.662 52.9407C278.662 52.9407 281.713 49.1033 276.139 45.6375C276.124 45.6375 274.028 51.8152 278.662 52.9407Z" fill="black"/>
<path d="M265.966 49.6929C265.966 49.6929 270.853 49.9609 270.439 43.4009C270.439 43.4009 264.198 45.266 265.966 49.6929Z" fill="black"/>
<path d="M285.652 71.7847C285.652 71.7847 287.951 67.4543 281.838 65.0747C281.838 65.0747 280.904 71.5346 285.652 71.7847Z" fill="black"/>
<path d="M264.098 60.8799C264.098 60.8799 268.967 61.3765 268.853 54.8058C268.853 54.8058 262.533 56.3708 264.098 60.8799Z" fill="black"/>
<path d="M255.333 44.3012C255.333 44.3012 258.897 47.6527 262.79 42.3504C262.79 42.3504 256.812 39.7671 255.333 44.3012Z" fill="black"/>
<path d="M290.186 45.7306C290.186 45.7306 295.8 52.4371 303.307 43.1831C303.307 43.1831 293.44 37.5557 290.186 45.7306Z" fill="#353535"/>
<path d="M281.934 51.608C281.934 51.608 276.616 58.5539 287.253 63.8991C287.253 63.8991 290.596 53.0194 281.934 51.608Z" fill="#353535"/>
<path d="M274.741 59.3827C274.741 59.3827 266.008 59.4006 268.279 71.1092C268.272 71.1092 278.905 67.1289 274.741 59.3827Z" fill="#353535"/>
<path d="M264.404 49.4468C264.404 49.4468 256.859 45.0377 252.916 56.289C252.909 56.2926 264.091 58.2434 264.404 49.4468Z" fill="#353535"/>
<path d="M255.493 72.5815C255.493 72.5815 258.701 68.3654 263.506 73.757C263.517 73.7427 257.7 77.4407 255.493 72.5815Z" fill="#353535"/>
<path d="M278.594 74.232C278.594 74.232 283.856 73.6425 283.289 80.8492C283.296 80.8492 276.613 79.1842 278.594 74.232Z" fill="#353535"/>
<path d="M291.177 92.1576C291.177 92.1576 295.365 88.0022 289.038 83.2001C289.031 83.2001 285.706 90.2496 291.177 92.1576Z" fill="#696969"/>
<path d="M290.607 75.0432C290.607 75.0432 290.425 79.4594 296.328 78.8663C296.328 78.8663 294.577 73.3032 290.607 75.0432Z" fill="#696969"/>
<path d="M295.344 65.689C295.344 65.689 293.676 69.78 299.443 71.2271C299.443 71.2414 299.671 65.396 295.344 65.689Z" fill="#696969"/>
<path d="M261.713 61.0764C261.713 61.0764 257.354 61.741 259.072 67.4398C259.058 67.4398 264.183 64.6458 261.713 61.0764Z" fill="#696969"/>
<path d="M226.204 165.243C226.204 165.243 228.058 158.004 217.921 157.382C217.921 157.375 218.926 167.04 226.204 165.243Z" fill="black"/>
<path d="M230.41 115.618C230.41 115.618 230.314 123.025 240.223 121.249C240.223 121.263 236.998 112.181 230.41 115.618Z" fill="black"/>
<path d="M231.316 93.569C231.316 93.569 226.682 99.3322 235.554 104.077C235.554 104.077 238.612 94.9518 231.316 93.569Z" fill="black"/>
<path d="M238.915 129.681C238.915 129.681 236.844 138.184 248.721 138.77C248.721 138.77 247.413 127.473 238.915 129.681Z" fill="#353535"/>
<path d="M230.453 134.726C230.453 134.726 229.288 139.903 236.495 140.136C236.495 140.136 235.582 133.3 230.453 134.726Z" fill="#353535"/>
<path d="M233.839 148.16C233.839 148.16 237.047 143.941 241.852 149.336C241.852 149.336 236.035 153.016 233.839 148.16Z" fill="#353535"/>
<path d="M227.031 168.923C227.031 168.923 232.292 168.333 231.726 175.54C231.726 175.54 225.05 173.872 227.031 168.923Z" fill="#353535"/>
<path d="M236.406 161.409C236.406 161.409 240.27 166.929 246.647 160.337C246.647 160.327 239.453 155.349 236.406 161.409Z" fill="#696969"/>
<path d="M227.798 128.206C227.798 128.206 232.991 131 235.714 123.522C235.714 123.522 228.015 122.403 227.798 128.206Z" fill="#696969"/>
<path d="M229.94 156.278C229.94 156.278 229.751 160.694 235.664 160.101C235.664 160.091 233.914 154.528 229.94 156.278Z" fill="#696969"/>
<path d="M249.316 75.8187C249.316 75.8187 247.242 84.3259 259.126 84.9155C259.126 84.9155 257.814 73.6141 249.316 75.8187Z" fill="#353535"/>
<path d="M225.338 77.0692C225.338 77.0692 227.192 69.8303 217.054 69.2086C217.054 69.2015 218.067 78.8628 225.338 77.0692Z" fill="black"/>
<path d="M270.746 81.8427C270.746 81.8427 266.112 87.6059 274.987 92.3509C274.987 92.3509 278.046 83.2255 270.746 81.8427Z" fill="black"/>
<path d="M236.748 54.5345C236.748 54.5345 234.677 63.0417 246.561 63.6312C246.561 63.6312 245.249 52.3299 236.748 54.5345Z" fill="#353535"/>
<path d="M226.386 46.4201C226.386 46.4201 225.217 51.5937 232.428 51.826C232.428 51.826 231.512 44.9945 226.386 46.4201Z" fill="#353535"/>
<path d="M221.706 59.9832C221.706 59.9832 224.914 55.7671 229.719 61.1588C229.719 61.1588 223.902 64.8425 221.706 59.9832Z" fill="#353535"/>
<path d="M226.165 80.7493C226.165 80.7493 231.426 80.1598 230.859 87.3664C230.859 87.3664 224.183 85.6979 226.165 80.7493Z" fill="#353535"/>
<path d="M235.533 73.2316C235.533 73.2316 239.396 78.7554 245.773 72.1597C245.78 72.1526 238.58 67.1754 235.533 73.2316Z" fill="#696969"/>
<path d="M229.074 68.0938C229.074 68.0938 228.885 72.51 234.798 71.9169C234.798 71.9169 233.037 66.3538 229.074 68.0938Z" fill="#696969"/>
<path d="M279.831 156.7C279.831 156.7 272.489 155.41 272.653 165.59C272.653 165.59 282.184 163.835 279.831 156.7Z" fill="black"/>
<path d="M260.587 172.736C260.587 172.736 266.821 166.601 257.022 159.819C257.033 159.819 252.203 170.117 260.587 172.736Z" fill="#353535"/>
<path d="M263.121 161.659C263.121 161.659 258.68 158.776 263.67 153.556C263.67 153.556 267.784 159.083 263.121 161.659Z" fill="#353535"/>
<path d="M280.035 166.025C280.035 166.025 284.234 167.372 285.224 161.498C285.224 161.498 279.407 161.727 280.035 166.025Z" fill="#696969"/>
<path d="M202.668 119.948C202.668 119.948 195.932 123.164 201.956 131.364C201.948 131.364 208.707 124.4 202.668 119.948Z" fill="black"/>
<path d="M223.909 130.824C223.909 130.824 218.281 125.908 213.18 134.723C213.18 134.723 222.248 138.149 223.909 130.824Z" fill="black"/>
<path d="M214.071 149.025C214.071 149.025 215.928 141.787 205.787 141.165C205.787 141.161 206.793 150.823 214.071 149.025Z" fill="black"/>
<path d="M203.681 151.991C203.681 151.991 206.735 148.157 201.161 144.691C201.161 144.674 199.058 150.851 203.681 151.991Z" fill="black"/>
<path d="M191.002 148.725C191.002 148.725 195.889 148.997 195.475 142.433C195.475 142.433 189.234 144.298 191.002 148.725Z" fill="black"/>
<path d="M210.688 170.821C210.688 170.821 212.987 166.487 206.874 164.107C206.874 164.107 205.948 170.57 210.688 170.821Z" fill="black"/>
<path d="M189.131 159.909C189.131 159.909 194.003 160.405 193.889 153.835C193.889 153.827 187.569 155.403 189.131 159.909Z" fill="black"/>
<path d="M180.369 143.333C180.369 143.333 183.934 146.685 187.826 141.383C187.826 141.383 181.845 138.803 180.369 143.333Z" fill="black"/>
<path d="M196.68 122.239C196.68 122.239 200.099 118.723 194.898 114.735C194.898 114.725 192.182 120.663 196.68 122.239Z" fill="black"/>
<path d="M206.279 133.64C206.279 133.64 211.162 133.968 210.82 127.401C210.82 127.401 204.561 129.195 206.279 133.64Z" fill="black"/>
<path d="M182.779 119.319C182.779 119.319 180.448 126.347 190.428 127.669C190.435 127.669 190.107 118.047 182.779 119.319Z" fill="black"/>
<path d="M215.215 144.763C215.215 144.763 220.829 151.469 228.339 142.215C228.343 142.215 218.473 136.591 215.215 144.763Z" fill="#353535"/>
<path d="M206.967 150.644C206.967 150.644 201.653 157.586 212.289 162.935C212.289 162.935 215.632 152.059 206.967 150.644Z" fill="#353535"/>
<path d="M199.771 158.422C199.771 158.422 191.038 158.422 193.305 170.145C193.305 170.142 203.941 166.161 199.771 158.422Z" fill="#353535"/>
<path d="M189.434 148.482C189.434 148.482 181.888 144.073 177.946 155.328C177.946 155.328 189.127 157.279 189.434 148.482Z" fill="#353535"/>
<path d="M186.764 134.297C186.764 134.297 187.815 125.604 175.946 126.437C175.946 126.433 178.584 137.499 186.764 134.297Z" fill="#353535"/>
<path d="M180.64 138.414C180.64 138.414 179.885 133.161 173.069 135.527C173.066 135.516 176.363 141.572 180.64 138.414Z" fill="#353535"/>
<path d="M208.044 122.553C208.044 122.553 213.276 121.764 210.895 114.946C210.877 114.946 204.857 118.28 208.044 122.553Z" fill="#353535"/>
<path d="M221.082 122.553C221.082 122.553 216.092 120.802 215.023 127.956C215.037 127.956 221.916 127.82 221.082 122.553Z" fill="#353535"/>
<path d="M198.79 144.266C198.79 144.266 204.269 142.097 200.33 135.184C200.33 135.198 194.509 140.354 198.79 144.266Z" fill="#696969"/>
<path d="M203.503 140.16C203.503 140.16 209.17 141.783 210.243 133.893C210.243 133.893 202.483 134.444 203.503 140.16Z" fill="#696969"/>
<path d="M194.866 139.268C194.866 139.268 196.024 133.476 188.094 133.033C188.097 133.033 189.263 140.743 194.866 139.268Z" fill="#696969"/>
<path d="M218.402 107.739C218.402 107.739 213.939 103.877 209.658 110.598C209.658 110.58 216.926 113.356 218.402 107.739Z" fill="#696969"/>
<path d="M214.602 169.934C214.602 169.934 212.934 174.026 218.701 175.473C218.701 175.473 218.929 169.641 214.602 169.934Z" fill="#696969"/>
<path d="M198.184 99.7111C198.184 99.7111 190.838 98.4177 191.006 108.601C191.006 108.601 200.537 106.843 198.184 99.7111Z" fill="black"/>
<path d="M220.124 101.394C220.124 101.394 215.636 99.436 213.743 105.732C213.743 105.732 220.241 106.164 220.124 101.394Z" fill="black"/>
<path d="M213.102 82.8608C213.102 82.8608 205.755 81.5674 205.919 91.7504C205.919 91.7504 215.451 89.996 213.102 82.8608Z" fill="black"/>
<path d="M193.854 98.8929C193.854 98.8929 200.088 92.7617 190.289 85.9766C190.303 85.9766 185.474 96.2739 193.854 98.8929Z" fill="#353535"/>
<path d="M200.344 106.682C200.344 106.682 207.666 111.455 212.153 100.411C212.153 100.411 201.079 97.9139 200.344 106.682Z" fill="#353535"/>
<path d="M196.391 87.8165C196.391 87.8165 191.947 84.9331 196.937 79.7166C196.937 79.7166 201.054 85.2439 196.391 87.8165Z" fill="#353535"/>
<path d="M219.314 118.065C219.314 118.065 216.506 113.567 223.235 110.959C223.232 110.959 224.625 117.712 219.314 118.065Z" fill="#353535"/>
<path d="M203.884 79.817C203.884 79.817 208.29 79.6633 207.242 73.8001C207.242 73.8072 201.845 75.9903 203.884 79.817Z" fill="#696969"/>
<path d="M213.305 92.1865C213.305 92.1865 217.504 93.5335 218.495 87.6595C218.495 87.6774 212.677 87.8846 213.305 92.1865Z" fill="#696969"/>
<path d="M186.75 160.109C186.75 160.109 182.39 160.773 184.108 166.476C184.108 166.476 189.22 163.682 186.75 160.109Z" fill="#696969"/>
<path d="M223.057 42.6579C223.057 42.6579 217.429 37.7522 212.328 46.5595C212.314 46.5488 221.382 49.9753 223.057 42.6579Z" fill="black"/>
<path d="M213.205 60.8514C213.205 60.8514 215.058 53.6126 204.921 52.9909C204.921 52.9873 205.926 62.6665 213.205 60.8514Z" fill="black"/>
<path d="M202.815 63.7992C202.815 63.7992 205.869 59.9654 200.295 56.4961C200.295 56.4961 198.192 62.6666 202.815 63.7992Z" fill="black"/>
<path d="M190.136 60.551C190.136 60.551 195.023 60.819 194.606 54.259C194.606 54.259 188.368 56.1241 190.136 60.551Z" fill="black"/>
<path d="M207.035 21.4592C207.035 21.4592 211.922 21.7272 211.508 15.1672C211.508 15.1672 205.267 17.0323 207.035 21.4592Z" fill="black"/>
<path d="M287.63 40.1353C287.63 40.1353 292.521 40.4068 292.104 33.8433C292.104 33.8433 285.866 35.7084 287.63 40.1353Z" fill="black"/>
<path d="M284.597 19.287C284.597 19.287 289.488 19.555 289.07 12.995C289.07 13.0022 282.833 14.8601 284.597 19.287Z" fill="black"/>
<path d="M249.498 69.2374C249.498 69.2374 254.388 69.5089 253.971 62.9454C253.971 62.9454 247.734 64.8105 249.498 69.2374Z" fill="black"/>
<path d="M220.466 98.7751C220.466 98.7751 225.356 99.0431 224.939 92.4831C224.939 92.4831 218.701 94.3482 220.466 98.7751Z" fill="black"/>
<path d="M200.533 116.147C200.533 116.147 205.424 116.418 205.007 109.858C205.007 109.858 198.769 111.723 200.533 116.147Z" fill="black"/>
<path d="M168.468 156.993C168.468 156.993 173.358 157.261 172.941 150.701C172.941 150.687 166.703 152.552 168.468 156.993Z" fill="black"/>
<path d="M220.918 154.374C220.918 154.374 225.805 154.642 225.392 148.078C225.374 148.078 219.136 149.944 220.918 154.374Z" fill="black"/>
<path d="M243.018 172.182C243.018 172.182 247.905 172.45 247.488 165.89C247.47 165.89 241.236 167.755 243.018 172.182Z" fill="black"/>
<path d="M276.367 176.526C276.367 176.526 281.254 176.794 280.837 170.231C280.837 170.231 274.599 172.096 276.367 176.526Z" fill="black"/>
<path d="M293.276 170.877C293.276 170.877 298.163 171.149 297.746 164.585C297.735 164.585 291.494 166.451 293.276 170.877Z" fill="black"/>
<path d="M296.73 92.6792C296.73 92.6792 301.617 92.9472 301.204 86.3872C301.204 86.4015 294.966 88.2666 296.73 92.6792Z" fill="black"/>
<path d="M275.476 113.489C275.476 113.489 276.841 108.776 270.371 107.7C270.371 107.686 270.774 114.214 275.476 113.489Z" fill="black"/>
<path d="M279.81 25.3145C279.81 25.3145 281.175 20.6017 274.702 19.5262C274.702 19.5262 275.098 26.0398 279.81 25.3145Z" fill="black"/>
<path d="M225.645 23.1423C225.645 23.1423 227.01 18.4295 220.537 17.3541C220.537 17.3541 220.943 23.8676 225.645 23.1423Z" fill="black"/>
<path d="M270.3 78.795C270.3 78.795 275.187 79.0629 274.77 72.503C274.77 72.503 268.532 74.3681 270.3 78.795Z" fill="black"/>
<path d="M181.467 87.045C181.467 87.045 186.343 87.3201 185.941 80.753C185.941 80.753 179.703 82.6217 181.467 87.045Z" fill="black"/>
<path d="M178.434 27.973C178.434 27.973 183.324 28.2446 182.907 21.681C182.907 21.681 176.669 23.5461 178.434 27.973Z" fill="black"/>
<path d="M246.033 52.7335C246.033 52.7335 250.92 53.0015 250.507 46.4415C250.503 46.4415 244.265 48.3066 246.033 52.7335Z" fill="black"/>
<path d="M209.822 82.6465C209.822 82.6465 212.121 78.3125 206.005 75.9329C206.005 75.9329 205.075 82.3928 209.822 82.6465Z" fill="black"/>
<path d="M188.265 71.7346C188.265 71.7346 193.134 72.2277 193.023 65.6606C193.023 65.6534 186.7 67.2291 188.265 71.7346Z" fill="black"/>
<path d="M179.503 55.1631C179.503 55.1631 183.068 58.5145 186.96 53.2122C186.96 53.2087 180.997 50.629 179.503 55.1631Z" fill="black"/>
<path d="M214.353 56.5925C214.353 56.5925 219.967 63.2989 227.473 54.0449C227.473 54.0414 217.607 48.4139 214.353 56.5925Z" fill="#353535"/>
<path d="M206.101 62.47C206.101 62.47 200.783 69.4123 211.419 74.7575C211.419 74.7575 214.766 63.8849 206.101 62.47Z" fill="#353535"/>
<path d="M198.904 70.2412C198.904 70.2412 190.172 70.2591 192.439 81.9677C192.439 81.9606 203.075 77.9874 198.904 70.2412Z" fill="#353535"/>
<path d="M188.568 60.3085C188.568 60.3085 181.022 55.8994 177.076 67.1507C177.076 67.1507 188.261 69.098 188.568 60.3085Z" fill="#353535"/>
<path d="M179.77 50.2288C179.77 50.2288 179.015 44.9765 172.2 47.3419C172.2 47.3419 175.49 53.398 179.77 50.2288Z" fill="#353535"/>
<path d="M197.921 56.0921C197.921 56.0921 203.403 53.9233 199.464 47.0096C199.464 47.0096 193.643 52.1797 197.921 56.0921Z" fill="#696969"/>
<path d="M202.636 51.9871C202.636 51.9871 208.3 53.6092 209.373 45.7201C209.373 45.7201 201.617 46.2704 202.636 51.9871Z" fill="#696969"/>
<path d="M193.996 51.0938C193.996 51.0938 195.158 45.302 187.224 44.859C187.231 44.859 188.396 52.5695 193.996 51.0938Z" fill="#696969"/>
<path d="M219.514 76.5476C219.514 76.5476 217.846 80.6386 223.61 82.0857C223.61 82.0857 223.838 76.2439 219.514 76.5476Z" fill="#696969"/>
<path d="M185.884 71.9349C185.884 71.9349 181.524 72.5995 183.242 78.3019C183.242 78.3019 188.35 75.5043 185.884 71.9349Z" fill="#696969"/>
<path d="M152 119.016V128.595C153.551 126.401 155.689 122.174 152 119.016Z" fill="black"/>
<path d="M172.777 129.52C172.777 129.52 167.149 124.615 162.048 133.411C162.048 133.411 171.116 136.848 172.777 129.52Z" fill="black"/>
<path d="M154.655 139.843C154.655 139.843 155.661 149.49 162.939 147.703C162.939 147.725 164.796 140.482 154.655 139.843Z" fill="black"/>
<path d="M152 150.497C152.179 150.566 152.362 150.623 152.549 150.669C152.549 150.669 154.752 147.903 152 144.952V150.497Z" fill="black"/>
<path d="M155.739 162.806C155.739 162.806 154.809 169.266 159.557 169.516C159.557 169.516 161.856 165.186 155.739 162.806Z" fill="black"/>
<path d="M155.147 132.34C155.147 132.34 160.031 132.665 159.689 126.098C159.689 126.098 153.429 127.891 155.147 132.34Z" fill="black"/>
<path d="M164.091 143.458C164.091 143.458 169.701 150.168 177.211 140.914C177.211 140.914 167.345 135.287 164.091 143.458Z" fill="#353535"/>
<path d="M155.839 149.34C155.839 149.34 150.521 156.278 161.157 161.638C161.157 161.638 164.5 150.758 155.839 149.34Z" fill="#353535"/>
<path d="M159.746 113.646C159.746 113.646 153.725 116.976 156.912 121.263C156.912 121.263 162.144 120.459 159.746 113.646Z" fill="#353535"/>
<path d="M163.905 126.651C163.905 126.651 170.785 126.519 169.965 121.249C169.947 121.263 164.957 119.502 163.905 126.651Z" fill="#353535"/>
<path d="M159.111 132.593C159.111 132.593 151.352 133.14 152.371 138.856C152.371 138.856 158.038 140.479 159.111 132.593Z" fill="#696969"/>
<path d="M167.27 106.435C167.27 106.435 162.818 102.577 158.541 109.28C158.541 109.28 165.798 112.052 167.27 106.435Z" fill="#696969"/>
<path d="M165.784 161.97C165.784 161.97 164.116 166.061 169.879 167.508C169.879 167.508 170.107 161.677 165.784 161.97Z" fill="#696969"/>
<path d="M162.611 104.427C162.611 104.427 169.109 104.859 168.992 100.093C168.992 100.093 164.504 98.1316 162.611 104.427Z" fill="black"/>
<path d="M161.97 81.5567C161.97 81.5567 154.62 80.2633 154.791 90.4463C154.791 90.4463 164.322 88.692 161.97 81.5567Z" fill="black"/>
<path d="M161.036 99.1107C161.036 99.1107 155.518 97.8709 152.014 100.225V106.342C154.538 106.685 158.302 105.806 161.036 99.1107Z" fill="#353535"/>
<path d="M172.086 109.655C165.36 112.263 168.165 116.761 168.165 116.761C173.511 116.408 172.086 109.655 172.086 109.655Z" fill="#353535"/>
<path d="M152.752 78.5198C153.56 78.4523 154.326 78.1338 154.945 77.6087C154.779 76.624 154.755 75.6205 154.873 74.6289C155.324 74.8045 155.763 75.0085 156.189 75.2399C156.319 74.3298 156.293 73.404 156.11 72.503C156.11 72.503 150.699 74.686 152.752 78.5198Z" fill="#696969"/>
<path d="M167.363 86.3551C167.363 86.3551 161.546 86.5802 162.173 90.8821C162.173 90.8928 166.382 92.2291 167.363 86.3551Z" fill="#696969"/>
<path d="M152 31.7282V39.0457C153.13 36.9841 153.95 34.1471 152 31.7282Z" fill="black"/>
<path d="M161.182 45.2448C161.182 45.2448 170.25 48.6712 171.911 41.3466C171.911 41.3466 166.283 36.4374 161.182 45.2448Z" fill="black"/>
<path d="M162.073 59.547C162.073 59.547 163.927 52.3081 153.789 51.6864C153.789 51.6829 154.795 61.3442 162.073 59.547Z" fill="black"/>
<path d="M152 57.9645V61.9912C152.337 61.3738 152.513 60.6815 152.513 59.9779C152.513 59.2742 152.337 58.5819 152 57.9645Z" fill="black"/>
<path d="M159.464 79.4915C161.2 79.2271 163.089 78.3589 163.296 75.8435C163.296 75.8435 159.703 73.7998 157.14 78.1767C158.046 78.3247 158.869 78.7907 159.464 79.4915Z" fill="black"/>
<path d="M154.944 77.6087C155.629 76.9939 156.07 76.1533 156.188 75.2398C155.763 75.0085 155.324 74.8044 154.873 74.6288C154.755 75.6204 154.779 76.6239 154.944 77.6087Z" fill="black"/>
<path d="M154.281 44.1655C154.281 44.1655 159.164 44.4906 158.822 37.9235C158.822 37.9235 152.563 39.7172 154.281 44.1655Z" fill="black"/>
<path d="M176.341 52.7407C176.341 52.7407 166.475 47.1133 163.221 55.2846C163.221 55.2846 168.835 61.9911 176.341 52.7407Z" fill="#353535"/>
<path d="M160.291 73.4566C160.291 73.4566 163.634 62.5841 154.976 61.1656C154.976 61.1656 149.655 68.1114 160.291 73.4566Z" fill="#353535"/>
<path d="M156.046 33.075C156.046 33.075 161.278 32.2961 158.897 25.4682C158.897 25.4682 152.859 28.8018 156.046 33.075Z" fill="#353535"/>
<path d="M163.039 38.4776C163.039 38.4776 169.918 38.3419 169.099 33.0753C169.084 33.0753 164.087 31.3281 163.039 38.4776Z" fill="#353535"/>
<path d="M158.245 44.4192C158.245 44.4192 153.65 44.7443 152 47.4991V50.7755C153.401 50.9577 157.364 50.8756 158.245 44.4192Z" fill="#696969"/>
<path d="M153.907 22.8421C153.907 22.8421 161.178 25.6147 162.651 19.9837C162.647 19.998 158.184 16.1392 153.907 22.8421Z" fill="#696969"/>
<path d="M168.382 75.2434C168.382 75.2434 166.714 79.3345 172.481 80.7815C172.481 80.7815 172.706 74.9505 168.382 75.2434Z" fill="#696969"/>
<path d="M166.383 28.7233C166.383 28.7233 161.906 26.7546 160.013 33.0501C160.013 33.0501 166.511 33.4789 166.383 28.7233Z" fill="black"/>
<path d="M160.155 10.9335C160.155 10.9335 155.475 9.87947 152 11.5516V18.2259C154.477 18.2509 157.728 16.9039 160.155 10.9335Z" fill="#353535"/>
<path d="M171.904 27.7941C173.198 22.6204 166.358 21.8772 166.358 21.8772C166.771 29.0803 171.904 27.7941 171.904 27.7941Z" fill="#353535"/>
<path d="M242.533 178.152C242.533 178.152 235.796 181.368 241.82 189.568C241.813 189.568 248.571 182.604 242.533 178.152Z" fill="black"/>
<path d="M263.774 189.028C263.774 189.028 259.61 185.405 255.198 189.997H263.481C263.599 189.68 263.697 189.357 263.774 189.028Z" fill="black"/>
<path d="M236.538 180.442C236.538 180.442 239.952 176.93 234.755 172.939C234.748 172.928 232.047 178.867 236.538 180.442Z" fill="black"/>
<path d="M250.685 185.605C250.685 185.605 246.19 186.895 245.869 189.997H249.762C250.378 189.068 250.795 187.681 250.685 185.605Z" fill="black"/>
<path d="M213.358 180.757C213.358 180.757 210.15 171.689 203.542 175.126C203.542 175.126 203.453 182.533 213.358 180.757Z" fill="black"/>
<path d="M222.654 177.523C222.654 177.523 220.323 184.551 230.304 185.873C230.304 185.873 229.972 176.251 222.654 177.523Z" fill="black"/>
<path d="M215.811 184.637C216.32 186.56 217.172 188.376 218.323 189.996H226.39C225.723 187.499 223.431 184.105 215.811 184.637Z" fill="#353535"/>
<path d="M250.746 173.15C250.746 173.15 244.722 176.483 247.894 180.757C247.908 180.757 253.141 179.967 250.746 173.15Z" fill="#353535"/>
<path d="M225.599 174.394C225.599 174.394 228.685 170.085 222.141 167.051C222.141 167.051 220.32 173.7 225.599 174.394Z" fill="#353535"/>
<path d="M204.615 180.739C204.615 180.739 197.415 175.766 194.374 181.811C194.374 181.822 198.238 187.363 204.615 180.739Z" fill="#696969"/>
<path d="M193.576 189.025C193.582 189.352 193.619 189.677 193.686 189.997H200.416C198.819 188.457 196.527 187.485 193.576 189.025Z" fill="black"/>
<path d="M166.7 189.01C166.201 189.274 165.741 189.605 165.335 189.997H167.808C167.473 189.631 167.102 189.3 166.7 189.01Z" fill="black"/>
<path d="M158.915 183.79C158.915 183.79 157.133 187.681 158.854 190H161.506C162.055 188.617 162.184 186.291 158.915 183.79Z" fill="black"/>
<path d="M271.619 187.513C271.392 188.32 271.328 189.164 271.43 189.997H277.532C276.42 188.285 274.599 187.006 271.619 187.513Z" fill="black"/>
<path d="M272.56 185.116C272.56 185.116 273.611 176.426 261.742 177.255C261.742 177.252 264.383 188.317 272.56 185.116Z" fill="#353535"/>
<path d="M294.435 185.437C294.435 185.437 294.103 175.815 286.782 177.091C286.782 177.091 284.454 184.119 294.435 185.437Z" fill="black"/>
<path d="M279.942 184.201C279.942 184.201 280.737 187.52 282.793 189.996H290.635C290.111 187.481 288.015 183.64 279.942 184.201Z" fill="#353535"/>
<path d="M174.912 184.008C174.912 184.008 170.364 186.531 171.269 189.997H174.709C175.532 188.889 175.981 187.049 174.912 184.008Z" fill="#353535"/>
<path d="M173.693 179.646C173.693 179.646 180.961 182.418 182.437 176.787C182.422 176.802 177.974 172.943 173.693 179.646Z" fill="#696969"/>
<path d="M162.219 173.118C162.219 173.118 154.873 171.824 155.041 182.004C155.041 182.004 164.572 180.25 162.219 173.118Z" fill="black"/>
<path d="M184.158 170.46C184.158 170.46 179.671 168.498 177.789 174.794C177.789 174.794 184.276 175.215 184.158 170.46Z" fill="black"/>
<path d="M176.188 169.473C176.188 169.473 165.114 166.972 164.379 175.744C164.379 175.744 171.701 180.517 176.188 169.473Z" fill="#353535"/>
<path d="M183.349 187.127C188.66 186.77 187.27 180.021 187.27 180.021C180.54 182.629 183.349 187.127 183.349 187.127Z" fill="#353535"/>
<path d="M263.481 8H255.197C254.37 8.88675 253.651 9.87048 253.059 10.9298C253.059 10.9298 261.264 14.0312 263.481 8Z" fill="black"/>
<path d="M246.144 9.8508C246.852 9.86645 247.553 9.70552 248.184 9.38248C248.815 9.05944 249.356 8.58439 249.758 8L245.869 8C245.813 8.63003 245.907 9.26453 246.144 9.8508Z" fill="black"/>
<path d="M226.621 10.5011C226.686 9.65983 226.605 8.81379 226.383 8L218.323 8C220.013 10.2617 222.672 12.0553 226.621 10.5011Z" fill="#353535"/>
<path d="M212.93 11.7233C212.93 11.7233 216.22 17.7973 220.501 14.6102C220.501 14.6102 219.746 9.36153 212.93 11.7233Z" fill="#353535"/>
<path d="M238.655 20.4734C238.655 20.4734 244.134 18.3046 240.198 11.3909C240.198 11.3909 234.374 16.5753 238.655 20.4734Z" fill="#696969"/>
<path d="M243.374 16.3677C243.374 16.3677 249.035 18.0041 250.108 10.1042C250.108 10.1042 242.348 10.6509 243.374 16.3677Z" fill="#696969"/>
<path d="M227.962 9.24344C227.962 9.24344 229.127 16.9503 234.734 15.4747C234.731 15.4747 235.889 9.68649 227.962 9.24344Z" fill="#696969"/>
<path d="M203.392 12.6449C203.392 12.6449 202.405 9.88296 200.416 8H193.686C194.06 9.94727 195.753 14.0276 203.392 12.6449Z" fill="black"/>
<path d="M185.766 19.1831C185.766 19.1831 190.977 21.9772 193.682 14.499C193.682 14.499 185.987 13.3806 185.766 19.1831Z" fill="#696969"/>
<path d="M165.98 18.4295C165.98 18.4295 171.808 12.4233 167.808 8H165.349C163.745 9.4935 161.838 12.7735 165.98 18.4295Z" fill="black"/>
<path d="M160.704 9.30414C161.047 8.9207 161.318 8.47907 161.506 8H158.854C159.323 8.61469 159.969 9.07 160.704 9.30414Z" fill="black"/>
<path d="M170.303 20.7091C170.303 20.7091 175.187 21.0342 174.845 14.4671C174.855 14.4671 168.596 16.2643 170.303 20.7091Z" fill="black"/>
<path d="M279.268 13.8668C279.268 13.8668 279.15 10.5011 277.532 8H271.43C271.687 10.1438 273.205 13.0665 279.268 13.8668Z" fill="black"/>
<path d="M290.76 10.0723C290.816 9.37862 290.77 8.68048 290.624 8H282.783C284.497 10.0473 287.06 11.5194 290.76 10.0723Z" fill="#353535"/>
<path d="M292.093 8.80746C292.093 8.80746 293.259 16.5179 298.865 15.0423C298.862 15.0423 300.02 9.25051 292.093 8.80746Z" fill="#696969"/>
<path d="M263.816 15.5034C263.816 15.5034 261.485 22.5314 271.469 23.8499C271.469 23.857 271.138 14.235 263.816 15.5034Z" fill="black"/>
<path d="M174.709 8H171.269C171.434 8.58757 171.711 9.13734 172.086 9.61856C173.125 9.41095 174.056 8.83669 174.709 8V8Z" fill="#353535"/>
<path d="M179.072 15.0243C179.072 15.0243 185.951 14.8886 185.131 9.61842C185.117 9.61842 180.12 7.87124 179.072 15.0243Z" fill="#353535"/>
</g>
</g>
<defs>
<linearGradient id="paint0_linear_1_224" x1="152" y1="8" x2="152" y2="190" gradientUnits="userSpaceOnUse">
<stop stop-color="#FDE3E4"/>
<stop offset="1" stop-color="#F7D6D9"/>
</linearGradient>
<linearGradient id="paint1_linear_1_224" x1="152" y1="8" x2="152" y2="190" gradientUnits="userSpaceOnUse">
<stop stop-color="#FDE3E4"/>
<stop offset="1" stop-color="#F7D6D9"/>
</linearGradient>
</defs>
</svg>
