<svg width="304" height="198" viewBox="0 0 304 198" fill="none" xmlns="http://www.w3.org/2000/svg">
<rect width="304" height="198" fill="white"/>
<rect x="8" y="8" width="288" height="182" fill="url(#paint0_linear_1_2330)"/>
<g filter="url(#filter0_i_1_2330)">
<path d="M104.714 8H296V190H250.5C240.595 181.952 213.357 165.857 183.643 165.857C146.5 165.857 131.643 173.286 97.2857 173.286C62.9286 173.286 49 156.571 49 136.143C49 115.714 76.8571 103.643 93.5714 95.2857C110.286 86.9286 123.286 67.4286 123.286 45.1429C123.286 27.3143 110.905 12.9524 104.714 8Z" fill="url(#paint1_linear_1_2330)"/>
</g>
<mask id="mask0_1_2330" style="mask-type:alpha" maskUnits="userSpaceOnUse" x="49" y="8" width="247" height="182">
<path d="M104.714 8H296V190H250.5C240.595 181.952 213.357 165.857 183.643 165.857C146.5 165.857 131.643 173.286 97.2857 173.286C62.9286 173.286 49 156.571 49 136.143C49 115.714 76.8571 103.643 93.5714 95.2857C110.286 86.9286 123.286 67.4286 123.286 45.1429C123.286 27.3143 110.905 12.9524 104.714 8Z" fill="url(#paint2_linear_1_2330)"/>
</mask>
<g mask="url(#mask0_1_2330)">
<path d="M157.873 130.465C165.487 128.199 170.911 123.849 174.144 117.417C177.448 110.911 180.034 98.3377 181.902 79.6974C183.482 64.4196 184.847 54.2222 185.997 49.1053C187.218 43.9152 189.589 39.7851 193.109 36.7149C196.629 33.5716 201.262 32 207.009 32C210.385 32 214.049 32.5117 218 33.5351V37.7018C217.21 37.6287 216.527 37.5921 215.953 37.5921C212.864 37.5921 210.242 39.4927 208.087 43.2939C205.931 47.095 204.064 56.598 202.483 71.8026C200.975 85.326 199.287 94.9751 197.419 100.75C195.623 106.452 192.678 112.08 188.583 117.636C184.56 123.118 180.106 127.249 175.221 130.026C170.336 132.804 164.553 134.887 157.873 136.276V182H146.127V136.276C139.159 134.814 133.161 132.585 128.132 129.588C123.104 126.591 118.686 122.387 114.878 116.978C111.143 111.496 108.341 105.94 106.473 100.311C104.678 94.6096 102.989 84.5219 101.409 70.0482C99.9004 55.867 98.0686 46.9123 95.9135 43.1842C93.7584 39.4561 91.1722 37.5921 88.1551 37.5921C87.5086 37.5921 86.7902 37.6287 86 37.7018V33.5351C89.951 32.5117 93.6147 32 96.991 32C102.666 32 107.264 33.5716 110.784 36.7149C114.304 39.7851 116.71 43.9152 118.003 49.1053C119.368 54.2222 120.625 63.4328 121.775 76.7368C123.714 98.5205 126.516 112.409 130.18 118.404C133.915 124.398 139.231 128.418 146.127 130.465V32H157.873V130.465Z" fill="black" fill-opacity="0.15"/>
</g>
<defs>
<filter id="filter0_i_1_2330" x="49" y="8" width="247" height="182" filterUnits="userSpaceOnUse" color-interpolation-filters="sRGB">
<feFlood flood-opacity="0" result="BackgroundImageFix"/>
<feBlend mode="normal" in="SourceGraphic" in2="BackgroundImageFix" result="shape"/>
<feColorMatrix in="SourceAlpha" type="matrix" values="0 0 0 0 0 0 0 0 0 0 0 0 0 0 0 0 0 0 127 0" result="hardAlpha"/>
<feOffset/>
<feGaussianBlur stdDeviation="12"/>
<feComposite in2="hardAlpha" operator="arithmetic" k2="-1" k3="1"/>
<feColorMatrix type="matrix" values="0 0 0 0 0 0 0 0 0 0 0 0 0 0 0 0 0 0 0.05 0"/>
<feBlend mode="normal" in2="shape" result="effect1_innerShadow_1_2330"/>
</filter>
<linearGradient id="paint0_linear_1_2330" x1="152" y1="8" x2="152" y2="190" gradientUnits="userSpaceOnUse">
<stop stop-color="#6CC4D7"/>
<stop offset="1" stop-color="#398AAD"/>
</linearGradient>
<linearGradient id="paint1_linear_1_2330" x1="172.5" y1="8" x2="172.5" y2="190" gradientUnits="userSpaceOnUse">
<stop stop-color="#5299B9"/>
<stop offset="1" stop-color="#306F8B"/>
</linearGradient>
<linearGradient id="paint2_linear_1_2330" x1="172.5" y1="8" x2="172.5" y2="190" gradientUnits="userSpaceOnUse">
<stop stop-color="#5299B9"/>
<stop offset="1" stop-color="#306F8B"/>
</linearGradient>
</defs>
</svg>
