<svg width="304" height="198" viewBox="0 0 304 198" fill="none" xmlns="http://www.w3.org/2000/svg">
<g clip-path="url(#clip0_1_2298)">
<rect width="304" height="198" fill="white"/>
<rect x="8" y="8" width="288" height="182" fill="url(#paint0_linear_1_2298)"/>
<g filter="url(#filter0_d_1_2298)">
<path fill-rule="evenodd" clip-rule="evenodd" d="M8.00006 190H296V8H145.983C141.972 10.1557 133.95 19.8254 133.95 41.2589C133.95 68.0508 145.983 80.9848 178.072 98.5381C207.09 114.411 206.588 125.751 206.226 133.925C206.187 134.791 206.15 135.62 206.15 136.416C206.15 144.731 201.337 173.371 160.423 173.371C140.624 173.371 128.903 171.64 116.806 169.853C103.905 167.948 90.5752 165.98 66.5627 165.98C29.3393 165.98 12.0112 181.993 8.00006 190Z" fill="url(#paint1_linear_1_2298)"/>
</g>
<circle cx="166" cy="41" r="16" fill="#49A194"/>
<circle cx="182" cy="139" r="8" fill="#49A194"/>
</g>
<defs>
<filter id="filter0_d_1_2298" x="-15.9999" y="-16" width="336" height="230" filterUnits="userSpaceOnUse" color-interpolation-filters="sRGB">
<feFlood flood-opacity="0" result="BackgroundImageFix"/>
<feColorMatrix in="SourceAlpha" type="matrix" values="0 0 0 0 0 0 0 0 0 0 0 0 0 0 0 0 0 0 127 0" result="hardAlpha"/>
<feOffset/>
<feGaussianBlur stdDeviation="12"/>
<feComposite in2="hardAlpha" operator="out"/>
<feColorMatrix type="matrix" values="0 0 0 0 0 0 0 0 0 0 0 0 0 0 0 0 0 0 0.05 0"/>
<feBlend mode="normal" in2="BackgroundImageFix" result="effect1_dropShadow_1_2298"/>
<feBlend mode="normal" in="SourceGraphic" in2="effect1_dropShadow_1_2298" result="shape"/>
</filter>
<linearGradient id="paint0_linear_1_2298" x1="152" y1="8" x2="152" y2="190" gradientUnits="userSpaceOnUse">
<stop stop-color="#51AB9E"/>
<stop offset="1" stop-color="#2B786D"/>
</linearGradient>
<linearGradient id="paint1_linear_1_2298" x1="152" y1="8" x2="152" y2="190" gradientUnits="userSpaceOnUse">
<stop stop-color="#5EB7AA"/>
<stop offset="1" stop-color="#3A8C80"/>
</linearGradient>
<clipPath id="clip0_1_2298">
<rect width="304" height="198" fill="white"/>
</clipPath>
</defs>
</svg>
