<svg width="288" height="182" viewBox="0 0 288 182" fill="none" xmlns="http://www.w3.org/2000/svg">
<rect width="288" height="182" fill="url(#paint0_linear_3_4)"/>
<mask id="mask0_3_4" style="mask-type:alpha" maskUnits="userSpaceOnUse" x="0" y="0" width="288" height="182">
<rect width="288" height="182" fill="url(#paint1_linear_3_4)"/>
</mask>
<g mask="url(#mask0_3_4)">
<path d="M180.192 162.992L269.73 40.5546C272.347 36.9757 272.732 32.2292 270.724 28.2759C268.718 24.3226 264.661 21.8317 260.228 21.8317H214.31L232.926 -69.1871C233.618 -72.5688 231.861 -75.9749 228.704 -77.3715C225.549 -78.7681 221.845 -77.7776 219.808 -74.9919L130.269 47.4464C127.653 51.0243 127.269 55.7708 129.275 59.724C131.281 63.6773 135.338 66.1683 139.771 66.1683H185.689L167.074 157.187C166.382 160.569 168.14 163.975 171.295 165.371C174.451 166.768 178.155 165.778 180.192 162.992Z" fill="black" fill-opacity="0.25"/>
</g>
<defs>
<linearGradient id="paint0_linear_3_4" x1="144" y1="0" x2="144" y2="182" gradientUnits="userSpaceOnUse">
<stop stop-color="#7B4ACB"/>
<stop offset="1" stop-color="#2E113D"/>
</linearGradient>
<linearGradient id="paint1_linear_3_4" x1="144" y1="0" x2="144" y2="182" gradientUnits="userSpaceOnUse">
<stop stop-color="#7B4ACB"/>
<stop offset="1" stop-color="#2E113D"/>
</linearGradient>
</defs>
</svg>
