<svg width="304" height="198" viewBox="0 0 304 198" fill="none" xmlns="http://www.w3.org/2000/svg">
<rect width="304" height="198" fill="white"/>
<rect x="8" y="8" width="288" height="182" fill="url(#paint0_linear_1_2275)"/>
<mask id="mask0_1_2275" style="mask-type:alpha" maskUnits="userSpaceOnUse" x="8" y="8" width="288" height="182">
<rect x="8" y="8" width="288" height="182" fill="url(#paint1_linear_1_2275)"/>
</mask>
<g mask="url(#mask0_1_2275)">
<path d="M188.192 170.992L277.73 48.5546C280.347 44.9757 280.732 40.2292 278.724 36.2759C276.718 32.3226 272.661 29.8317 268.228 29.8317H222.31L240.926 -61.1871C241.618 -64.5688 239.861 -67.9749 236.704 -69.3715C233.549 -70.7681 229.845 -69.7776 227.808 -66.9919L138.269 55.4464C135.653 59.0243 135.269 63.7708 137.275 67.724C139.281 71.6773 143.338 74.1683 147.771 74.1683H193.689L175.074 165.187C174.382 168.569 176.14 171.975 179.295 173.371C182.451 174.768 186.155 173.778 188.192 170.992Z" fill="black" fill-opacity="0.25"/>
</g>
<defs>
<linearGradient id="paint0_linear_1_2275" x1="152" y1="8" x2="152" y2="190" gradientUnits="userSpaceOnUse">
<stop stop-color="#7B4ACB"/>
<stop offset="1" stop-color="#2E113D"/>
</linearGradient>
<linearGradient id="paint1_linear_1_2275" x1="152" y1="8" x2="152" y2="190" gradientUnits="userSpaceOnUse">
<stop stop-color="#7B4ACB"/>
<stop offset="1" stop-color="#2E113D"/>
</linearGradient>
</defs>
</svg>
