<svg width="288" height="182" viewBox="0 0 288 182" fill="none" xmlns="http://www.w3.org/2000/svg">
<rect width="288" height="182" fill="url(#paint0_linear_1_48)"/>
<path fill-rule="evenodd" clip-rule="evenodd" d="M0 7.77301V38.7456L38.6859 0H7.76103L0 7.77301ZM60.1243 0L0 60.2171V91.1897L91.0492 0H60.1243ZM112.488 0L0 112.662V143.634L143.413 0H112.488ZM164.852 0L0 165.106V182H14.0572L195.777 0H164.852ZM221.579 0L39.8594 182H70.7842L252.504 0H221.579ZM273.943 0L92.2231 182H123.148L288 16.8936V0H273.943ZM288 38.3656L144.587 182H175.512L288 69.3382V38.3656ZM288 90.8097L196.95 182H227.875L288 121.782V90.8097ZM288 143.255L249.314 182H280.239L288 174.227V143.255Z" fill="#303030" fill-opacity="0.5"/>
<g clip-path="url(#clip0_1_48)">
<path d="M230.242 63.5305C230.08 63.638 229.926 63.7566 229.779 63.8855C229.625 64.023 229.479 64.1704 229.343 64.3267H229.37L229.077 64.6226C228.96 64.7732 228.843 64.9184 228.737 65.0745C228.747 65.1605 228.726 65.2472 228.678 65.3191C228.63 65.3911 228.559 65.4435 228.476 65.4672C228.338 65.6878 228.205 65.9137 228.083 66.145C227.632 67.0083 227.253 67.9081 226.95 68.8349C226.639 69.7575 226.387 70.699 226.195 71.6539V71.6916C225.977 72.4448 225.737 73.1979 225.509 73.9511C225.615 74.0533 225.764 74.1878 225.961 74.3438C226.392 72.2941 226.86 69.8033 227.854 67.9473C227.864 67.934 227.877 67.9241 227.893 67.9189C227.908 67.9137 227.925 67.9134 227.941 67.9181C227.956 67.9228 227.97 67.9322 227.98 67.9451C227.991 67.9581 227.997 67.9738 227.998 67.9903C227.875 70.0938 226.977 72.4609 226.269 74.4461C226.257 74.4835 226.23 74.5145 226.195 74.5321C226.306 74.6182 226.434 74.7043 226.567 74.7904C226.548 74.4755 226.595 74.1601 226.705 73.865C226.838 73.3052 227.036 72.7633 227.296 72.2511C227.307 72.2345 227.323 72.2223 227.342 72.2165C227.361 72.2108 227.381 72.2118 227.399 72.2194C227.417 72.227 227.432 72.2407 227.441 72.2583C227.451 72.2759 227.454 72.2961 227.45 72.3157C227.344 72.8536 227.227 73.3916 227.152 73.9296C227.099 74.2847 227.152 74.7635 226.913 75.054C228.849 76.1605 231.094 76.5862 233.295 76.2644C233.282 76.2188 233.282 76.1702 233.295 76.1246C234.263 72.8967 235.332 67.0919 232.54 64.4235C232.508 64.3912 232.54 64.3374 232.593 64.3589C235.391 66.2903 235.082 70.9922 234.306 74.3976C234.32 74.3721 234.338 74.3486 234.359 74.3277C234.417 74.1448 234.47 73.9726 234.508 73.7897C234.667 73.0742 234.843 72.3641 235.013 71.6378C235.257 70.2355 235.257 68.8008 235.013 67.3985C235.013 67.3985 235.05 67.3501 235.061 67.3985C235.56 68.5311 235.798 69.7636 235.758 71.003C235.799 69.9384 235.763 68.8722 235.651 67.8128C235.502 66.7381 235 65.7453 234.226 64.9938C235.04 65.5588 235.598 66.4277 235.779 67.4093C236.257 68.6395 236.428 69.9697 236.279 71.2827C236.357 72.2254 236.318 73.1744 236.162 74.1071C236.119 74.5913 236.034 75.0809 235.992 75.5597L236.731 75.3014C236.779 74.0802 236.858 72.859 236.805 71.6378C236.805 71.3204 236.805 71.003 236.805 70.6856L236.726 69.7387C236.694 69.4267 236.683 69.1093 236.635 68.7973L236.481 67.8666C236.303 66.6382 235.883 65.4583 235.247 64.3966C234.921 63.8982 234.486 63.4822 233.976 63.1808C233.474 62.9048 232.894 62.8117 232.332 62.9172H232.29H232.237C231.654 62.8813 231.073 63.0078 230.556 63.283L230.242 63.5305ZM233.869 63.5627C234.322 63.7941 234.933 64.2029 235.024 64.7517C235.024 64.8485 234.923 64.94 234.848 64.8539C234.694 64.6601 234.552 64.4571 234.423 64.246C234.25 64.017 234.05 63.811 233.827 63.6327C233.784 63.6004 233.816 63.5412 233.869 63.5627ZM229.854 75.5543C229.025 75.5687 228.215 75.2995 227.556 74.7904C227.537 74.7789 227.522 74.7601 227.516 74.7379C227.51 74.7157 227.513 74.692 227.524 74.672C227.536 74.652 227.554 74.6374 227.576 74.6314C227.598 74.6253 227.622 74.6283 227.641 74.6397C228.372 74.9284 229.12 75.1692 229.881 75.3606C229.906 75.3642 229.929 75.3778 229.944 75.3985C229.96 75.4192 229.966 75.4452 229.963 75.4709C229.959 75.4966 229.946 75.5198 229.926 75.5354C229.905 75.5511 229.879 75.5579 229.854 75.5543ZM233.279 68.3561C233.278 68.6131 233.221 68.8666 233.113 69.099C233.004 69.3313 232.847 69.5369 232.651 69.7011C232.69 69.6924 232.73 69.6936 232.768 69.7044C232.806 69.7152 232.841 69.7354 232.869 69.7631C232.898 69.7908 232.919 69.8251 232.931 69.8631C232.943 69.9011 232.946 69.9416 232.939 69.9808C232.806 70.7017 231.944 71.0568 231.285 71.0568C230.9 71.0081 230.533 70.8682 230.212 70.6485C229.891 70.4288 229.626 70.1355 229.439 69.7925C229.397 69.7334 229.492 69.6634 229.54 69.7118C229.746 69.9584 229.998 70.1613 230.282 70.309C230.566 70.4567 230.876 70.5463 231.194 70.5726C231.455 70.5648 231.71 70.4944 231.938 70.3672C232.167 70.24 232.362 70.0596 232.508 69.841C232.185 70.0606 231.799 70.1647 231.41 70.1366C231.022 70.1086 230.654 69.9501 230.366 69.6863C230.077 69.4226 229.883 69.0686 229.816 68.6809C229.749 68.2931 229.812 67.8938 229.995 67.5465C230.178 67.1991 230.471 66.9236 230.827 66.7638C231.182 66.6041 231.581 66.5692 231.958 66.6648C232.336 66.7603 232.671 66.9808 232.91 67.2912C233.149 67.6016 233.279 67.984 233.279 68.3776V68.3561ZM231.396 64.0523C231.421 64.0657 231.44 64.0863 231.453 64.1113C231.466 64.1363 231.471 64.1645 231.467 64.1924C231.464 64.2202 231.452 64.2464 231.434 64.2675C231.415 64.2885 231.391 64.3035 231.364 64.3105C230.764 64.4134 230.208 64.6964 229.769 65.1229C229.333 65.5595 228.986 66.0787 228.748 66.6507C228.748 66.7045 228.647 66.6507 228.657 66.6131C228.854 65.8676 229.237 65.1859 229.769 64.6333C230.157 64.1922 230.806 63.6918 231.396 64.0308V64.0523Z" fill="#414141"/>
<path d="M231.524 69.0182C231.729 69.0182 231.93 68.9565 232.101 68.841C232.272 68.7255 232.404 68.5614 232.483 68.3693C232.561 68.1773 232.581 67.9661 232.541 67.7625C232.5 67.5588 232.401 67.3719 232.256 67.2254C232.11 67.0789 231.925 66.9794 231.723 66.9396C231.522 66.8997 231.313 66.9213 231.123 67.0015C230.934 67.0817 230.772 67.217 230.659 67.3902C230.546 67.5635 230.486 67.7668 230.487 67.9745C230.495 68.2497 230.607 68.5112 230.8 68.7053C230.993 68.8995 231.252 69.0114 231.524 69.0182Z" fill="#414141"/>
<path d="M215.723 58.7208C215.696 58.7208 215.723 58.6616 215.723 58.6724C220 60.3642 224.044 62.6082 227.753 65.3487L227.844 65.1927C223.482 62.3791 219.031 59.673 214.489 57.1768C214.481 57.1712 214.476 57.1632 214.475 57.1542C214.473 57.1452 214.475 57.1358 214.479 57.1279C214.484 57.12 214.491 57.114 214.5 57.1111C214.508 57.1082 214.518 57.1086 214.526 57.1123C219.237 59.3446 223.812 61.8597 228.227 64.644L228.328 64.5041C225.411 62.549 222.393 60.7531 219.286 59.1243C215.701 57.2306 212.063 55.4445 208.42 53.6423C212.23 55.0614 215.95 56.7179 219.557 58.6025C222.714 60.2316 225.783 62.0274 228.753 63.9823C228.933 63.7922 229.123 63.6125 229.322 63.4443C229.421 63.3543 229.526 63.2716 229.636 63.1968C228.248 62.3199 226.828 61.5237 225.381 60.7382L220.461 57.9999L200.783 47.0466L161.425 25.1294C161.187 24.9971 160.928 24.9079 160.659 24.8657C160.467 24.8354 160.27 24.852 160.085 24.9142C164.203 26.7572 168.137 28.9946 171.834 31.5959C171.841 31.5998 171.847 31.605 171.852 31.6113C171.857 31.6176 171.86 31.6248 171.863 31.6325C171.865 31.6403 171.866 31.6484 171.865 31.6564C171.864 31.6644 171.861 31.6722 171.858 31.6793C171.854 31.6863 171.849 31.6926 171.842 31.6976C171.836 31.7026 171.829 31.7064 171.821 31.7086C171.814 31.7109 171.806 31.7116 171.798 31.7107C171.79 31.7098 171.782 31.7074 171.775 31.7035C167.701 29.7506 163.771 27.3028 159.867 24.9895C159.661 25.1066 159.48 25.2639 159.335 25.4521C159.164 25.6724 159.026 25.9171 158.925 26.1784V26.2268V26.2752C158.655 26.7163 158.42 27.1787 158.223 27.6579C158.032 28.1528 157.856 28.6531 157.692 29.1588C157.374 30.1763 157.113 31.2108 156.91 32.2576C156.708 33.2731 156.708 34.3193 156.91 35.3348C157.086 36.3345 157.575 37.2507 158.303 37.9494C161.344 40.9758 164.652 43.7147 168.185 46.1321C171.707 48.5729 175.363 50.8092 179.136 52.8299C182.901 54.8622 186.766 56.7009 190.715 58.3388L192.31 59.0544C192.842 59.2642 193.374 59.4525 193.906 59.6515C194.994 60.0048 196.115 60.2428 197.251 60.3616C198.394 60.5009 199.552 60.4427 200.676 60.1895C201.227 60.0585 201.762 59.8673 202.272 59.6192C202.737 59.4035 203.167 59.1188 203.548 58.7746C203.809 57.6987 204.559 56.6819 205.192 55.7727C205.887 54.799 206.665 53.8882 207.516 53.0505C207.601 52.9644 207.771 53.0882 207.691 53.1904L207.628 53.2765C207.511 53.701 207.318 54.1003 207.059 54.4546L207.011 54.5299C207.332 54.5031 207.656 54.5194 207.973 54.5784C208.122 54.5784 208.133 54.8312 207.973 54.8205C207.645 54.8272 207.317 54.7874 207 54.7021C206.973 54.7021 206.958 54.6698 206.947 54.6375C206.862 54.7774 206.782 54.9173 206.692 55.0518C207.196 55.0642 207.697 55.1438 208.181 55.2885C208.319 55.3262 208.298 55.5683 208.144 55.5521C207.726 55.5225 207.306 55.5225 206.888 55.5521C206.71 55.5629 206.532 55.5863 206.357 55.622C206.335 55.6573 206.312 55.6915 206.287 55.7243C206.287 55.7781 206.234 55.8426 206.202 55.8964C206.436 55.8964 206.665 55.8964 206.878 55.8964C207.698 55.8893 208.511 56.0599 209.26 56.3967C209.415 56.4667 209.298 56.6872 209.149 56.6603C208.352 56.4742 207.536 56.3839 206.718 56.3914C206.447 56.4154 206.177 56.4549 205.91 56.5097L205.692 56.9616C206.118 56.8899 206.548 56.8414 206.979 56.8164C208.181 56.7195 209.266 56.741 210.298 57.4297C210.309 57.4364 210.319 57.4453 210.327 57.456C210.335 57.4666 210.341 57.4788 210.345 57.4918C210.348 57.5048 210.349 57.5183 210.347 57.5317C210.346 57.545 210.341 57.5579 210.335 57.5695C210.328 57.5812 210.319 57.5914 210.309 57.5996C210.298 57.6078 210.286 57.6138 210.273 57.6173C210.261 57.6208 210.247 57.6217 210.234 57.62C210.221 57.6183 210.208 57.6139 210.197 57.6072C208.569 56.8325 206.883 57.2037 205.272 57.774C205.202 57.9031 205.139 58.0376 205.064 58.1667L205.362 58.0752C205.917 57.9109 206.484 57.7957 207.059 57.7309C207.646 57.6915 208.236 57.7113 208.819 57.7901C209.421 57.8675 210.008 58.0324 210.564 58.2797H210.521C212.648 59.1189 214.776 59.9904 216.866 61.0126C218.956 62.0348 220.956 63.1376 222.935 64.3266C224.296 65.1443 225.629 66.0068 226.934 66.9142C227.088 66.5861 227.248 66.2633 227.423 65.9459C223.605 63.3743 219.653 61.1202 215.723 58.7208ZM162.212 40.139C159.191 38.595 156.479 35.3456 158.069 31.7626C158.069 31.7142 158.17 31.7626 158.16 31.8057C157.245 35.394 159.612 38.0947 162.25 40.096C162.25 40.1013 162.25 40.1068 162.248 40.112C162.247 40.1172 162.244 40.122 162.241 40.1261C162.237 40.1302 162.233 40.1335 162.228 40.1357C162.223 40.1379 162.218 40.139 162.212 40.139ZM204.016 53.6799C203.951 54.1872 203.769 54.6718 203.484 55.0948C203.346 55.2846 203.195 55.4644 203.032 55.6328C202.864 55.7935 202.686 55.9444 202.501 56.0847L202.612 55.8426C198.889 54.5192 195.406 51.8508 192.06 49.7688C192.051 49.7638 192.044 49.7554 192.041 49.7453C192.038 49.7352 192.039 49.7243 192.044 49.715C192.049 49.7058 192.058 49.6988 192.068 49.6958C192.077 49.6928 192.088 49.6939 192.097 49.6989C195.592 51.5764 199.613 53.2119 202.676 55.7404C202.713 55.6543 202.751 55.5629 202.793 55.4768C202.836 55.3907 202.857 55.2993 202.894 55.2132C197.804 52.5125 192.773 49.5536 187.949 46.3796C187.943 46.3764 187.938 46.3721 187.934 46.367C187.931 46.3619 187.928 46.3561 187.926 46.3498C187.924 46.3436 187.924 46.3371 187.924 46.3306C187.925 46.3242 187.927 46.318 187.93 46.3123C187.933 46.3067 187.938 46.3017 187.943 46.2977C187.948 46.2937 187.954 46.2907 187.96 46.289C187.966 46.2872 187.972 46.2867 187.979 46.2875C187.985 46.2883 187.991 46.2903 187.997 46.2935C193.135 48.822 198.182 51.6733 203.08 54.6214C203.112 54.5052 203.133 54.3864 203.144 54.2663C203.147 54.2162 203.147 54.1659 203.144 54.1157C200.123 53.0397 197.294 50.8878 194.523 49.2739C191.257 47.3641 188.002 45.4542 184.822 43.4099V43.3722C188.236 45.0938 191.534 46.9229 194.826 48.7467C197.533 50.253 200.676 51.5872 203.144 53.5401C203.134 53.4349 203.116 53.3305 203.091 53.228H203.011C196.469 49.4622 190.002 45.5672 183.513 41.7153C183.506 41.7097 183.501 41.7017 183.499 41.6926C183.498 41.6836 183.499 41.6743 183.504 41.6664C183.508 41.6584 183.516 41.6525 183.524 41.6496C183.533 41.6467 183.542 41.6471 183.55 41.6507C190.039 44.8194 196.421 48.2679 202.543 52.0821C202.441 51.9503 202.327 51.8279 202.203 51.7163L192.448 45.9761C189.183 44.0501 185.901 42.151 182.657 40.1928L172.903 34.3449C169.669 32.3598 166.419 30.4123 163.202 28.4272C166.536 30.2079 169.829 32.0693 173.153 33.9038L183.051 39.4988C186.359 41.3548 189.63 43.2647 192.916 45.153L202.766 50.834H202.804C203.004 51.0091 203.182 51.2078 203.336 51.4258C203.491 51.6363 203.623 51.8637 203.729 52.1037C203.964 52.6009 204.063 53.1525 204.016 53.7015V53.6799ZM205.803 52.6578C204.298 50.6457 202.612 48.9511 200.352 47.8482C200.315 47.8482 200.352 47.7675 200.384 47.7837C202.754 48.6407 204.734 50.3432 205.952 52.5717C205.966 52.5917 205.972 52.6165 205.968 52.6407C205.964 52.6649 205.951 52.6865 205.931 52.7008C205.911 52.7151 205.887 52.7208 205.863 52.7168C205.839 52.7128 205.818 52.6993 205.803 52.6793V52.6578Z" fill="#414141"/>
<path d="M243.916 82.0367C244.395 82.3219 244.879 82.607 245.374 82.8545C245.868 83.1019 246.368 83.2956 246.895 83.5215C247.161 83.6291 247.427 83.7475 247.677 83.8443L248.464 84.0918C248.72 84.1824 248.984 84.2526 249.251 84.3016L250.038 84.463C250.733 84.5654 251.44 84.5454 252.128 84.4038C250.569 84.3456 249.03 84.0162 247.581 83.4301C243.948 81.9937 240.821 79.3145 238.215 76.4364C238.215 76.4364 238.215 76.3987 238.215 76.4364C240.247 77.9266 242.135 79.6158 244.262 80.9661C245.609 81.8516 247.062 82.5602 248.586 83.075C249.15 83.2616 249.726 83.4108 250.309 83.5215C251.203 83.6829 252.926 83.6883 253.899 83.0912C253.411 83.1261 252.92 83.1261 252.431 83.0912C250.304 82.9997 248.379 82.6177 246.735 81.2082C246.735 81.2082 246.735 81.1598 246.767 81.1706C247.954 81.8498 249.278 82.2472 250.639 82.3326C251.171 82.381 253.554 82.6446 254.463 82.1389C254.471 82.1004 254.481 82.0626 254.495 82.026C254.441 81.5753 254.274 81.1459 254.011 80.7779C253.687 80.3742 253.285 80.0411 252.83 79.7987C252.342 79.5297 251.825 79.3203 251.288 79.1747C250.743 79.0207 250.186 78.9145 249.623 78.8573H249.528H249.464C248.37 78.5017 247.303 78.0648 246.273 77.55C245.235 77.0322 244.242 76.4275 243.305 75.7424C242.353 75.0611 241.463 74.296 240.646 73.4559C239.812 72.6122 239.074 71.6776 238.444 70.6692L238.486 70.7338C238.09 70.2018 237.664 69.6934 237.21 69.2113L237.258 69.7493L237.343 70.7176C237.343 70.9974 237.343 71.2556 237.343 71.5623C237.875 72.1487 238.406 72.7189 238.975 73.2623C240.419 74.6674 241.994 75.9286 243.677 77.0281C245.343 78.1718 247.185 79.0281 249.129 79.562C248.629 79.4867 248.118 79.4221 247.623 79.3038C247.127 79.1797 246.639 79.0252 246.161 78.8411C245.199 78.4797 244.273 78.0276 243.395 77.4908C241.65 76.4171 240.025 75.1544 238.55 73.7249C238.14 73.3376 237.747 72.9395 237.364 72.5306V72.9556C240.066 75.8338 243.337 77.5177 246.539 79.7234C246.666 79.8095 246.586 80.0408 246.432 79.9816C242.829 78.6512 239.68 76.3022 237.359 73.2139C237.359 73.9832 237.311 74.7525 237.284 75.5218V75.5594C237.236 75.8123 237.178 76.0598 237.13 76.3072C237.603 76.8452 238.077 77.3402 238.577 77.8297C240.199 79.4254 241.99 80.8362 243.916 82.0367Z" fill="#414141"/>
<path d="M209.925 142.813C209.116 142.741 208.316 142.588 207.537 142.356C207.154 142.221 206.766 142.092 206.389 141.947C206.01 141.79 205.64 141.61 205.282 141.409C203.842 140.666 202.538 139.68 201.426 138.493C200.881 137.904 200.38 137.274 199.927 136.61C199.671 136.223 199.437 135.823 199.224 135.41L199.182 135.491C199.086 135.674 198.98 135.852 198.879 136.029C199 136.377 199.157 136.71 199.347 137.024C199.549 137.347 199.825 137.616 200.017 137.939C200.034 137.971 200.04 138.007 200.035 138.042C200.03 138.078 200.013 138.111 199.988 138.136C199.963 138.161 199.931 138.178 199.896 138.183C199.861 138.188 199.825 138.182 199.794 138.165C199.207 137.78 198.784 137.187 198.608 136.503L198.373 136.901C198.638 137.621 198.995 138.303 199.437 138.929C199.501 139.02 199.379 139.133 199.288 139.079C198.684 138.697 198.246 138.097 198.06 137.401L197.868 137.724C198.054 138.167 198.263 138.6 198.496 139.02C198.51 139.048 198.514 139.081 198.507 139.111C198.501 139.142 198.483 139.169 198.459 139.189C198.434 139.208 198.403 139.218 198.372 139.216C198.341 139.215 198.311 139.203 198.288 139.182C198 138.865 197.787 138.486 197.666 138.073C197.517 138.326 197.374 138.611 197.225 138.843C197.737 140.059 198.402 141.203 199.203 142.248C200.097 143.419 201.175 144.433 202.394 145.25C203.66 146.036 205.028 146.641 206.458 147.047C206.819 147.163 207.186 147.256 207.559 147.327C207.931 147.407 208.303 147.483 208.681 147.58C209.282 147.671 209.894 147.752 210.505 147.854C211.569 146.1 212.633 144.325 213.617 142.523C212.411 142.828 211.163 142.926 209.925 142.813ZM210.027 147.208C207.249 147.07 204.633 145.847 202.729 143.798C202.655 143.722 202.729 143.577 202.846 143.647C204.931 145.244 207.421 146.21 210.027 146.434C210.516 146.477 210.526 147.241 210.027 147.198V147.208ZM211.09 145.928C208.027 146.213 204.862 144.54 202.793 142.367C202.713 142.286 202.83 142.173 202.921 142.243C205.458 144.282 208.037 144.933 211.17 145.342C211.494 145.39 211.367 145.901 211.064 145.928H211.09ZM211.787 144.163C208.596 144.416 204.942 143.292 202.745 140.936C202.687 140.876 202.745 140.769 202.83 140.823C205.66 142.942 208.681 142.845 211.872 143.841C211.914 143.856 211.949 143.887 211.969 143.928C211.988 143.969 211.991 144.016 211.976 144.058C211.961 144.101 211.93 144.136 211.89 144.156C211.849 144.176 211.803 144.178 211.76 144.163H211.787Z" fill="#414141"/>
<path d="M207.442 150.91C206.761 152.042 205.9 153.052 204.894 153.901C203.406 155.208 201.48 155.889 199.512 155.805C199.485 155.805 199.459 155.795 199.44 155.775C199.421 155.756 199.411 155.73 199.411 155.703C199.411 155.676 199.421 155.65 199.44 155.631C199.459 155.612 199.485 155.601 199.512 155.601C201.448 155.063 203.267 154.385 204.735 152.911C205.99 151.668 206.5 149.914 207.601 148.607H207.431C207.202 148.607 206.968 148.58 206.74 148.553C206.617 148.941 206.49 149.323 206.335 149.699C206.074 150.244 205.782 150.774 205.463 151.286C204.782 152.295 203.933 153.176 202.953 153.89C202.825 153.982 202.708 154.073 202.581 154.154L202.176 154.38C201.912 154.536 201.637 154.67 201.352 154.783C200.796 155.022 200.211 155.185 199.613 155.267C198.437 155.423 197.243 155.201 196.198 154.632C197.269 154.8 198.365 154.701 199.389 154.342C200.368 154.001 201.262 153.45 202.011 152.728C202.762 152.001 203.431 151.193 204.006 150.318C204.277 149.855 204.586 149.419 204.883 148.968C205.011 148.752 205.144 148.537 205.282 148.322L204.969 148.257C204.566 148.151 204.17 148.02 203.782 147.865C203.38 147.742 202.992 147.578 202.623 147.375C202.251 147.176 201.873 146.988 201.511 146.767C200.076 145.857 198.866 144.626 197.975 143.168C197.354 142.159 196.909 141.048 196.661 139.886C195.39 142.109 194.231 144.394 193.188 146.735L192.927 148.048C192.874 148.505 192.816 148.962 192.778 149.419V150.108C192.76 150.334 192.76 150.56 192.778 150.786L192.837 151.464L192.959 152.12C193.143 152.985 193.484 153.808 193.964 154.546C194.216 154.898 194.505 155.221 194.826 155.509C194.98 155.656 195.144 155.793 195.315 155.918C195.398 155.984 195.485 156.043 195.576 156.096C195.618 156.123 195.661 156.155 195.704 156.176C195.746 156.198 195.81 156.23 195.773 156.22C196.108 156.3 196.427 156.402 196.783 156.472C197.135 156.548 197.49 156.606 197.847 156.645C198.553 156.73 199.266 156.745 199.974 156.688C201.404 156.555 202.789 156.116 204.038 155.402C205.302 154.674 206.438 153.74 207.399 152.637C208.38 151.541 209.212 150.318 209.872 149V148.951C209.941 148.838 210.005 148.725 210.08 148.612C209.628 148.656 209.176 148.693 208.718 148.709C208.473 149.536 208.035 150.29 207.442 150.91ZM201.809 147.649C202.046 147.807 202.298 147.942 202.559 148.053C202.792 148.123 203.013 148.224 203.219 148.354C203.309 148.424 203.219 148.543 203.139 148.553C202.884 148.556 202.633 148.485 202.416 148.349C202.153 148.222 201.904 148.068 201.671 147.892C201.533 147.784 201.66 147.553 201.809 147.649ZM197.82 144.761C198.04 145.164 198.324 145.527 198.661 145.836C199.013 146.13 199.381 146.405 199.762 146.66C199.785 146.677 199.801 146.701 199.809 146.729C199.816 146.757 199.814 146.787 199.803 146.813C199.792 146.84 199.773 146.862 199.748 146.876C199.723 146.89 199.694 146.895 199.666 146.891C198.687 146.719 197.996 145.702 197.698 144.825C197.671 144.739 197.788 144.696 197.82 144.761ZM198.241 148.231C199.384 148.231 200.309 149.366 200.309 150.764C200.309 152.163 199.384 153.298 198.241 153.298C197.097 153.298 196.172 152.163 196.172 150.764C196.172 149.366 197.097 148.231 198.241 148.231ZM195.704 144.578C195.273 145.713 194.64 146.767 194.347 147.94C193.98 149.411 194.05 150.959 194.549 152.389C194.549 152.443 194.486 152.497 194.448 152.448C192.566 150.189 193.837 146.53 195.331 144.422C195.454 144.239 195.794 144.346 195.704 144.578Z" fill="#414141"/>
<path d="M198.017 151.92C198.375 151.989 198.745 151.944 199.077 151.793C199.409 151.641 199.686 151.389 199.871 151.072C200.057 150.755 200.141 150.387 200.112 150.02C200.084 149.653 199.944 149.303 199.712 149.019C199.48 148.735 199.167 148.53 198.816 148.433C198.465 148.335 198.092 148.35 197.749 148.474C197.406 148.598 197.11 148.826 196.9 149.127C196.69 149.428 196.576 149.787 196.576 150.156C196.555 150.368 196.576 150.581 196.638 150.785C196.699 150.988 196.8 151.177 196.933 151.341C197.067 151.505 197.232 151.641 197.418 151.74C197.604 151.84 197.807 151.901 198.017 151.92Z" fill="#414141"/>
<path d="M225.291 74.4792C225.078 75.1624 224.881 75.8456 224.668 76.5289C225.479 77.0546 226.325 77.522 227.2 77.9276C228.157 78.3616 229.158 78.6917 230.184 78.9121C231.196 79.1249 232.235 79.1776 233.263 79.0681L234.034 78.9713L234.79 78.783C234.917 78.7453 235.05 78.7292 235.173 78.6861L235.545 78.5463L236.114 78.3418C236.284 77.5349 236.46 76.7279 236.646 75.9102C235.113 76.487 233.494 76.7928 231.859 76.814C229.46 76.878 227.122 76.0469 225.291 74.4792ZM227.269 76.7656C227.198 76.8126 227.117 76.8449 227.034 76.8606C226.95 76.8763 226.863 76.8751 226.78 76.857C226.864 76.8855 226.945 76.9197 227.025 76.9592C227.046 76.9738 227.062 76.994 227.073 77.0176C227.083 77.0412 227.087 77.0672 227.084 77.0929C227.08 77.1185 227.07 77.1427 227.054 77.1628C227.038 77.1829 227.017 77.1981 226.993 77.2067C226.37 77.352 225.695 76.7817 225.339 76.3244C225.326 76.3058 225.32 76.2833 225.322 76.2609C225.325 76.2385 225.334 76.2175 225.35 76.2016C225.366 76.1857 225.387 76.1758 225.409 76.1737C225.431 76.1715 225.453 76.1773 225.471 76.1899C225.68 76.3788 225.917 76.5331 226.174 76.6472C225.809 76.4671 225.513 76.1727 225.328 75.808C225.313 75.7821 225.308 75.7515 225.313 75.722C225.319 75.6926 225.335 75.6661 225.358 75.6477C225.382 75.6293 225.411 75.6201 225.441 75.6219C225.47 75.6236 225.498 75.6362 225.519 75.6573C225.761 75.9243 226.054 76.1385 226.381 76.2868H226.482C226.016 76.0813 225.618 75.7429 225.339 75.313C225.301 75.2592 225.381 75.2 225.429 75.2431C225.921 75.7056 226.495 76.0705 227.12 76.319C227.134 76.325 227.146 76.336 227.153 76.3499C227.16 76.3639 227.161 76.3799 227.158 76.395C227.154 76.41 227.144 76.4232 227.132 76.432C227.119 76.4407 227.104 76.4446 227.088 76.4428H226.939C227.056 76.4697 227.167 76.5151 227.269 76.5773C227.284 76.5883 227.295 76.6026 227.303 76.6189C227.311 76.6352 227.315 76.6532 227.315 76.6714C227.315 76.6896 227.311 76.7076 227.303 76.7239C227.295 76.7403 227.284 76.7545 227.269 76.7656ZM233.843 77.0883C234.495 76.921 235.161 76.8165 235.832 76.7763C235.86 76.7769 235.887 76.7842 235.911 76.7977C235.935 76.8112 235.956 76.8304 235.971 76.8537C235.986 76.877 235.995 76.9037 235.998 76.9314C236.001 76.9592 235.997 76.9872 235.986 77.013C235.997 77.314 235.976 77.6152 235.923 77.9115C235.924 77.9434 235.913 77.9747 235.892 77.9988C235.872 78.0228 235.842 78.0378 235.811 78.0406C235.802 78.0872 235.78 78.1301 235.747 78.1643C234.806 79.095 232.918 78.9013 231.769 78.5839C231.716 78.5839 231.726 78.4925 231.769 78.4871C232.305 78.4792 232.839 78.4216 233.364 78.3149C232.718 78.3009 232.078 78.1884 231.466 77.9814C231.447 77.9814 231.43 77.974 231.417 77.9609C231.404 77.9478 231.396 77.93 231.396 77.9115C231.396 77.8929 231.404 77.8751 231.417 77.862C231.43 77.8489 231.447 77.8415 231.466 77.8415C232.119 77.8832 232.774 77.8434 233.417 77.7232C232.509 77.8095 231.593 77.6595 230.758 77.2874C230.684 77.2551 230.758 77.1475 230.811 77.1637C231.822 77.3215 232.852 77.2959 233.854 77.0883H233.843Z" fill="#414141"/>
<path d="M231.795 94.954L231.263 96.9338L230.646 98.8974C230.231 100.205 229.833 101.517 229.407 102.825C228.508 105.418 227.647 108.022 226.689 110.588C225.732 113.154 224.748 115.72 223.753 118.275L222.195 122.079L220.599 125.845C218.472 130.8 216.153 135.684 213.637 140.456C213.723 140.483 213.813 140.499 213.898 140.532C213.919 140.537 213.938 140.549 213.951 140.566C213.964 140.583 213.971 140.604 213.971 140.626C213.971 140.648 213.964 140.669 213.951 140.686C213.938 140.703 213.919 140.715 213.898 140.72C210.175 142.016 205.229 138.961 202.894 136.249C202.881 136.233 202.875 136.211 202.876 136.19C202.878 136.169 202.887 136.149 202.902 136.134C202.918 136.12 202.938 136.111 202.959 136.111C202.98 136.11 203 136.117 203.016 136.131C204.683 137.573 206.593 138.699 208.654 139.456C210.25 139.994 211.989 139.994 213.595 140.467C215.866 135.577 217.977 130.611 220.02 125.624C222.073 120.556 224.023 115.444 225.87 110.286C226.812 107.72 227.663 105.116 228.529 102.529C229.396 99.9411 230.237 97.3319 231.013 94.7119L232.221 90.7847L233.364 86.8413C234.114 84.3773 234.742 81.8757 235.46 79.3957C234.827 79.743 234.139 79.9777 233.428 80.0897C232.285 80.3042 231.111 80.2841 229.976 80.0305C228.859 79.7823 227.784 79.3709 226.785 78.8093C225.956 78.3475 225.185 77.7877 224.487 77.1415C222.982 81.865 221.333 86.54 219.589 91.172C217.169 97.5901 214.52 103.917 211.723 110.179C208.925 116.441 205.915 122.606 202.804 128.707C202.016 130.231 201.222 131.75 200.421 133.264L199.612 134.7C200.483 135.699 201.418 136.638 202.41 137.514C203.515 138.488 204.722 139.336 206.011 140.042C206.655 140.384 207.32 140.688 208 140.951C208.345 141.07 208.696 141.156 209.063 141.269C209.234 141.317 209.409 141.387 209.595 141.419L210.127 141.522C211.43 141.78 212.758 141.88 214.084 141.817C215.896 138.503 217.589 135.125 219.163 131.682C221.823 125.703 224.234 119.606 226.397 113.391C228.56 107.175 230.49 100.899 232.189 94.5613C233.577 89.4397 234.848 84.2805 235.97 79.0944C235.816 79.1805 235.667 79.2719 235.507 79.3526C234.486 84.6141 233.311 89.8325 231.795 94.954ZM213.499 139.569C210.005 139.569 206.814 137.476 206.814 137.476C211.069 136.341 212.334 131.063 212.334 131.063L223.971 99.9411C226.945 92.092 228.817 86.5992 228.817 86.5992C228.698 89.135 228.242 91.6431 227.46 94.0556C229.269 90.2897 233.279 82.2846 233.279 82.2846C231.338 100.657 213.499 139.569 213.499 139.569ZM226.051 79.2235C227.87 80.7191 230.96 81.3754 233.258 81.0688C233.29 81.0635 233.323 81.0705 233.351 81.0885C233.379 81.1066 233.399 81.1343 233.407 81.1664C233.416 81.1985 233.412 81.2327 233.398 81.2623C233.383 81.292 233.358 81.315 233.327 81.327C231.269 82.1824 227.226 81.284 226.024 79.245C226.014 79.2289 226.035 79.2127 226.051 79.2235ZM221.796 102.195C220.482 105.961 219.105 109.673 217.696 113.385L215.568 118.937C214.829 120.782 214.095 122.622 213.334 124.462C211.824 128.131 210.265 131.784 208.633 135.405C210.101 131.703 211.563 128.013 213.021 124.333L215.185 118.781L217.313 113.229C218.731 109.517 220.13 105.801 221.509 102.082L225.615 90.8977C224.406 94.685 223.136 98.4509 221.807 102.195H221.796ZM200.676 135.701C202.718 131.397 204.755 127.093 206.734 122.789L208.213 119.561L209.664 116.301L211.106 113.036L212.521 109.759C214.398 105.391 216.206 100.99 217.977 96.5733C219.749 92.1565 221.45 87.7074 223.152 83.2584C221.786 87.8258 220.248 92.3448 218.6 96.8154C216.951 101.286 215.18 105.719 213.281 110.109L211.85 113.385L210.388 116.645L208.872 119.873L207.319 123.101C205.252 127.358 203.038 131.558 200.676 135.701Z" fill="#414141"/>
<path d="M237.188 68.7384C237.188 68.8783 237.22 69.0181 237.236 69.158C237.69 69.6402 238.116 70.1485 238.513 70.6805L238.47 70.6159C239.1 71.6243 239.838 72.5589 240.672 73.4027C241.49 74.2427 242.38 75.0078 243.331 75.6891C244.269 76.3743 245.262 76.9789 246.299 77.4967C247.329 78.0115 248.396 78.4485 249.49 78.804H249.554H249.65C250.213 78.8612 250.77 78.9674 251.314 79.1214C251.851 79.267 252.369 79.4765 252.857 79.7455C253.312 79.9879 253.713 80.3209 254.038 80.7246C254.3 81.0926 254.467 81.522 254.521 81.9727C254.508 82.0094 254.497 82.0472 254.49 82.0857C253.58 82.5914 251.176 82.3278 250.666 82.2793C249.304 82.1939 247.98 81.7966 246.794 81.1173C246.794 81.1173 246.74 81.1173 246.762 81.155C248.405 82.5645 250.352 82.9464 252.458 83.0379C252.947 83.0728 253.437 83.0728 253.926 83.0379C252.953 83.635 251.229 83.6297 250.336 83.4683C249.752 83.3575 249.177 83.2084 248.613 83.0218C247.089 82.5069 245.636 81.7983 244.289 80.9129C242.161 79.5625 240.273 77.8733 238.241 76.3831C238.241 76.3831 238.209 76.3831 238.241 76.3831C240.847 79.2613 243.975 81.9404 247.607 83.3768C249.057 83.963 250.595 84.2923 252.155 84.3506C251.467 84.4921 250.759 84.5122 250.065 84.4097L249.277 84.2483C249.01 84.1993 248.747 84.1291 248.49 84.0385L247.703 83.7911C247.442 83.6942 247.171 83.5759 246.921 83.4683C246.389 83.2423 245.858 83.0487 245.4 82.8012C244.943 82.5537 244.422 82.2632 243.943 81.9835C242.034 80.773 240.261 79.355 238.656 77.7549C238.156 77.2654 237.683 76.7543 237.21 76.2325C237.103 76.7704 236.991 77.3084 236.88 77.8464C237.151 78.1369 237.412 78.4328 237.704 78.7179C239.373 80.3991 241.217 81.8926 243.204 83.1724C243.735 83.4844 244.225 83.7911 244.762 84.0601C245.299 84.329 245.868 84.5658 246.4 84.7971C246.671 84.9101 246.932 85.0338 247.214 85.136L248.075 85.4158C248.363 85.5191 248.658 85.6 248.958 85.6579L249.857 85.8461C251.151 86.081 252.484 85.9063 253.676 85.3458C254.284 85.0101 254.811 84.5415 255.218 83.974L255.489 83.5328C255.569 83.3822 255.644 83.2262 255.713 83.0702C255.839 82.7583 255.932 82.4337 255.989 82.1018V82.0319V81.9512C255.919 81.1886 255.645 80.4597 255.197 79.8423C254.75 79.2767 254.195 78.8083 253.564 78.4651C252.976 78.1398 252.351 77.8869 251.703 77.7119C251.1 77.5431 250.484 77.4243 249.862 77.3568C248.863 77.04 247.889 76.648 246.948 76.184C245.01 75.2263 243.247 73.9419 241.736 72.3859C240.988 71.632 240.323 70.7987 239.752 69.9004L239.72 69.8466C238.858 68.6989 237.883 67.6427 236.811 66.6941C236.906 67.0599 236.986 67.4257 237.061 67.7969L237.188 68.7384Z" fill="#1E1E1E"/>
<path d="M156.745 37.116C156.877 37.3757 157.03 37.624 157.202 37.8584C157.294 37.9815 157.393 38.0983 157.5 38.2081L157.793 38.4878C160.872 41.5297 164.219 44.2812 167.792 46.7082C171.346 49.1464 175.034 51.379 178.838 53.3953C182.632 55.4229 186.525 57.2543 190.502 58.8826L192.098 59.5982C192.629 59.8134 193.209 60.007 193.762 60.2061C194.89 60.5672 196.052 60.8088 197.23 60.927C198.42 61.0544 199.622 60.9817 200.788 60.7118C201.372 60.5687 201.939 60.3631 202.479 60.0985C203.012 59.8452 203.502 59.5094 203.931 59.1032C204.43 58.9026 204.942 58.7372 205.463 58.6083C205.987 58.4856 206.521 58.4118 207.059 58.3877C207.593 58.3666 208.127 58.4008 208.654 58.4899C209.207 58.5688 209.744 58.7302 210.25 58.9687C212.345 59.8564 214.43 60.7817 216.441 61.8523C218.451 62.9229 220.44 64.0311 222.366 65.2416C223.764 66.1131 225.126 67.0438 226.461 68.0068C226.604 67.6356 226.764 67.2644 226.929 66.8985C225.621 65.9947 224.287 65.1322 222.929 64.3109C220.951 63.1219 218.935 61.9922 216.861 60.9969C214.787 60.0016 212.659 59.1032 210.516 58.264H210.558C210.003 58.0167 209.416 57.8518 208.814 57.7744C208.232 57.7014 207.644 57.6869 207.059 57.7314C206.475 57.782 205.896 57.8846 205.33 58.038L205.032 58.1295C205.107 58.0004 205.171 57.8659 205.24 57.7368C206.835 57.1665 208.537 56.7953 210.165 57.57C210.176 57.5767 210.189 57.581 210.202 57.5828C210.215 57.5845 210.229 57.5836 210.242 57.5801C210.254 57.5766 210.266 57.5706 210.277 57.5624C210.288 57.5542 210.296 57.544 210.303 57.5323C210.31 57.5207 210.314 57.5078 210.316 57.4945C210.317 57.4811 210.317 57.4676 210.313 57.4546C210.31 57.4416 210.304 57.4294 210.296 57.4188C210.287 57.4081 210.277 57.3992 210.266 57.3924C209.234 56.7038 208.138 56.6823 206.947 56.7791C206.516 56.8042 206.086 56.8527 205.66 56.9244L205.878 56.4725C206.145 56.4177 206.415 56.3781 206.686 56.3541C207.504 56.3466 208.32 56.4369 209.117 56.6231C209.266 56.6231 209.383 56.4295 209.229 56.3595C208.479 56.0227 207.666 55.8521 206.846 55.8592C206.633 55.8592 206.404 55.8592 206.17 55.8592C206.202 55.8054 206.229 55.7408 206.256 55.687C206.28 55.6543 206.304 55.6201 206.325 55.5848C206.5 55.5491 206.678 55.5257 206.857 55.5149C207.274 55.4853 207.694 55.4853 208.112 55.5149C208.266 55.5149 208.287 55.2889 208.149 55.2513C207.665 55.1066 207.164 55.027 206.66 55.0146C206.75 54.8801 206.83 54.7402 206.915 54.6003C206.915 54.6326 206.915 54.6595 206.968 54.6649C207.286 54.7502 207.613 54.79 207.942 54.7832C208.101 54.7832 208.09 54.5573 207.942 54.5412C207.624 54.4821 207.3 54.4659 206.979 54.4927L207.027 54.4174C207.29 54.0639 207.486 53.6646 207.606 53.2392L207.67 53.1532C207.75 53.0509 207.58 52.9272 207.495 53.0133C206.634 53.8499 205.848 54.7607 205.144 55.7355C204.511 56.6447 203.761 57.6399 203.501 58.7374C203.136 59.091 202.722 59.3883 202.272 59.6197C201.762 59.8677 201.227 60.0589 200.676 60.1899C199.567 60.4419 198.423 60.5037 197.294 60.3728C196.157 60.254 195.036 60.016 193.948 59.6627C193.417 59.4637 192.885 59.2754 192.353 59.0656L190.757 58.35C186.794 56.7099 182.915 54.8677 179.136 52.8304C175.363 50.8096 171.707 48.5734 168.185 46.1325C164.653 43.7149 161.348 40.976 158.309 37.9499C157.58 37.2512 157.092 36.3349 156.915 35.3353C156.713 34.3197 156.713 33.2736 156.915 32.258C157.12 31.2111 157.383 30.1766 157.702 29.1593C157.856 28.6536 158.032 28.1532 158.234 27.6583C158.414 27.1808 158.631 26.7185 158.883 26.2757V26.2273V26.1789C158.998 25.9146 159.152 25.6697 159.34 25.4526C159.486 25.2643 159.666 25.1071 159.872 24.9899C163.771 27.3032 167.701 29.751 171.775 31.7039C171.782 31.7078 171.79 31.7103 171.798 31.7111C171.806 31.712 171.814 31.7113 171.821 31.7091C171.829 31.7068 171.836 31.7031 171.842 31.698C171.849 31.693 171.854 31.6868 171.858 31.6797C171.861 31.6726 171.864 31.6649 171.865 31.6569C171.866 31.6488 171.865 31.6407 171.863 31.633C171.861 31.6252 171.857 31.618 171.852 31.6117C171.847 31.6054 171.841 31.6002 171.834 31.5963C168.135 28.9852 164.197 26.7387 160.074 24.8877C160.259 24.8255 160.456 24.8089 160.649 24.8393C160.917 24.8814 161.176 24.9706 161.415 25.1029L200.772 47.0202L220.451 57.9735L225.371 60.7118C226.833 61.4972 228.253 62.2934 229.625 63.1703C229.896 62.9768 230.186 62.8144 230.492 62.6862C230.702 62.6005 230.92 62.5338 231.141 62.4871L230.902 62.3257C229.306 61.3036 227.626 60.3782 225.972 59.4959L221.031 56.806L201.336 45.9765L161.803 24.3766C161.472 24.1948 161.112 24.0745 160.739 24.0216C160.343 23.9638 159.938 24.0295 159.58 24.2098C159.238 24.386 158.94 24.6379 158.707 24.9469C158.486 25.2193 158.307 25.524 158.176 25.8507C157.907 26.3352 157.678 26.8407 157.489 27.3624C157.287 27.9004 157.107 28.4007 156.958 28.9226C156.632 29.9735 156.366 31.0422 156.16 32.1235C155.94 33.2369 155.94 34.3833 156.16 35.4967C156.282 36.0605 156.479 36.6051 156.745 37.116Z" fill="#1E1E1E"/>
<path d="M230.221 63.515L230.519 63.2783C230.402 63.3429 230.29 63.4128 230.178 63.4881L230.221 63.515Z" fill="#1E1E1E"/>
<path d="M203.378 51.4698C203.21 51.2568 203.017 51.0653 202.804 50.8995H202.767L192.917 45.1539C189.63 43.2656 186.359 41.3557 183.051 39.4997L173.153 33.9047C169.829 32.0702 166.536 30.2088 163.202 28.4012C166.419 30.4132 169.669 32.3607 172.903 34.3459L182.657 40.1937C185.901 42.152 189.183 44.051 192.449 45.977L202.203 51.7172L202.267 51.7603H202.219C202.343 51.8718 202.457 51.9943 202.559 52.1261L203.4 52.6641C203.472 52.708 203.525 52.7769 203.551 52.858C203.576 52.9391 203.571 53.0268 203.537 53.1046C203.504 53.1824 203.443 53.2451 203.366 53.2809C203.29 53.3166 203.204 53.323 203.123 53.2989C203.148 53.4014 203.166 53.5057 203.176 53.6109C203.373 53.7669 203.57 53.9176 203.756 54.0843C203.942 54.2511 203.756 54.3802 203.612 54.3372C203.469 54.2942 203.32 54.2242 203.176 54.1704C203.179 54.2206 203.179 54.2709 203.176 54.3211C203.165 54.4411 203.144 54.5599 203.112 54.6761L203.346 54.8106C203.417 54.8527 203.468 54.9214 203.488 55.0016C203.509 55.0818 203.497 55.167 203.455 55.2383C203.414 55.3097 203.346 55.3613 203.267 55.382C203.187 55.4027 203.103 55.3907 203.033 55.3486L202.926 55.2894C202.889 55.3755 202.857 55.4616 202.825 55.553C202.793 55.6445 202.745 55.7306 202.708 55.8166L202.772 55.8704C202.78 55.8796 202.784 55.8909 202.786 55.9029C202.787 55.9149 202.784 55.927 202.778 55.9375C202.773 55.948 202.764 55.9565 202.753 55.9618C202.743 55.9671 202.73 55.969 202.719 55.9673H202.65L202.538 56.2094C202.723 56.069 202.901 55.9181 203.07 55.7575C203.233 55.589 203.384 55.4092 203.522 55.2195C203.806 54.7965 203.988 54.3118 204.054 53.8046C204.106 53.2737 204.022 52.7381 203.809 52.2498C203.698 51.9725 203.554 51.7104 203.378 51.4698Z" fill="#1E1E1E"/>
<path d="M219.594 58.6032C215.987 56.7186 212.267 55.0621 208.457 53.643C212.101 55.4452 215.738 57.2313 219.323 59.125C222.43 60.7538 225.448 62.5497 228.365 64.5048C228.508 64.3165 228.657 64.139 228.812 63.9668C225.834 62.0168 222.758 60.2264 219.594 58.6032Z" fill="#1E1E1E"/>
<path d="M229.035 64.612L229.329 64.3161H229.303C229.212 64.4022 229.121 64.5044 229.035 64.612Z" fill="#1E1E1E"/>
<path d="M238.603 73.6717C240.078 75.1011 241.703 76.3638 243.448 77.4375C244.326 77.9743 245.252 78.4264 246.214 78.7878C246.692 78.9719 247.18 79.1264 247.677 79.2505C248.171 79.3689 248.682 79.4334 249.182 79.5087C247.25 78.9803 245.417 78.1333 243.757 77.0018C242.074 75.9022 240.499 74.6411 239.055 73.2359C238.491 72.6979 237.949 72.1223 237.422 71.5359V71.6596C237.422 71.9394 237.422 72.1976 237.422 72.4989C237.8 72.8862 238.194 73.2843 238.603 73.6717Z" fill="#1E1E1E"/>
<path d="M228.79 63.9672L229.322 64.3007C229.458 64.1444 229.604 63.9971 229.758 63.8596C229.904 63.7307 230.059 63.6121 230.221 63.5045L229.689 63.171C229.579 63.2457 229.474 63.3284 229.375 63.4184C229.17 63.5897 228.975 63.7729 228.79 63.9672Z" fill="#1E1E1E"/>
<path d="M210.883 149.564C210.895 149.545 210.906 149.526 210.915 149.505L210.883 149.564Z" fill="#1E1E1E"/>
<path d="M230.561 62.6752V63.2724C231.078 62.9972 231.659 62.8707 232.242 62.9066H232.295H232.338C232.899 62.8011 233.479 62.8942 233.981 63.1702C234.491 63.4753 234.924 63.895 235.247 64.3968C235.883 65.4638 236.301 66.6493 236.475 67.8829L236.63 68.8136C236.678 69.1256 236.688 69.443 236.72 69.7551L236.8 70.7019C236.8 71.0193 236.8 71.3367 236.8 71.6541C236.853 72.8753 236.8 74.0966 236.725 75.3178L236.933 75.2424L237.124 75.7266L236.619 75.9095C236.46 76.7219 236.284 77.5235 236.087 78.3412L236.273 78.2767L236.529 78.7286C236.332 78.8577 236.135 78.9868 235.928 79.1105C234.816 84.2966 233.534 89.4559 232.146 94.5774C230.419 100.915 228.489 107.191 226.354 113.407C224.22 119.622 221.809 125.719 219.121 131.698C217.543 135.141 215.85 138.52 214.042 141.834H214.536L214.632 142.372C214.302 142.468 213.967 142.549 213.627 142.624C212.632 144.427 211.59 146.202 210.515 147.956C210.68 147.983 210.84 148.004 210.999 148.036V148.574L210.074 148.671C210 148.784 209.936 148.897 209.867 149.01V149.059C209.206 150.377 208.374 151.6 207.393 152.695C206.432 153.799 205.296 154.733 204.032 155.461C202.783 156.175 201.398 156.613 199.969 156.746C199.26 156.804 198.547 156.789 197.841 156.703C197.484 156.665 197.129 156.607 196.778 156.531C196.421 156.461 196.102 156.359 195.767 156.278C195.804 156.278 195.73 156.278 195.698 156.235C195.666 156.192 195.613 156.181 195.57 156.155C195.479 156.102 195.392 156.043 195.31 155.977C195.138 155.852 194.975 155.715 194.82 155.568C194.509 155.27 194.231 154.938 193.991 154.578C193.51 153.84 193.169 153.017 192.985 152.152L192.863 151.496L192.805 150.818C192.786 150.592 192.786 150.366 192.805 150.14V149.451C192.842 148.994 192.9 148.537 192.954 148.08L193.214 146.767V146.815L193.246 146.713V146.767C194.289 144.426 195.448 142.141 196.719 139.918C196.619 139.435 196.558 138.943 196.538 138.45L197.07 138.369C197.139 138.563 197.23 138.746 197.309 138.934C197.458 138.676 197.602 138.396 197.751 138.165C197.703 138.019 197.66 137.879 197.629 137.74C197.619 137.703 197.624 137.664 197.642 137.632C197.66 137.599 197.691 137.575 197.727 137.565C197.763 137.555 197.801 137.56 197.834 137.578C197.866 137.597 197.89 137.628 197.9 137.664C197.9 137.713 197.937 137.761 197.953 137.815L198.144 137.492C198.059 137.221 198.002 136.941 197.974 136.658C197.974 136.448 198.288 136.411 198.331 136.61C198.373 136.809 198.41 136.863 198.448 136.992L198.682 136.594C198.631 136.435 198.588 136.273 198.554 136.109C198.541 136.062 198.548 136.012 198.572 135.97C198.595 135.927 198.635 135.896 198.682 135.884C198.728 135.871 198.778 135.877 198.82 135.901C198.862 135.926 198.892 135.966 198.905 136.013L198.953 136.12C199.054 135.943 199.16 135.765 199.256 135.582L199.299 135.502C199.137 135.202 198.993 134.893 198.868 134.576L199.315 134.318C199.442 134.469 199.575 134.614 199.703 134.759L200.479 133.323C201.284 131.806 202.078 130.287 202.862 128.766C205.989 122.669 208.961 116.493 211.776 110.238C214.574 103.976 217.222 97.6493 219.642 91.2312C221.387 86.5992 223.035 81.9242 224.541 77.2007C224.399 77.0786 224.265 76.9493 224.136 76.8133L224.477 76.426C224.562 76.4798 224.658 76.5282 224.743 76.5874C224.955 75.9042 225.152 75.2209 225.365 74.5377C225.216 74.4132 225.077 74.2765 224.95 74.1288L225.344 73.7899C225.344 73.7899 225.413 73.8706 225.53 73.989C225.759 73.2358 225.998 72.4826 226.216 71.7294V71.6918C226.408 70.7369 226.661 69.7953 226.971 68.8728C227.274 67.9459 227.653 67.0462 228.104 66.1829C228.226 65.9515 228.359 65.7256 228.498 65.505C228.419 65.5214 228.337 65.506 228.269 65.462L227.923 65.2414L227.833 65.3974L228.03 65.5373C228.365 65.7794 228.03 66.3443 227.7 66.1076L227.492 65.9731C227.317 66.2905 227.157 66.6133 227.003 66.9414L227.301 67.1405V67.1728H227.003V67.7914C226.95 67.9313 226.897 68.0712 226.849 68.2164C226.753 68.1411 226.652 68.0766 226.551 68.0012C226.477 68.1949 226.402 68.3886 226.333 68.5823C225.991 69.5317 225.709 70.502 225.487 71.4873V71.4497C223.459 77.9808 221.193 84.4365 218.69 90.817C216.206 97.1813 213.489 103.459 210.632 109.646C207.776 115.833 204.782 122.02 201.655 128.072C200.875 129.589 200.08 131.099 199.272 132.602L198.049 134.851C197.655 135.598 197.214 136.303 196.772 137.051C194.994 140.013 193.396 143.082 191.986 146.24V146.293V146.342L191.635 147.816C191.576 148.316 191.518 148.817 191.48 149.322V150.086C191.459 150.34 191.459 150.596 191.48 150.85L191.549 151.619L191.693 152.383C191.913 153.414 192.325 154.392 192.906 155.267C193.199 155.709 193.541 156.115 193.927 156.477C194.119 156.67 194.323 156.85 194.538 157.015C194.646 157.097 194.758 157.172 194.874 157.241C194.932 157.28 194.992 157.316 195.054 157.349C195.135 157.398 195.218 157.441 195.304 157.478C196.082 157.707 196.877 157.869 197.682 157.962C198.478 158.055 199.282 158.064 200.08 157.989C201.684 157.831 203.236 157.328 204.633 156.515C206.008 155.715 207.241 154.687 208.282 153.475C209.32 152.304 210.197 150.995 210.888 149.586L210.925 149.511C210.916 149.531 210.906 149.551 210.893 149.57C214.329 143.958 217.4 138.127 220.089 132.112C222.72 126.076 225.101 119.941 227.232 113.708C229.363 107.475 231.254 101.173 232.907 94.8034C234.38 89.2192 235.72 83.608 236.858 77.9431C236.725 77.7979 236.587 77.6634 236.46 77.5181C236.598 76.9801 236.773 76.5013 236.896 75.9795C236.991 76.0925 237.092 76.2001 237.188 76.3077C237.236 76.0602 237.295 75.8127 237.342 75.5599V75.5222C237.342 74.7529 237.401 73.9836 237.417 73.2143C237.337 73.1013 237.241 72.9991 237.167 72.8807C237.092 72.7624 237.22 72.7516 237.268 72.8054L237.422 72.956V72.4988L236.89 71.9285C236.93 71.7321 236.948 71.5318 236.944 71.3313C236.946 71.2991 236.946 71.2667 236.944 71.2345C236.976 71.1939 237.003 71.1485 237.023 71.1C237.151 71.2506 237.289 71.3905 237.422 71.5358C237.422 71.256 237.422 70.9978 237.422 70.6911L237.337 69.7228L237.289 69.1848C237.193 69.088 237.108 68.9804 237.013 68.8835C237.062 68.1464 236.934 67.4081 236.64 66.7316L236.608 66.6778C236.637 66.6408 236.659 66.5989 236.672 66.5541L236.827 66.694C236.61 65.7771 236.241 64.9039 235.736 64.1116C235.336 63.5328 234.803 63.0604 234.183 62.7344C233.585 62.4141 232.897 62.3079 232.231 62.4332H232.136H232.215C231.859 62.4002 231.5 62.4238 231.152 62.5031L231.46 62.7021L230.561 62.6752Z" fill="#1E1E1E"/>
<path d="M228.695 65.0637C228.801 64.9077 228.918 64.7625 229.035 64.6118L228.828 64.8217L228.344 64.5042L228.243 64.6441L228.546 64.827C228.587 64.8517 228.623 64.886 228.648 64.9272C228.674 64.9683 228.69 65.0152 228.695 65.0637Z" fill="#1E1E1E"/>
<path d="M236.891 75.9585C236.768 76.4965 236.593 76.9807 236.455 77.4971C236.582 77.6424 236.72 77.7769 236.853 77.9221C236.965 77.3842 237.077 76.8462 237.183 76.3082C237.087 76.1845 236.986 76.0715 236.891 75.9585Z" fill="#1E1E1E"/>
<path d="M236.555 66.6562L236.587 66.71C236.881 67.3865 237.008 68.1247 236.959 68.8619C237.055 68.9587 237.14 69.0663 237.236 69.1632C237.236 69.0233 237.209 68.8834 237.188 68.7435L237.023 67.7806C236.949 67.4094 236.869 67.0435 236.773 66.6777L236.619 66.5378C236.605 66.5808 236.583 66.6208 236.555 66.6562Z" fill="#1E1E1E"/>
<path d="M231.524 62.675L231.215 62.476C230.994 62.5227 230.777 62.5893 230.567 62.675H231.524Z" fill="#1E1E1E"/>
<path d="M226.923 67.7911V67.124H227.221V67.0917L226.923 66.8926C226.758 67.2585 226.599 67.6297 226.455 68.0009C226.556 68.0762 226.657 68.1408 226.753 68.2161C226.817 68.0708 226.87 67.931 226.923 67.7911Z" fill="#1E1E1E"/>
<path d="M230.54 63.2729V62.6865C230.234 62.8147 229.944 62.9771 229.673 63.1707L230.205 63.5042C230.312 63.4289 230.423 63.359 230.54 63.2729Z" fill="#1E1E1E"/>
<path d="M229.035 64.612C229.12 64.5044 229.21 64.4022 229.301 64.2999L228.769 63.9664C228.615 64.1385 228.466 64.3161 228.322 64.5044L228.806 64.8218L229.035 64.612Z" fill="#1E1E1E"/>
<path d="M237.374 71.5146C237.241 71.3694 237.103 71.2295 236.975 71.0788C236.955 71.1274 236.929 71.1727 236.896 71.2133C236.898 71.2456 236.898 71.278 236.896 71.3102C236.9 71.5106 236.882 71.7109 236.842 71.9073L237.374 72.4776C237.374 72.1978 237.374 71.9396 237.374 71.6383V71.5146Z" fill="#1E1E1E"/>
<path d="M210.111 141.495L209.579 141.392C209.404 141.36 209.228 141.29 209.048 141.242C208.697 141.129 208.346 141.043 207.984 140.924C207.304 140.661 206.64 140.358 205.995 140.015C204.706 139.309 203.499 138.461 202.394 137.487C201.408 136.62 200.479 135.689 199.612 134.7L199.208 135.442C199.42 135.855 199.655 136.255 199.91 136.642C200.364 137.306 200.865 137.936 201.41 138.525C202.522 139.712 203.826 140.698 205.266 141.441C205.624 141.642 205.993 141.822 206.372 141.979C206.75 142.124 207.138 142.253 207.521 142.388C208.301 142.616 209.1 142.766 209.909 142.834C211.156 142.962 212.415 142.874 213.632 142.576C213.776 142.323 213.909 142.07 214.047 141.812C212.727 141.866 211.406 141.759 210.111 141.495Z" fill="#1E1E1E"/>
<path d="M214.659 142.302L214.563 141.764H214.068C213.93 142.022 213.797 142.302 213.654 142.527C213.973 142.479 214.329 142.398 214.659 142.302Z" fill="#1E1E1E"/>
<path d="M199.24 134.286L198.793 134.544C198.919 134.861 199.063 135.17 199.224 135.469L199.628 134.727C199.501 134.555 199.368 134.41 199.24 134.286Z" fill="#1E1E1E"/>
<path d="M207.59 147.359C207.218 147.289 206.85 147.195 206.489 147.079C205.059 146.673 203.692 146.068 202.426 145.282C201.207 144.466 200.129 143.451 199.235 142.281C198.434 141.236 197.769 140.091 197.256 138.875L196.682 139.86C196.93 141.022 197.375 142.132 197.996 143.141C198.887 144.599 200.097 145.83 201.532 146.74C201.894 146.961 202.272 147.149 202.644 147.348C203.013 147.551 203.401 147.715 203.803 147.838C204.191 147.993 204.587 148.124 204.989 148.231L205.303 148.295C205.463 148.048 205.633 147.8 205.835 147.558L206.899 148.037C206.851 148.214 206.792 148.392 206.739 148.575C206.968 148.575 207.202 148.618 207.431 148.629H207.601C207.684 148.521 207.772 148.419 207.867 148.322C207.892 148.293 207.922 148.271 207.957 148.255C207.991 148.239 208.029 148.231 208.066 148.231C208.104 148.231 208.141 148.239 208.176 148.255C208.21 148.271 208.241 148.293 208.266 148.322L208.319 148.231C208.361 148.191 208.413 148.165 208.469 148.155C208.525 148.145 208.583 148.151 208.635 148.173C208.688 148.196 208.733 148.232 208.766 148.28C208.798 148.327 208.817 148.383 208.819 148.44C208.819 148.516 208.792 148.591 208.782 148.666C209.239 148.666 209.691 148.613 210.143 148.57L210.569 147.87C209.957 147.768 209.345 147.687 208.744 147.596C208.34 147.515 207.968 147.44 207.59 147.359Z" fill="#1E1E1E"/>
<path d="M211.042 148.488V147.95C210.883 147.918 210.723 147.897 210.558 147.87L210.133 148.569L211.042 148.488Z" fill="#1E1E1E"/>
<path d="M196.996 138.31L196.464 138.391C196.484 138.884 196.545 139.376 196.645 139.859L197.219 138.875C197.155 138.686 197.065 138.504 196.996 138.31Z" fill="#1E1E1E"/>
<path d="M204.006 150.29C203.43 151.165 202.762 151.974 202.011 152.7C201.262 153.423 200.368 153.973 199.389 154.314C198.365 154.673 197.269 154.773 196.198 154.605C197.239 155.182 198.434 155.414 199.613 155.267C200.217 155.194 200.809 155.041 201.373 154.809C201.658 154.697 201.933 154.562 202.197 154.406L202.602 154.18C202.729 154.099 202.846 154.008 202.974 153.916C203.949 153.192 204.791 152.302 205.463 151.286C205.775 150.778 206.059 150.253 206.314 149.715C206.468 149.338 206.596 148.956 206.718 148.569C206.539 148.551 206.362 148.522 206.186 148.483L205.282 148.273C205.144 148.488 205.011 148.703 204.883 148.918C204.585 149.392 204.277 149.828 204.006 150.29Z" fill="#1E1E1E"/>
<path d="M206.713 148.57C206.766 148.392 206.825 148.215 206.872 148.032L205.809 147.553C205.628 147.795 205.458 148.042 205.277 148.29L206.176 148.478C206.353 148.519 206.532 148.55 206.713 148.57Z" fill="#1E1E1E"/>
<path d="M198.24 153.298C199.384 153.298 200.309 152.163 200.309 150.764C200.309 149.365 199.384 148.23 198.24 148.23C197.097 148.23 196.172 149.365 196.172 150.764C196.172 152.163 197.097 153.298 198.24 153.298ZM198.017 148.397C198.375 148.328 198.746 148.373 199.078 148.525C199.41 148.677 199.687 148.929 199.872 149.247C200.057 149.564 200.141 149.932 200.112 150.299C200.083 150.667 199.943 151.016 199.711 151.3C199.478 151.584 199.164 151.788 198.813 151.885C198.461 151.982 198.089 151.967 197.746 151.842C197.403 151.717 197.107 151.488 196.897 151.186C196.688 150.884 196.576 150.525 196.576 150.156C196.556 149.945 196.578 149.731 196.639 149.529C196.701 149.326 196.802 149.137 196.936 148.974C197.07 148.811 197.234 148.675 197.42 148.576C197.605 148.477 197.808 148.416 198.017 148.397Z" fill="#1E1E1E"/>
<path d="M228.817 86.5997C228.817 86.5997 226.945 92.0924 223.972 99.9416L212.335 131.058C212.335 131.058 211.064 136.336 206.814 137.471C206.814 137.471 210.005 139.564 213.5 139.564C213.5 139.564 231.338 100.652 233.279 82.2797C233.279 82.2797 229.269 90.2579 227.461 94.0507C228.242 91.6399 228.698 89.1337 228.817 86.5997Z" fill="#1E1E1E"/>
<path d="M235.859 75.6455C235.84 75.7281 235.815 75.809 235.784 75.8876C235.757 75.9522 235.667 75.9253 235.646 75.8876C235.643 75.859 235.643 75.8302 235.646 75.8015C235.587 75.9037 235.529 76.006 235.465 76.1028C235.455 76.1206 235.44 76.1355 235.422 76.1458C235.404 76.1561 235.384 76.1615 235.364 76.1615C235.343 76.1615 235.323 76.1561 235.306 76.1458C235.288 76.1355 235.273 76.1206 235.263 76.1028V76.1512V76.2534C235.263 76.3287 235.13 76.3072 235.13 76.2534C235.13 76.1996 235.13 76.0813 235.13 75.9952C235.13 76.0651 235.13 76.1351 235.093 76.205C235.008 76.6515 234.476 76.6085 234.274 76.3018C234.264 76.3066 234.253 76.3091 234.242 76.3091C234.231 76.3091 234.22 76.3066 234.21 76.3018C234.204 76.3226 234.193 76.3418 234.18 76.3585C234.166 76.3751 234.149 76.3888 234.13 76.3987C234.091 76.4214 234.046 76.4305 234.002 76.4247C233.958 76.4188 233.917 76.3983 233.885 76.3664C233.87 76.3477 233.856 76.3279 233.843 76.3072C233.823 76.3574 233.789 76.4004 233.745 76.4308C233.701 76.4611 233.649 76.4773 233.595 76.4773C233.542 76.4773 233.49 76.4611 233.446 76.4308C233.402 76.4004 233.368 76.3574 233.348 76.3072C231.147 76.629 228.902 76.2033 226.966 75.0968L226.891 75.1721C226.883 75.1814 226.873 75.1888 226.861 75.1939C226.85 75.1989 226.837 75.2016 226.825 75.2016C226.812 75.2016 226.8 75.1989 226.789 75.1939C226.777 75.1888 226.767 75.1814 226.758 75.1721C226.683 75.0904 226.635 74.987 226.62 74.8762C226.487 74.7901 226.36 74.704 226.248 74.618C226.222 74.6357 226.191 74.6448 226.159 74.6441C226.128 74.6435 226.097 74.6331 226.072 74.6143C226.046 74.5956 226.027 74.5694 226.017 74.5392C226.006 74.5091 226.005 74.4765 226.014 74.4458C225.817 74.2898 225.668 74.1553 225.562 74.0531C225.509 74.236 225.45 74.4189 225.397 74.5911C227.219 76.1501 229.542 76.9806 231.928 76.9259C233.563 76.9047 235.182 76.5989 236.715 76.0221C236.747 75.8661 236.784 75.7154 236.816 75.554V75.4303L236.077 75.6885C236.071 75.7178 236.054 75.7436 236.03 75.7602C236.005 75.7769 235.975 75.783 235.946 75.7773C235.917 75.7716 235.892 75.7545 235.875 75.7298C235.859 75.7051 235.853 75.6748 235.859 75.6455Z" fill="#1E1E1E"/>
<path d="M236.72 75.4256C236.688 75.587 236.651 75.7377 236.619 75.8937L237.125 75.7108L236.933 75.2266L236.726 75.3019V75.4095L236.72 75.4256Z" fill="#1E1E1E"/>
<path d="M225.269 73.7308L224.876 74.0697C225.003 74.2174 225.141 74.3541 225.29 74.4786C225.344 74.2957 225.402 74.1128 225.455 73.9406C225.338 73.8115 225.275 73.7362 225.269 73.7308Z" fill="#1E1E1E"/>
<path d="M235.172 78.6862C235.05 78.7292 234.917 78.7453 234.789 78.783L234.034 78.9713L233.263 79.0681C232.235 79.1776 231.196 79.1249 230.184 78.9121C229.157 78.6917 228.157 78.3617 227.2 77.9276C226.325 77.522 225.479 77.0546 224.668 76.5289C224.599 76.7333 224.53 76.9377 224.466 77.1422C225.164 77.7883 225.935 78.3482 226.764 78.8099C227.763 79.3716 228.838 79.783 229.955 80.0311C231.09 80.2847 232.264 80.3048 233.407 80.0903C234.118 79.9784 234.805 79.7436 235.438 79.3963C235.486 79.2403 235.529 79.0843 235.571 78.9336C235.545 79.0789 235.513 79.2241 235.486 79.3694C235.646 79.2887 235.795 79.1972 235.949 79.1112L236.108 78.3419L235.539 78.5463L235.172 78.6862Z" fill="#1E1E1E"/>
<path d="M224.402 76.3666L224.062 76.754C224.19 76.89 224.325 77.0192 224.466 77.1413C224.53 76.9369 224.599 76.7325 224.668 76.528C224.61 76.4689 224.487 76.4204 224.402 76.3666Z" fill="#1E1E1E"/>
<path d="M236.555 78.729L236.3 78.2771L236.114 78.3417L235.954 79.111C236.162 78.9873 236.359 78.8743 236.555 78.729Z" fill="#1E1E1E"/>
<path d="M217.302 113.23L215.175 118.782L213.01 124.333C211.553 128.017 210.09 131.707 208.622 135.405C210.255 131.785 211.813 128.132 213.324 124.463C214.084 122.623 214.818 120.783 215.558 118.938L217.696 113.386C219.105 109.674 220.483 105.945 221.796 102.196C223.11 98.4459 224.392 94.6639 225.594 90.8981L221.488 102.083C220.112 105.802 218.717 109.518 217.302 113.23Z" fill="#1E1E1E"/>
<path d="M232.205 90.7852L230.998 94.7124C230.221 97.3324 229.338 99.9254 228.514 102.529C227.69 105.133 226.78 107.721 225.855 110.287C224.018 115.441 222.068 120.553 220.004 125.625C217.962 130.612 215.85 135.577 213.579 140.468C216.095 135.696 218.366 130.811 220.541 125.856L222.137 122.09L223.695 118.287C224.69 115.731 225.706 113.187 226.631 110.599C227.557 108.011 228.45 105.429 229.349 102.836C229.774 101.529 230.173 100.216 230.588 98.9087L231.205 96.945L231.737 94.9653C233.253 89.8437 234.428 84.6253 235.46 79.3639H235.412C234.694 81.844 234.067 84.3456 233.317 86.8095L232.205 90.7852Z" fill="#1E1E1E"/>
<path d="M235.579 78.9334C235.535 79.084 235.492 79.24 235.444 79.396H235.492C235.519 79.2239 235.552 79.0786 235.579 78.9334Z" fill="#1E1E1E"/>
<path d="M208.915 119.847L210.431 116.619L211.893 113.359L213.324 110.082C215.196 105.692 216.969 101.261 218.642 96.7887C220.291 92.3181 221.834 87.7991 223.195 83.2317C221.493 87.6807 219.786 92.1245 218.02 96.5467C216.254 100.969 214.441 105.364 212.563 109.733L211.149 113.009L209.707 116.274L208.255 119.535L206.777 122.762C204.798 127.066 202.761 131.37 200.719 135.674C203.08 131.542 205.304 127.33 207.388 123.037L208.915 119.847Z" fill="#1E1E1E"/>
<path d="M235.848 75.6137L235.976 75.5707C236.018 75.0919 236.103 74.6023 236.146 74.1182C236.302 73.1854 236.342 72.2365 236.263 71.2938C236.412 69.9807 236.241 68.6506 235.763 67.4203C235.682 66.92 235.501 66.4415 235.232 66.0135C234.964 65.5855 234.612 65.2168 234.199 64.9295C234.973 65.681 235.475 66.6738 235.625 67.7485C235.737 68.8079 235.772 69.8741 235.731 70.9387C235.772 69.6993 235.533 68.4668 235.034 67.3342H234.987C235.231 68.7365 235.231 70.1712 234.987 71.5735C234.816 72.2836 234.641 72.9938 234.481 73.7254C234.444 73.8976 234.391 74.0697 234.332 74.2634C234.312 74.2843 234.294 74.3078 234.279 74.3333C235.056 70.9279 235.343 66.226 232.567 64.2946C232.524 64.2946 232.481 64.3269 232.513 64.3592C235.306 67.0491 234.237 72.8378 233.269 76.0603C233.255 76.1059 233.255 76.1545 233.269 76.2001C234.144 76.0969 235.007 75.9114 235.848 75.646V75.6137Z" fill="#1E1E1E"/>
<path d="M233.758 76.2166C233.771 76.2372 233.785 76.257 233.801 76.2757C233.832 76.3077 233.873 76.3282 233.917 76.334C233.962 76.3399 234.007 76.3307 234.045 76.308C234.064 76.2981 234.081 76.2844 234.095 76.2678C234.109 76.2512 234.119 76.2319 234.125 76.2112C234.135 76.216 234.146 76.2184 234.157 76.2184C234.168 76.2184 234.179 76.216 234.189 76.2112C234.391 76.5178 234.923 76.5609 235.008 76.1143C235.008 76.0444 235.034 75.9745 235.045 75.9045C235.045 75.9906 235.045 76.0767 235.045 76.1628C235.045 76.2488 235.167 76.2596 235.178 76.1628V76.0605V76.0121C235.188 76.03 235.203 76.0448 235.221 76.0551C235.239 76.0654 235.259 76.0708 235.279 76.0708C235.3 76.0708 235.32 76.0654 235.337 76.0551C235.355 76.0448 235.37 76.03 235.38 76.0121C235.444 75.9153 235.502 75.8131 235.561 75.7109C235.559 75.7395 235.559 75.7683 235.561 75.7969C235.561 75.8561 235.673 75.883 235.699 75.7969C235.73 75.7183 235.755 75.6374 235.774 75.5548C234.958 75.8416 234.117 76.0523 233.263 76.1843C233.28 76.2359 233.311 76.2815 233.353 76.3149C233.395 76.3483 233.446 76.368 233.5 76.3715C233.553 76.375 233.607 76.3621 233.653 76.3344C233.699 76.3068 233.735 76.2657 233.758 76.2166Z" fill="#1E1E1E"/>
<path d="M235.988 75.5763L235.859 75.6193C235.869 75.6279 235.882 75.6336 235.895 75.6361C235.908 75.6385 235.922 75.6375 235.935 75.6332C235.948 75.6289 235.96 75.6215 235.969 75.6115C235.978 75.6016 235.985 75.5895 235.988 75.5763Z" fill="#1E1E1E"/>
<path d="M226.205 74.4194C226.913 72.4396 227.801 70.0725 227.934 67.9636C227.933 67.9471 227.927 67.9314 227.917 67.9185C227.906 67.9055 227.893 67.8961 227.877 67.8914C227.861 67.8867 227.845 67.887 227.829 67.8922C227.814 67.8974 227.8 67.9073 227.79 67.9206C226.796 69.7766 226.328 72.2675 225.897 74.3172L226.131 74.5001C226.165 74.4837 226.192 74.4548 226.205 74.4194Z" fill="#1E1E1E"/>
<path d="M226.143 74.5055L225.908 74.3226C225.895 74.354 225.894 74.3884 225.903 74.4208C225.912 74.4532 225.931 74.4819 225.957 74.5024C225.984 74.523 226.016 74.5344 226.05 74.535C226.083 74.5355 226.116 74.5252 226.143 74.5055Z" fill="#1E1E1E"/>
<path d="M228.636 66.5922C228.636 66.646 228.705 66.6836 228.727 66.6298C228.965 66.0578 229.312 65.5386 229.748 65.102C230.187 64.6755 230.743 64.3925 231.343 64.2896C231.37 64.2826 231.394 64.2676 231.413 64.2466C231.431 64.2255 231.443 64.1993 231.446 64.1715C231.45 64.1436 231.445 64.1154 231.432 64.0904C231.419 64.0654 231.4 64.0449 231.375 64.0314C230.785 63.6925 230.136 64.1928 229.726 64.6124C229.202 65.1674 228.827 65.8489 228.636 66.5922Z" fill="#1E1E1E"/>
<path d="M246.485 79.9495C246.64 80.0086 246.719 79.7773 246.592 79.6912C243.4 77.4855 240.119 75.8016 237.417 72.9235C237.417 73.0095 237.417 73.0956 237.417 73.1817C239.737 76.2692 242.884 78.6182 246.485 79.9495Z" fill="#1E1E1E"/>
<path d="M237.264 72.7844C237.215 72.7306 237.119 72.7844 237.162 72.8598C237.205 72.9351 237.333 73.0803 237.413 73.1933C237.413 73.1072 237.413 73.0212 237.413 72.9351L237.264 72.7844Z" fill="#1E1E1E"/>
<path d="M214.542 57.1129C214.533 57.1092 214.524 57.1088 214.515 57.1117C214.507 57.1146 214.5 57.1206 214.495 57.1285C214.49 57.1364 214.489 57.1458 214.491 57.1548C214.492 57.1638 214.497 57.1718 214.505 57.1774C219.047 59.6736 223.498 62.3797 227.859 65.1933C227.98 65.0068 228.108 64.8275 228.242 64.6553C223.828 61.8674 219.253 59.3487 214.542 57.1129Z" fill="#1E1E1E"/>
<path d="M228.696 65.0645C228.605 65.1936 228.52 65.3227 228.434 65.4572C228.517 65.4335 228.589 65.3811 228.637 65.3092C228.685 65.2372 228.706 65.1505 228.696 65.0645Z" fill="#1E1E1E"/>
<path d="M228.546 64.8273L228.243 64.6444C228.111 64.8201 227.984 64.9994 227.86 65.1823L228.205 65.4029C228.273 65.4469 228.355 65.4623 228.434 65.446C228.519 65.3115 228.604 65.1823 228.695 65.0532C228.689 65.0065 228.672 64.9619 228.646 64.9227C228.62 64.8835 228.586 64.8508 228.546 64.8273Z" fill="#1E1E1E"/>
<path d="M215.722 58.7213C219.653 61.0938 223.605 63.3749 227.423 65.9249C227.443 65.892 227.461 65.8578 227.476 65.8227C227.567 65.6613 227.663 65.5053 227.764 65.3492C224.055 62.6087 220.011 60.3647 215.733 58.6729C215.733 58.6729 215.696 58.7052 215.722 58.7213Z" fill="#1E1E1E"/>
<path d="M227.429 65.9245L227.636 66.059C227.987 66.2957 228.301 65.7308 227.966 65.4887L227.769 65.3489C227.668 65.5049 227.572 65.6609 227.482 65.8223C227.466 65.8574 227.449 65.8916 227.429 65.9245Z" fill="#1E1E1E"/>
<path d="M202.543 52.0827C196.421 48.2685 190.039 44.82 183.566 41.6459C183.558 41.6423 183.549 41.6419 183.54 41.6448C183.531 41.6477 183.524 41.6537 183.519 41.6616C183.515 41.6695 183.513 41.6789 183.515 41.6879C183.517 41.6969 183.522 41.7049 183.529 41.7105C190.039 45.5624 196.485 49.4682 203.027 53.2233H203.107C203.054 52.9929 202.972 52.7705 202.862 52.5615C202.769 52.3931 202.662 52.233 202.543 52.0827Z" fill="#1E1E1E"/>
<path d="M203.384 52.6098L202.543 52.0718C202.664 52.2289 202.771 52.3963 202.862 52.5721C202.972 52.781 203.054 53.0035 203.107 53.2338C203.184 53.2506 203.265 53.2399 203.336 53.2037C203.406 53.1675 203.462 53.1079 203.495 53.0349C203.527 52.9619 203.534 52.8798 203.514 52.8024C203.493 52.7251 203.447 52.6571 203.384 52.6098Z" fill="#1E1E1E"/>
<path d="M203.171 53.6749C203.173 53.6355 203.173 53.596 203.171 53.5566C200.703 51.6037 197.549 50.2695 194.826 48.747C191.518 46.9071 188.22 45.078 184.843 43.3672V43.4049C188.034 45.4492 191.278 47.359 194.544 49.2689C197.288 50.8989 200.144 53.0509 203.16 54.1268C203.172 53.9765 203.175 53.8256 203.171 53.6749Z" fill="#1E1E1E"/>
<path d="M203.74 54.0296C203.554 53.8629 203.357 53.7122 203.16 53.5562C203.163 53.5956 203.163 53.6352 203.16 53.6746C203.168 53.8215 203.168 53.9688 203.16 54.1157C203.304 54.1695 203.447 54.2341 203.596 54.2825C203.745 54.3309 203.867 54.1265 203.74 54.0296Z" fill="#1E1E1E"/>
<path d="M203.08 54.6215C198.182 51.6465 193.134 48.8221 187.997 46.2936C187.985 46.2871 187.972 46.2855 187.96 46.289C187.947 46.2926 187.936 46.301 187.93 46.3124C187.924 46.3238 187.922 46.3373 187.926 46.3499C187.929 46.3625 187.937 46.3732 187.949 46.3796C192.773 49.5537 197.804 52.5126 202.894 55.2348C202.937 55.1164 202.979 54.9981 203.011 54.8797C203.043 54.7614 203.059 54.7076 203.08 54.6215Z" fill="#1E1E1E"/>
<path d="M203.335 54.756L203.101 54.6215C203.101 54.7076 203.059 54.7936 203.032 54.8797C203.006 54.9658 202.958 55.1164 202.915 55.2348L203.022 55.294C203.092 55.3361 203.176 55.3481 203.256 55.3274C203.335 55.3067 203.403 55.255 203.444 55.1837C203.486 55.1123 203.498 55.0272 203.478 54.947C203.457 54.8668 203.406 54.7981 203.335 54.756Z" fill="#1E1E1E"/>
<path d="M192.103 49.7425C192.094 49.7375 192.083 49.7364 192.073 49.7394C192.063 49.7424 192.055 49.7493 192.05 49.7586C192.045 49.7679 192.044 49.7788 192.047 49.7889C192.05 49.7989 192.056 49.8074 192.066 49.8124C195.411 51.8944 198.889 54.5628 202.618 55.8862C202.618 55.8432 202.655 55.8001 202.676 55.7625C199.613 53.2124 195.592 51.577 192.103 49.7425Z" fill="#1E1E1E"/>
<path d="M202.742 55.8159L202.677 55.7621C202.677 55.7998 202.639 55.8428 202.618 55.8859H202.688C202.696 55.8853 202.704 55.8829 202.711 55.8789C202.719 55.875 202.725 55.8695 202.73 55.8629C202.735 55.8563 202.739 55.8487 202.741 55.8406C202.743 55.8325 202.743 55.8241 202.742 55.8159Z" fill="#1E1E1E"/>
<path d="M200.384 47.8054C200.347 47.8054 200.315 47.8538 200.352 47.8699C202.634 48.9728 204.298 50.6674 205.803 52.6795C205.815 52.6994 205.833 52.7141 205.855 52.7201C205.877 52.7262 205.901 52.7232 205.92 52.7117C205.94 52.7003 205.955 52.6814 205.961 52.6592C205.967 52.637 205.964 52.6134 205.952 52.5934C204.734 50.3649 202.754 48.6624 200.384 47.8054Z" fill="#1E1E1E"/>
<path d="M158.159 31.8066C158.159 31.7528 158.096 31.7151 158.069 31.7635C156.479 35.3465 159.191 38.5959 162.212 40.1399C162.22 40.1435 162.23 40.1439 162.238 40.141C162.247 40.1381 162.254 40.1322 162.259 40.1242C162.264 40.1163 162.265 40.107 162.263 40.098C162.262 40.089 162.257 40.0809 162.249 40.0753C159.611 38.0956 157.245 35.3949 158.159 31.8066Z" fill="#1E1E1E"/>
<path d="M213.579 140.467C211.984 139.983 210.25 139.999 208.638 139.455C206.567 138.707 204.646 137.586 202.969 136.147C202.952 136.133 202.932 136.126 202.911 136.126C202.89 136.127 202.87 136.136 202.855 136.15C202.839 136.165 202.83 136.185 202.829 136.206C202.827 136.227 202.833 136.248 202.846 136.265C205.181 138.955 210.149 142.032 213.85 140.736C213.871 140.731 213.89 140.719 213.903 140.702C213.916 140.685 213.924 140.663 213.924 140.642C213.924 140.62 213.916 140.599 213.903 140.582C213.89 140.565 213.871 140.553 213.85 140.548C213.765 140.515 213.675 140.499 213.59 140.472L213.478 140.687C213.51 140.617 213.542 140.542 213.579 140.467Z" fill="#1E1E1E"/>
<path d="M213.478 140.687L213.591 140.472C213.543 140.542 213.511 140.618 213.478 140.687Z" fill="#1E1E1E"/>
<path d="M202.697 140.941C204.915 143.292 208.59 144.416 211.739 144.169C211.778 144.169 211.815 144.155 211.845 144.129C211.874 144.104 211.893 144.068 211.899 144.029C211.904 143.99 211.895 143.95 211.873 143.918C211.852 143.885 211.819 143.861 211.781 143.851C208.59 142.856 205.591 142.953 202.74 140.833C202.713 140.774 202.639 140.882 202.697 140.941Z" fill="#1E1E1E"/>
<path d="M211.143 145.341C208.011 144.911 205.431 144.265 202.894 142.242C202.804 142.173 202.687 142.286 202.767 142.366C204.836 144.518 208 146.213 211.064 145.928C211.367 145.901 211.494 145.39 211.143 145.341Z" fill="#1E1E1E"/>
<path d="M210.026 146.434C207.421 146.21 204.931 145.244 202.846 143.647C202.756 143.577 202.655 143.722 202.729 143.797C204.635 145.843 207.251 147.062 210.026 147.197C210.526 147.241 210.516 146.477 210.026 146.434Z" fill="#1E1E1E"/>
<path d="M199.793 138.197C199.825 138.214 199.86 138.22 199.896 138.215C199.931 138.21 199.963 138.193 199.988 138.168C200.013 138.143 200.03 138.11 200.035 138.074C200.04 138.039 200.034 138.002 200.017 137.971C199.825 137.648 199.549 137.379 199.347 137.056C199.157 136.742 199 136.408 198.879 136.061L198.607 136.534C198.783 137.219 199.207 137.812 199.793 138.197Z" fill="#1E1E1E"/>
<path d="M198.831 135.954C198.818 135.907 198.787 135.867 198.745 135.843C198.703 135.818 198.654 135.812 198.607 135.825C198.561 135.838 198.521 135.869 198.497 135.911C198.473 135.953 198.467 136.004 198.48 136.051C198.513 136.214 198.556 136.376 198.607 136.535L198.878 136.062L198.831 135.954Z" fill="#1E1E1E"/>
<path d="M199.299 139.128C199.389 139.182 199.512 139.069 199.448 138.977C199.006 138.352 198.648 137.67 198.384 136.949L198.081 137.449C198.264 138.144 198.699 138.743 199.299 139.128Z" fill="#1E1E1E"/>
<path d="M198.256 136.551C198.214 136.351 197.879 136.389 197.9 136.599C197.927 136.882 197.984 137.162 198.07 137.433L198.373 136.932C198.336 136.803 198.288 136.68 198.256 136.551Z" fill="#1E1E1E"/>
<path d="M198.506 139.052C198.274 138.632 198.064 138.199 197.879 137.756C197.81 137.874 197.746 137.993 197.677 138.106C197.798 138.518 198.011 138.897 198.299 139.214C198.322 139.235 198.352 139.247 198.383 139.249C198.414 139.25 198.445 139.24 198.469 139.221C198.494 139.202 198.511 139.174 198.518 139.143C198.525 139.113 198.521 139.08 198.506 139.052Z" fill="#1E1E1E"/>
<path d="M197.879 137.756C197.879 137.702 197.842 137.653 197.826 137.605C197.816 137.569 197.792 137.538 197.76 137.519C197.727 137.5 197.689 137.495 197.653 137.505C197.617 137.515 197.586 137.539 197.568 137.572C197.549 137.605 197.545 137.644 197.554 137.68C197.586 137.82 197.629 137.96 197.677 138.105C197.746 137.992 197.81 137.874 197.879 137.756Z" fill="#1E1E1E"/>
<path d="M195.358 144.422C193.863 146.574 192.592 150.189 194.475 152.448C194.512 152.497 194.592 152.448 194.576 152.389C194.077 150.959 194.007 149.411 194.374 147.94C194.693 146.767 195.299 145.713 195.73 144.578C195.794 144.346 195.453 144.239 195.358 144.422Z" fill="#1E1E1E"/>
<path d="M199.666 146.88C199.694 146.885 199.723 146.88 199.748 146.866C199.773 146.851 199.792 146.829 199.803 146.803C199.814 146.776 199.816 146.746 199.809 146.719C199.801 146.691 199.784 146.666 199.761 146.649C199.381 146.401 199.013 146.134 198.66 145.847C198.324 145.538 198.04 145.174 197.82 144.771C197.788 144.707 197.671 144.771 197.698 144.825C198.017 145.691 198.687 146.708 199.666 146.88Z" fill="#1E1E1E"/>
<path d="M199.485 155.585C199.458 155.585 199.432 155.595 199.414 155.615C199.395 155.634 199.384 155.66 199.384 155.687C199.384 155.714 199.395 155.74 199.414 155.759C199.432 155.778 199.458 155.789 199.485 155.789C201.452 155.878 203.377 155.202 204.867 153.901C205.874 153.052 206.734 152.042 207.415 150.91C208.026 150.287 208.477 149.522 208.729 148.682H208.596C208.25 148.682 207.899 148.645 207.532 148.623C206.431 149.904 205.936 151.657 204.665 152.927C203.24 154.369 201.421 155.025 199.485 155.585Z" fill="#1E1E1E"/>
<path d="M208.755 148.682C208.755 148.607 208.787 148.532 208.792 148.456C208.79 148.399 208.772 148.343 208.739 148.296C208.707 148.248 208.661 148.211 208.609 148.189C208.556 148.167 208.498 148.161 208.442 148.171C208.386 148.181 208.334 148.207 208.292 148.246L208.239 148.338C208.214 148.309 208.184 148.286 208.149 148.271C208.115 148.255 208.077 148.247 208.04 148.247C208.002 148.247 207.965 148.255 207.93 148.271C207.896 148.286 207.865 148.309 207.84 148.338C207.746 148.435 207.657 148.537 207.574 148.645C207.925 148.645 208.276 148.693 208.638 148.704L208.755 148.682Z" fill="#1E1E1E"/>
<path d="M202.415 148.348C202.632 148.484 202.883 148.555 203.139 148.553C203.224 148.553 203.309 148.424 203.218 148.354C203.013 148.223 202.791 148.122 202.559 148.052C202.297 147.941 202.046 147.806 201.809 147.649C201.66 147.552 201.532 147.783 201.671 147.891C201.903 148.068 202.153 148.221 202.415 148.348Z" fill="#1E1E1E"/>
<path d="M234.423 64.2459C234.552 64.4571 234.694 64.6601 234.848 64.8539C234.923 64.9399 235.04 64.8539 235.024 64.7516C234.917 64.2137 234.322 63.7941 233.87 63.5627C233.816 63.5627 233.785 63.6004 233.827 63.6327C234.05 63.8109 234.25 64.017 234.423 64.2459Z" fill="#1E1E1E"/>
<path d="M227.099 73.8599C227.174 73.3219 227.291 72.7839 227.397 72.246C227.401 72.2264 227.398 72.2062 227.389 72.1886C227.379 72.171 227.364 72.1573 227.346 72.1497C227.328 72.1421 227.308 72.1411 227.289 72.1469C227.27 72.1526 227.254 72.1648 227.243 72.1814C226.983 72.6936 226.785 73.2355 226.652 73.7954C226.542 74.0904 226.495 74.4058 226.514 74.7207L226.86 74.9413C227.099 74.6938 227.046 74.215 227.099 73.8599Z" fill="#1E1E1E"/>
<path d="M226.785 75.0595L226.86 74.9841L226.514 74.7636C226.529 74.8743 226.577 74.9778 226.652 75.0595C226.661 75.0688 226.671 75.0762 226.682 75.0812C226.694 75.0863 226.706 75.0889 226.719 75.0889C226.731 75.0889 226.744 75.0863 226.755 75.0812C226.766 75.0762 226.777 75.0688 226.785 75.0595Z" fill="#1E1E1E"/>
<path d="M230.779 77.2874C231.615 77.6595 232.53 77.8095 233.439 77.7232C232.795 77.8434 232.14 77.8832 231.487 77.8415C231.468 77.8415 231.451 77.8489 231.438 77.862C231.425 77.8751 231.418 77.8929 231.418 77.9115C231.418 77.93 231.425 77.9478 231.438 77.9609C231.451 77.974 231.468 77.9814 231.487 77.9814C232.1 78.1884 232.74 78.3009 233.386 78.3149C232.86 78.4216 232.326 78.4792 231.79 78.4871C231.737 78.4871 231.726 78.5732 231.79 78.5839C232.939 78.9013 234.827 79.1219 235.768 78.1643C235.801 78.1301 235.823 78.0872 235.832 78.0406C235.864 78.0378 235.893 78.0228 235.914 77.9988C235.934 77.9747 235.945 77.9434 235.944 77.9115C235.997 77.6152 236.018 77.314 236.008 77.013C236.018 76.9872 236.022 76.9592 236.019 76.9314C236.016 76.9037 236.007 76.877 235.992 76.8537C235.977 76.8304 235.956 76.8112 235.932 76.7977C235.908 76.7842 235.881 76.7769 235.853 76.7763C235.182 76.8165 234.516 76.921 233.864 77.0883C232.869 77.2934 231.847 77.3189 230.843 77.1637C230.763 77.1475 230.705 77.2605 230.779 77.2874Z" fill="#1E1E1E"/>
<path d="M226.95 76.4314H227.099C227.114 76.4332 227.13 76.4293 227.142 76.4206C227.155 76.4118 227.164 76.3986 227.168 76.3836C227.172 76.3685 227.17 76.3525 227.163 76.3385C227.157 76.3246 227.145 76.3136 227.131 76.3076C226.505 76.0591 225.932 75.6942 225.439 75.2317C225.392 75.1886 225.312 75.2317 225.349 75.3016C225.629 75.7316 226.026 76.0699 226.493 76.2754H226.391C226.065 76.1271 225.772 75.9129 225.53 75.6459C225.509 75.6248 225.481 75.6122 225.451 75.6105C225.421 75.6087 225.392 75.6179 225.369 75.6363C225.345 75.6547 225.329 75.6812 225.324 75.7106C225.318 75.7401 225.323 75.7707 225.338 75.7966C225.527 76.1687 225.832 76.4675 226.205 76.6466C225.949 76.5325 225.712 76.3782 225.503 76.1893C225.485 76.1767 225.463 76.1709 225.44 76.173C225.418 76.1752 225.398 76.185 225.382 76.201C225.366 76.2169 225.356 76.2379 225.354 76.2603C225.352 76.2827 225.358 76.3051 225.37 76.3238C225.727 76.7811 226.402 77.3513 227.024 77.2061C227.048 77.1975 227.07 77.1823 227.086 77.1622C227.102 77.1421 227.112 77.1179 227.116 77.0923C227.119 77.0666 227.115 77.0406 227.105 77.017C227.094 76.9934 227.077 76.9732 227.056 76.9586C226.977 76.919 226.895 76.8849 226.812 76.8564C226.895 76.8745 226.981 76.8757 227.065 76.86C227.149 76.8443 227.229 76.812 227.301 76.7649C227.317 76.7542 227.331 76.7395 227.34 76.7221C227.35 76.7047 227.355 76.6852 227.355 76.6654C227.355 76.6456 227.35 76.6261 227.34 76.6087C227.331 76.5913 227.317 76.5766 227.301 76.5659C227.192 76.5015 227.074 76.4561 226.95 76.4314Z" fill="#1E1E1E"/>
<path d="M229.88 75.361C229.12 75.1695 228.372 74.9288 227.641 74.6401C227.622 74.6287 227.598 74.6257 227.576 74.6317C227.554 74.6378 227.536 74.6524 227.524 74.6724C227.513 74.6923 227.51 74.716 227.516 74.7382C227.522 74.7604 227.536 74.7793 227.556 74.7907C228.215 75.2999 229.025 75.5691 229.854 75.5546C229.879 75.5582 229.905 75.5514 229.925 75.5358C229.946 75.5201 229.959 75.4969 229.963 75.4712C229.966 75.4456 229.96 75.4195 229.944 75.3988C229.929 75.3782 229.906 75.3645 229.88 75.361Z" fill="#1E1E1E"/>
<path d="M233.327 81.3272C233.358 81.3153 233.383 81.2922 233.398 81.2626C233.413 81.2329 233.416 81.1987 233.407 81.1666C233.399 81.1345 233.379 81.1068 233.351 81.0888C233.324 81.0707 233.29 81.0637 233.258 81.069C230.96 81.3918 227.87 80.7193 226.051 79.2237C226.051 79.2237 226.014 79.2237 226.025 79.2237C227.227 81.2842 231.269 82.1826 233.327 81.3272Z" fill="#1E1E1E"/>
<path d="M229.79 68.3564C229.79 68.6763 229.877 68.9901 230.04 69.2642C230.202 69.5384 230.436 69.7626 230.715 69.9129C230.994 70.0632 231.309 70.134 231.624 70.1175C231.94 70.1011 232.246 69.9982 232.508 69.8197C232.362 70.0383 232.167 70.2187 231.939 70.3459C231.71 70.4731 231.455 70.5436 231.194 70.5513C230.876 70.525 230.566 70.4355 230.283 70.2877C229.999 70.14 229.746 69.9371 229.54 69.6906C229.492 69.6422 229.397 69.6906 229.439 69.7713C229.627 70.1142 229.891 70.4075 230.212 70.6272C230.533 70.847 230.9 70.9869 231.285 71.0355C231.944 71.0678 232.806 70.702 232.939 69.9596C232.946 69.9203 232.943 69.8799 232.931 69.8419C232.919 69.8039 232.898 69.7695 232.869 69.7418C232.841 69.7141 232.806 69.694 232.768 69.6831C232.73 69.6723 232.69 69.6712 232.652 69.6798C232.875 69.4891 233.047 69.2446 233.152 68.9689C233.257 68.6932 233.292 68.3952 233.253 68.1023C233.214 67.8094 233.103 67.5311 232.93 67.2931C232.757 67.0551 232.527 66.865 232.262 66.7405C231.997 66.616 231.706 66.5609 231.414 66.5805C231.123 66.6001 230.841 66.6937 230.594 66.8525C230.348 67.0114 230.145 67.2305 230.005 67.4896C229.864 67.7486 229.79 68.0394 229.79 68.3349V68.3564ZM231.545 66.9254C231.751 66.9254 231.951 66.9869 232.122 67.1022C232.292 67.2174 232.425 67.3813 232.504 67.573C232.582 67.7647 232.603 67.9756 232.563 68.1791C232.523 68.3826 232.424 68.5695 232.279 68.7162C232.134 68.8629 231.949 68.9628 231.748 69.0033C231.547 69.0438 231.338 69.023 231.149 68.9436C230.959 68.8642 230.797 68.7298 230.683 68.5572C230.569 68.3847 230.508 68.1819 230.508 67.9744C230.515 67.7019 230.623 67.4421 230.812 67.2474C231 67.0526 231.255 66.9375 231.524 66.9254H231.545Z" fill="#1E1E1E"/>
</g>
<defs>
<linearGradient id="paint0_linear_1_48" x1="144" y1="0" x2="144" y2="182" gradientUnits="userSpaceOnUse">
<stop stop-color="#303030"/>
<stop offset="1"/>
</linearGradient>
<clipPath id="clip0_1_48">
<rect width="100" height="134" fill="white" transform="translate(156 24)"/>
</clipPath>
</defs>
</svg>
