<svg width="288" height="182" viewBox="0 0 288 182" fill="none" xmlns="http://www.w3.org/2000/svg">
<rect width="288" height="182" fill="url(#paint0_linear_4_2)"/>
<path fill-rule="evenodd" clip-rule="evenodd" d="M286.601 6.37185L281.645 1.40773C279.962 0.509307 278.041 0 276 0H249.314L288 38.7456V12C288 9.96609 287.494 8.05037 286.601 6.37185ZM288 60.2171V91.1897L196.951 0H227.876L288 60.2171ZM175.512 0L288 112.662V143.634L144.587 0H175.512ZM123.148 0L288 165.106V170C288 176.627 282.627 182 276 182H273.943L92.2233 0H123.148ZM66.4211 0L248.141 182H217.216L35.4962 0H66.4211ZM14.0573 0L195.777 182H164.852L0 16.8936V0H14.0573ZM0 38.3656L143.413 182H112.488L0 69.3382V38.3656ZM0 90.8097L91.0498 182H60.125L0 121.782V90.8097ZM0 143.255L38.6856 182H7.76071L0 174.227V143.255Z" fill="#C85F7A" fill-opacity="0.5"/>
<mask id="mask0_4_2" style="mask-type:alpha" maskUnits="userSpaceOnUse" x="0" y="0" width="288" height="182">
<rect width="288" height="182" fill="url(#paint1_linear_4_2)"/>
</mask>
<g mask="url(#mask0_4_2)">
<path d="M126.837 13.2514L128.412 14.8818L126.13 16.0371L124.555 14.4077L126.837 13.2514Z" fill="#A7475F"/>
<path d="M115.441 108.788L117.009 110.409L114.985 111.441L113.419 109.82L115.441 108.788Z" fill="#A7475F"/>
<path d="M112.805 110.132L114.371 111.754L112.165 112.879L110.6 111.257L112.805 110.132Z" fill="#A7475F"/>
<path d="M109.991 111.567L111.559 113.189L109.268 114.357L107.702 112.736L109.991 111.567Z" fill="#A7475F"/>
<path d="M107.087 113.048L108.654 114.67L106.651 115.691L105.084 114.07L107.087 113.048Z" fill="#A7475F"/>
<path d="M98.5267 107.283L100.074 108.885L102.081 107.866L100.534 106.265L98.5267 107.283Z" fill="#A7475F"/>
<path d="M100.547 109.374L102.254 111.14L104.261 110.123L102.556 108.358L100.547 109.374Z" fill="#A7475F"/>
<path d="M102.723 111.626L104.607 113.577L106.611 112.555L104.729 110.607L102.723 111.626Z" fill="#A7475F"/>
<path d="M116.619 101.239L118.312 102.995L116.137 104.098L114.441 102.342L116.619 101.239Z" fill="#A7475F"/>
<path d="M113.826 102.653L115.522 104.41L113.23 105.573L111.531 103.815L113.826 102.653Z" fill="#A7475F"/>
<path d="M110.927 104.12L112.628 105.878L110.603 106.905L108.902 105.145L110.927 104.12Z" fill="#A7475F"/>
<path d="M113.095 106.362L111.071 107.39L112.942 109.327L114.964 108.295L113.095 106.362Z" fill="#A7475F"/>
<path d="M108.287 105.457L109.988 107.217L107.782 108.337L106.081 106.573L108.287 105.457Z" fill="#A7475F"/>
<path d="M110.456 107.702L108.25 108.822L110.124 110.764L112.328 109.639L110.456 107.702Z" fill="#A7475F"/>
<path d="M105.464 106.886L107.168 108.648L104.875 109.811L103.171 108.047L105.464 106.886Z" fill="#A7475F"/>
<path d="M107.636 109.133L105.344 110.296L107.225 112.242L109.514 111.074L107.636 109.133Z" fill="#A7475F"/>
<path d="M115.99 104.894L113.698 106.057L115.564 107.989L117.852 106.822L115.99 104.894Z" fill="#A7475F"/>
<path d="M99.6249 99.8808L101.33 101.648L103.529 100.532L101.824 98.7675L99.6249 99.8808Z" fill="#A7475F"/>
<path d="M101.178 102.455L98.8885 103.614L100.673 105.461L102.963 104.3L101.178 102.455Z" fill="#A7475F"/>
<path d="M103.584 103.984L101.803 102.138L104.004 101.024L105.786 102.869L103.584 103.984Z" fill="#A7475F"/>
<path d="M103.439 104.792L101.149 105.954L102.696 107.555L104.987 106.393L103.439 104.792Z" fill="#A7475F"/>
<path d="M105.605 106.08L104.06 104.477L106.262 103.361L107.809 104.962L105.605 106.08Z" fill="#A7475F"/>
<path d="M117.223 97.804L118.766 99.4042L116.761 100.421L115.216 98.8216L117.223 97.804Z" fill="#A7475F"/>
<path d="M114.591 99.1378L116.135 100.739L113.959 101.843L112.413 100.242L114.591 99.1378Z" fill="#A7475F"/>
<path d="M111.798 100.554L113.344 102.154L111.051 103.317L109.505 101.717L111.798 100.554Z" fill="#A7475F"/>
<path d="M108.9 102.024L110.447 103.623L108.423 104.65L106.877 103.049L108.9 102.024Z" fill="#A7475F"/>
<path d="M100.412 96.3584L101.969 97.9695L103.99 96.9462L102.431 95.3348L100.412 96.3584Z" fill="#A7475F"/>
<path d="M102.439 98.4565L104.144 100.221L106.165 99.1955L104.461 97.4332L102.439 98.4565Z" fill="#A7475F"/>
<path d="M104.619 100.713L106.401 102.557L108.424 101.531L106.641 99.6881L104.619 100.713Z" fill="#A7475F"/>
<path d="M118.502 90.3259L120.194 92.0764L118.004 93.1873L116.311 91.4353L118.502 90.3259Z" fill="#A7475F"/>
<path d="M115.696 91.7463L117.389 93.4999L115.11 94.6563L113.414 92.9017L115.696 91.7463Z" fill="#A7475F"/>
<path d="M112.795 93.2145L114.49 94.9706L112.481 95.9906L110.783 94.2328L112.795 93.2145Z" fill="#A7475F"/>
<path d="M114.971 95.4698L112.961 96.4883L114.74 98.3289L116.747 97.3112L114.971 95.4698Z" fill="#A7475F"/>
<path d="M110.162 94.5469L111.859 96.3059L109.679 97.4123L107.98 95.6523L110.162 94.5469Z" fill="#A7475F"/>
<path d="M112.339 96.803L110.158 97.9079L111.937 99.7492L114.116 98.645L112.339 96.803Z" fill="#A7475F"/>
<path d="M107.364 95.9633L109.065 97.724L106.771 98.888L105.068 97.1252L107.364 95.9633Z" fill="#A7475F"/>
<path d="M109.543 98.2188L107.248 99.3814L109.028 101.224L111.322 100.061L109.543 98.2188Z" fill="#A7475F"/>
<path d="M117.873 94.0004L115.593 95.1553L117.371 96.9942L119.649 95.839L117.873 94.0004Z" fill="#A7475F"/>
<path d="M101.534 88.9785L103.227 90.7321L105.414 89.6249L103.721 87.8694L101.534 88.9785Z" fill="#A7475F"/>
<path d="M103.082 91.5302L100.786 92.6931L102.564 94.5338L104.859 93.3695L103.082 91.5302Z" fill="#A7475F"/>
<path d="M105.474 93.0577L103.697 91.2183L105.884 90.112L107.658 91.9503L105.474 93.0577Z" fill="#A7475F"/>
<path d="M105.335 93.8622L103.04 95.0265L104.598 96.639L106.894 95.4763L105.335 93.8622Z" fill="#A7475F"/>
<path d="M107.509 95.1653L105.95 93.5504L108.133 92.444L109.693 94.0598L107.509 95.1653Z" fill="#A7475F"/>
<path d="M119.103 86.8816L120.668 88.5047L118.644 89.5297L117.079 87.9084L119.103 86.8816Z" fill="#A7475F"/>
<path d="M116.466 88.2186L118.032 89.8389L115.841 90.9482L114.277 89.3284L116.466 88.2186Z" fill="#A7475F"/>
<path d="M113.662 89.6402L115.226 91.2593L112.943 92.4149L111.379 90.7976L113.662 89.6402Z" fill="#A7475F"/>
<path d="M110.765 91.1093L112.325 92.7274L110.312 93.7466L108.751 92.1305L110.765 91.1093Z" fill="#A7475F"/>
<path d="M102.289 85.443L103.849 87.0577L105.869 86.0349L104.31 84.4182L102.289 85.443Z" fill="#A7475F"/>
<path d="M104.334 87.559L106.029 89.313L108.046 88.2917L106.351 86.5349L104.334 87.559Z" fill="#A7475F"/>
<path d="M106.499 89.8001L108.275 91.6378L110.289 90.6165L108.516 88.7788L106.499 89.8001Z" fill="#A7475F"/>
<path d="M120.392 79.4135L122.096 81.1769L119.885 82.297L118.183 80.5341L120.392 79.4135Z" fill="#A7475F"/>
<path d="M117.568 80.8459L119.27 82.6079L117.001 83.7571L115.3 81.9966L117.568 80.8459Z" fill="#A7475F"/>
<path d="M114.689 82.3065L116.388 84.0676L114.361 85.0941L112.662 83.3339L114.689 82.3065Z" fill="#A7475F"/>
<path d="M116.858 84.5547L114.831 85.5812L116.603 87.4156L118.627 86.3888L116.858 84.5547Z" fill="#A7475F"/>
<path d="M112.048 83.6455L113.747 85.4047L111.558 86.5137L109.86 84.7559L112.048 83.6455Z" fill="#A7475F"/>
<path d="M114.218 85.8917L112.028 87.0007L113.801 88.8357L115.99 87.7259L114.218 85.8917Z" fill="#A7475F"/>
<path d="M109.245 85.0676L110.943 86.8246L108.657 87.9828L106.959 86.2268L109.245 85.0676Z" fill="#A7475F"/>
<path d="M111.413 87.3117L109.127 88.4689L110.903 90.305L113.186 89.1474L111.413 87.3117Z" fill="#A7475F"/>
<path d="M119.74 83.095L117.472 84.244L119.243 86.0768L121.51 84.9272L119.74 83.095Z" fill="#A7475F"/>
<path d="M103.405 78.0721L105.115 79.842L107.302 78.7337L105.591 76.9631L103.405 78.0721Z" fill="#A7475F"/>
<path d="M104.976 80.6465L102.686 81.8077L104.444 83.6259L106.732 82.4652L104.976 80.6465Z" fill="#A7475F"/>
<path d="M107.346 82.1535L105.591 80.3347L107.778 79.2264L109.534 81.0433L107.346 82.1535Z" fill="#A7475F"/>
<path d="M107.202 82.9515L104.914 84.112L106.476 85.7278L108.764 84.5699L107.202 82.9515Z" fill="#A7475F"/>
<path d="M109.38 84.258L107.816 82.6397L110.004 81.5303L111.569 83.1499L109.38 84.258Z" fill="#A7475F"/>
<path d="M120.977 75.9644L122.549 77.5928L120.528 78.6162L118.955 76.9904L120.977 75.9644Z" fill="#A7475F"/>
<path d="M118.348 77.2984L119.919 78.9237L117.708 80.0428L116.14 78.4187L118.348 77.2984Z" fill="#A7475F"/>
<path d="M115.525 78.7306L117.093 80.3547L114.824 81.5031L113.256 79.8805L115.525 78.7306Z" fill="#A7475F"/>
<path d="M112.647 80.1898L114.212 81.8122L112.184 82.8391L110.619 81.2185L112.647 80.1898Z" fill="#A7475F"/>
<path d="M104.208 74.5787L105.732 76.157L107.763 75.1276L106.236 73.5447L104.208 74.5787Z" fill="#A7475F"/>
<path d="M106.208 76.6498L107.918 78.4206L109.948 77.3915L108.239 75.6204L106.208 76.6498Z" fill="#A7475F"/>
<path d="M108.394 78.9134L110.149 80.7314L112.177 79.7027L110.423 77.8851L108.394 78.9134Z" fill="#A7475F"/>
<path d="M122.281 68.5014L123.991 70.2712L121.784 71.3902L120.074 69.6195L122.281 68.5014Z" fill="#A7475F"/>
<path d="M119.459 69.9313L121.169 71.702L118.891 72.8572L117.181 71.0865L119.459 69.9313Z" fill="#A7475F"/>
<path d="M116.566 71.3982L118.276 73.169L116.252 74.1948L114.541 72.4253L116.566 71.3982Z" fill="#A7475F"/>
<path d="M118.752 73.6617L116.729 74.6874L118.485 76.5035L120.507 75.4782L118.752 73.6617Z" fill="#A7475F"/>
<path d="M113.936 72.7317L115.647 74.5023L113.438 75.6217L111.728 73.851L113.936 72.7317Z" fill="#A7475F"/>
<path d="M116.123 74.995L113.914 76.1145L115.669 77.9317L117.878 76.8114L116.123 74.995Z" fill="#A7475F"/>
<path d="M111.113 74.1629L112.823 75.9336L110.554 77.0846L108.844 75.314L111.113 74.1629Z" fill="#A7475F"/>
<path d="M113.299 76.4263L111.03 77.5773L112.786 79.3944L115.054 78.2435L113.299 76.4263Z" fill="#A7475F"/>
<path d="M121.645 72.1947L119.367 73.3499L121.122 75.1664L123.399 74.0113L121.645 72.1947Z" fill="#A7475F"/>
<path d="M105.271 67.166L107.003 68.9595L109.206 67.8363L107.477 66.0464L105.271 67.166Z" fill="#A7475F"/>
<path d="M106.866 69.7662L104.6 70.922L106.36 72.744L108.627 71.5883L106.866 69.7662Z" fill="#A7475F"/>
<path d="M109.24 71.2751L107.48 69.453L109.683 68.3297L111.443 70.1517L109.24 71.2751Z" fill="#A7475F"/>
<path d="M109.103 72.0818L106.837 73.2374L108.368 74.8214L110.637 73.6701L109.103 72.0818Z" fill="#A7475F"/>
<path d="M111.252 73.3583L109.717 71.7694L111.92 70.6451L113.46 72.2391L111.252 73.3583Z" fill="#A7475F"/>
<path d="M122.877 65.0582L124.438 66.6735L122.404 67.7046L120.847 66.0928L122.877 65.0582Z" fill="#A7475F"/>
<path d="M120.249 66.3983L121.805 68.0079L119.598 69.1268L118.047 67.5213L120.249 66.3983Z" fill="#A7475F"/>
<path d="M117.433 67.8338L118.983 69.4386L116.705 70.5937L115.16 68.9932L117.433 67.8338Z" fill="#A7475F"/>
<path d="M114.546 69.3065L116.09 70.9055L114.065 71.9327L112.523 70.3384L114.546 69.3065Z" fill="#A7475F"/>
<path d="M106.034 63.6277L107.607 65.2549L109.638 64.2247L108.065 62.5971L106.034 63.6277Z" fill="#A7475F"/>
<path d="M108.077 65.7411L109.807 67.53L111.832 66.4966L110.108 64.7117L108.077 65.7411Z" fill="#A7475F"/>
<path d="M110.284 68.0233L112.046 69.845L114.069 68.8131L112.309 66.9909L110.284 68.0233Z" fill="#A7475F"/>
<path d="M124.16 57.5811L125.863 59.342L123.657 60.4671L121.951 58.7015L124.16 57.5811Z" fill="#A7475F"/>
<path d="M121.336 59.0133L123.043 60.7804L120.767 61.9406L119.058 60.1695L121.336 59.0133Z" fill="#A7475F"/>
<path d="M118.451 60.4772L120.163 62.2485L118.133 63.2839L116.418 61.5091L118.451 60.4772Z" fill="#A7475F"/>
<path d="M120.64 62.7418L118.61 63.7774L120.371 65.5993L122.4 64.5647L120.64 62.7418Z" fill="#A7475F"/>
<path d="M115.819 61.8131L117.535 63.5886L115.334 64.7115L113.615 62.9314L115.819 61.8131Z" fill="#A7475F"/>
<path d="M118.012 64.0828L115.81 65.2049L117.57 67.0271L119.772 65.9049L118.012 64.0828Z" fill="#A7475F"/>
<path d="M113 63.2441L114.72 65.0248L112.446 66.1842L110.722 64.3991L113 63.2441Z" fill="#A7475F"/>
<path d="M115.197 65.5182L112.923 66.6776L114.683 68.4998L116.957 67.3404L115.197 65.5182Z" fill="#A7475F"/>
<path d="M125.28 63.0958L123.52 61.2738L121.243 62.4349L123.002 64.2575L125.28 63.0958Z" fill="#A7475F"/>
<path d="M107.16 56.2492L108.871 58.0206L111.075 56.9033L109.363 55.1313L107.16 56.2492Z" fill="#A7475F"/>
<path d="M108.732 58.8251L106.454 59.9803L108.211 61.799L110.488 60.6438L108.732 58.8251Z" fill="#A7475F"/>
<path d="M111.103 60.332L109.347 58.5133L111.551 57.396L113.307 59.2138L111.103 60.332Z" fill="#A7475F"/>
<path d="M110.958 61.1294L108.68 62.2853L110.253 63.9129L112.53 62.757L110.958 61.1294Z" fill="#A7475F"/>
<path d="M113.145 62.4452L111.572 60.8176L113.776 59.6993L115.349 61.3269L113.145 62.4452Z" fill="#A7475F"/>
<path d="M124.75 54.1305L126.323 55.7578L124.29 56.7896L122.718 55.1621L124.75 54.1305Z" fill="#A7475F"/>
<path d="M122.116 55.4669L123.689 57.0941L121.481 58.2153L119.908 56.5869L122.116 55.4669Z" fill="#A7475F"/>
<path d="M119.294 56.8995L120.866 58.5271L118.588 59.6831L117.017 58.0543L119.294 56.8995Z" fill="#A7475F"/>
<path d="M116.409 58.3635L117.981 59.991L115.948 61.022L114.375 59.3945L116.409 58.3635Z" fill="#A7475F"/>
<path d="M107.921 52.715L109.492 54.3411L111.525 53.3092L109.955 51.6839L107.921 52.715Z" fill="#A7475F"/>
<path d="M109.962 54.8273L111.674 56.5993L113.708 55.5681L111.996 53.7954L109.962 54.8273Z" fill="#A7475F"/>
<path d="M112.151 57.092L113.907 58.9098L115.94 57.8787L114.184 56.0608L112.151 57.092Z" fill="#A7475F"/>
<path d="M126.03 46.6739L127.746 48.4512L125.558 49.5606L123.842 47.7842L126.03 46.6739Z" fill="#A7475F"/>
<path d="M123.224 48.0979L124.94 49.8743L122.653 51.0336L120.938 49.258L123.224 48.0979Z" fill="#A7475F"/>
<path d="M120.334 49.5648L122.05 51.3385L120.019 52.3689L118.305 50.594L120.334 49.5648Z" fill="#A7475F"/>
<path d="M122.526 51.8312L120.495 52.8616L122.25 54.6779L124.282 53.6472L122.526 51.8312Z" fill="#A7475F"/>
<path d="M117.7 50.9012L119.415 52.675L117.209 53.7931L115.495 52.0197L117.7 50.9012Z" fill="#A7475F"/>
<path d="M119.892 53.1676L117.685 54.2866L119.44 56.1028L121.648 54.9837L119.892 53.1676Z" fill="#A7475F"/>
<path d="M114.881 52.3323L116.594 54.1049L114.32 55.2581L112.609 53.4849L114.881 52.3323Z" fill="#A7475F"/>
<path d="M117.07 54.5984L114.795 55.751L116.549 57.5693L118.825 56.4147L117.07 54.5984Z" fill="#A7475F"/>
<path d="M125.416 50.367L123.129 51.5263L124.883 53.3419L127.17 52.1825L125.416 50.367Z" fill="#A7475F"/>
<path d="M109.036 45.3351L110.744 47.1028L112.947 45.9858L111.239 44.2198L109.036 45.3351Z" fill="#A7475F"/>
<path d="M110.6 47.9016L108.332 49.0514L110.095 50.8782L112.364 49.7279L110.6 47.9016Z" fill="#A7475F"/>
<path d="M112.979 49.4161L111.215 47.5898L113.417 46.4719L115.183 48.2987L112.979 49.4161Z" fill="#A7475F"/>
<path d="M112.84 50.2206L110.57 51.3711L112.139 52.9978L114.41 51.8453L112.84 50.2206Z" fill="#A7475F"/>
<path d="M115.025 51.5335L113.455 49.9088L115.659 48.7905L117.23 50.4142L115.025 51.5335Z" fill="#A7475F"/>
<path d="M126.643 43.2227L128.21 44.8427L126.177 45.8744L124.61 44.2525L126.643 43.2227Z" fill="#A7475F"/>
<path d="M123.994 44.5656L125.56 46.1877L123.372 47.298L121.804 45.6755L123.994 44.5656Z" fill="#A7475F"/>
<path d="M121.186 45.9892L122.754 47.6117L120.467 48.7718L118.899 47.1485L121.186 45.9892Z" fill="#A7475F"/>
<path d="M118.294 47.4549L119.864 49.0779L117.834 50.1078L116.265 48.4838L118.294 47.4549Z" fill="#A7475F"/>
<path d="M109.806 41.7985L111.378 43.4253L113.403 42.3973L111.832 40.7729L109.806 41.7985Z" fill="#A7475F"/>
<path d="M111.848 43.9115L113.554 45.6779L115.581 44.6494L113.876 42.8856L111.848 43.9115Z" fill="#A7475F"/>
<path d="M114.024 46.164L115.789 47.9912L117.818 46.9623L116.052 45.1364L114.024 46.164Z" fill="#A7475F"/>
<path d="M127.917 35.7785L129.612 37.5325L127.428 38.641L125.731 36.8846L127.917 35.7785Z" fill="#A7475F"/>
<path d="M125.116 37.1965L126.813 38.9528L124.531 40.1099L122.832 38.3523L125.116 37.1965Z" fill="#A7475F"/>
<path d="M122.228 38.6576L123.929 40.4157L121.898 41.4459L120.197 39.6853L122.228 38.6576Z" fill="#A7475F"/>
<path d="M124.399 40.9027L122.368 41.9321L124.134 43.7599L126.166 42.7301L124.399 40.9027Z" fill="#A7475F"/>
<path d="M119.583 39.997L121.283 41.7578L119.093 42.8688L117.39 41.1068L119.583 39.997Z" fill="#A7475F"/>
<path d="M121.753 42.244L119.563 43.3549L121.328 45.1828L123.518 44.072L121.753 42.244Z" fill="#A7475F"/>
<path d="M116.771 41.4197L118.474 43.1825L116.187 44.3418L114.483 42.5776L116.771 41.4197Z" fill="#A7475F"/>
<path d="M118.944 43.6687L116.658 44.8288L118.423 46.6559L120.71 45.4965L118.944 43.6687Z" fill="#A7475F"/>
<path d="M127.283 39.4399L125.001 40.5969L126.767 42.4247L129.049 41.2685L127.283 39.4399Z" fill="#A7475F"/>
<path d="M110.943 34.4343L112.635 36.1848L114.828 35.0721L113.137 33.3214L110.943 34.4343Z" fill="#A7475F"/>
<path d="M112.488 36.9869L110.201 38.1455L111.968 39.9747L114.254 38.8147L112.488 36.9869Z" fill="#A7475F"/>
<path d="M114.872 38.501L113.107 36.674L115.301 35.5628L117.065 37.3887L114.872 38.501Z" fill="#A7475F"/>
<path d="M114.728 39.306L112.441 40.4646L114.011 42.0893L116.297 40.9292L114.728 39.306Z" fill="#A7475F"/>
<path d="M116.915 40.6155L115.348 38.993L117.541 37.8821L119.106 39.5035L116.915 40.6155Z" fill="#A7475F"/>
<path d="M128.527 32.319L130.085 33.9323L128.063 34.9587L126.503 33.344L128.527 32.319Z" fill="#A7475F"/>
<path d="M125.873 33.6624L127.433 35.2779L125.25 36.3862L123.688 34.7692L125.873 33.6624Z" fill="#A7475F"/>
<path d="M123.073 35.0811L124.635 36.698L122.353 37.856L120.789 36.237L123.073 35.0811Z" fill="#A7475F"/>
<path d="M120.184 36.5434L121.749 38.1621L119.721 39.1919L118.155 37.5715L120.184 36.5434Z" fill="#A7475F"/>
<path d="M111.704 30.8955L113.265 32.5101L115.29 31.4822L113.729 29.8685L111.704 30.8955Z" fill="#A7475F"/>
<path d="M113.748 33.0106L115.44 34.7619L117.467 33.7336L115.774 31.9834L113.748 33.0106Z" fill="#A7475F"/>
<path d="M115.914 35.2525L117.678 37.0773L119.705 36.0487L117.942 34.2256L115.914 35.2525Z" fill="#A7475F"/>
<path d="M129.807 24.8661L131.498 26.6166L129.306 27.7289L127.616 25.9771L129.807 24.8661Z" fill="#A7475F"/>
<path d="M127.009 26.285L128.702 28.0352L126.414 29.1958L124.721 27.4456L127.009 26.285Z" fill="#A7475F"/>
<path d="M124.115 27.7532L125.807 29.5037L123.784 30.5301L122.092 28.7788L124.115 27.7532Z" fill="#A7475F"/>
<path d="M126.286 29.9999L124.262 31.0249L126.02 32.8441L128.043 31.8176L126.286 29.9999Z" fill="#A7475F"/>
<path d="M121.463 29.098L123.154 30.8493L120.971 31.9566L119.28 30.2052L121.463 29.098Z" fill="#A7475F"/>
<path d="M123.633 31.3442L121.448 32.45L123.207 34.2715L125.391 33.1633L123.633 31.3442Z" fill="#A7475F"/>
<path d="M118.665 30.5169L120.356 32.2684L118.073 33.4268L116.381 31.6755L118.665 30.5169Z" fill="#A7475F"/>
<path d="M120.833 32.7619L118.549 33.9188L120.31 35.7415L122.593 34.5832L120.833 32.7619Z" fill="#A7475F"/>
<path d="M129.183 28.5336L126.894 29.6927L128.651 31.5094L130.939 30.348L129.183 28.5336Z" fill="#A7475F"/>
<path d="M112.824 23.5215L114.518 25.275L116.701 24.1704L115.005 22.4148L112.824 23.5215Z" fill="#A7475F"/>
<path d="M114.373 26.0732L112.087 27.2305L113.862 29.0676L116.147 27.9096L114.373 26.0732Z" fill="#A7475F"/>
<path d="M116.762 27.5978L114.988 25.7613L117.171 24.6559L118.944 26.4915L116.762 27.5978Z" fill="#A7475F"/>
<path d="M116.623 28.4023L114.338 29.5602L115.897 31.1742L118.181 30.0157L116.623 28.4023Z" fill="#A7475F"/>
<path d="M118.795 29.7039L117.238 28.0905L119.42 26.9842L120.978 28.5961L118.795 29.7039Z" fill="#A7475F"/>
<path d="M130.403 21.4183L131.954 23.0264L129.948 24.0447L128.393 22.4367L130.403 21.4183Z" fill="#A7475F"/>
<path d="M127.767 22.7544L129.32 24.3627L127.131 25.4743L125.578 23.8641L127.767 22.7544Z" fill="#A7475F"/>
<path d="M124.967 24.1737L126.523 25.7824L124.235 26.9429L122.679 25.3336L124.967 24.1737Z" fill="#A7475F"/>
<path d="M122.073 25.6401L123.63 27.2504L121.607 28.2769L120.05 26.6658L122.073 25.6401Z" fill="#A7475F"/>
<path d="M113.581 19.9704L115.15 21.5952L117.175 20.5701L115.604 18.9448L113.581 19.9704Z" fill="#A7475F"/>
<path d="M115.634 22.0956L117.331 23.8511L119.355 22.8269L117.658 21.07L115.634 22.0956Z" fill="#A7475F"/>
<path d="M117.8 24.3375L119.574 26.1731L121.597 25.1474L119.824 23.3125L117.8 24.3375Z" fill="#A7475F"/>
<path d="M128.888 15.3738L130.593 17.1386L128.312 18.2936L126.607 16.5305L128.888 15.3738Z" fill="#A7475F"/>
<path d="M125.989 16.844L127.691 18.608L125.676 19.6277L123.973 17.8659L125.989 16.844Z" fill="#A7475F"/>
<path d="M128.158 19.0922L126.145 20.1117L127.917 21.9441L129.927 20.9255L128.158 19.0922Z" fill="#A7475F"/>
<path d="M123.349 18.1829L125.051 19.9442L122.864 21.0507L121.165 19.2903L123.349 18.1829Z" fill="#A7475F"/>
<path d="M125.519 20.4282L123.332 21.5365L125.102 23.3713L127.29 22.2617L125.519 20.4282Z" fill="#A7475F"/>
<path d="M120.548 19.6037L122.249 21.3625L119.959 22.5209L118.26 20.7643L120.548 19.6037Z" fill="#A7475F"/>
<path d="M122.718 21.8472L120.428 23.0064L122.202 24.841L124.491 23.6811L122.718 21.8472Z" fill="#A7475F"/>
<path d="M131.06 17.6228L128.78 18.7768L130.552 20.6094L132.83 19.454L131.06 17.6228Z" fill="#A7475F"/>
<path d="M116.896 14.8646L119.076 13.7601L120.821 15.5664L118.639 16.6723L116.896 14.8646Z" fill="#A7475F"/>
<path d="M116.272 15.1816L118.018 16.9869L115.729 18.1467L113.983 16.3415L116.272 15.1816Z" fill="#A7475F"/>
<path d="M118.494 17.4794L116.205 18.6393L117.778 20.2652L120.067 19.106L118.494 17.4794Z" fill="#A7475F"/>
<path d="M120.686 18.7932L119.115 17.1651L121.297 16.059L122.87 17.6873L120.686 18.7932Z" fill="#A7475F"/>
<path d="M123.94 14.7195L125.513 16.3496L123.495 17.3712L121.92 15.7433L123.94 14.7195Z" fill="#A7475F"/>
<path d="M121.444 15.2506L123.465 14.2266L121.721 12.4198L119.698 13.4455L121.444 15.2506Z" fill="#A7475F"/>
<path d="M122.333 12.1099L124.616 10.9524L126.361 12.7587L124.079 13.9151L122.333 12.1099Z" fill="#A7475F"/>
<path fill-rule="evenodd" clip-rule="evenodd" d="M108.246 189.319C107.124 195.794 100.106 200.024 92.5526 198.784L91.7851 198.652C84.1398 197.434 79.0144 191.136 80.1599 184.656L111.692 1.56508C112.814 -4.90906 121.826 -18.1001 129.362 -16.9266C136.962 -15.6981 140.991 -0.270624 139.887 6.27157L108.246 189.319ZM127.443 12.9446L129.02 14.5746L135.283 11.4046L135.583 11.9779L129.495 15.0659L131.202 16.8311L134.656 15.0819L134.933 15.6614L131.669 17.3144L133.44 19.1454L133.985 18.8685L134.283 19.4522L133.916 19.638L134.196 19.9269L133.734 20.3894L133.306 19.9467L131.028 21.1019L132.581 22.7077L133.39 22.2979L133.696 22.893L133.069 23.2118L133.548 23.708L133.064 24.1766L132.44 23.5299L130.435 24.5481L132.127 26.2983L132.764 25.9752L133.047 26.5764L132.611 26.798L132.959 27.1576L132.474 27.6271L131.981 27.1165L129.787 28.2275L131.539 30.0437L132.094 29.7625L132.399 30.3577L132.025 30.5472L132.309 30.8419L131.842 31.2826L131.425 30.8515L129.136 32.0106L130.695 33.6228L131.504 33.2121L131.81 33.8081L131.182 34.1262L131.661 34.6223L131.2 35.0857L130.571 34.4349L128.547 35.46L130.241 37.2132L130.878 36.8912L131.177 37.4636L130.712 37.7003L131.072 38.0736L130.588 38.5422L130.083 38.0195L127.898 39.1272L129.664 40.9567L130.201 40.6837L130.499 41.2666L130.14 41.4494L130.416 41.7354L129.94 42.1903L129.525 41.7612L127.243 42.9174L128.81 44.5385L129.618 44.128L129.918 44.7013L129.28 45.0247L129.776 45.5382L129.308 45.9781L128.68 45.3297L126.647 46.3606L128.364 48.1377L128.988 47.8207L129.286 48.4045L128.84 48.6303L129.186 48.9878L128.695 49.4346L128.222 48.944L126.034 50.0533L127.789 51.8689L128.344 51.5865L128.621 52.166L128.255 52.3515L128.56 52.6669L128.069 53.1128L127.637 52.666L125.351 53.8252L126.923 55.4536L127.732 55.0431L128.032 55.6164L127.394 55.9398L127.889 56.4525L127.421 56.8931L126.794 56.2439L124.761 57.2758L126.462 59.0363L127.42 58.5477L127.72 59.1318L126.939 59.5297L127.3 59.9037L126.832 60.3444L126.34 59.8353L124.134 60.9605L125.894 62.7825L126.766 62.3377L127.066 62.9218L126.371 63.2759L126.662 63.5777L126.185 64.0326L125.757 63.5892L123.478 64.751L125.038 66.3684L125.866 65.9489L126.164 66.5319L125.514 66.862L126.003 67.3684L125.535 67.8091L124.914 67.1662L122.88 68.1973L124.591 69.9671L125.21 69.6531L125.508 70.236L125.067 70.4598L125.413 70.8188L124.945 71.2587L124.467 70.7638L122.26 71.8829L124.014 73.6987L124.571 73.4168L124.871 73.9893L124.484 74.1857L124.789 74.5011L124.312 74.956L123.869 74.4975L121.592 75.6526L123.164 77.281L123.982 76.868L124.281 77.4405L123.635 77.7688L124.12 78.2701L123.643 78.7249L123.02 78.0806L121.001 79.1052L122.706 80.8683L123.333 80.5515L123.632 81.124L123.177 81.3552L123.521 81.7113L123.059 82.1738L122.566 81.6639L120.356 82.7831L122.125 84.6154L122.689 84.3289L122.987 84.9127L122.601 85.1081L122.893 85.4106L122.416 85.8654L121.986 85.4199L119.719 86.5695L121.286 88.1921L122.095 87.7823L122.395 88.3556L121.757 88.679L122.253 89.1925L121.762 89.6384L121.138 88.9918L119.114 90.0159L120.804 91.7668L121.44 91.444L121.746 92.0399L121.29 92.2702L121.635 92.6272L121.173 93.0897L120.68 92.5791L118.489 93.6894L120.264 95.5272L120.792 95.2595L121.09 95.8433L120.74 96.0199L120.999 96.2882L120.522 96.7422L120.125 96.3317L117.848 97.4868L119.394 99.0854L120.203 98.6755L120.509 99.2706L119.881 99.5887L120.361 100.086L119.876 100.554L119.252 99.907L117.246 100.923L118.941 102.677L119.577 102.354L119.854 102.933L119.407 103.159L119.771 103.536L119.287 104.005L118.779 103.478L116.604 104.582L118.466 106.509L119.331 106.068L119.631 106.652L118.943 107.003L119.126 107.193L118.649 107.647L118.329 107.315L116.041 108.482L117.608 110.104L118.739 109.527L119.039 110.111L118.085 110.598L118.475 111.001L118.007 111.441L117.486 110.902L115.462 111.934L117.873 114.429L117.396 114.884L114.848 112.248L112.641 113.373L117.236 118.136L116.768 118.575L112.036 113.682L109.745 114.85L116.569 121.913L116.092 122.368L109.131 115.163L107.128 116.185L115.998 125.366L115.508 125.812L106.52 116.495L95.0107 122.364L94.7113 121.78L106.043 116.001L104.478 114.379L95.603 118.905L95.3033 118.321L104.002 113.885L102.118 111.933L95.858 115.11L95.5583 114.536L101.649 111.447L99.9444 109.68L96.4841 111.431L96.1846 110.858L99.472 109.19L97.9262 107.587L97.087 108.014L96.7892 107.43L97.4506 107.095L96.9385 106.564L97.4065 106.124L98.0506 106.79L100.058 105.773L98.2733 103.926L97.7441 104.194L97.4444 103.62L97.8026 103.439L97.5104 103.136L97.9873 102.681L98.4176 103.127L100.705 101.965L98.9968 100.199L98.3704 100.516L98.0707 99.9422L98.5262 99.7119L98.1822 99.3566L98.6668 98.8871L99.1551 99.3936L101.353 98.2805L99.7973 96.6702L98.9841 97.082L98.6866 96.4991L99.3212 96.1775L98.8143 95.6525L99.291 95.1978L99.9362 95.8657L101.955 94.8421L100.176 93.0018L99.6303 93.2787L99.3305 92.7054L99.7052 92.5157L99.421 92.2218L99.8825 91.7585L100.315 92.2061L102.612 91.0431L100.919 89.2903L100.263 89.6231L99.9571 89.028L100.433 88.7869L100.071 88.4129L100.548 87.958L101.048 88.4759L103.237 87.3681L101.678 85.7529L100.852 86.1718L100.553 85.5993L101.209 85.2665L100.718 84.7572L101.179 84.2938L101.819 84.9568L103.84 83.9319L102.085 82.1129L101.505 82.4062L101.208 81.8233L101.609 81.6192L101.307 81.3059L101.775 80.8661L102.209 81.315L104.499 80.1538L102.79 78.384L102.161 78.7021L101.863 78.1192L102.313 77.8904L101.944 77.5079L102.421 77.053L102.928 77.5786L105.115 76.4704L103.591 74.8929L103.038 75.1754L102.739 74.5912L103.114 74.3995L102.581 73.8474L103.072 73.4014L103.731 74.0844L105.759 73.0503L104.001 71.2277L103.692 71.3853L103.392 70.8012L103.524 70.7333L103.193 70.39L103.661 69.9501L104.123 70.4286L106.39 69.2728L104.656 67.4777L104.036 67.7929L103.736 67.2196L104.186 66.9907L103.838 66.631L104.315 66.1762L104.801 66.6789L107.006 65.5602L105.434 63.9319L104.625 64.3425L104.325 63.7691L104.964 63.4456L104.467 62.9315L104.935 62.4916L105.563 63.1416L107.596 62.1107L105.84 60.2921L105.283 60.5747L104.985 59.9909L105.363 59.7994L105.065 59.4897L105.541 59.0348L105.978 59.4876L108.256 58.3324L106.545 56.561L105.922 56.8778L105.622 56.3045L106.075 56.0748L105.734 55.7208L106.21 55.2659L106.69 55.763L108.893 54.6451L107.321 53.0182L106.496 53.4369L106.199 52.8539L106.845 52.5255L106.354 52.0172L106.821 51.5765L107.445 52.2215L109.479 51.1903L107.714 49.3648L107.159 49.6463L106.859 49.0738L107.244 48.8786L106.943 48.5667L107.434 48.1208L107.862 48.565L110.13 47.4145L108.421 45.6461L107.785 45.968L107.508 45.3886L107.954 45.1627L107.604 44.801L108.081 44.3461L108.568 44.851L110.769 43.7336L109.196 42.1071L108.398 42.5123L108.098 41.939L108.725 41.6203L108.246 41.1248L108.708 40.6623L109.335 41.3107L111.359 40.2839L109.591 38.4542L109.045 38.7311L108.746 38.1578L109.12 37.9673L108.835 37.6735L109.297 37.211L109.73 37.6586L112.016 36.4985L110.324 34.748L109.677 35.0756L109.394 34.4744L109.841 34.2474L109.477 33.8705L109.967 33.4246L110.459 33.9337L112.653 32.82L111.093 31.2044L110.278 31.6177L109.981 31.0347L110.618 30.7116L110.132 30.2089L110.594 29.7463L111.228 30.4028L113.253 29.3759L111.477 27.5392L110.931 27.8152L110.631 27.2419L111.006 27.0531L110.722 26.7584L111.183 26.2959L111.616 26.7435L113.903 25.5868L112.209 23.8333L111.564 24.1605L111.258 23.5645L111.723 23.3299L111.361 22.9551L111.838 22.5002L112.338 23.018L114.521 21.9136L112.951 20.2889L112.154 20.6927L111.857 20.1097L112.475 19.7962L111.996 19.2999L112.48 18.8313L113.104 19.4769L115.128 18.4521L113.383 16.6457L112.802 16.9404L112.504 16.3566L112.907 16.153L112.608 15.8434L113.076 15.4035L113.507 15.8489L115.795 14.689L113.256 12.063L113.74 11.5935L116.42 14.3718L118.6 13.2674L113.882 8.38475L114.373 7.93881L119.222 12.9528L121.246 11.927L114.494 4.9282L114.962 4.48834L121.856 11.6172L124.14 10.4597L115.142 1.14708L115.61 0.707228L124.744 10.1533L136.509 4.19117L136.806 4.77414L125.221 10.6459L126.967 12.452L135.862 7.94347L136.159 8.52729L127.443 12.9446Z" fill="#A7475F"/>
<path fill-rule="evenodd" clip-rule="evenodd" d="M164.808 23.2806C172.974 19.1999 180.23 15.5744 182.475 14.5225C186.743 13.3294 196.083 15.5912 217.527 24.3373C229.461 29.0636 240.971 34.7763 251.936 41.416C251.936 41.416 271.178 60.1688 273.308 129.048L275.723 159.142C275.723 159.142 286.478 160.45 303.797 162.778C307.48 163.274 309.832 166.972 308.725 170.525L302.984 188.938C302.01 192.063 298.719 193.834 295.579 192.923L282.554 189.142C282.554 189.142 243.929 178.011 231.214 167.602C225.629 162.685 220.681 154.862 214.333 144.268C213.351 144.338 211.799 142.092 208.592 136.126C207.536 144.762 201.006 149.54 200.442 139.403C199.148 134.569 196.553 123.502 194.352 111.989C192.488 109.221 190.556 106.374 188.496 103.417L187.654 102.672C172.042 88.8697 164.189 81.927 162.967 75.1193C164.662 72.2439 170.606 69.6565 190.423 84.3575C190.258 82.1471 190.428 79.9223 190.927 77.7594C194.651 72.1605 205.427 65.9278 235.202 50.4578C225.487 44.7858 191.411 27.8598 186.619 27.1845C179.739 32.2023 152.375 46.9287 142.15 42.7254C139.456 41.7373 137.12 39.9816 135.431 37.6773C136.581 37.3842 151.842 29.7587 164.808 23.2806ZM135.991 38.036C141.131 39.1907 146.473 39.1726 151.616 37.9816C158.794 36.5398 154.007 28.7707 154.007 28.7707C153.918 29.6628 154.126 30.2023 154.336 30.749C154.69 31.6663 155.052 32.6064 154.039 35.2737C152.653 38.9379 135.991 38.036 135.991 38.036ZM224.554 114.802C227.269 109.449 231.173 101.696 233.061 97.9944L233.005 98.0572L211.417 99.4451C213.228 103.315 214.804 107.289 216.139 111.347C218.613 113.167 221.503 114.353 224.554 114.802ZM201.131 95.7418C200.817 94.2042 199.372 86.7972 200.475 85.6305L200.543 85.6122C205.655 82.3529 210.96 79.4039 216.427 76.7804C208.094 80.7366 199.543 84.7658 199.305 85.3626C198.96 86.3314 199.095 86.8878 199.68 89.3025C200.017 90.6909 200.502 92.6939 201.131 95.7418ZM217.513 76.2649C222.465 73.7987 227.759 71.3369 232.292 69.4911C232.292 69.4911 225.151 72.714 217.513 76.2649Z" fill="#A7475F"/>
</g>
<defs>
<linearGradient id="paint0_linear_4_2" x1="144" y1="0" x2="144" y2="182" gradientUnits="userSpaceOnUse">
<stop stop-color="#E2708D"/>
<stop offset="1" stop-color="#C85E79"/>
</linearGradient>
<linearGradient id="paint1_linear_4_2" x1="144" y1="0" x2="144" y2="182" gradientUnits="userSpaceOnUse">
<stop stop-color="#E15D7F"/>
<stop offset="1" stop-color="#C74A6A"/>
</linearGradient>
</defs>
</svg>
