<svg width="288" height="182" viewBox="0 0 288 182" fill="none" xmlns="http://www.w3.org/2000/svg">
<path d="M0 0H288V182H0V0Z" fill="url(#paint0_linear_3_2)"/>
<path d="M96.7143 0H288V182H242.5C232.595 173.952 205.357 157.857 175.643 157.857C138.5 157.857 123.643 165.286 89.2857 165.286C54.9286 165.286 41 148.571 41 128.143C41 107.714 68.8571 95.6429 85.5714 87.2857C102.286 78.9286 115.286 59.4286 115.286 37.1429C115.286 19.3143 102.905 4.95238 96.7143 0Z" fill="url(#paint1_linear_3_2)"/>
<path d="M96.7143 0H288V182H242.5C232.595 173.952 205.357 157.857 175.643 157.857C138.5 157.857 123.643 165.286 89.2857 165.286C54.9286 165.286 41 148.571 41 128.143C41 107.714 68.8571 95.6429 85.5714 87.2857C102.286 78.9286 115.286 59.4286 115.286 37.1429C115.286 19.3143 102.905 4.95238 96.7143 0Z" fill="url(#paint2_linear_3_2)"/>
<path d="M149.873 122.465C157.487 120.199 162.911 115.849 166.144 109.417C169.448 102.911 172.034 90.3377 173.902 71.6974C175.482 56.4196 176.847 46.2222 177.997 41.1053C179.218 35.9152 181.589 31.7851 185.109 28.7149C188.629 25.5716 193.262 24 199.009 24C202.385 24 206.049 24.5117 210 25.5351V29.7018C209.21 29.6287 208.527 29.5921 207.953 29.5921C204.864 29.5921 202.242 31.4927 200.087 35.2939C197.931 39.095 196.064 48.598 194.483 63.8026C192.975 77.326 191.287 86.9751 189.419 92.75C187.623 98.4518 184.678 104.08 180.583 109.636C176.56 115.118 172.106 119.249 167.221 122.026C162.336 124.804 156.553 126.887 149.873 128.276V174H138.127V128.276C131.159 126.814 125.161 124.585 120.132 121.588C115.104 118.591 110.686 114.387 106.878 108.978C103.143 103.496 100.341 97.9401 98.4735 92.3114C96.6776 86.6096 94.9894 76.5219 93.409 62.0482C91.9004 47.867 90.0686 38.9123 87.9135 35.1842C85.7584 31.4561 83.1723 29.5921 80.1551 29.5921C79.5086 29.5921 78.7902 29.6287 78 29.7018V25.5351C81.951 24.5117 85.6147 24 88.991 24C94.6661 24 99.2637 25.5716 102.784 28.7149C106.304 31.7851 108.71 35.9152 110.003 41.1053C111.368 46.2222 112.625 55.4328 113.775 68.7368C115.714 90.5205 118.516 104.409 122.18 110.404C125.915 116.398 131.231 120.418 138.127 122.465V24H149.873V122.465Z" fill="black" fill-opacity="0.15"/>
<defs>
<linearGradient id="paint0_linear_3_2" x1="144" y1="0" x2="144" y2="182" gradientUnits="userSpaceOnUse">
<stop stop-color="#6CC4D7"/>
<stop offset="1" stop-color="#398AAD"/>
</linearGradient>
<linearGradient id="paint1_linear_3_2" x1="144" y1="0" x2="144" y2="182" gradientUnits="userSpaceOnUse">
<stop stop-color="#5299B9"/>
<stop offset="1" stop-color="#306F8B"/>
</linearGradient>
<linearGradient id="paint2_linear_3_2" x1="144" y1="0" x2="144" y2="182" gradientUnits="userSpaceOnUse">
<stop stop-color="#5299B9"/>
<stop offset="1" stop-color="#306F8B"/>
</linearGradient>
</defs>
</svg>
