<svg width="288" height="182" viewBox="0 0 288 182" fill="none" xmlns="http://www.w3.org/2000/svg">
<g clip-path="url(#clip0_4_3)">
<g filter="url(#filter0_d_4_3)">
<rect width="288" height="182" fill="url(#paint0_linear_4_3)"/>
<g filter="url(#filter1_d_4_3)">
<path fill-rule="evenodd" clip-rule="evenodd" d="M6.10352e-05 182H288V0H137.983C133.972 2.15567 125.95 11.8254 125.95 33.2589C125.95 60.0508 137.983 72.9848 170.072 90.5381C199.09 106.411 198.588 117.751 198.226 125.925C198.187 126.791 198.15 127.62 198.15 128.416C198.15 136.731 193.337 165.371 152.423 165.371C132.624 165.371 120.903 163.64 108.806 161.853C95.9047 159.948 82.5752 157.98 58.5627 157.98C21.3393 157.98 4.0112 173.993 6.10352e-05 182Z" fill="url(#paint1_linear_4_3)"/>
</g>
<circle cx="158" cy="33" r="16" fill="#49A194"/>
<circle cx="174" cy="131" r="8" fill="#49A194"/>
</g>
</g>
<defs>
<filter id="filter0_d_4_3" x="-4" y="0" width="296" height="190" filterUnits="userSpaceOnUse" color-interpolation-filters="sRGB">
<feFlood flood-opacity="0" result="BackgroundImageFix"/>
<feColorMatrix in="SourceAlpha" type="matrix" values="0 0 0 0 0 0 0 0 0 0 0 0 0 0 0 0 0 0 127 0" result="hardAlpha"/>
<feOffset dy="4"/>
<feGaussianBlur stdDeviation="2"/>
<feComposite in2="hardAlpha" operator="out"/>
<feColorMatrix type="matrix" values="0 0 0 0 0 0 0 0 0 0 0 0 0 0 0 0 0 0 0.25 0"/>
<feBlend mode="normal" in2="BackgroundImageFix" result="effect1_dropShadow_4_3"/>
<feBlend mode="normal" in="SourceGraphic" in2="effect1_dropShadow_4_3" result="shape"/>
</filter>
<filter id="filter1_d_4_3" x="-23.9999" y="-24" width="336" height="230" filterUnits="userSpaceOnUse" color-interpolation-filters="sRGB">
<feFlood flood-opacity="0" result="BackgroundImageFix"/>
<feColorMatrix in="SourceAlpha" type="matrix" values="0 0 0 0 0 0 0 0 0 0 0 0 0 0 0 0 0 0 127 0" result="hardAlpha"/>
<feOffset/>
<feGaussianBlur stdDeviation="12"/>
<feComposite in2="hardAlpha" operator="out"/>
<feColorMatrix type="matrix" values="0 0 0 0 0 0 0 0 0 0 0 0 0 0 0 0 0 0 0.05 0"/>
<feBlend mode="normal" in2="BackgroundImageFix" result="effect1_dropShadow_4_3"/>
<feBlend mode="normal" in="SourceGraphic" in2="effect1_dropShadow_4_3" result="shape"/>
</filter>
<linearGradient id="paint0_linear_4_3" x1="144" y1="0" x2="144" y2="182" gradientUnits="userSpaceOnUse">
<stop stop-color="#51AB9E"/>
<stop offset="1" stop-color="#2B786D"/>
</linearGradient>
<linearGradient id="paint1_linear_4_3" x1="144" y1="0" x2="144" y2="182" gradientUnits="userSpaceOnUse">
<stop stop-color="#5EB7AA"/>
<stop offset="1" stop-color="#3A8C80"/>
</linearGradient>
<clipPath id="clip0_4_3">
<rect width="288" height="182" fill="white"/>
</clipPath>
</defs>
</svg>
