<svg width="240" height="192" viewBox="0 0 240 192" fill="none" xmlns="http://www.w3.org/2000/svg">
<g clip-path="url(#clip0_283_8473)">
<path d="M55.9533 101.16C44.0998 89.0241 39.0934 76.3634 41.8561 65.5105C45.4014 51.583 61.1514 41.9533 85.0677 39.0906L85.156 39.8895C61.5727 42.7122 46.0629 52.1257 42.6035 65.7162C39.9148 76.2783 44.8485 88.6623 56.4957 100.587L55.9533 101.16Z" fill="white" fill-opacity="0.15"/>
<path d="M204.259 139.182L204.011 138.42C217.242 133.768 225.518 126.273 227.943 116.746C231.026 104.635 224.328 90.58 209.083 77.1713C193.761 63.6945 171.666 52.5122 146.867 45.6845L147.065 44.9072C171.972 51.7649 194.175 63.0051 209.582 76.5575C225.068 90.1778 231.854 104.523 228.69 116.952C226.195 126.752 217.747 134.439 204.259 139.182Z" fill="white" fill-opacity="0.15"/>
<path d="M82.766 144.574C53.6969 131.166 31.2969 113.77 19.6927 95.5914L20.3367 95.1466C31.8607 113.2 54.143 130.492 83.0793 143.839L82.766 144.574Z" fill="white" fill-opacity="0.15"/>
<path d="M184.971 167.803C181.972 167.803 178.923 167.733 175.822 167.594L175.855 166.791C198.995 167.833 219.412 164.953 234.902 158.46L235.192 159.206C221.679 164.869 204.456 167.803 184.971 167.803Z" fill="white" fill-opacity="0.15"/>
<path d="M168.104 39.8115C163.3 38.1846 158.358 36.6698 153.416 35.3092C124.977 27.4791 97.0205 24.699 72.5687 27.271L72.491 26.4709C97.0339 23.8905 125.086 26.6772 153.614 34.5318C158.57 35.8965 163.526 37.4156 168.344 39.0471L168.104 39.8115Z" fill="white" fill-opacity="0.15"/>
<path d="M37.7858 102.366C25.9323 90.2301 20.926 77.5695 23.6886 66.7165C27.2339 52.789 42.9839 43.1594 66.9002 40.2966L66.9885 41.0955C43.4052 43.9182 27.8954 53.3318 24.436 66.9222C21.7474 77.4843 26.6811 89.8684 38.3283 101.793L37.7858 102.366Z" fill="white" fill-opacity="0.15"/>
<path d="M186.091 140.388L185.843 139.626C199.075 134.974 207.35 127.479 209.775 117.952C212.858 105.841 206.161 91.7861 190.916 78.3774C175.594 64.9006 153.498 53.7182 128.7 46.8906L128.898 46.1133C153.805 52.9709 176.007 64.2112 191.415 77.7636C206.9 91.3839 213.686 105.729 210.523 118.158C208.028 127.958 199.58 135.645 186.091 140.388Z" fill="white" fill-opacity="0.15"/>
<path d="M64.5985 145.78C35.5294 132.372 13.1294 114.976 1.52527 96.7973L2.16926 96.3525C13.6932 114.406 35.9756 131.698 64.9118 145.045L64.5985 145.78Z" fill="white" fill-opacity="0.15"/>
<path d="M166.803 169.009C163.805 169.009 160.755 168.939 157.655 168.8L157.688 167.997C180.828 169.039 201.245 166.159 216.735 159.667L217.024 160.412C203.511 166.075 186.288 169.009 166.803 169.009Z" fill="white" fill-opacity="0.15"/>
<path d="M149.937 41.0176C145.132 39.3907 140.19 37.8759 135.248 36.5152C106.809 28.6851 78.853 25.9051 54.4013 28.4771L54.3235 27.677C78.8664 25.0965 106.918 27.8833 135.446 35.7379C140.402 37.1025 145.358 38.6216 150.176 40.2532L149.937 41.0176Z" fill="white" fill-opacity="0.15"/>
<path d="M160.835 54.062C165.983 39.6653 178.148 27.2257 192.848 25.746C184.01 39.6933 180.201 56.4423 182.094 73.0296C182.846 79.4239 184.323 86.4544 181.008 91.8966C178.946 95.2829 175.312 97.3676 171.565 98.3084C167.819 99.2492 163.915 99.1763 160.061 99.098L159.199 99.5411C156.489 84.4417 155.686 68.4586 160.835 54.062Z" fill="#67D9FD"/>
<path d="M192.919 26.0596C182.898 33.3409 175.337 43.721 171.311 55.7256C170.464 58.3028 169.82 60.994 169.783 63.7308C169.766 66.3988 170.437 69.0226 171.725 71.3298C172.885 73.5061 174.313 75.5926 174.944 78.0241C175.609 80.5872 175.067 83.18 173.709 85.3944C172.047 88.1037 169.548 90.0305 167.042 91.8264C164.259 93.8204 161.337 95.8457 159.635 98.9781C159.428 99.3577 158.874 99.0025 159.08 98.6235C162.043 93.1736 168.261 91.194 172.064 86.5647C173.839 84.4046 174.999 81.6751 174.45 78.7988C173.97 76.2835 172.499 74.1306 171.307 71.9376C170.054 69.6349 169.236 67.2453 169.141 64.5811C169.043 61.8558 169.588 59.1328 170.368 56.5442C172.18 50.6882 174.866 45.1647 178.327 40.1764C182.247 34.4604 187.079 29.4839 192.613 25.4624C192.955 25.2136 193.26 25.8125 192.919 26.0596V26.0596Z" fill="#54BFE1"/>
<path d="M172.389 51.7807C170.544 50.8048 169.093 49.1786 168.294 47.1925C167.496 45.2065 167.402 42.9899 168.03 40.9387C168.158 40.5241 168.784 40.7121 168.655 41.1273C168.067 43.0363 168.155 45.101 168.902 46.9488C169.649 48.7966 171.007 50.3058 172.73 51.204C173.104 51.3996 172.761 51.9752 172.389 51.7807Z" fill="#54BFE1"/>
<path d="M170.997 70.3069C175.032 68.9816 178.438 66.1234 180.537 62.3022C180.745 61.9235 181.299 62.2785 181.091 62.6568C178.901 66.629 175.35 69.5959 171.148 70.9654C170.748 71.0957 170.599 70.4365 170.997 70.3069V70.3069Z" fill="#54BFE1"/>
<path d="M182.693 35.2292C183.331 35.7615 184.087 36.1206 184.891 36.2743C185.696 36.428 186.525 36.3714 187.303 36.1097C187.702 35.9742 187.85 36.6336 187.454 36.7682C186.593 37.0532 185.677 37.1145 184.788 36.9468C183.899 36.779 183.062 36.3873 182.352 35.8059C182.281 35.7569 182.23 35.6815 182.21 35.595C182.19 35.5085 182.203 35.4175 182.245 35.3403C182.291 35.2641 182.363 35.2098 182.447 35.189C182.531 35.1682 182.619 35.1826 182.693 35.2292V35.2292Z" fill="#54BFE1"/>
<path d="M228.282 62.4432C228.035 62.5352 227.788 62.6271 227.54 62.7246C224.23 63.9787 221.023 65.5104 217.951 67.3047C217.711 67.4395 217.47 67.5798 217.235 67.7215C209.878 72.1263 203.372 77.9132 198.047 84.7881C195.93 87.5258 194.017 90.427 192.324 93.4666C189.985 97.6646 187.771 102.41 184.337 105.469C183.982 105.792 183.608 106.093 183.218 106.368L159.785 100.601C159.738 100.56 159.69 100.525 159.643 100.484L158.697 100.298C158.774 100.135 158.857 99.9677 158.934 99.8046C158.978 99.7098 159.027 99.6163 159.072 99.5215C159.103 99.4587 159.134 99.3959 159.159 99.3374C159.169 99.3164 159.179 99.2956 159.188 99.2801C159.213 99.2216 159.242 99.17 159.265 99.117C159.727 98.1797 160.196 97.2441 160.672 96.3102C160.673 96.3046 160.673 96.3046 160.679 96.3004C164.323 89.1944 168.569 82.3424 173.68 76.3784C173.834 76.1991 173.989 76.014 174.154 75.8373C176.472 73.1623 178.996 70.6889 181.702 68.4417C183.187 67.2161 184.731 66.0696 186.328 65.0064C190.459 62.2676 194.979 60.2216 199.721 58.9434C209.175 56.3968 219.308 57.0232 227.648 62.0525C227.861 62.1813 228.07 62.3089 228.282 62.4432Z" fill="#67D9FD"/>
<path d="M228.158 62.7395C215.942 62.2782 203.896 65.8319 193.732 72.896C191.563 74.4232 189.491 76.1686 187.877 78.3306C186.319 80.4505 185.336 82.9655 185.029 85.6143C184.695 88.0781 184.628 90.6385 183.724 92.975C182.771 95.4377 180.837 97.1686 178.47 98.0862C175.575 99.2089 172.465 99.1827 169.424 99.0471C166.047 98.8966 162.542 98.6845 159.369 100.119C158.985 100.293 158.748 99.6626 159.132 99.489C164.652 96.9927 170.763 99.3054 176.48 97.991C179.148 97.3776 181.654 95.9244 182.881 93.2842C183.954 90.9755 184.025 88.3352 184.343 85.8375C184.676 83.2149 185.406 80.7946 186.872 78.6077C188.372 76.3706 190.383 74.5372 192.505 72.9591C197.341 69.4178 202.683 66.6894 208.335 64.8739C214.774 62.7647 221.513 61.8166 228.259 62.0706C228.677 62.0865 228.573 62.7553 228.158 62.7395L228.158 62.7395Z" fill="#54BFE1"/>
<path d="M196.876 70.4211C195.968 68.4867 195.75 66.2795 196.262 64.1938C196.775 62.1081 197.983 60.2796 199.672 59.035C200.014 58.7843 200.405 59.3262 200.062 59.5771C198.487 60.7331 197.362 62.4365 196.889 64.3797C196.416 66.3229 196.626 68.3781 197.482 70.1742C197.667 70.5647 197.06 70.8095 196.876 70.4211V70.4211Z" fill="#54BFE1"/>
<path d="M185.04 84.3419C189.029 85.81 193.403 85.6607 197.291 83.9237C197.676 83.7513 197.913 84.3818 197.528 84.5541C193.479 86.3538 188.927 86.4995 184.779 84.9622C184.384 84.8154 184.647 84.1959 185.04 84.3419Z" fill="#54BFE1"/>
<path d="M214.685 63.6575C214.886 64.4821 215.282 65.2418 215.835 65.8683C216.389 66.4948 217.083 66.9686 217.856 67.247C218.253 67.3886 217.99 68.008 217.595 67.8674C216.743 67.5556 215.976 67.0314 215.363 66.3406C214.75 65.6498 214.309 64.8134 214.079 63.9045C214.05 63.8207 214.053 63.7287 214.088 63.6472C214.122 63.5658 214.185 63.5009 214.263 63.4658C214.344 63.4335 214.433 63.4356 214.512 63.4715C214.591 63.5073 214.653 63.5742 214.685 63.6575V63.6575Z" fill="#54BFE1"/>
<path d="M25.0662 186.025C11.6517 179.598 0.643311 166.044 0.334717 150.687C13.0398 160.906 28.8108 166.121 44.8575 165.411C51.045 165.114 57.8973 164.113 62.8649 167.961C65.956 170.355 67.6803 174.282 68.2994 178.238C68.9185 182.194 68.5538 186.237 68.1878 190.227L68.5474 191.156C53.8657 192.826 38.4807 192.451 25.0662 186.025Z" fill="#67D9FD"/>
<path d="M0.640889 150.637C6.86526 161.579 16.2466 170.204 27.4524 175.286C29.8595 176.359 32.3911 177.23 35.0123 177.475C37.5691 177.694 40.1354 177.197 42.4448 176.035C44.619 174.996 46.7273 173.673 49.1063 173.202C51.6139 172.706 54.059 173.464 56.0795 175.04C58.5517 176.968 60.2104 179.704 61.743 182.44C63.4446 185.476 65.1658 188.659 68.0406 190.661C68.3889 190.904 68.0066 191.452 67.6588 191.209C62.6572 187.725 61.2287 181.128 57.0775 176.833C55.1404 174.83 52.611 173.421 49.8117 173.773C47.3639 174.08 45.1887 175.444 42.996 176.515C40.6936 177.639 38.3407 178.307 35.7791 178.205C33.1587 178.1 30.589 177.33 28.1661 176.326C22.6882 174.005 17.5953 170.802 13.0739 166.836C7.88949 162.339 3.48301 156.952 0.0450787 150.91C-0.167573 150.536 0.42961 150.265 0.640857 150.637H0.640889Z" fill="#54BFE1"/>
<path d="M23.7516 173.87C22.6766 175.71 21.0078 177.092 19.0433 177.77C17.0788 178.448 14.9465 178.378 13.0272 177.572C12.6394 177.407 12.867 176.773 13.2553 176.938C15.0412 177.692 17.0274 177.757 18.8555 177.122C20.6836 176.486 22.2331 175.192 23.2244 173.473C23.4402 173.1 23.9662 173.499 23.7516 173.87Z" fill="#54BFE1"/>
<path d="M41.4091 176.712C40.4431 172.428 37.9599 168.68 34.4547 166.215C34.1072 165.971 34.4895 165.423 34.8365 165.667C38.4795 168.239 41.056 172.145 42.0519 176.605C42.1465 177.031 41.5032 177.135 41.4091 176.712Z" fill="#54BFE1"/>
<path d="M8.66011 161.934C9.21867 161.313 9.62003 160.557 9.82814 159.734C10.0363 158.911 10.0446 158.047 9.85245 157.22C9.75268 156.797 10.3961 156.692 10.4952 157.113C10.7034 158.028 10.6931 158.982 10.4651 159.892C10.2371 160.801 9.79839 161.639 9.18728 162.332C9.13494 162.402 9.05883 162.449 8.9744 162.463C8.88998 162.477 8.80359 162.457 8.73278 162.407C8.66324 162.354 8.61659 162.275 8.60298 162.186C8.58937 162.098 8.6099 162.007 8.66011 161.934Z" fill="#54BFE1"/>
<path d="M38.1952 116.713C38.2648 116.976 38.3343 117.238 38.409 117.503C39.3614 121.031 40.5879 124.472 42.0762 127.793C42.1873 128.052 42.3037 128.312 42.4218 128.567C46.0895 136.529 51.1466 143.713 57.336 149.755C59.8011 152.156 62.4382 154.36 65.2247 156.345C69.073 159.087 73.4554 161.742 76.1293 165.534C76.4125 165.927 76.6721 166.337 76.9066 166.763L69.6082 190.627C69.5654 190.673 69.5278 190.72 69.485 190.766L69.2355 191.733C69.0849 191.641 68.9306 191.542 68.78 191.45C68.6924 191.397 68.6065 191.339 68.5189 191.286C68.4611 191.249 68.4033 191.212 68.349 191.182C68.3297 191.17 68.3105 191.157 68.2964 191.147C68.2421 191.117 68.1948 191.083 68.1458 191.055C67.2819 190.505 66.4203 189.948 65.5608 189.384C65.5556 189.382 65.5556 189.383 65.552 189.375C59.014 185.06 52.7651 180.139 47.4329 174.389C47.2725 174.215 47.1068 174.041 46.9498 173.857C44.5601 171.251 42.3793 168.446 40.429 165.47C39.3661 163.837 38.3834 162.15 37.4846 160.413C35.1706 155.923 33.5503 151.081 32.6829 146.067C30.9552 136.07 32.3209 125.61 37.7728 117.34C37.9124 117.129 38.0504 116.922 38.1952 116.713Z" fill="#67D9FD"/>
<path d="M38.47 116.863C37.1052 129.497 39.6028 142.257 45.6082 153.331C46.9087 155.696 48.4257 157.977 50.3767 159.814C52.2916 161.589 54.6287 162.799 57.1451 163.317C59.4822 163.85 61.932 164.113 64.1039 165.227C66.3932 166.401 67.9067 168.537 68.6077 171.06C69.4655 174.148 69.2055 177.371 68.8458 180.515C68.4465 184.005 67.9786 187.623 69.1147 191.022C69.2523 191.434 68.6298 191.632 68.4924 191.221C66.5158 185.308 69.1947 179.145 68.3661 173.117C67.9795 170.304 66.7755 167.596 64.3367 166.124C62.2042 164.837 59.6781 164.563 57.3074 164.046C54.818 163.502 52.5526 162.562 50.5665 160.876C48.5349 159.152 46.9289 156.928 45.576 154.609C42.5459 149.325 40.3334 143.58 39.0195 137.582C37.4835 130.745 37.0833 123.685 37.8363 116.708C37.8831 116.276 38.5165 116.434 38.47 116.863V116.863Z" fill="#54BFE1"/>
<path d="M43.4727 149.884C41.5494 150.68 39.4168 150.738 37.4557 150.05C35.4946 149.361 33.8328 147.97 32.7669 146.125C32.5525 145.75 33.1015 145.386 33.3162 145.761C34.3057 147.481 35.8538 148.777 37.6812 149.414C39.5086 150.052 41.4949 149.989 43.2816 149.237C43.6701 149.074 43.8589 149.722 43.4727 149.884Z" fill="#54BFE1"/>
<path d="M55.926 163.21C57.6349 159.184 57.8221 154.636 56.4502 150.474C56.314 150.061 56.9364 149.863 57.0725 150.275C58.4923 154.61 58.2883 159.342 56.5011 163.527C56.3305 163.925 55.7563 163.606 55.926 163.21Z" fill="#54BFE1"/>
<path d="M38.3328 130.905C39.1387 130.758 39.8969 130.405 40.5394 129.879C41.1819 129.352 41.6885 128.668 42.0139 127.887C42.1795 127.486 42.7536 127.806 42.589 128.204C42.2257 129.065 41.6652 129.82 40.9566 130.404C40.248 130.987 39.4127 131.381 38.5239 131.552C38.4414 131.575 38.3534 131.565 38.2779 131.523C38.2023 131.482 38.1449 131.412 38.1172 131.327C38.0923 131.242 38.101 131.149 38.1414 131.07C38.1818 130.991 38.2506 130.931 38.3328 130.905Z" fill="#54BFE1"/>
<path d="M170.319 144.238C155.526 144.238 139.449 141.952 123.481 137.555C103.734 132.118 85.6285 123.912 71.1213 113.823L71.5509 113.155C85.9883 123.195 104.014 131.364 123.679 136.778C141.45 141.671 159.354 143.938 175.45 143.34L175.478 144.143C173.778 144.207 172.058 144.238 170.319 144.238Z" fill="#67D9FD"/>
<path d="M152.152 145.444C137.358 145.444 121.282 143.158 105.314 138.761C85.5669 133.324 67.4612 125.118 52.954 115.029L53.3836 114.361C67.8209 124.401 85.8464 132.57 105.512 137.984C123.283 142.877 141.187 145.144 157.282 144.546L157.31 145.349C155.611 145.413 153.891 145.444 152.152 145.444Z" fill="#67D9FD"/>
<path d="M73.1361 100.717C71.5476 100.719 70.0247 101.376 68.9015 102.544C67.7783 103.713 67.1465 105.296 67.1447 106.948C64.8668 124.391 64.106 142.013 64.8717 159.598C64.9172 160.721 64.9676 161.748 65.0261 162.738C65.111 164.375 65.219 166.102 65.3468 167.873C65.4202 168.919 65.4976 169.967 65.5823 171.011C65.7242 172.713 65.8801 174.442 66.0461 176.15C66.1502 177.193 66.2584 178.242 66.3741 179.286C66.5962 181.338 66.8476 183.44 67.143 185.714C67.14 187.371 67.7697 188.961 68.8936 190.134C70.0175 191.308 71.5435 191.969 73.1361 191.973H173.637C175.225 191.971 176.748 191.314 177.871 190.145C178.995 188.977 179.626 187.393 179.628 185.741L179.633 185.698C180.08 183.577 180.497 181.416 180.872 179.273C181.073 178.144 181.246 177.118 181.401 176.137C181.683 174.352 181.934 172.624 182.146 171.001C182.291 169.912 182.423 168.857 182.536 167.864C182.723 166.24 182.893 164.562 183.054 162.732C183.142 161.738 183.223 160.711 183.301 159.593V159.592C184.53 141.966 183.294 124.249 179.633 106.992L179.628 106.948C179.626 105.296 178.995 103.713 177.871 102.544C176.748 101.376 175.225 100.719 173.637 100.717L73.1361 100.717Z" fill="#434369"/>
<path d="M127.288 127.393C105.512 127.393 82.4375 125.335 52.2379 121.218H52.2347C50.6691 121.216 49.1593 120.613 47.9949 119.524C46.8305 118.436 46.0934 116.939 45.9249 115.32C45.8974 115.076 45.8841 114.831 45.885 114.586V95.6921C45.8843 95.6518 45.8861 95.6114 45.8903 95.5712C45.9243 93.8352 46.6101 92.1819 47.801 90.9649C48.9919 89.7479 50.5934 89.0639 52.263 89.059C104.804 81.6294 136.721 81.6302 194.534 89.0606H194.537C196.205 89.072 197.803 89.7617 198.989 90.9823C200.176 92.203 200.856 93.8577 200.884 95.5928C200.888 95.6258 200.889 95.659 200.888 95.6921V114.586C200.889 114.832 200.876 115.078 200.848 115.322C200.677 116.945 199.935 118.445 198.765 119.533C197.595 120.622 196.08 121.222 194.51 121.219C169.532 125.335 149.059 127.393 127.288 127.393Z" fill="#E8F9FF"/>
<path d="M130.781 140.516H117.569C115.887 140.514 114.275 139.818 113.086 138.581C111.897 137.345 111.228 135.668 111.226 133.919V83.9975C111.228 82.2486 111.897 80.5719 113.086 79.3352C114.275 78.0985 115.887 77.4029 117.569 77.4009H130.781C132.463 77.4028 134.075 78.0985 135.264 79.3351C136.454 80.5718 137.122 82.2485 137.124 83.9975V133.919C137.122 135.668 136.454 137.345 135.264 138.582C134.075 139.818 132.463 140.514 130.781 140.516Z" fill="#434369"/>
<path d="M160.778 67.8484C160.683 66.9125 160.514 65.9862 160.275 65.0786C160.016 64.1692 159.688 63.2826 159.295 62.427C157.886 59.2815 155.508 56.7142 152.539 55.1311C148.854 53.2443 144.638 53.0899 140.675 53.999C137.344 54.7749 134.217 56.2979 131.51 58.4615C130.107 59.561 128.825 60.8184 127.688 62.2108C126.514 63.6759 124.33 67.7011 124.172 68.0737C122.938 65.1581 121.166 62.5222 118.957 60.3147C116.39 57.7802 113.325 55.8539 109.974 54.6683C108.192 54.044 106.342 53.653 104.467 53.5043C102.484 53.3328 100.486 53.514 98.5612 54.0402C95.1031 55.0475 92.1118 57.3215 90.1395 60.4428C88.2601 63.3437 87.3371 66.8007 87.5093 70.2941C87.6044 72.0579 87.9701 73.7945 88.5926 75.4381C88.9262 76.3278 89.3219 77.1911 89.7764 78.0209C90.2468 78.8405 90.7727 79.6242 91.3502 80.366C93.6162 83.2581 96.6685 85.3719 100.108 86.4312C103.78 87.6115 107.675 87.6501 111.452 87.0959C115.329 86.5269 119.062 85.2214 122.714 83.7917C123.201 83.601 123.686 83.4047 124.172 83.2104C127.419 84.5093 130.693 85.7622 134.092 86.5573C137.915 87.5177 141.884 87.6832 145.769 87.0443C149.39 86.4262 152.757 84.7157 155.452 82.1252C157.945 79.6847 159.69 76.533 160.468 73.0653C160.852 71.3567 160.957 69.5931 160.778 67.8484ZM110.443 83.2123C108.347 83.4915 106.227 83.5044 104.128 83.2507C102.624 83.0239 101.15 82.616 99.7363 82.0351C96.4044 80.592 93.7483 77.8493 92.3369 74.3946C91.915 73.3054 91.6146 72.1696 91.4414 71.0093C91.3304 69.9771 91.3301 68.9351 91.4405 67.9028C91.6049 66.8167 91.8866 65.7533 92.2802 64.7329C92.706 63.7404 93.2346 62.7992 93.8567 61.926C94.46 61.1447 95.1418 60.4326 95.8903 59.8017C96.5999 59.2558 97.3636 58.7904 98.1683 58.4135C99.1288 58.0233 100.128 57.7453 101.148 57.5847C102.529 57.4257 103.923 57.437 105.301 57.6184C106.941 57.8818 108.547 58.342 110.085 58.9899C111.721 59.7284 113.268 60.6661 114.692 61.7832C116.01 62.8689 117.204 64.1072 118.252 65.4743C119.289 66.9096 120.16 68.4678 120.844 70.1164C121.509 71.8364 121.976 73.6321 122.236 75.4662L122.239 75.493C122.137 76.4145 122.087 77.3413 122.087 78.2688C122.088 78.6261 122.103 78.9829 122.12 79.3396C121.957 79.5031 121.821 79.6936 121.717 79.9033C119.025 81.0019 116.265 81.9122 113.456 82.6282C112.46 82.8673 111.456 83.0619 110.443 83.2123ZM156.911 71.0092C156.738 72.1697 156.438 73.3056 156.016 74.3949C154.611 77.8544 151.953 80.5992 148.616 82.0351C147.203 82.616 145.729 83.024 144.225 83.2507C142.122 83.5049 139.998 83.4915 137.898 83.2109C134.169 82.6563 130.571 81.432 127.052 80.0658C126.908 80.0095 126.764 79.9502 126.619 79.8935C126.521 79.6869 126.391 79.4985 126.234 79.336C126.296 78.0416 126.257 76.7441 126.118 75.4561C126.378 73.6255 126.845 71.8332 127.509 70.1164C128.193 68.4679 129.063 66.9097 130.101 65.4745C131.149 64.1073 132.343 62.8689 133.661 61.7832C135.085 60.6661 136.631 59.7284 138.267 58.9899C139.806 58.342 141.411 57.8818 143.052 57.6184C144.43 57.437 145.824 57.4257 147.205 57.5847C148.225 57.7453 149.224 58.0233 150.184 58.4135C150.989 58.7905 151.753 59.2559 152.462 59.8018C153.211 60.4327 153.893 61.1448 154.496 61.9261C155.118 62.7993 155.647 63.7405 156.072 64.7329C156.466 65.7533 156.748 66.8167 156.912 67.9028C157.023 68.9351 157.022 69.977 156.911 71.0092Z" fill="#434369"/>
<path d="M83.9593 142.727C85.2401 142.727 86.2785 141.647 86.2785 140.315C86.2785 138.983 85.2401 137.903 83.9593 137.903C82.6784 137.903 81.64 138.983 81.64 140.315C81.64 141.647 82.6784 142.727 83.9593 142.727Z" fill="#E8F9FF"/>
<path d="M100.581 136.697C101.861 136.697 102.9 135.617 102.9 134.285C102.9 132.953 101.861 131.873 100.581 131.873C99.2997 131.873 98.2614 132.953 98.2614 134.285C98.2614 135.617 99.2997 136.697 100.581 136.697Z" fill="#E8F9FF"/>
<path d="M93.2362 155.591C94.5171 155.591 95.5555 154.511 95.5555 153.179C95.5555 151.847 94.5171 150.767 93.2362 150.767C91.9554 150.767 90.917 151.847 90.917 153.179C90.917 154.511 91.9554 155.591 93.2362 155.591Z" fill="#E8F9FF"/>
<path d="M162.041 142.727C163.322 142.727 164.36 141.647 164.36 140.315C164.36 138.983 163.322 137.903 162.041 137.903C160.76 137.903 159.721 138.983 159.721 140.315C159.721 141.647 160.76 142.727 162.041 142.727Z" fill="#E8F9FF"/>
<path d="M145.419 136.697C146.7 136.697 147.739 135.617 147.739 134.285C147.739 132.953 146.7 131.873 145.419 131.873C144.138 131.873 143.1 132.953 143.1 134.285C143.1 135.617 144.138 136.697 145.419 136.697Z" fill="#E8F9FF"/>
<path d="M152.764 155.591C154.044 155.591 155.083 154.511 155.083 153.179C155.083 151.847 154.044 150.767 152.764 150.767C151.483 150.767 150.444 151.847 150.444 153.179C150.444 154.511 151.483 155.591 152.764 155.591Z" fill="#E8F9FF"/>
<path d="M163.973 184.937C165.254 184.937 166.293 183.857 166.293 182.525C166.293 181.193 165.254 180.113 163.973 180.113C162.692 180.113 161.654 181.193 161.654 182.525C161.654 183.857 162.692 184.937 163.973 184.937Z" fill="#E8F9FF"/>
<path d="M169.771 167.651C171.052 167.651 172.091 166.571 172.091 165.239C172.091 163.907 171.052 162.827 169.771 162.827C168.491 162.827 167.452 163.907 167.452 165.239C167.452 166.571 168.491 167.651 169.771 167.651Z" fill="#E8F9FF"/>
<path d="M151.604 175.289C152.885 175.289 153.923 174.209 153.923 172.877C153.923 171.545 152.885 170.465 151.604 170.465C150.323 170.465 149.285 171.545 149.285 172.877C149.285 174.209 150.323 175.289 151.604 175.289Z" fill="#E8F9FF"/>
<path d="M97.4882 184.937C98.7691 184.937 99.8074 183.857 99.8074 182.525C99.8074 181.193 98.7691 180.113 97.4882 180.113C96.2073 180.113 95.1689 181.193 95.1689 182.525C95.1689 183.857 96.2073 184.937 97.4882 184.937Z" fill="#E8F9FF"/>
<path d="M103.286 167.651C104.567 167.651 105.606 166.571 105.606 165.239C105.606 163.907 104.567 162.827 103.286 162.827C102.006 162.827 100.967 163.907 100.967 165.239C100.967 166.571 102.006 167.651 103.286 167.651Z" fill="#E8F9FF"/>
<path d="M85.1189 175.289C86.3998 175.289 87.4382 174.209 87.4382 172.877C87.4382 171.545 86.3998 170.465 85.1189 170.465C83.838 170.465 82.7997 171.545 82.7997 172.877C82.7997 174.209 83.838 175.289 85.1189 175.289Z" fill="#E8F9FF"/>
<path d="M151.756 14.5834C152.634 14.9647 153.592 15.1043 154.537 14.9888C155.483 14.8733 156.383 14.5066 157.153 13.9241C159.114 12.4027 159.849 9.74703 160.465 7.2847L162.284 0L159.212 1.94018C157.002 3.33519 154.741 4.77641 153.146 6.89426C151.551 9.01211 150.744 11.9799 151.795 14.4376" fill="#405C99"/>
<path d="M69.5748 76.8092C70.1679 76.0352 70.5593 75.1153 70.7114 74.1383C70.8635 73.1613 70.771 72.16 70.443 71.2309C69.5733 68.8524 67.3188 67.3896 65.2104 66.0992L58.972 62.2843L59.9247 65.8891C60.6095 68.4815 61.3232 71.1373 62.8448 73.3128C64.3664 75.4883 66.89 77.1083 69.4506 76.73" fill="#405C99"/>
<path d="M216.074 188.969C216.667 188.195 217.058 187.275 217.211 186.298C217.363 185.321 217.27 184.32 216.942 183.391C216.072 181.012 213.818 179.549 211.71 178.259L205.471 174.444L206.424 178.049C207.109 180.641 207.822 183.297 209.344 185.472C210.866 187.648 213.389 189.268 215.95 188.89" fill="#405C99"/>
<path d="M98.2613 46.6475C99.9691 46.6475 101.354 45.2077 101.354 43.4315C101.354 41.6553 99.9691 40.2155 98.2613 40.2155C96.5534 40.2155 95.1689 41.6553 95.1689 43.4315C95.1689 45.2077 96.5534 46.6475 98.2613 46.6475Z" fill="#405C99"/>
<path d="M15.928 141.521C17.6359 141.521 19.0204 140.081 19.0204 138.305C19.0204 136.529 17.6359 135.089 15.928 135.089C14.2202 135.089 12.8357 136.529 12.8357 138.305C12.8357 140.081 14.2202 141.521 15.928 141.521Z" fill="#405C99"/>
<path d="M228.933 115.958C230.866 115.958 232.433 114.391 232.433 112.458C232.433 110.525 230.866 108.958 228.933 108.958C227 108.958 225.433 110.525 225.433 112.458C225.433 114.391 227 115.958 228.933 115.958Z" fill="#F7807C"/>
<path d="M12.8357 60.7176C14.5436 60.7176 15.9281 59.2777 15.9281 57.5016C15.9281 55.7254 14.5436 54.2855 12.8357 54.2855C11.1279 54.2855 9.74341 55.7254 9.74341 57.5016C9.74341 59.2777 11.1279 60.7176 12.8357 60.7176Z" fill="#405C99"/>
<path d="M204.174 152.375C205.881 152.375 207.266 150.935 207.266 149.159C207.266 147.383 205.881 145.943 204.174 145.943C202.466 145.943 201.081 147.383 201.081 149.159C201.081 150.935 202.466 152.375 204.174 152.375Z" fill="#405C99"/>
<path d="M210.358 54.6876C212.066 54.6876 213.451 53.2477 213.451 51.4715C213.451 49.6954 212.066 48.2555 210.358 48.2555C208.65 48.2555 207.266 49.6954 207.266 51.4715C207.266 53.2477 208.65 54.6876 210.358 54.6876Z" fill="#405C99"/>
<path d="M74.7701 105.837C74.5028 106.277 73.8546 106.213 73.4907 105.938C72.9854 105.557 73.149 104.821 73.4969 104.387C74.6027 103.007 76.4315 104.464 76.6782 105.835C76.7699 106.504 76.6709 107.185 76.3935 107.796C76.1161 108.406 75.6725 108.919 75.1177 109.27C73.8561 110.047 72.2174 109.657 71.1327 108.727C68.87 106.785 69.486 102.899 71.9993 101.494C73.6033 100.598 75.631 100.991 77.2111 101.742C78.9897 102.587 80.5192 103.883 82.164 104.962C85.773 107.312 89.8555 108.762 94.0925 109.199C94.8342 109.277 94.8289 108.071 94.0925 107.993C91.7445 107.74 89.4395 107.163 87.2384 106.276C85.0606 105.358 82.9936 104.178 81.0795 102.761C79.1428 101.38 77.1195 100.039 74.7228 99.8107C73.7556 99.6932 72.7758 99.8442 71.8829 100.248C70.99 100.652 70.2159 101.295 69.6393 102.111C69.1264 102.841 68.7831 103.685 68.6363 104.577C68.4895 105.468 68.5431 106.383 68.793 107.249C69.0942 108.154 69.6207 108.961 70.3191 109.586C71.0174 110.212 71.8626 110.633 72.7686 110.809C73.6407 110.98 74.5426 110.864 75.3483 110.477C76.1541 110.09 76.8236 109.451 77.2634 108.649C78.1456 107.062 78.1169 104.931 76.7845 103.615C76.4025 103.211 75.9244 102.92 75.3989 102.772C74.8734 102.623 74.3193 102.622 73.7934 102.769C73.3088 102.939 72.8824 103.253 72.5664 103.671C72.2504 104.089 72.0585 104.594 72.0141 105.124C71.8855 107.184 74.6968 108.214 75.7713 106.446C76.1713 105.788 75.1682 105.182 74.77 105.837L74.7701 105.837Z" fill="#F6807C"/>
<path d="M173.936 105.837C174.203 106.277 174.851 106.213 175.215 105.938C175.72 105.557 175.557 104.821 175.209 104.387C174.103 103.007 172.274 104.464 172.028 105.835C171.936 106.504 172.035 107.185 172.312 107.796C172.59 108.406 173.033 108.919 173.588 109.27C174.85 110.047 176.488 109.657 177.573 108.727C179.836 106.785 179.22 102.899 176.706 101.494C175.102 100.598 173.075 100.991 171.495 101.742C169.716 102.587 168.187 103.883 166.542 104.962C162.933 107.312 158.85 108.762 154.613 109.199C153.872 109.277 153.877 108.071 154.613 107.993C156.961 107.74 159.266 107.163 161.467 106.276C163.645 105.358 165.712 104.178 167.626 102.761C169.563 101.38 171.586 100.039 173.983 99.8107C174.95 99.6932 175.93 99.8442 176.823 100.248C177.716 100.652 178.49 101.295 179.066 102.111C179.579 102.841 179.923 103.685 180.069 104.577C180.216 105.468 180.163 106.383 179.913 107.249C179.612 108.154 179.085 108.961 178.387 109.586C177.688 110.212 176.843 110.633 175.937 110.809C175.065 110.98 174.163 110.864 173.357 110.477C172.552 110.09 171.882 109.451 171.442 108.649C170.56 107.062 170.589 104.931 171.921 103.615C172.303 103.211 172.781 102.92 173.307 102.772C173.832 102.623 174.386 102.622 174.912 102.769C175.397 102.939 175.823 103.253 176.139 103.671C176.455 104.089 176.647 104.594 176.692 105.124C176.82 107.184 174.009 108.214 172.934 106.446C172.534 105.788 173.538 105.182 173.936 105.837L173.936 105.837Z" fill="#F6807C"/>
<path d="M34.4155 14.618L32.8837 16.6166L27.4667 13.284L28.9981 11.2854L34.4155 14.618Z" fill="#405C99"/>
<path d="M40.0678 23.205L41.4205 25.3047L35.7297 28.2485L34.377 26.1492L40.0678 23.205Z" fill="#405C99"/>
<path d="M45.9588 14.0768L48.6622 14.1764L48.393 20.0592L45.6893 19.96L45.9588 14.0768Z" fill="#405C99"/>
<path d="M225.753 137.632L224.222 139.63L218.804 136.298L220.336 134.299L225.753 137.632Z" fill="#405C99"/>
<path d="M231.406 146.219L232.758 148.318L227.068 151.262L225.715 149.162L231.406 146.219Z" fill="#405C99"/>
<path d="M237.297 137.091L240 137.19L239.731 143.073L237.027 142.974L237.297 137.091Z" fill="#405C99"/>
</g>
<defs>
<clipPath id="clip0_283_8473">
<rect width="240" height="192" fill="white"/>
</clipPath>
</defs>
</svg>
