<svg width="240" height="214" viewBox="0 0 240 214" fill="none" xmlns="http://www.w3.org/2000/svg">
<path d="M55.9034 121.956C43.7286 109.606 38.5865 96.7226 41.424 85.6784C45.0654 71.5056 61.2424 61.7062 85.807 58.7931L85.8977 59.6061C61.6751 62.4785 45.7449 72.0579 42.1917 85.8877C39.4302 96.6359 44.4976 109.238 56.4605 121.373L55.9034 121.956Z" fill="white" fill-opacity="0.15"/>
<path d="M208.229 160.648L207.974 159.873C221.564 155.138 230.064 147.511 232.555 137.816C235.721 125.492 228.842 111.19 213.184 97.5446C197.447 83.8304 174.753 72.4511 149.282 65.5032L149.485 64.7122C175.067 71.6906 197.872 83.1289 213.697 96.92C229.602 110.78 236.572 125.379 233.323 138.026C230.76 147.999 222.083 155.821 208.229 160.648Z" fill="white" fill-opacity="0.15"/>
<path d="M83.4428 166.135C53.5858 152.49 30.5786 134.788 18.6599 116.289L19.3214 115.837C31.1577 134.208 54.044 151.805 83.7646 165.387L83.4428 166.135Z" fill="white" fill-opacity="0.15"/>
<path d="M188.418 189.773C185.338 189.773 182.206 189.702 179.021 189.56L179.055 188.743C202.822 189.803 223.793 186.872 239.703 180.266L240 181.025C226.121 186.787 208.431 189.773 188.418 189.773Z" fill="white" fill-opacity="0.15"/>
<path d="M171.094 59.5267C166.159 57.8712 161.083 56.3297 156.008 54.9451C126.797 46.977 98.0835 44.148 72.9689 46.7653L72.889 45.9511C98.0972 43.3252 126.909 46.1611 156.211 54.1541C161.301 55.5427 166.391 57.0886 171.34 58.7489L171.094 59.5267Z" fill="white" fill-opacity="0.15"/>
<path d="M37.2434 123.183C25.0686 110.833 19.9266 97.9497 22.764 86.9056C26.4055 72.7327 42.5824 62.9334 67.147 60.0203L67.2377 60.8332C43.0151 63.7056 27.0849 73.2851 23.5317 87.1149C20.7702 97.8631 25.8376 110.465 37.8006 122.6L37.2434 123.183Z" fill="white" fill-opacity="0.15"/>
<path d="M189.569 161.875L189.314 161.1C202.904 156.365 211.404 148.739 213.895 139.044C217.061 126.719 210.182 112.417 194.524 98.772C178.787 85.0578 156.093 73.6785 130.622 66.7306L130.825 65.9396C156.407 72.918 179.212 84.3563 195.037 98.1474C210.942 112.008 217.912 126.606 214.663 139.253C212.1 149.226 203.423 157.049 189.569 161.875Z" fill="white" fill-opacity="0.15"/>
<path d="M64.7829 167.362C34.9258 153.717 11.9187 136.015 0 117.516L0.661443 117.064C12.4978 135.435 35.3841 153.032 65.1047 166.614L64.7829 167.362Z" fill="white" fill-opacity="0.15"/>
<path d="M169.758 191C166.678 191 163.546 190.929 160.361 190.787L160.395 189.97C184.163 191.03 205.133 188.1 221.043 181.493L221.34 182.252C207.461 188.015 189.771 191 169.758 191Z" fill="white" fill-opacity="0.15"/>
<path d="M152.435 60.754C147.5 59.0985 142.424 57.557 137.348 56.1724C108.138 48.2043 79.4239 45.3753 54.3094 47.9926L54.2295 47.1784C79.4377 44.5525 108.25 47.3884 137.551 55.3814C142.641 56.77 147.732 58.3159 152.68 59.9762L152.435 60.754Z" fill="white" fill-opacity="0.15"/>
<path d="M212.93 42.6526H121.298C120.905 42.6531 120.516 42.5758 120.153 42.4251C119.79 42.2744 119.46 42.0533 119.182 41.7743C118.904 41.4954 118.684 41.1642 118.533 40.7995C118.383 40.4349 118.305 40.044 118.305 39.6493C118.305 39.2546 118.383 38.8637 118.533 38.4991C118.684 38.1344 118.904 37.8032 119.182 37.5243C119.46 37.2453 119.79 37.0242 120.153 36.8735C120.516 36.7228 120.905 36.6455 121.298 36.646H212.93C213.323 36.6455 213.712 36.7228 214.075 36.8735C214.438 37.0242 214.768 37.2453 215.046 37.5243C215.324 37.8032 215.544 38.1344 215.695 38.4991C215.845 38.8637 215.923 39.2546 215.923 39.6493C215.923 40.044 215.845 40.4349 215.695 40.7995C215.544 41.1642 215.324 41.4954 215.046 41.7743C214.768 42.0533 214.438 42.2744 214.075 42.4251C213.712 42.5758 213.323 42.6531 212.93 42.6526Z" fill="#434369"/>
<path d="M212.93 54.5202H121.297C120.506 54.5192 119.746 54.2023 119.187 53.6392C118.627 53.076 118.313 52.3127 118.313 51.5168C118.313 50.7209 118.627 49.9575 119.187 49.3944C119.746 48.8312 120.506 48.5143 121.297 48.5133H212.93C213.722 48.5143 214.481 48.8312 215.041 49.3944C215.6 49.9575 215.915 50.7209 215.915 51.5168C215.915 52.3127 215.6 53.076 215.041 53.6392C214.481 54.2023 213.722 54.5192 212.93 54.5202Z" fill="#434369"/>
<path d="M160.705 66.3879H120.985C120.193 66.3869 119.434 66.07 118.874 65.5068C118.314 64.9437 118 64.1803 118 63.3844C118 62.5885 118.314 61.8252 118.874 61.262C119.434 60.6989 120.193 60.382 120.985 60.381H160.705C161.098 60.3805 161.487 60.4578 161.85 60.6085C162.213 60.7592 162.543 60.9803 162.821 61.2593C163.099 61.5382 163.319 61.8695 163.47 62.2342C163.62 62.5988 163.698 62.9897 163.698 63.3844C163.698 63.7792 163.62 64.1701 163.47 64.5347C163.319 64.8994 163.099 65.2306 162.821 65.5096C162.543 65.7885 162.213 66.0097 161.85 66.1604C161.487 66.3111 161.098 66.3884 160.705 66.3879Z" fill="#434369"/>
<path d="M212.93 110.144H121.298C120.505 110.144 119.745 109.828 119.184 109.265C118.624 108.701 118.309 107.938 118.309 107.141C118.309 106.344 118.624 105.581 119.184 105.017C119.745 104.454 120.505 104.138 121.298 104.138H212.93C213.723 104.138 214.483 104.454 215.043 105.017C215.604 105.581 215.919 106.344 215.919 107.141C215.919 107.938 215.604 108.701 215.043 109.265C214.483 109.828 213.723 110.144 212.93 110.144Z" fill="#E8F9FF"/>
<path d="M212.93 122.012H121.298C120.505 122.012 119.745 121.695 119.184 121.132C118.624 120.569 118.309 119.805 118.309 119.008C118.309 118.212 118.624 117.448 119.184 116.885C119.745 116.321 120.505 116.005 121.298 116.005H212.93C213.723 116.005 214.483 116.321 215.043 116.885C215.604 117.448 215.919 118.212 215.919 119.008C215.919 119.805 215.604 120.569 215.043 121.132C214.483 121.695 213.723 122.012 212.93 122.012Z" fill="#E8F9FF"/>
<path d="M161.018 133.879H121.298C120.505 133.879 119.745 133.563 119.184 133C118.624 132.437 118.309 131.673 118.309 130.876C118.309 130.079 118.624 129.316 119.184 128.752C119.745 128.189 120.505 127.873 121.298 127.873H161.018C161.411 127.872 161.8 127.949 162.163 128.1C162.526 128.251 162.856 128.472 163.134 128.751C163.412 129.03 163.632 129.361 163.783 129.726C163.933 130.09 164.011 130.481 164.011 130.876C164.011 131.271 163.933 131.662 163.783 132.026C163.632 132.391 163.412 132.722 163.134 133.001C162.856 133.28 162.526 133.501 162.163 133.652C161.8 133.803 161.411 133.88 161.018 133.879Z" fill="#E8F9FF"/>
<path d="M212.93 181.347H121.298C120.905 181.347 120.517 181.269 120.154 181.118C119.791 180.968 119.462 180.746 119.184 180.467C118.907 180.189 118.687 179.857 118.537 179.493C118.387 179.129 118.309 178.738 118.309 178.344C118.309 177.949 118.387 177.559 118.537 177.194C118.687 176.83 118.907 176.499 119.184 176.22C119.462 175.941 119.791 175.72 120.154 175.569C120.517 175.418 120.905 175.34 121.298 175.34H212.93C213.323 175.34 213.711 175.418 214.074 175.569C214.436 175.72 214.766 175.941 215.043 176.22C215.321 176.499 215.541 176.83 215.691 177.194C215.841 177.559 215.919 177.949 215.919 178.344C215.919 178.738 215.841 179.129 215.691 179.493C215.541 179.857 215.321 180.189 215.043 180.467C214.766 180.746 214.436 180.968 214.074 181.118C213.711 181.269 213.323 181.347 212.93 181.347Z" fill="#E8F9FF"/>
<path d="M212.93 193.214H121.297C120.506 193.213 119.746 192.897 119.187 192.333C118.627 191.77 118.313 191.007 118.313 190.211C118.313 189.415 118.627 188.652 119.187 188.089C119.746 187.525 120.506 187.209 121.297 187.208H212.93C213.722 187.209 214.481 187.525 215.041 188.089C215.6 188.652 215.915 189.415 215.915 190.211C215.915 191.007 215.6 191.77 215.041 192.333C214.481 192.897 213.722 193.213 212.93 193.214Z" fill="#E8F9FF"/>
<path d="M161.018 205.082H121.298C120.505 205.082 119.745 204.766 119.184 204.202C118.624 203.639 118.309 202.875 118.309 202.079C118.309 201.282 118.624 200.518 119.184 199.955C119.745 199.392 120.505 199.075 121.298 199.075H161.018C161.411 199.075 161.8 199.152 162.163 199.303C162.526 199.453 162.856 199.675 163.134 199.954C163.412 200.232 163.632 200.564 163.783 200.928C163.933 201.293 164.011 201.684 164.011 202.079C164.011 202.473 163.933 202.864 163.783 203.229C163.632 203.594 163.412 203.925 163.134 204.204C162.856 204.483 162.526 204.704 162.163 204.855C161.8 205.005 161.411 205.083 161.018 205.082Z" fill="#E8F9FF"/>
<path d="M84.7411 142.797H29.5763C28.0979 142.796 26.6805 142.205 25.6351 141.154C24.5897 140.104 24.0017 138.679 24 137.193V100.824C24.0017 99.3383 24.5897 97.9138 25.6351 96.8632C26.6805 95.8126 28.0979 95.2217 29.5763 95.22H84.7411C86.2195 95.2217 87.6369 95.8126 88.6823 96.8632C89.7277 97.9138 90.3157 99.3383 90.3174 100.824V137.193C90.3157 138.679 89.7277 140.104 88.6823 141.154C87.6369 142.205 86.2195 142.796 84.7411 142.797Z" fill="#E8F9FF"/>
<path d="M80.8641 99.7645H33.4548C32.1086 99.7658 30.8179 100.304 29.8658 101.26C28.9136 102.216 28.3778 103.513 28.3759 104.866V133.15C28.3777 134.503 28.9135 135.8 29.8655 136.757C30.8176 137.714 32.1084 138.252 33.4548 138.254H63.6861C69.5865 138.248 75.2436 135.89 79.4159 131.697C83.5881 127.504 85.9347 121.819 85.9405 115.889V104.866C85.9391 103.514 85.4038 102.217 84.4521 101.26C83.5004 100.304 82.21 99.7659 80.8641 99.7645Z" fill="#434369"/>
<path d="M67.4661 109.326L67.3244 109.583C68.5856 106.46 67.4388 102.611 65.189 100.255C62.9393 97.9 59.8117 96.8232 56.732 96.396C54.4458 96.0789 52.0728 96.0881 49.899 96.9297C46.751 98.1484 44.3459 100.97 42.3379 103.905C41.4193 105.247 40.5162 106.777 40.6077 108.455C40.6927 110.012 41.6123 111.333 42.3654 112.654C43.1187 113.975 43.7476 115.614 43.207 117.056C42.8849 117.915 42.2042 118.534 41.6518 119.237C41.0995 119.94 40.6451 120.89 40.9119 121.772C41.0303 122.109 41.2339 122.41 41.5026 122.645C41.7713 122.879 42.096 123.04 42.445 123.111C43.1208 123.224 43.812 123.208 44.4817 123.062L62.0358 120.397C63.2286 120.216 64.3602 119.747 65.334 119.032C66.3078 118.316 67.0949 117.375 67.6283 116.287C68.1617 115.2 68.4256 113.999 68.3973 112.787C68.3691 111.575 68.0496 110.388 67.4661 109.326Z" fill="#405C99"/>
<path d="M54.4092 120.274C59.1492 120.274 62.9917 116.412 62.9917 111.649C62.9917 106.885 59.1492 103.023 54.4092 103.023C49.6692 103.023 45.8267 106.885 45.8267 111.649C45.8267 116.412 49.6692 120.274 54.4092 120.274Z" fill="#F5B5B3"/>
<path d="M76.8052 133.944C73.0013 136.749 68.4046 138.26 63.6863 138.254H37.35C37.297 138.211 37.2465 138.168 37.1935 138.122L39.6497 131.234C40.2047 130.011 41.0806 128.963 42.1835 128.202C43.2864 127.44 44.5746 126.995 45.91 126.914L47.4726 126.818L51.1984 123.588C51.1984 123.588 61.2377 123.228 61.0887 123.056L67.1698 126.731L67.1648 126.706L69.5553 126.853C70.8908 126.934 72.1792 127.379 73.2821 128.14C74.385 128.901 75.2609 129.95 75.8156 131.174L76.8052 133.944Z" fill="#67D9FD"/>
<path d="M62.5498 103.644C62.3283 102.466 61.1329 101.927 60.1088 101.666C57.1381 100.904 54.0478 100.734 51.012 101.164C48.799 101.481 46.5334 102.18 44.9277 103.916C43.6329 105.378 42.8992 107.256 42.8585 109.213C42.7931 110.383 43.0532 111.548 43.6097 112.577C43.8586 113.057 44.2273 113.463 44.6795 113.756C45.1317 114.049 45.652 114.218 46.1892 114.248L46.2922 114.608C50.6012 114.005 54.6039 111.31 57.1248 107.316C56.6517 109.014 55.7101 110.542 54.409 111.725C57.3181 110.555 59.8469 108.597 61.7137 106.068C62.2234 105.388 62.7183 104.54 62.5498 103.644Z" fill="#405C99"/>
<path d="M84.7411 75.3057H29.5763C28.0979 75.304 26.6805 74.713 25.6351 73.6624C24.5897 72.6118 24.0017 71.1874 24 69.7016V33.3322C24.0017 31.8464 24.5897 30.422 25.6351 29.3714C26.6805 28.3208 28.0979 27.7298 29.5763 27.7281H84.7411C86.2195 27.7298 87.6369 28.3208 88.6823 29.3714C89.7277 30.422 90.3157 31.8464 90.3174 33.3322V69.7016C90.3157 71.1874 89.7277 72.6118 88.6823 73.6624C87.6369 74.713 86.2195 75.304 84.7411 75.3057Z" fill="#E8F9FF"/>
<path d="M80.8641 32.2728H33.4548C32.1087 32.2745 30.8182 32.8124 29.8661 33.7687C28.9141 34.725 28.3781 36.0217 28.3759 37.3745V65.6582C28.3777 67.0113 28.9135 68.3085 29.8655 69.2653C30.8176 70.2221 32.1084 70.7605 33.4548 70.7624H63.6861C69.5869 70.7576 75.2446 68.3997 79.417 64.2065C83.5895 60.0132 85.9357 54.3274 85.9405 48.3972V37.3745C85.9391 36.0219 85.4038 34.7251 84.4521 33.7686C83.5004 32.8122 82.21 32.2742 80.8641 32.2728Z" fill="#F6807C"/>
<path d="M45.7645 37.7597C47.9973 37.7597 49.8074 35.9406 49.8074 33.6967C49.8074 31.4527 47.9973 29.6337 45.7645 29.6337C43.5316 29.6337 41.7216 31.4527 41.7216 33.6967C41.7216 35.9406 43.5316 37.7597 45.7645 37.7597Z" fill="#405C99"/>
<path d="M52.2331 53.1993C57.8896 53.1993 62.4752 48.5909 62.4752 42.9063C62.4752 37.2216 57.8896 32.6133 52.2331 32.6133C46.5766 32.6133 41.9911 37.2216 41.9911 42.9063C41.9911 48.5909 46.5766 53.1993 52.2331 53.1993Z" fill="#405C99"/>
<path d="M53.0806 53.1967C57.6772 53.1967 61.4034 49.4519 61.4034 44.8325C61.4034 40.2131 57.6772 36.4683 53.0806 36.4683C48.4841 36.4683 44.7578 40.2131 44.7578 44.8325C44.7578 49.4519 48.4841 53.1967 53.0806 53.1967Z" fill="#F5B5B3"/>
<path d="M58.7327 36.3063C57.2743 35.4128 55.6038 34.9295 53.8959 34.9068C52.188 34.8842 50.5054 35.3231 49.024 36.1777C47.5427 37.0323 46.317 38.2711 45.4751 39.7647C44.6333 41.2583 44.2061 42.9517 44.2384 44.668C48.4793 45.738 52.9346 46.5569 57.4572 44.9239L58.5253 42.2969L59.1549 44.9259C60.5322 45.4916 61.9131 45.9703 63.294 44.9204C63.3503 43.209 62.9587 41.5127 62.1583 40.001C61.3579 38.4894 60.1767 37.2154 58.7327 36.3063Z" fill="#405C99"/>
<path d="M42.0003 22.6671C40.5809 22.0583 39.0202 21.8607 37.4949 22.0969C35.9695 22.333 34.5404 22.9934 33.3691 24.0034C32.2236 25.0421 31.3515 26.3495 30.8307 27.8091C30.3099 29.2687 30.1564 30.835 30.384 32.3686C30.8424 35.4879 32.7294 38.174 34.4687 40.7983C36.208 43.4225 37.9072 46.2981 37.9053 49.4512C37.9039 51.7222 37.0064 53.9 35.4096 55.507C33.8128 57.1139 31.647 58.0189 29.3872 58.0234C32.0394 59.1708 34.8077 60.3408 37.6921 60.2048C40.5765 60.0688 43.5997 58.2053 44.0702 55.3421C44.4093 53.2791 43.4021 51.2674 42.5621 49.3545C41.1939 46.2373 40.205 42.9657 39.6167 39.6105C39.3362 38.0091 39.1535 36.3256 39.673 34.7857C40.0867 33.6446 40.8543 32.6673 41.8626 31.9979C42.871 31.3285 44.0667 31.0024 45.2734 31.0678L46.2265 30.2061C46.3897 28.6639 46.0703 27.1088 45.3128 25.7575C44.5553 24.4063 43.3974 23.326 42.0003 22.6671Z" fill="#405C99"/>
<path d="M75.0963 67.5912C71.6508 69.6716 67.7058 70.768 63.6863 70.7623H35.1564L35.111 70.7242L37.5671 63.8341C38.1223 62.611 38.9983 61.563 40.1012 60.8023C41.2041 60.0416 42.4922 59.5971 43.8275 59.5163L45.39 59.4199L49.1159 56.1904C49.1159 56.1904 59.1551 55.8277 59.0062 55.6552L65.0873 59.3311L65.0822 59.3083L67.4728 59.4554C68.8082 59.5353 70.0967 59.9796 71.1998 60.7403C72.3028 61.5011 73.1787 62.5496 73.7331 63.7732L75.0963 67.5912Z" fill="#67D9FD"/>
<path d="M84.7411 214H29.5763C28.0979 213.998 26.6805 213.407 25.6351 212.357C24.5897 211.306 24.0017 209.882 24 208.396V172.027C24.0017 170.541 24.5897 169.116 25.6351 168.066C26.6805 167.015 28.0979 166.424 29.5763 166.422H84.7411C86.2195 166.424 87.6369 167.015 88.6823 168.066C89.7277 169.116 90.3157 170.541 90.3174 172.027V208.396C90.3157 209.882 89.7277 211.306 88.6823 212.357C87.6369 213.407 86.2195 213.998 84.7411 214Z" fill="#E8F9FF"/>
<path d="M80.8641 170.967H33.4548C32.1086 170.968 30.8179 171.506 29.8658 172.463C28.9136 173.419 28.3778 174.716 28.3759 176.069V204.352C28.3777 205.706 28.9135 207.003 29.8655 207.96C30.8176 208.916 32.1084 209.455 33.4548 209.457H63.6861C69.5865 209.451 75.2436 207.093 79.4159 202.9C83.5881 198.706 85.9347 193.021 85.9406 187.091V176.069C85.9392 174.716 85.4038 173.419 84.4521 172.463C83.5004 171.506 82.21 170.968 80.8641 170.967Z" fill="#434369"/>
<path d="M57.1176 188.96C63.4242 188.96 68.5367 183.822 68.5367 177.484C68.5367 171.146 63.4242 166.008 57.1176 166.008C50.811 166.008 45.6985 171.146 45.6985 177.484C45.6985 183.822 50.811 188.96 57.1176 188.96Z" fill="#405C99"/>
<path d="M57.1222 190.467C62.7561 190.467 67.3233 185.877 67.3233 180.215C67.3233 174.553 62.7561 169.964 57.1222 169.964C51.4882 169.964 46.921 174.553 46.921 180.215C46.921 185.877 51.4882 190.467 57.1222 190.467Z" fill="#F5B5B3"/>
<path d="M77.527 204.594C73.5964 207.747 68.7153 209.462 63.6861 209.457H38.246L40.6592 202.691C41.2143 201.468 42.0902 200.419 43.1931 199.658C44.296 198.897 45.5842 198.452 46.9196 198.371L48.4821 198.274L52.208 195.045C52.208 195.045 62.2473 194.684 62.0983 194.512L68.1794 198.188L68.1743 198.163L70.5649 198.31C71.9004 198.391 73.1888 198.836 74.2917 199.597C75.3946 200.358 76.2705 201.406 76.8252 202.63L77.527 204.594Z" fill="#67D9FD"/>
<path d="M67.8846 176.62C67.9561 175.855 67.9889 175.086 67.9828 174.317C68.0245 172.797 67.7473 171.285 67.1693 169.879C66.4583 168.323 65.1908 167.092 63.6185 166.432C62.0601 165.8 60.3183 165.802 58.761 166.436C57.3909 165.488 55.8031 164.907 54.1475 164.748C53.3181 164.681 52.485 164.817 51.7191 165.143C50.9531 165.47 50.2772 165.978 49.7488 166.624C49.5224 166.98 49.2653 167.316 48.9803 167.627C48.1653 168.386 46.9268 168.276 45.8435 168.121C46.3294 168.54 46.8154 168.958 47.3015 169.377C46.7133 169.531 46.1251 169.686 45.5369 169.84C46.2233 170.258 46.9096 170.677 47.5959 171.095C45.6034 172.297 44.6977 174.92 44.937 177.303C45.1633 179.558 46.2469 181.621 47.5424 183.455C48.0591 182.359 47.9478 181.047 47.9392 179.813C47.9345 179.413 47.9588 179.012 48.0119 178.616C52.3898 179.67 56.9641 180.347 61.603 178.672L62.5339 176.382C62.6646 176.396 62.7953 176.409 62.9259 176.423L63.4652 178.674C64.688 179.177 65.9133 179.616 67.1391 179.154C67.1988 179.502 67.2347 179.857 67.2623 180.198C67.3675 179.79 67.4588 179.379 67.5411 178.966C67.7031 178.879 67.8582 178.779 68.0052 178.668C68.0348 177.983 67.9944 177.297 67.8846 176.62Z" fill="#405C99"/>
<path d="M190.353 67.2053C192.243 67.2053 193.775 65.6657 193.775 63.7664C193.775 61.8672 192.243 60.3275 190.353 60.3275C188.464 60.3275 186.932 61.8672 186.932 63.7664C186.932 65.6657 188.464 67.2053 190.353 67.2053Z" fill="#434369"/>
<path d="M201.466 67.2053C203.356 67.2053 204.888 65.6657 204.888 63.7664C204.888 61.8672 203.356 60.3275 201.466 60.3275C199.576 60.3275 198.044 61.8672 198.044 63.7664C198.044 65.6657 199.576 67.2053 201.466 67.2053Z" fill="#434369"/>
<path d="M212.578 67.2053C214.468 67.2053 216 65.6657 216 63.7664C216 61.8672 214.468 60.3275 212.578 60.3275C210.688 60.3275 209.156 61.8672 209.156 63.7664C209.156 65.6657 210.688 67.2053 212.578 67.2053Z" fill="#434369"/>
<path d="M190.353 134.211C192.243 134.211 193.775 132.671 193.775 130.772C193.775 128.873 192.243 127.333 190.353 127.333C188.464 127.333 186.932 128.873 186.932 130.772C186.932 132.671 188.464 134.211 190.353 134.211Z" fill="#E8F9FF"/>
<path d="M201.466 134.211C203.356 134.211 204.888 132.671 204.888 130.772C204.888 128.873 203.356 127.333 201.466 127.333C199.576 127.333 198.044 128.873 198.044 130.772C198.044 132.671 199.576 134.211 201.466 134.211Z" fill="#E8F9FF"/>
<path d="M212.578 134.211C214.468 134.211 216 132.671 216 130.772C216 128.873 214.468 127.333 212.578 127.333C210.688 127.333 209.156 128.873 209.156 130.772C209.156 132.671 210.688 134.211 212.578 134.211Z" fill="#E8F9FF"/>
<path d="M190.353 205.54C192.243 205.54 193.775 204 193.775 202.101C193.775 200.201 192.243 198.662 190.353 198.662C188.464 198.662 186.932 200.201 186.932 202.101C186.932 204 188.464 205.54 190.353 205.54Z" fill="#E8F9FF"/>
<path d="M201.466 205.54C203.356 205.54 204.888 204 204.888 202.101C204.888 200.201 203.356 198.662 201.466 198.662C199.576 198.662 198.044 200.201 198.044 202.101C198.044 204 199.576 205.54 201.466 205.54Z" fill="#E8F9FF"/>
<path d="M212.578 205.54C214.468 205.54 216 204 216 202.101C216 200.201 214.468 198.662 212.578 198.662C210.688 198.662 209.156 200.201 209.156 202.101C209.156 204 210.688 205.54 212.578 205.54Z" fill="#F6807C"/>
<path d="M105.717 90.4363C107.77 90.4363 109.434 88.7717 109.434 86.7182C109.434 84.6647 107.77 83 105.717 83C103.664 83 102 84.6647 102 86.7182C102 88.7717 103.664 90.4363 105.717 90.4363Z" fill="#405C99"/>
<path d="M230.717 168.436C232.77 168.436 234.434 166.772 234.434 164.718C234.434 162.665 232.77 161 230.717 161C228.664 161 227 162.665 227 164.718C227 166.772 228.664 168.436 230.717 168.436Z" fill="#405C99"/>
<path d="M113.949 149.333L112.417 151.331L107 147.999L108.531 146L113.949 149.333Z" fill="#405C99"/>
<path d="M119.601 157.92L120.954 160.019L115.263 162.963L113.91 160.864L119.601 157.92Z" fill="#405C99"/>
<path d="M125.492 148.791L128.195 148.891L127.926 154.774L125.223 154.675L125.492 148.791Z" fill="#405C99"/>
<path d="M96.9489 13.3326L95.4171 15.3312L90 11.9986L91.5314 10L96.9489 13.3326Z" fill="#405C99"/>
<path d="M108.492 12.7914L111.195 12.891L110.926 18.7738L108.223 18.6746L108.492 12.7914Z" fill="#405C99"/>
<path d="M179.323 84L182.562 84.1187L182.239 91.13L179 91.0117L179.323 84Z" fill="#405C99"/>
<path d="M10.6027 81.5249C11.1958 80.7509 11.5873 79.831 11.7393 78.854C11.8914 77.877 11.799 76.8757 11.471 75.9466C10.6013 73.5681 8.34677 72.1053 6.23836 70.8149L0 67L0.952641 70.6048C1.63746 73.1972 2.35113 75.853 3.87277 78.0285C5.3944 80.204 7.91794 81.824 10.4786 81.4457" fill="#405C99"/>
<path d="M165.208 166.525C164.615 165.751 164.223 164.831 164.071 163.854C163.919 162.877 164.012 161.876 164.34 160.947C165.209 158.568 167.464 157.105 169.572 155.815L175.811 152L174.858 155.605C174.173 158.197 173.459 160.853 171.938 163.029C170.416 165.204 167.893 166.824 165.332 166.446" fill="#405C99"/>
<path d="M187.583 1.88357e-06C188.186 0.74604 188.584 1.63262 188.738 2.57433C188.893 3.51604 188.799 4.48115 188.466 5.37666C187.582 7.66927 185.291 9.07919 183.149 10.323L176.811 14L177.778 10.5255C178.474 8.02671 179.199 5.46689 180.745 3.36999C182.291 1.2731 184.855 -0.288353 187.457 0.0763273" fill="#405C99"/>
</svg>
