<svg width="240" height="180" viewBox="0 0 240 180" fill="none" xmlns="http://www.w3.org/2000/svg">
<path d="M55.9034 93.9558C43.7286 81.6062 38.5865 68.7226 41.424 57.6784C45.0654 43.5056 61.2424 33.7062 85.807 30.7931L85.8977 31.6061C61.6751 34.4785 45.7449 44.0579 42.1917 57.8877C39.4302 68.6359 44.4976 81.2381 56.4605 93.3729L55.9034 93.9558Z" fill="white" fill-opacity="0.15"/>
<path d="M208.229 132.648L207.974 131.873C221.564 127.138 230.064 119.511 232.555 109.816C235.721 97.4916 228.842 83.1895 213.184 69.5446C197.447 55.8304 174.753 44.4511 149.282 37.5032L149.485 36.7122C175.067 43.6906 197.872 55.1289 213.697 68.92C229.602 82.7803 236.572 97.3786 233.323 110.026C230.76 119.999 222.083 127.821 208.229 132.648Z" fill="white" fill-opacity="0.15"/>
<path d="M83.4428 138.135C53.5858 124.49 30.5786 106.788 18.6599 88.2892L19.3214 87.8365C31.1577 106.208 54.044 123.805 83.7646 137.387L83.4428 138.135Z" fill="white" fill-opacity="0.15"/>
<path d="M188.418 161.773C185.338 161.773 182.206 161.702 179.021 161.56L179.055 160.743C202.822 161.803 223.793 158.872 239.703 152.266L240 153.025C226.121 158.787 208.431 161.773 188.418 161.773Z" fill="white" fill-opacity="0.15"/>
<path d="M171.094 31.5267C166.159 29.8712 161.083 28.3297 156.008 26.9451C126.797 18.977 98.0835 16.148 72.9689 18.7653L72.889 17.9511C98.0972 15.3252 126.909 18.1611 156.211 26.1541C161.301 27.5427 166.391 29.0886 171.34 30.7489L171.094 31.5267Z" fill="white" fill-opacity="0.15"/>
<path d="M37.2435 95.1829C25.0687 82.8334 19.9266 69.9497 22.7641 58.9056C26.4055 44.7327 42.5825 34.9334 67.1471 32.0203L67.2378 32.8332C43.0152 35.7056 27.085 45.2851 23.5318 59.1149C20.7703 69.8631 25.8377 82.4653 37.8006 94.6001L37.2435 95.1829Z" fill="white" fill-opacity="0.15"/>
<path d="M189.569 133.875L189.314 133.1C202.904 128.365 211.404 120.739 213.895 111.044C217.061 98.719 210.182 84.4169 194.524 70.772C178.787 57.0578 156.093 45.6785 130.622 38.7306L130.825 37.9396C156.407 44.918 179.212 56.3563 195.037 70.1474C210.942 84.0076 217.912 98.6059 214.663 111.253C212.1 121.226 203.423 129.049 189.569 133.875Z" fill="white" fill-opacity="0.15"/>
<path d="M64.7829 139.362C34.9258 125.717 11.9187 108.015 0 89.5164L0.661443 89.0637C12.4978 107.435 35.3841 125.032 65.1047 138.614L64.7829 139.362Z" fill="white" fill-opacity="0.15"/>
<path d="M169.758 163C166.678 163 163.546 162.929 160.361 162.787L160.395 161.97C184.163 163.03 205.133 160.1 221.043 153.493L221.34 154.252C207.461 160.015 189.771 163 169.758 163Z" fill="white" fill-opacity="0.15"/>
<path d="M152.435 32.754C147.5 31.0985 142.424 29.557 137.348 28.1724C108.138 20.2043 79.4239 17.3753 54.3094 19.9926L54.2295 19.1784C79.4377 16.5525 108.25 19.3884 137.551 27.3814C142.641 28.77 147.732 30.3159 152.68 31.9762L152.435 32.754Z" fill="white" fill-opacity="0.15"/>
<path d="M186.116 27.5424C172.236 12.8839 153.129 4.22707 132.902 3.4325V80.4761L186.116 27.5424Z" fill="#434369"/>
<path d="M186.018 37.1353L132.804 90.069H207.172C207.198 70.3802 199.626 51.4325 186.018 37.1353Z" fill="#E8F9FF"/>
<path d="M207.349 95.6051C207.352 100.407 206.905 105.199 206.014 109.918C205.945 110.292 205.873 110.662 205.796 111.032C204.117 119.265 201.086 127.166 196.824 134.418C196.598 134.808 196.364 135.197 196.13 135.578V135.582C191.931 142.456 186.679 148.636 180.564 153.9C180.261 154.163 179.958 154.422 179.652 154.678C166.511 165.675 150.059 171.998 132.899 172.648V95.6051H207.349Z" fill="white"/>
<path d="M125.378 172.716C126.407 172.716 127.43 172.69 128.45 172.65V95.6034L72.1221 151.635C86.4995 165.195 105.565 172.742 125.378 172.716Z" fill="#E8F9FF"/>
<path d="M125.483 12.9565C82.6695 12.9565 47.9624 47.4809 47.9624 90.0689H128.636V13.0253C127.59 12.9836 126.54 12.9565 125.483 12.9565Z" fill="#67D9FD"/>
<path d="M106.989 95.6051L90.6906 111.818L90.1577 112.348L90.146 112.359L75.9333 126.493L75.3929 127.031L60.0375 142.306L59.4968 142.843V142.847L50.6594 151.634C42.9859 144.436 36.8744 135.752 32.7013 126.116C28.5281 116.48 26.3816 106.097 26.3939 95.6051H106.989Z" fill="#F6807C"/>
<path d="M202.65 180C204.702 180 206.366 178.335 206.366 176.282C206.366 174.228 204.702 172.564 202.65 172.564C200.597 172.564 198.933 174.228 198.933 176.282C198.933 178.335 200.597 180 202.65 180Z" fill="#405C99"/>
<path d="M214.457 49.6118C216.51 49.6118 218.174 47.9471 218.174 45.8936C218.174 43.8401 216.51 42.1754 214.457 42.1754C212.405 42.1754 210.74 43.8401 210.74 45.8936C210.74 47.9471 212.405 49.6118 214.457 49.6118Z" fill="#F6807C"/>
<path d="M47.7547 15.8269C49.8074 15.8269 51.4715 14.1622 51.4715 12.1087C51.4715 10.0552 49.8074 8.3905 47.7547 8.3905C45.7019 8.3905 44.0378 10.0552 44.0378 12.1087C44.0378 14.1622 45.7019 15.8269 47.7547 15.8269Z" fill="#405C99"/>
<path d="M59.4968 142.846C46.7773 130.316 39.3449 113.429 38.7168 95.6326L40.2495 95.5779C40.8641 112.987 48.135 129.507 60.5779 141.765L59.4968 142.846Z" fill="white"/>
<path d="M75.9488 126.509L74.837 127.554C66.3637 118.654 60.3833 107.7 57.4917 95.7844L58.2357 95.6051H59.0253C61.8692 107.187 67.6965 117.833 75.9334 126.493L75.9488 126.509Z" fill="white"/>
<path d="M90.733 111.871L90.1579 112.348L90.1463 112.359L89.556 112.847C85.254 107.729 81.7087 102.026 79.0276 95.9102L79.7292 95.6051H80.569C83.1658 101.453 86.5728 106.91 90.6909 111.818C90.7037 111.836 90.7178 111.854 90.733 111.871Z" fill="white"/>
<path d="M170.515 78.7835C171.567 79.2379 172.714 79.4043 173.847 79.2667C174.979 79.1291 176.058 78.6921 176.98 77.9977C179.33 76.1845 180.211 73.0194 180.949 70.0848L183.129 61.4027L179.447 63.7151C176.8 65.3777 174.091 67.0954 172.18 69.6194C170.269 72.1435 169.302 75.6807 170.562 78.6097" fill="#405C99"/>
<path d="M30.3257 63.4677L28.4904 65.8497L22 61.8778L23.8349 59.4958L30.3257 63.4677Z" fill="#405C99"/>
<path d="M153.041 80.0905L154.662 82.5929L147.843 86.1015L146.222 83.5994L153.041 80.0905Z" fill="#405C99"/>
<path d="M89.802 0L93.041 0.118722L92.7185 7.13L89.4791 7.01172L89.802 0Z" fill="#405C99"/>
<path d="M182.314 164.525C183.024 163.603 183.493 162.506 183.675 161.342C183.858 160.177 183.747 158.984 183.354 157.877C182.312 155.042 179.611 153.299 177.085 151.761L169.61 147.214L170.752 151.51C171.572 154.6 172.427 157.765 174.25 160.358C176.073 162.951 179.097 164.882 182.165 164.431" fill="#405C99"/>
</svg>
