<svg width="240" height="214" viewBox="0 0 240 214" fill="none" xmlns="http://www.w3.org/2000/svg">
<path d="M55.9034 110.956C43.7286 98.6062 38.5865 85.7226 41.424 74.6784C45.0654 60.5056 61.2424 50.7062 85.807 47.7931L85.8977 48.6061C61.6751 51.4785 45.7449 61.0579 42.1917 74.8877C39.4302 85.6359 44.4976 98.2381 56.4605 110.373L55.9034 110.956Z" fill="white" fill-opacity="0.15"/>
<path d="M208.229 149.648L207.974 148.873C221.564 144.138 230.064 136.511 232.555 126.816C235.721 114.492 228.842 100.19 213.184 86.5446C197.447 72.8304 174.753 61.4511 149.282 54.5032L149.485 53.7122C175.067 60.6906 197.872 72.1289 213.697 85.92C229.602 99.7803 236.572 114.379 233.323 127.026C230.76 136.999 222.083 144.821 208.229 149.648Z" fill="white" fill-opacity="0.15"/>
<path d="M83.4428 155.135C53.5858 141.49 30.5786 123.788 18.6599 105.289L19.3214 104.837C31.1577 123.208 54.044 140.805 83.7646 154.387L83.4428 155.135Z" fill="white" fill-opacity="0.15"/>
<path d="M188.418 178.773C185.338 178.773 182.206 178.702 179.021 178.56L179.055 177.743C202.822 178.803 223.793 175.872 239.703 169.266L240 170.025C226.121 175.787 208.431 178.773 188.418 178.773Z" fill="white" fill-opacity="0.15"/>
<path d="M171.094 48.5267C166.159 46.8712 161.083 45.3297 156.008 43.9451C126.797 35.977 98.0835 33.148 72.9689 35.7653L72.889 34.9511C98.0972 32.3252 126.909 35.1611 156.211 43.1541C161.301 44.5427 166.391 46.0886 171.34 47.7489L171.094 48.5267Z" fill="white" fill-opacity="0.15"/>
<path d="M37.2434 112.183C25.0686 99.8334 19.9266 86.9497 22.764 75.9056C26.4055 61.7327 42.5824 51.9334 67.147 49.0203L67.2377 49.8332C43.0151 52.7056 27.0849 62.2851 23.5317 76.1149C20.7702 86.8631 25.8376 99.4653 37.8006 111.6L37.2434 112.183Z" fill="white" fill-opacity="0.15"/>
<path d="M189.569 150.875L189.314 150.1C202.904 145.365 211.404 137.739 213.895 128.044C217.061 115.719 210.182 101.417 194.524 87.772C178.787 74.0578 156.093 62.6785 130.622 55.7306L130.825 54.9396C156.407 61.918 179.212 73.3563 195.037 87.1474C210.942 101.008 217.912 115.606 214.663 128.253C212.1 138.226 203.423 146.049 189.569 150.875Z" fill="white" fill-opacity="0.15"/>
<path d="M64.7829 156.362C34.9258 142.717 11.9187 125.015 0 106.516L0.661443 106.064C12.4978 124.435 35.3841 142.032 65.1047 155.614L64.7829 156.362Z" fill="white" fill-opacity="0.15"/>
<path d="M169.758 180C166.678 180 163.546 179.929 160.361 179.787L160.395 178.97C184.163 180.03 205.133 177.1 221.043 170.493L221.34 171.252C207.461 177.015 189.771 180 169.758 180Z" fill="white" fill-opacity="0.15"/>
<path d="M152.435 49.754C147.5 48.0985 142.424 46.557 137.348 45.1724C108.138 37.2043 79.4239 34.3753 54.3094 36.9926L54.2295 36.1784C79.4377 33.5525 108.25 36.3884 137.551 44.3814C142.641 45.77 147.732 47.3159 152.68 48.9762L152.435 49.754Z" fill="white" fill-opacity="0.15"/>
<path d="M176.775 176.978C172.716 188.89 167.496 200.777 160.808 212.09C160.66 212.345 160.51 212.595 160.358 212.849L143.801 207.601C143.897 207.361 144.001 207.092 144.113 206.799C150.791 189.495 191.081 84.0693 189.273 63.2831C189.467 64.9845 195.77 121.292 176.775 176.978Z" fill="#67D9FD"/>
<path d="M164.002 213.103C163.777 213.333 163.546 213.562 163.314 213.786L150.893 209.849C151.061 209.645 151.257 209.405 151.482 209.134C155.16 204.633 166.096 191.157 176.775 176.978C188.252 161.741 199.433 145.693 201 139.1C200.685 140.599 190.885 186.243 164.002 213.103Z" fill="#67D9FD"/>
<path d="M170.211 37.5643C170.206 37.5643 170.202 37.5656 170.197 37.5658V10.8896C170.197 8.0015 169.052 5.23169 167.014 3.18949C164.976 1.14729 162.211 0 159.329 0H75.9732C73.0907 0 70.3262 1.14729 68.288 3.18949C66.2497 5.23169 65.1046 8.0015 65.1046 10.8896V24.5652C64.8745 24.5701 64.6554 24.6651 64.4944 24.8299C64.3333 24.9946 64.243 25.216 64.2428 25.4466V32.2202C64.2429 32.4509 64.3333 32.6722 64.4943 32.8369C64.6554 33.0017 64.8745 33.0966 65.1046 33.1015V40.1975H65.0604C64.9447 40.1975 64.83 40.2204 64.7231 40.2648C64.6161 40.3092 64.5189 40.3742 64.437 40.4562C64.3552 40.5383 64.2902 40.6356 64.2459 40.7428C64.2016 40.85 64.1788 40.9649 64.1788 41.0808V54.1794C64.1788 54.2954 64.2016 54.4103 64.2459 54.5175C64.2902 54.6246 64.3552 54.722 64.437 54.804C64.5189 54.8861 64.6161 54.9511 64.7231 54.9955C64.83 55.0399 64.9447 55.0628 65.0604 55.0627H65.1046V60.2651H65.0909C64.9751 60.2651 64.8605 60.2879 64.7535 60.3323C64.6465 60.3767 64.5494 60.4418 64.4675 60.5238C64.3856 60.6058 64.3207 60.7032 64.2764 60.8104C64.2321 60.9175 64.2093 61.0324 64.2093 61.1484V74.3751C64.2093 74.4911 64.2321 74.606 64.2764 74.7131C64.3207 74.8203 64.3856 74.9177 64.4675 74.9997C64.5494 75.0817 64.6465 75.1468 64.7535 75.1912C64.8605 75.2356 64.9751 75.2584 65.0909 75.2584H65.1046V203.11C65.1046 205.998 66.2497 208.768 68.288 210.811C70.3262 212.853 73.0907 214 75.9732 214H159.329C162.211 214 164.976 212.853 167.014 210.811C169.052 208.768 170.197 205.998 170.197 203.11V63.504C170.202 63.504 170.206 63.5053 170.211 63.5053C170.417 63.5053 170.621 63.4647 170.812 63.3856C171.002 63.3066 171.175 63.1907 171.321 63.0447C171.467 62.8986 171.582 62.7252 171.661 62.5344C171.74 62.3436 171.781 62.1391 171.781 61.9325V39.1372C171.781 38.7201 171.615 38.32 171.321 38.025C171.026 37.73 170.627 37.5643 170.211 37.5643Z" fill="#434369"/>
<path d="M163.708 13.9377V200.059C163.707 202.277 162.827 204.403 161.262 205.971C159.696 207.539 157.574 208.419 155.36 208.419H79.9411C77.7279 208.419 75.6052 207.539 74.0399 205.971C72.4746 204.403 71.5949 202.277 71.5941 200.059V13.9377C71.5941 11.7196 72.4735 9.59242 74.0389 8.024C75.6042 6.45559 77.7274 5.57446 79.9411 5.57446H91.2269V7.04208C91.2277 8.86824 91.9521 10.6194 93.2409 11.9107C94.5297 13.202 96.2775 13.9278 98.1001 13.9286H136.471C138.291 13.9245 140.035 13.1972 141.321 11.9062C142.607 10.6151 143.329 8.86585 143.329 7.04208V5.58972H155.36C157.572 5.58971 159.692 6.46875 161.257 8.03386C162.822 9.59898 163.704 11.7223 163.708 13.9377Z" fill="white"/>
<path d="M88.4858 30.2042H80.2635C80.0616 30.2042 79.868 30.1238 79.7252 29.9808C79.5824 29.8377 79.5022 29.6437 79.5022 29.4414C79.5022 29.2391 79.5824 29.0451 79.7252 28.902C79.868 28.759 80.0616 28.6786 80.2635 28.6786H88.4858C88.6877 28.6786 88.8813 28.759 89.0241 28.902C89.1669 29.0451 89.2471 29.2391 89.2471 29.4414C89.2471 29.6437 89.1669 29.8377 89.0241 29.9808C88.8813 30.1238 88.6877 30.2042 88.4858 30.2042Z" fill="#434369"/>
<path d="M88.4858 32.34H80.2635C80.0616 32.34 79.868 32.2597 79.7252 32.1166C79.5824 31.9736 79.5022 31.7796 79.5022 31.5772C79.5022 31.3749 79.5824 31.1809 79.7252 31.0379C79.868 30.8948 80.0616 30.8145 80.2635 30.8145H88.4858C88.6877 30.8145 88.8813 30.8948 89.0241 31.0379C89.1669 31.1809 89.2471 31.3749 89.2471 31.5772C89.2471 31.7796 89.1669 31.9736 89.0241 32.1166C88.8813 32.2597 88.6877 32.34 88.4858 32.34Z" fill="#434369"/>
<path d="M88.4858 34.4759H80.2635C80.0616 34.4759 79.868 34.3955 79.7252 34.2525C79.5824 34.1094 79.5022 33.9154 79.5022 33.7131C79.5022 33.5108 79.5824 33.3168 79.7252 33.1737C79.868 33.0307 80.0616 32.9503 80.2635 32.9503H88.4858C88.6877 32.9503 88.8813 33.0307 89.0241 33.1737C89.1669 33.3168 89.2471 33.5108 89.2471 33.7131C89.2471 33.9154 89.1669 34.1094 89.0241 34.2525C88.8813 34.3955 88.6877 34.4759 88.4858 34.4759Z" fill="#434369"/>
<path d="M152.221 32.3552H151.944L151.837 32.2667C152.187 31.8486 152.379 31.3204 152.379 30.7747C152.377 30.3257 152.241 29.8875 151.991 29.5156C151.74 29.1436 151.384 28.8546 150.969 28.685C150.554 28.5154 150.099 28.4729 149.66 28.5629C149.22 28.6528 148.818 28.8712 148.503 29.1904C148.188 29.5096 147.974 29.9152 147.889 30.356C147.804 30.7968 147.851 31.253 148.025 31.6669C148.199 32.0808 148.491 32.4337 148.865 32.6812C149.239 32.9286 149.678 33.0594 150.126 33.057C150.669 33.0531 151.194 32.8612 151.612 32.5138L151.715 32.6023V32.883L153.463 34.6375L153.987 34.1127L152.221 32.3552ZM150.126 32.3552C149.814 32.3564 149.508 32.2649 149.248 32.0922C148.988 31.9196 148.785 31.6735 148.664 31.3852C148.544 31.0968 148.512 30.7792 148.571 30.4723C148.631 30.1655 148.78 29.8833 149 29.6614C149.22 29.4395 149.5 29.2879 149.806 29.2258C150.112 29.1636 150.429 29.1937 150.718 29.3122C151.006 29.4307 151.253 29.6323 151.428 29.8915C151.602 30.1508 151.696 30.456 151.697 30.7686L151.697 30.7747C151.698 30.981 151.659 31.1856 151.581 31.3767C151.503 31.5678 151.389 31.7417 151.244 31.8885C151.099 32.0352 150.927 32.152 150.737 32.2321C150.547 32.3121 150.344 32.354 150.138 32.3552C150.134 32.3552 150.13 32.3552 150.126 32.3552H150.126Z" fill="#434369"/>
<path d="M105.236 58.275H90.4652C89.5767 58.275 88.7247 57.9213 88.0965 57.2919C87.4683 56.6625 87.1154 55.8088 87.1154 54.9187C87.1154 54.0285 87.4683 53.1748 88.0965 52.5454C88.7247 51.916 89.5767 51.5624 90.4652 51.5624H105.236C106.125 51.5624 106.977 51.916 107.605 52.5454C108.233 53.1748 108.586 54.0285 108.586 54.9187C108.586 55.8088 108.233 56.6625 107.605 57.2919C106.977 57.9213 106.125 58.275 105.236 58.275Z" fill="#F6807C"/>
<path d="M150.457 65.5978H88.9425C88.4579 65.5978 87.9932 65.4049 87.6505 65.0616C87.3079 64.7183 87.1154 64.2526 87.1154 63.7671C87.1154 63.2816 87.3079 62.8159 87.6505 62.4726C87.9932 62.1293 88.4579 61.9364 88.9425 61.9364H150.457C150.942 61.9364 151.406 62.1293 151.749 62.4726C152.092 62.8159 152.284 63.2816 152.284 63.7671C152.284 64.2526 152.092 64.7183 151.749 65.0616C151.406 65.4049 150.942 65.5978 150.457 65.5978Z" fill="#E6E6E6"/>
<path d="M111.539 72.9206H88.9425C88.4579 72.9206 87.9932 72.7277 87.6505 72.3844C87.3079 72.041 87.1154 71.5754 87.1154 71.0899C87.1154 70.6043 87.3079 70.1387 87.6505 69.7954C87.9932 69.452 88.4579 69.2592 88.9425 69.2592H111.539C112.023 69.2592 112.488 69.452 112.831 69.7954C113.173 70.1387 113.366 70.6043 113.366 71.0899C113.366 71.5754 113.173 72.041 112.831 72.3844C112.488 72.7277 112.023 72.9206 111.539 72.9206Z" fill="#E6E6E6"/>
<path d="M105.236 139.436H90.4652C89.5767 139.436 88.7247 139.083 88.0965 138.453C87.4683 137.824 87.1154 136.97 87.1154 136.08C87.1154 135.19 87.4683 134.336 88.0965 133.707C88.7247 133.077 89.5767 132.724 90.4652 132.724H105.236C106.125 132.724 106.977 133.077 107.605 133.707C108.233 134.336 108.586 135.19 108.586 136.08C108.586 136.97 108.233 137.824 107.605 138.453C106.977 139.083 106.125 139.436 105.236 139.436Z" fill="#67D9FD"/>
<path d="M150.457 146.759H88.9425C88.4579 146.759 87.9932 146.566 87.6505 146.223C87.3079 145.879 87.1154 145.414 87.1154 144.928C87.1154 144.443 87.3079 143.977 87.6505 143.634C87.9932 143.29 88.4579 143.097 88.9425 143.097H150.457C150.942 143.097 151.406 143.29 151.749 143.634C152.092 143.977 152.284 144.443 152.284 144.928C152.284 145.414 152.092 145.879 151.749 146.223C151.406 146.566 150.942 146.759 150.457 146.759Z" fill="#E6E6E6"/>
<path d="M111.539 154.082H88.9425C88.4579 154.082 87.9932 153.889 87.6505 153.545C87.3079 153.202 87.1154 152.737 87.1154 152.251C87.1154 151.765 87.3079 151.3 87.6505 150.956C87.9932 150.613 88.4579 150.42 88.9425 150.42H111.539C112.023 150.42 112.488 150.613 112.831 150.956C113.173 151.3 113.366 151.765 113.366 152.251C113.366 152.737 113.173 153.202 112.831 153.545C112.488 153.889 112.023 154.082 111.539 154.082Z" fill="#E6E6E6"/>
<path d="M105.236 176.966H90.4652C89.5767 176.966 88.7247 176.612 88.0965 175.982C87.4683 175.353 87.1154 174.499 87.1154 173.609C87.1154 172.719 87.4683 171.865 88.0965 171.236C88.7247 170.607 89.5767 170.253 90.4652 170.253H105.236C106.125 170.253 106.977 170.607 107.605 171.236C108.233 171.865 108.586 172.719 108.586 173.609C108.586 174.499 108.233 175.353 107.605 175.982C106.977 176.612 106.125 176.966 105.236 176.966Z" fill="#67D9FD"/>
<path d="M150.457 184.288H88.9425C88.4579 184.288 87.9932 184.095 87.6505 183.752C87.3079 183.409 87.1154 182.943 87.1154 182.458C87.1154 181.972 87.3079 181.506 87.6505 181.163C87.9932 180.82 88.4579 180.627 88.9425 180.627H150.457C150.942 180.627 151.406 180.82 151.749 181.163C152.092 181.506 152.284 181.972 152.284 182.458C152.284 182.943 152.092 183.409 151.749 183.752C151.406 184.095 150.942 184.288 150.457 184.288Z" fill="#E6E6E6"/>
<path d="M111.539 191.611H88.9425C88.4579 191.611 87.9932 191.418 87.6505 191.075C87.3079 190.732 87.1154 190.266 87.1154 189.78C87.1154 189.295 87.3079 188.829 87.6505 188.486C87.9932 188.143 88.4579 187.95 88.9425 187.95H111.539C112.023 187.95 112.488 188.143 112.831 188.486C113.173 188.829 113.366 189.295 113.366 189.78C113.366 190.266 113.173 190.732 112.831 191.075C112.488 191.418 112.023 191.611 111.539 191.611Z" fill="#E6E6E6"/>
<path d="M159.136 120.366H41.5885C40.9022 120.366 40.2443 120.092 39.759 119.606C39.2738 119.12 39.0008 118.46 39 117.773V85.7356C39.0008 85.048 39.2737 84.3888 39.759 83.9026C40.2443 83.4163 40.9022 83.1429 41.5885 83.1421H159.136C159.822 83.1429 160.48 83.4164 160.966 83.9026C161.451 84.3888 161.724 85.048 161.725 85.7356V117.773C161.724 118.46 161.451 119.12 160.966 119.606C160.48 120.092 159.822 120.366 159.136 120.366Z" fill="#67D9FD"/>
<path d="M83.3931 97.7876H62.9733C61.6765 97.7876 60.6215 96.282 60.6215 94.4314C60.6215 92.5807 61.6765 91.0751 62.9733 91.0751H83.3931C84.6899 91.0751 85.745 92.5807 85.745 94.4314C85.745 96.282 84.6899 97.7876 83.3931 97.7876Z" fill="white"/>
<path d="M138.276 105.111H62.4486C61.964 105.111 61.4992 104.918 61.1566 104.574C60.8139 104.231 60.6214 103.765 60.6214 103.28C60.6214 102.794 60.8139 102.329 61.1566 101.985C61.4992 101.642 61.964 101.449 62.4486 101.449H138.276C138.761 101.449 139.225 101.642 139.568 101.985C139.911 102.329 140.103 102.794 140.103 103.28C140.103 103.765 139.911 104.231 139.568 104.574C139.225 104.918 138.761 105.111 138.276 105.111Z" fill="#434369"/>
<path d="M99.3574 112.433H62.4486C61.964 112.433 61.4992 112.24 61.1566 111.897C60.8139 111.554 60.6214 111.088 60.6214 110.603C60.6214 110.117 60.8139 109.651 61.1566 109.308C61.4992 108.965 61.964 108.772 62.4486 108.772H99.3574C99.842 108.772 100.307 108.965 100.649 109.308C100.992 109.651 101.185 110.117 101.185 110.603C101.185 111.088 100.992 111.554 100.649 111.897C100.307 112.24 99.842 112.433 99.3574 112.433Z" fill="#434369"/>
<path d="M41.6027 65.5249C42.1958 64.7509 42.5873 63.831 42.7393 62.854C42.8914 61.877 42.799 60.8757 42.471 59.9466C41.6013 57.5681 39.3468 56.1053 37.2384 54.8149L31 51L31.9526 54.6048C32.6375 57.1972 33.3511 59.853 34.8728 62.0285C36.3944 64.204 38.9179 65.824 41.4786 65.4457" fill="#405C99"/>
<path d="M199.208 199.525C198.615 198.751 198.223 197.831 198.071 196.854C197.919 195.877 198.012 194.876 198.34 193.947C199.209 191.568 201.464 190.105 203.572 188.815L209.811 185L208.858 188.605C208.173 191.197 207.459 193.853 205.938 196.029C204.416 198.204 201.893 199.824 199.332 199.446" fill="#405C99"/>
<path d="M205.773 8C206.375 8.74604 206.773 9.63262 206.928 10.5743C207.082 11.516 206.988 12.4811 206.655 13.3767C205.771 15.6693 203.481 17.0792 201.338 18.323L195 22L195.968 18.5255C196.664 16.0267 197.389 13.4669 198.935 11.37C200.481 9.2731 203.045 7.71165 205.647 8.07633" fill="#405C99"/>
<path d="M19.7168 109.436C21.7696 109.436 23.4336 107.772 23.4336 105.718C23.4336 103.665 21.7696 102 19.7168 102C17.6641 102 16 103.665 16 105.718C16 107.772 17.6641 109.436 19.7168 109.436Z" fill="#405C99"/>
<path d="M202.717 127.436C204.77 127.436 206.434 125.772 206.434 123.718C206.434 121.665 204.77 120 202.717 120C200.664 120 199 121.665 199 123.718C199 125.772 200.664 127.436 202.717 127.436Z" fill="#405C99"/>
<path d="M220.717 160.436C222.77 160.436 224.434 158.772 224.434 156.718C224.434 154.665 222.77 153 220.717 153C218.664 153 217 154.665 217 156.718C217 158.772 218.664 160.436 220.717 160.436Z" fill="#F6807C"/>
<path d="M37.9489 160.333L36.4171 162.331L31 158.999L32.5314 157L37.9489 160.333Z" fill="#405C99"/>
<path d="M43.6011 168.92L44.9539 171.019L39.263 173.963L37.9103 171.864L43.6011 168.92Z" fill="#405C99"/>
<path d="M49.4921 159.791L52.1955 159.891L51.9264 165.774L49.2227 165.675L49.4921 159.791Z" fill="#405C99"/>
<path d="M212.965 63.6494L210.639 64.6143L207.614 59.0197L209.94 58.0545L212.965 63.6494Z" fill="#405C99"/>
<path d="M223.232 68.9522L225.524 70.3902L222.349 75.3503L220.057 73.9125L223.232 68.9522Z" fill="#405C99"/>
<path d="M178.295 128.744L181.393 129.697L179.267 136.386L176.169 135.433L178.295 128.744Z" fill="#405C99"/>
</svg>
